solid OpenSCAD_Model
  facet normal -1 0 0
    outer loop
      vertex -24 -2 -14
      vertex -24 -2 22
      vertex -24 0 22
    endloop
  endfacet
  facet normal 0 0 -1
    outer loop
      vertex -24 -2 -14
      vertex -24 0 -14
      vertex 24 0 -14
    endloop
  endfacet
  facet normal -1 0 0
    outer loop
      vertex -24 -2 -14
      vertex -24 0 22
      vertex -24 0 -14
    endloop
  endfacet
  facet normal 0 -1 0
    outer loop
      vertex -24 -2 -14
      vertex -17 -2 10
      vertex -16.918140353427347 -2 11.66629138560253
    endloop
  endfacet
  facet normal 0 -1 0
    outer loop
      vertex -24 -2 -14
      vertex -16.918140353427347 -2 8.33370861439747
      vertex -17 -2 10
    endloop
  endfacet
  facet normal 0 -1 0
    outer loop
      vertex -24 -2 -14
      vertex -16.918140353427347 -2 11.66629138560253
      vertex -24 -2 22
    endloop
  endfacet
  facet normal 0 -1 0
    outer loop
      vertex -24 -2 -14
      vertex -16.67334976685492 -2 6.683464525725819
      vertex -16.918140353427347 -2 8.33370861439747
    endloop
  endfacet
  facet normal 0 -1 0
    outer loop
      vertex -24 -2 -14
      vertex -16.26798570744755 -2 5.065160486674141
      vertex -16.67334976685492 -2 6.683464525725819
    endloop
  endfacet
  facet normal 0 -1 0
    outer loop
      vertex -24 -2 -14
      vertex -15.705952052691874 -2 3.494381649793474
      vertex -16.26798570744755 -2 5.065160486674141
    endloop
  endfacet
  facet normal 0 -1 0
    outer loop
      vertex -24 -2 -14
      vertex -14.992661493922036 -2 1.9862554739580407
      vertex -15.705952052691874 -2 3.494381649793474
    endloop
  endfacet
  facet normal 0 -1 0
    outer loop
      vertex -24 -2 -14
      vertex -14.134983409143269 -2 0.5553060386667639
      vertex -14.992661493922036 -2 1.9862554739580407
    endloop
  endfacet
  facet normal 0 -1 0
    outer loop
      vertex -24 -2 -14
      vertex -13.141177707166529 -2 -0.7846858307819726
      vertex -14.134983409143269 -2 0.5553060386667639
    endloop
  endfacet
  facet normal 0 -1 0
    outer loop
      vertex -24 -2 -14
      vertex -12.020815280171309 -2 -2.020815280171309
      vertex -13.141177707166529 -2 -0.7846858307819726
    endloop
  endfacet
  facet normal 0 -1 0
    outer loop
      vertex -24 -2 -14
      vertex -10.784685830781973 -2 -3.1411777071665288
      vertex -12.020815280171309 -2 -2.020815280171309
    endloop
  endfacet
  facet normal 0 -1 0
    outer loop
      vertex -24 -2 -14
      vertex -9.444693961333236 -2 -4.134983409143269
      vertex -10.784685830781973 -2 -3.1411777071665288
    endloop
  endfacet
  facet normal 0 -1 0
    outer loop
      vertex -24 -2 -14
      vertex -8.01374452604196 -2 -4.992661493922036
      vertex -9.444693961333236 -2 -4.134983409143269
    endloop
  endfacet
  facet normal 0 -1 0
    outer loop
      vertex -24 -2 -14
      vertex -6.505618350206526 -2 -5.705952052691874
      vertex -8.01374452604196 -2 -4.992661493922036
    endloop
  endfacet
  facet normal 0 -1 0
    outer loop
      vertex -24 -2 -14
      vertex -4.934839513325859 -2 -6.267985707447551
      vertex -6.505618350206526 -2 -5.705952052691874
    endloop
  endfacet
  facet normal 0 -1 0
    outer loop
      vertex -24 -2 -14
      vertex -3.3165354742741804 -2 -6.673349766854919
      vertex -4.934839513325859 -2 -6.267985707447551
    endloop
  endfacet
  facet normal 0 -1 0
    outer loop
      vertex -24 -2 -14
      vertex 24 -2 -14
      vertex -3.3165354742741804 -2 -6.673349766854919
    endloop
  endfacet
  facet normal 0 0 -1
    outer loop
      vertex -24 -2 -14
      vertex 24 0 -14
      vertex 24 -2 -14
    endloop
  endfacet
  facet normal 0 -1 0
    outer loop
      vertex -24 -2 22
      vertex -16.918140353427347 -2 11.66629138560253
      vertex -16.67334976685492 -2 13.31653547427418
    endloop
  endfacet
  facet normal 0 -1 0
    outer loop
      vertex -24 -2 22
      vertex -16.67334976685492 -2 13.31653547427418
      vertex -16.652442991522047 -2 13.400000000000006
    endloop
  endfacet
  facet normal 0 -1 0
    outer loop
      vertex -24 -2 22
      vertex -16.652442991522047 -2 13.400000000000006
      vertex -14.59313726726646 -2 13.400000000000006
    endloop
  endfacet
  facet normal 0 -1 0
    outer loop
      vertex -24 -2 22
      vertex -14.59313726726646 -2 13.400000000000006
      vertex 5.740251485476347 -2 -3.8581929876693017
    endloop
  endfacet
  facet normal 0 -1 0
    outer loop
      vertex -24 -2 22
      vertex 5.740251485476347 -2 -3.8581929876693017
      vertex 7.070951052389964 -2 -3.228818965225326
    endloop
  endfacet
  facet normal 0 -1 0
    outer loop
      vertex -24 -2 22
      vertex 7.070951052389964 -2 -3.228818965225326
      vertex 8.333553495294034 -2 -2.472044184538179
    endloop
  endfacet
  facet normal 0 -1 0
    outer loop
      vertex -24 -2 22
      vertex 8.333553495294034 -2 -2.472044184538179
      vertex 9.515899262454683 -2 -1.595156800441055
    endloop
  endfacet
  facet normal 0 -1 0
    outer loop
      vertex -24 -2 22
      vertex 9.515899262454683 -2 -1.595156800441055
      vertex 10.606601717798213 -2 -0.6066017177982133
    endloop
  endfacet
  facet normal 0 -1 0
    outer loop
      vertex -24 -2 22
      vertex 10.606601717798213 -2 -0.6066017177982133
      vertex 11.595156800441055 -2 0.484100737545317
    endloop
  endfacet
  facet normal 0 -1 0
    outer loop
      vertex -24 -2 22
      vertex 11.595156800441055 -2 0.484100737545317
      vertex 12.472044184538179 -2 1.6664465047059664
    endloop
  endfacet
  facet normal 0 -1 0
    outer loop
      vertex -24 -2 22
      vertex 12.472044184538179 -2 1.6664465047059664
      vertex 13.228818965225326 -2 2.9290489476100356
    endloop
  endfacet
  facet normal 0 -1 0
    outer loop
      vertex -24 -2 22
      vertex 13.228818965225326 -2 2.9290489476100356
      vertex 13.858192987669302 -2 4.259748514523653
    endloop
  endfacet
  facet normal 0 -1 0
    outer loop
      vertex -24 -2 22
      vertex 13.858192987669302 -2 4.259748514523653
      vertex 14.354105035983132 -2 5.645729841183065
    endloop
  endfacet
  facet normal 0 -1 0
    outer loop
      vertex -24 -2 22
      vertex 14.354105035983132 -2 5.645729841183065
      vertex 14.711779206048456 -2 7.073645169758077
    endloop
  endfacet
  facet normal 0 -1 0
    outer loop
      vertex -24 -2 22
      vertex 14.59313726726646 -2 13.400000000000006
      vertex 24 -2 22
    endloop
  endfacet
  facet normal 0 -1 0
    outer loop
      vertex -24 -2 22
      vertex 14.711779206048456 -2 7.073645169758077
      vertex 14.927770900082955 -2 8.529742895056591
    endloop
  endfacet
  facet normal 0 -1 0
    outer loop
      vertex -24 -2 22
      vertex 14.711779206048456 -2 12.926354830241923
      vertex 14.59313726726646 -2 13.400000000000006
    endloop
  endfacet
  facet normal 0 -1 0
    outer loop
      vertex -24 -2 22
      vertex 14.927770900082955 -2 8.529742895056591
      vertex 15 -2 10
    endloop
  endfacet
  facet normal 0 -1 0
    outer loop
      vertex -24 -2 22
      vertex 14.927770900082955 -2 11.470257104943409
      vertex 14.711779206048456 -2 12.926354830241923
    endloop
  endfacet
  facet normal 0 -1 0
    outer loop
      vertex -24 -2 22
      vertex 15 -2 10
      vertex 14.927770900082955 -2 11.470257104943409
    endloop
  endfacet
  facet normal 0 0 1
    outer loop
      vertex -24 -2 22
      vertex 24 -2 22
      vertex -24 0 22
    endloop
  endfacet
  facet normal 0 1 0
    outer loop
      vertex -24 0 -14
      vertex -24 0 22
      vertex 24 0 -14
    endloop
  endfacet
  facet normal 0 0 1
    outer loop
      vertex -24 0 22
      vertex 24 -2 22
      vertex 24 0 22
    endloop
  endfacet
  facet normal 0 1 0
    outer loop
      vertex -24 0 22
      vertex 24 0 22
      vertex 24 0 -14
    endloop
  endfacet
  facet normal -0.9987954562051724 0 -0.04906767432741797
    outer loop
      vertex -17 -20 10
      vertex -17 -2 10
      vertex -16.918140353427347 -2 8.33370861439747
    endloop
  endfacet
  facet normal 0 -1 0
    outer loop
      vertex -17 -20 10
      vertex -16.918140353427347 -20 8.33370861439747
      vertex -15 -20 10
    endloop
  endfacet
  facet normal -0.9987954562051724 0 0.04906767432741797
    outer loop
      vertex -17 -20 10
      vertex -16.918140353427347 -20 11.66629138560253
      vertex -17 -2 10
    endloop
  endfacet
  facet normal -0.9987954562051724 0 -0.04906767432741797
    outer loop
      vertex -17 -20 10
      vertex -16.918140353427347 -2 8.33370861439747
      vertex -16.918140353427347 -20 8.33370861439747
    endloop
  endfacet
  facet normal 0 -1 0
    outer loop
      vertex -17 -20 10
      vertex -15 -20 10
      vertex -14.927770900082955 -20 11.470257104943409
    endloop
  endfacet
  facet normal 0 -1 0
    outer loop
      vertex -17 -20 10
      vertex -14.927770900082955 -20 11.470257104943409
      vertex -16.918140353427347 -20 11.66629138560253
    endloop
  endfacet
  facet normal -0.9987954562051724 0 0.04906767432741797
    outer loop
      vertex -17 -2 10
      vertex -16.918140353427347 -20 11.66629138560253
      vertex -16.918140353427347 -2 11.66629138560253
    endloop
  endfacet
  facet normal -0.9891765099647811 0 -0.14673047445536094
    outer loop
      vertex -16.918140353427347 -20 8.33370861439747
      vertex -16.918140353427347 -2 8.33370861439747
      vertex -16.67334976685492 -2 6.683464525725819
    endloop
  endfacet
  facet normal 0 -1 0
    outer loop
      vertex -16.918140353427347 -20 8.33370861439747
      vertex -16.67334976685492 -20 6.683464525725819
      vertex -14.927770900082955 -20 8.529742895056591
    endloop
  endfacet
  facet normal -0.9891765099647811 0 -0.14673047445536094
    outer loop
      vertex -16.918140353427347 -20 8.33370861439747
      vertex -16.67334976685492 -2 6.683464525725819
      vertex -16.67334976685492 -20 6.683464525725819
    endloop
  endfacet
  facet normal 0 -1 0
    outer loop
      vertex -16.918140353427347 -20 8.33370861439747
      vertex -14.927770900082955 -20 8.529742895056591
      vertex -15 -20 10
    endloop
  endfacet
  facet normal -0.9891765099647811 0 0.14673047445536094
    outer loop
      vertex -16.918140353427347 -20 11.66629138560253
      vertex -16.67334976685492 -20 13.31653547427418
      vertex -16.918140353427347 -2 11.66629138560253
    endloop
  endfacet
  facet normal 0 -1 0
    outer loop
      vertex -16.918140353427347 -20 11.66629138560253
      vertex -14.927770900082955 -20 11.470257104943409
      vertex -14.711779206048456 -20 12.926354830241923
    endloop
  endfacet
  facet normal 0 -1 0
    outer loop
      vertex -16.918140353427347 -20 11.66629138560253
      vertex -14.711779206048456 -20 12.926354830241923
      vertex -16.67334976685492 -20 13.31653547427418
    endloop
  endfacet
  facet normal -0.9891765099647811 0 0.14673047445536094
    outer loop
      vertex -16.918140353427347 -2 11.66629138560253
      vertex -16.67334976685492 -20 13.31653547427418
      vertex -16.67334976685492 -2 13.31653547427418
    endloop
  endfacet
  facet normal -0.9700312531945438 0 -0.2429801799032649
    outer loop
      vertex -16.67334976685492 -20 6.683464525725819
      vertex -16.67334976685492 -2 6.683464525725819
      vertex -16.26798570744755 -2 5.065160486674141
    endloop
  endfacet
  facet normal 0 -1 0
    outer loop
      vertex -16.67334976685492 -20 6.683464525725819
      vertex -16.26798570744755 -20 5.065160486674141
      vertex -14.711779206048456 -20 7.073645169758077
    endloop
  endfacet
  facet normal -0.9700312531945438 0 -0.2429801799032649
    outer loop
      vertex -16.67334976685492 -20 6.683464525725819
      vertex -16.26798570744755 -2 5.065160486674141
      vertex -16.26798570744755 -20 5.065160486674141
    endloop
  endfacet
  facet normal 0 -1 0
    outer loop
      vertex -16.67334976685492 -20 6.683464525725819
      vertex -14.711779206048456 -20 7.073645169758077
      vertex -14.927770900082955 -20 8.529742895056591
    endloop
  endfacet
  facet normal -0.9700312531945415 0 0.24298017990327367
    outer loop
      vertex -16.67334976685492 -20 13.31653547427418
      vertex -16.652442991522047 -20 13.400000000000006
      vertex -16.67334976685492 -2 13.31653547427418
    endloop
  endfacet
  facet normal 0 -1 0
    outer loop
      vertex -16.67334976685492 -20 13.31653547427418
      vertex -14.711779206048456 -20 12.926354830241923
      vertex -14.59313726726646 -20 13.400000000000006
    endloop
  endfacet
  facet normal 0 -1 0
    outer loop
      vertex -16.67334976685492 -20 13.31653547427418
      vertex -14.59313726726646 -20 13.400000000000006
      vertex -16.652442991522047 -20 13.400000000000006
    endloop
  endfacet
  facet normal -0.9700312531945415 0 0.24298017990327367
    outer loop
      vertex -16.67334976685492 -2 13.31653547427418
      vertex -16.652442991522047 -20 13.400000000000006
      vertex -16.652442991522047 -2 13.400000000000006
    endloop
  endfacet
  facet normal 0 0 1
    outer loop
      vertex -16.652442991522047 -20 13.400000000000006
      vertex -14.59313726726646 -20 13.400000000000006
      vertex -16.652442991522047 -2 13.400000000000006
    endloop
  endfacet
  facet normal 0 0 1
    outer loop
      vertex -16.652442991522047 -2 13.400000000000006
      vertex -14.59313726726646 -20 13.400000000000006
      vertex -14.59313726726646 -2 13.400000000000006
    endloop
  endfacet
  facet normal -0.9415440651830207 0 -0.3368898533922204
    outer loop
      vertex -16.26798570744755 -20 5.065160486674141
      vertex -16.26798570744755 -2 5.065160486674141
      vertex -15.705952052691874 -2 3.494381649793474
    endloop
  endfacet
  facet normal 0 -1 0
    outer loop
      vertex -16.26798570744755 -20 5.065160486674141
      vertex -15.705952052691874 -20 3.494381649793474
      vertex -14.354105035983132 -20 5.645729841183065
    endloop
  endfacet
  facet normal -0.9415440651830207 0 -0.3368898533922204
    outer loop
      vertex -16.26798570744755 -20 5.065160486674141
      vertex -15.705952052691874 -2 3.494381649793474
      vertex -15.705952052691874 -20 3.494381649793474
    endloop
  endfacet
  facet normal 0 -1 0
    outer loop
      vertex -16.26798570744755 -20 5.065160486674141
      vertex -14.354105035983132 -20 5.645729841183065
      vertex -14.711779206048456 -20 7.073645169758077
    endloop
  endfacet
  facet normal -0.9039892931234436 0 -0.4275550934302817
    outer loop
      vertex -15.705952052691874 -20 3.494381649793474
      vertex -15.705952052691874 -2 3.494381649793474
      vertex -14.992661493922036 -2 1.9862554739580407
    endloop
  endfacet
  facet normal 0 -1 0
    outer loop
      vertex -15.705952052691874 -20 3.494381649793474
      vertex -14.992661493922036 -20 1.9862554739580407
      vertex -13.858192987669302 -20 4.259748514523653
    endloop
  endfacet
  facet normal -0.9039892931234436 0 -0.4275550934302817
    outer loop
      vertex -15.705952052691874 -20 3.494381649793474
      vertex -14.992661493922036 -2 1.9862554739580407
      vertex -14.992661493922036 -20 1.9862554739580407
    endloop
  endfacet
  facet normal 0 -1 0
    outer loop
      vertex -15.705952052691874 -20 3.494381649793474
      vertex -13.858192987669302 -20 4.259748514523653
      vertex -14.354105035983132 -20 5.645729841183065
    endloop
  endfacet
  facet normal 0.9987954562051725 0 -0.04906767432741714
    outer loop
      vertex -15 -20 10
      vertex -15 -2 10
      vertex -14.927770900082955 -20 11.470257104943409
    endloop
  endfacet
  facet normal 0.9987954562051725 0 0.04906767432741714
    outer loop
      vertex -15 -20 10
      vertex -14.927770900082955 -20 8.529742895056591
      vertex -14.927770900082955 -2 8.529742895056591
    endloop
  endfacet
  facet normal 0.9987954562051725 0 0.04906767432741714
    outer loop
      vertex -15 -20 10
      vertex -14.927770900082955 -2 8.529742895056591
      vertex -15 -2 10
    endloop
  endfacet
  facet normal 0 -1 0
    outer loop
      vertex -15 -2 10
      vertex -14.927770900082955 -2 8.529742895056591
      vertex -14.927770900082955 -2 11.470257104943409
    endloop
  endfacet
  facet normal 0.9987954562051725 0 -0.04906767432741714
    outer loop
      vertex -15 -2 10
      vertex -14.927770900082955 -2 11.470257104943409
      vertex -14.927770900082955 -20 11.470257104943409
    endloop
  endfacet
  facet normal -0.8577286100002718 0 -0.5141027441932222
    outer loop
      vertex -14.992661493922036 -20 1.9862554739580407
      vertex -14.992661493922036 -2 1.9862554739580407
      vertex -14.134983409143269 -2 0.5553060386667639
    endloop
  endfacet
  facet normal 0 -1 0
    outer loop
      vertex -14.992661493922036 -20 1.9862554739580407
      vertex -14.134983409143269 -20 0.5553060386667639
      vertex -13.228818965225326 -20 2.9290489476100356
    endloop
  endfacet
  facet normal -0.8577286100002718 0 -0.5141027441932222
    outer loop
      vertex -14.992661493922036 -20 1.9862554739580407
      vertex -14.134983409143269 -2 0.5553060386667639
      vertex -14.134983409143269 -20 0.5553060386667639
    endloop
  endfacet
  facet normal 0 -1 0
    outer loop
      vertex -14.992661493922036 -20 1.9862554739580407
      vertex -13.228818965225326 -20 2.9290489476100356
      vertex -13.858192987669302 -20 4.259748514523653
    endloop
  endfacet
  facet normal 0.9891765099647808 0 0.14673047445536286
    outer loop
      vertex -14.927770900082955 -20 8.529742895056591
      vertex -14.711779206048456 -20 7.073645169758077
      vertex -14.711779206048456 -2 7.073645169758077
    endloop
  endfacet
  facet normal 0.9891765099647808 0 0.14673047445536286
    outer loop
      vertex -14.927770900082955 -20 8.529742895056591
      vertex -14.711779206048456 -2 7.073645169758077
      vertex -14.927770900082955 -2 8.529742895056591
    endloop
  endfacet
  facet normal 0.9891765099647808 0 -0.14673047445536286
    outer loop
      vertex -14.927770900082955 -20 11.470257104943409
      vertex -14.927770900082955 -2 11.470257104943409
      vertex -14.711779206048456 -20 12.926354830241923
    endloop
  endfacet
  facet normal 0 -1 0
    outer loop
      vertex -14.927770900082955 -2 8.529742895056591
      vertex -14.711779206048456 -2 7.073645169758077
      vertex 1.470257104943409 -2 -4.927770900082955
    endloop
  endfacet
  facet normal 0 -1 0
    outer loop
      vertex -14.927770900082955 -2 8.529742895056591
      vertex 1.470257104943409 -2 -4.927770900082955
      vertex 2.9263548302419236 -2 -4.7117792060484565
    endloop
  endfacet
  facet normal 0 -1 0
    outer loop
      vertex -14.927770900082955 -2 8.529742895056591
      vertex 2.9263548302419236 -2 -4.7117792060484565
      vertex -14.927770900082955 -2 11.470257104943409
    endloop
  endfacet
  facet normal 0.9891765099647808 0 -0.14673047445536286
    outer loop
      vertex -14.927770900082955 -2 11.470257104943409
      vertex -14.711779206048456 -2 12.926354830241923
      vertex -14.711779206048456 -20 12.926354830241923
    endloop
  endfacet
  facet normal 0 -1 0
    outer loop
      vertex -14.927770900082955 -2 11.470257104943409
      vertex -14.59313726726646 -2 13.400000000000006
      vertex -14.711779206048456 -2 12.926354830241923
    endloop
  endfacet
  facet normal 0 -1 0
    outer loop
      vertex -14.927770900082955 -2 11.470257104943409
      vertex 2.9263548302419236 -2 -4.7117792060484565
      vertex 4.354270158816935 -2 -4.354105035983132
    endloop
  endfacet
  facet normal 0 -1 0
    outer loop
      vertex -14.927770900082955 -2 11.470257104943409
      vertex 4.354270158816935 -2 -4.354105035983132
      vertex -14.59313726726646 -2 13.400000000000006
    endloop
  endfacet
  facet normal 0.9700312531945439 0 0.24298017990326443
    outer loop
      vertex -14.711779206048456 -20 7.073645169758077
      vertex -14.354105035983132 -20 5.645729841183065
      vertex -14.354105035983132 -2 5.645729841183065
    endloop
  endfacet
  facet normal 0.9700312531945439 0 0.24298017990326443
    outer loop
      vertex -14.711779206048456 -20 7.073645169758077
      vertex -14.354105035983132 -2 5.645729841183065
      vertex -14.711779206048456 -2 7.073645169758077
    endloop
  endfacet
  facet normal 0.9700312531945443 0 -0.24298017990326276
    outer loop
      vertex -14.711779206048456 -20 12.926354830241923
      vertex -14.711779206048456 -2 12.926354830241923
      vertex -14.59313726726646 -20 13.400000000000006
    endloop
  endfacet
  facet normal 0 -1 0
    outer loop
      vertex -14.711779206048456 -2 7.073645169758077
      vertex -14.354105035983132 -2 5.645729841183065
      vertex 0 -2 -5
    endloop
  endfacet
  facet normal 0 -1 0
    outer loop
      vertex -14.711779206048456 -2 7.073645169758077
      vertex 0 -2 -5
      vertex 1.470257104943409 -2 -4.927770900082955
    endloop
  endfacet
  facet normal 0.9700312531945443 0 -0.24298017990326276
    outer loop
      vertex -14.711779206048456 -2 12.926354830241923
      vertex -14.59313726726646 -2 13.400000000000006
      vertex -14.59313726726646 -20 13.400000000000006
    endloop
  endfacet
  facet normal 0 -1 0
    outer loop
      vertex -14.59313726726646 -2 13.400000000000006
      vertex 4.354270158816935 -2 -4.354105035983132
      vertex 5.740251485476347 -2 -3.8581929876693017
    endloop
  endfacet
  facet normal 0.9415440651830211 0 0.3368898533922189
    outer loop
      vertex -14.354105035983132 -20 5.645729841183065
      vertex -13.858192987669302 -20 4.259748514523653
      vertex -13.858192987669302 -2 4.259748514523653
    endloop
  endfacet
  facet normal 0.9415440651830211 0 0.3368898533922189
    outer loop
      vertex -14.354105035983132 -20 5.645729841183065
      vertex -13.858192987669302 -2 4.259748514523653
      vertex -14.354105035983132 -2 5.645729841183065
    endloop
  endfacet
  facet normal 0 -1 0
    outer loop
      vertex -14.354105035983132 -2 5.645729841183065
      vertex -13.858192987669302 -2 4.259748514523653
      vertex -1.470257104943409 -2 -4.927770900082955
    endloop
  endfacet
  facet normal 0 -1 0
    outer loop
      vertex -14.354105035983132 -2 5.645729841183065
      vertex -1.470257104943409 -2 -4.927770900082955
      vertex 0 -2 -5
    endloop
  endfacet
  facet normal -0.8032075314806453 0 -0.5956993044924328
    outer loop
      vertex -14.134983409143269 -20 0.5553060386667639
      vertex -14.134983409143269 -2 0.5553060386667639
      vertex -13.141177707166529 -2 -0.7846858307819726
    endloop
  endfacet
  facet normal 0 -1 0
    outer loop
      vertex -14.134983409143269 -20 0.5553060386667639
      vertex -13.141177707166529 -20 -0.7846858307819726
      vertex -12.472044184538179 -20 1.6664465047059664
    endloop
  endfacet
  facet normal -0.8032075314806453 0 -0.5956993044924328
    outer loop
      vertex -14.134983409143269 -20 0.5553060386667639
      vertex -13.141177707166529 -2 -0.7846858307819726
      vertex -13.141177707166529 -20 -0.7846858307819726
    endloop
  endfacet
  facet normal 0 -1 0
    outer loop
      vertex -14.134983409143269 -20 0.5553060386667639
      vertex -12.472044184538179 -20 1.6664465047059664
      vertex -13.228818965225326 -20 2.9290489476100356
    endloop
  endfacet
  facet normal 0.9039892931234432 0 0.42755509343028225
    outer loop
      vertex -13.858192987669302 -20 4.259748514523653
      vertex -13.228818965225326 -20 2.9290489476100356
      vertex -13.228818965225326 -2 2.9290489476100356
    endloop
  endfacet
  facet normal 0.9039892931234432 0 0.42755509343028225
    outer loop
      vertex -13.858192987669302 -20 4.259748514523653
      vertex -13.228818965225326 -2 2.9290489476100356
      vertex -13.858192987669302 -2 4.259748514523653
    endloop
  endfacet
  facet normal 0 -1 0
    outer loop
      vertex -13.858192987669302 -2 4.259748514523653
      vertex -13.228818965225326 -2 2.9290489476100356
      vertex -2.9263548302419236 -2 -4.7117792060484565
    endloop
  endfacet
  facet normal 0 -1 0
    outer loop
      vertex -13.858192987669302 -2 4.259748514523653
      vertex -2.9263548302419236 -2 -4.7117792060484565
      vertex -1.470257104943409 -2 -4.927770900082955
    endloop
  endfacet
  facet normal 0.8577286100002721 0 0.5141027441932217
    outer loop
      vertex -13.228818965225326 -20 2.9290489476100356
      vertex -12.472044184538179 -20 1.6664465047059664
      vertex -12.472044184538179 -2 1.6664465047059664
    endloop
  endfacet
  facet normal 0.8577286100002721 0 0.5141027441932217
    outer loop
      vertex -13.228818965225326 -20 2.9290489476100356
      vertex -12.472044184538179 -2 1.6664465047059664
      vertex -13.228818965225326 -2 2.9290489476100356
    endloop
  endfacet
  facet normal 0 -1 0
    outer loop
      vertex -13.228818965225326 -2 2.9290489476100356
      vertex -12.472044184538179 -2 1.6664465047059664
      vertex -2.9263548302419236 -2 -4.7117792060484565
    endloop
  endfacet
  facet normal -0.7409511253549599 0 -0.6715589548470176
    outer loop
      vertex -13.141177707166529 -20 -0.7846858307819726
      vertex -13.141177707166529 -2 -0.7846858307819726
      vertex -12.020815280171309 -2 -2.020815280171309
    endloop
  endfacet
  facet normal 0 -1 0
    outer loop
      vertex -13.141177707166529 -20 -0.7846858307819726
      vertex -12.020815280171309 -20 -2.020815280171309
      vertex -10.606601717798213 -20 -0.6066017177982133
    endloop
  endfacet
  facet normal -0.7409511253549599 0 -0.6715589548470176
    outer loop
      vertex -13.141177707166529 -20 -0.7846858307819726
      vertex -12.020815280171309 -2 -2.020815280171309
      vertex -12.020815280171309 -20 -2.020815280171309
    endloop
  endfacet
  facet normal 0 -1 0
    outer loop
      vertex -13.141177707166529 -20 -0.7846858307819726
      vertex -11.595156800441055 -20 0.484100737545317
      vertex -12.472044184538179 -20 1.6664465047059664
    endloop
  endfacet
  facet normal 0 -1 0
    outer loop
      vertex -13.141177707166529 -20 -0.7846858307819726
      vertex -10.606601717798213 -20 -0.6066017177982133
      vertex -11.595156800441055 -20 0.484100737545317
    endloop
  endfacet
  facet normal 0.803207531480645 0 0.595699304492433
    outer loop
      vertex -12.472044184538179 -20 1.6664465047059664
      vertex -11.595156800441055 -20 0.484100737545317
      vertex -11.595156800441055 -2 0.484100737545317
    endloop
  endfacet
  facet normal 0.803207531480645 0 0.595699304492433
    outer loop
      vertex -12.472044184538179 -20 1.6664465047059664
      vertex -11.595156800441055 -2 0.484100737545317
      vertex -12.472044184538179 -2 1.6664465047059664
    endloop
  endfacet
  facet normal 0 -1 0
    outer loop
      vertex -12.472044184538179 -2 1.6664465047059664
      vertex -11.595156800441055 -2 0.484100737545317
      vertex -5.740251485476347 -2 -3.8581929876693017
    endloop
  endfacet
  facet normal 0 -1 0
    outer loop
      vertex -12.472044184538179 -2 1.6664465047059664
      vertex -5.740251485476347 -2 -3.8581929876693017
      vertex -4.354270158816935 -2 -4.354105035983132
    endloop
  endfacet
  facet normal 0 -1 0
    outer loop
      vertex -12.472044184538179 -2 1.6664465047059664
      vertex -4.354270158816935 -2 -4.354105035983132
      vertex -2.9263548302419236 -2 -4.7117792060484565
    endloop
  endfacet
  facet normal -0.6715589548470176 0 -0.7409511253549599
    outer loop
      vertex -12.020815280171309 -20 -2.020815280171309
      vertex -12.020815280171309 -2 -2.020815280171309
      vertex -10.784685830781973 -2 -3.1411777071665288
    endloop
  endfacet
  facet normal 0 -1 0
    outer loop
      vertex -12.020815280171309 -20 -2.020815280171309
      vertex -10.784685830781973 -20 -3.1411777071665288
      vertex -9.515899262454683 -20 -1.595156800441055
    endloop
  endfacet
  facet normal -0.6715589548470176 0 -0.7409511253549599
    outer loop
      vertex -12.020815280171309 -20 -2.020815280171309
      vertex -10.784685830781973 -2 -3.1411777071665288
      vertex -10.784685830781973 -20 -3.1411777071665288
    endloop
  endfacet
  facet normal 0 -1 0
    outer loop
      vertex -12.020815280171309 -20 -2.020815280171309
      vertex -9.515899262454683 -20 -1.595156800441055
      vertex -10.606601717798213 -20 -0.6066017177982133
    endloop
  endfacet
  facet normal 0.740951125354959 0 0.6715589548470186
    outer loop
      vertex -11.595156800441055 -20 0.484100737545317
      vertex -10.606601717798213 -20 -0.6066017177982133
      vertex -10.606601717798213 -2 -0.6066017177982133
    endloop
  endfacet
  facet normal 0.740951125354959 0 0.6715589548470186
    outer loop
      vertex -11.595156800441055 -20 0.484100737545317
      vertex -10.606601717798213 -2 -0.6066017177982133
      vertex -11.595156800441055 -2 0.484100737545317
    endloop
  endfacet
  facet normal 0 -1 0
    outer loop
      vertex -11.595156800441055 -2 0.484100737545317
      vertex -10.606601717798213 -2 -0.6066017177982133
      vertex -7.070951052389964 -2 -3.228818965225326
    endloop
  endfacet
  facet normal 0 -1 0
    outer loop
      vertex -11.595156800441055 -2 0.484100737545317
      vertex -7.070951052389964 -2 -3.228818965225326
      vertex -5.740251485476347 -2 -3.8581929876693017
    endloop
  endfacet
  facet normal -0.5956993044924328 0 -0.8032075314806453
    outer loop
      vertex -10.784685830781973 -20 -3.1411777071665288
      vertex -10.784685830781973 -2 -3.1411777071665288
      vertex -9.444693961333236 -2 -4.134983409143269
    endloop
  endfacet
  facet normal 0 -1 0
    outer loop
      vertex -10.784685830781973 -20 -3.1411777071665288
      vertex -9.444693961333236 -20 -4.134983409143269
      vertex -8.333553495294034 -20 -2.472044184538179
    endloop
  endfacet
  facet normal -0.5956993044924328 0 -0.8032075314806453
    outer loop
      vertex -10.784685830781973 -20 -3.1411777071665288
      vertex -9.444693961333236 -2 -4.134983409143269
      vertex -9.444693961333236 -20 -4.134983409143269
    endloop
  endfacet
  facet normal 0 -1 0
    outer loop
      vertex -10.784685830781973 -20 -3.1411777071665288
      vertex -8.333553495294034 -20 -2.472044184538179
      vertex -9.515899262454683 -20 -1.595156800441055
    endloop
  endfacet
  facet normal 0.6715589548470186 0 0.740951125354959
    outer loop
      vertex -10.606601717798213 -20 -0.6066017177982133
      vertex -9.515899262454683 -20 -1.595156800441055
      vertex -9.515899262454683 -2 -1.595156800441055
    endloop
  endfacet
  facet normal 0.6715589548470186 0 0.740951125354959
    outer loop
      vertex -10.606601717798213 -20 -0.6066017177982133
      vertex -9.515899262454683 -2 -1.595156800441055
      vertex -10.606601717798213 -2 -0.6066017177982133
    endloop
  endfacet
  facet normal 0 -1 0
    outer loop
      vertex -10.606601717798213 -2 -0.6066017177982133
      vertex -9.515899262454683 -2 -1.595156800441055
      vertex -8.333553495294034 -2 -2.472044184538179
    endloop
  endfacet
  facet normal 0 -1 0
    outer loop
      vertex -10.606601717798213 -2 -0.6066017177982133
      vertex -8.333553495294034 -2 -2.472044184538179
      vertex -7.070951052389964 -2 -3.228818965225326
    endloop
  endfacet
  facet normal 0.595699304492433 0 0.803207531480645
    outer loop
      vertex -9.515899262454683 -20 -1.595156800441055
      vertex -8.333553495294034 -20 -2.472044184538179
      vertex -8.333553495294034 -2 -2.472044184538179
    endloop
  endfacet
  facet normal 0.595699304492433 0 0.803207531480645
    outer loop
      vertex -9.515899262454683 -20 -1.595156800441055
      vertex -8.333553495294034 -2 -2.472044184538179
      vertex -9.515899262454683 -2 -1.595156800441055
    endloop
  endfacet
  facet normal -0.5141027441932222 0 -0.8577286100002718
    outer loop
      vertex -9.444693961333236 -20 -4.134983409143269
      vertex -9.444693961333236 -2 -4.134983409143269
      vertex -8.01374452604196 -2 -4.992661493922036
    endloop
  endfacet
  facet normal 0 -1 0
    outer loop
      vertex -9.444693961333236 -20 -4.134983409143269
      vertex -8.01374452604196 -20 -4.992661493922036
      vertex -5.740251485476347 -20 -3.8581929876693017
    endloop
  endfacet
  facet normal -0.5141027441932222 0 -0.8577286100002718
    outer loop
      vertex -9.444693961333236 -20 -4.134983409143269
      vertex -8.01374452604196 -2 -4.992661493922036
      vertex -8.01374452604196 -20 -4.992661493922036
    endloop
  endfacet
  facet normal 0 -1 0
    outer loop
      vertex -9.444693961333236 -20 -4.134983409143269
      vertex -7.070951052389964 -20 -3.228818965225326
      vertex -8.333553495294034 -20 -2.472044184538179
    endloop
  endfacet
  facet normal 0 -1 0
    outer loop
      vertex -9.444693961333236 -20 -4.134983409143269
      vertex -5.740251485476347 -20 -3.8581929876693017
      vertex -7.070951052389964 -20 -3.228818965225326
    endloop
  endfacet
  facet normal 0.5141027441932217 0 0.8577286100002721
    outer loop
      vertex -8.333553495294034 -20 -2.472044184538179
      vertex -7.070951052389964 -20 -3.228818965225326
      vertex -7.070951052389964 -2 -3.228818965225326
    endloop
  endfacet
  facet normal 0.5141027441932217 0 0.8577286100002721
    outer loop
      vertex -8.333553495294034 -20 -2.472044184538179
      vertex -7.070951052389964 -2 -3.228818965225326
      vertex -8.333553495294034 -2 -2.472044184538179
    endloop
  endfacet
  facet normal -0.4275550934302817 0 -0.9039892931234436
    outer loop
      vertex -8.01374452604196 -20 -4.992661493922036
      vertex -8.01374452604196 -2 -4.992661493922036
      vertex -6.505618350206526 -2 -5.705952052691874
    endloop
  endfacet
  facet normal 0 -1 0
    outer loop
      vertex -8.01374452604196 -20 -4.992661493922036
      vertex -6.505618350206526 -20 -5.705952052691874
      vertex -1.470257104943409 -20 -4.927770900082955
    endloop
  endfacet
  facet normal -0.4275550934302817 0 -0.9039892931234436
    outer loop
      vertex -8.01374452604196 -20 -4.992661493922036
      vertex -6.505618350206526 -2 -5.705952052691874
      vertex -6.505618350206526 -20 -5.705952052691874
    endloop
  endfacet
  facet normal 0 -1 0
    outer loop
      vertex -8.01374452604196 -20 -4.992661493922036
      vertex -4.354270158816935 -20 -4.354105035983132
      vertex -5.740251485476347 -20 -3.8581929876693017
    endloop
  endfacet
  facet normal 0 -1 0
    outer loop
      vertex -8.01374452604196 -20 -4.992661493922036
      vertex -2.9263548302419236 -20 -4.7117792060484565
      vertex -4.354270158816935 -20 -4.354105035983132
    endloop
  endfacet
  facet normal 0 -1 0
    outer loop
      vertex -8.01374452604196 -20 -4.992661493922036
      vertex -1.470257104943409 -20 -4.927770900082955
      vertex -2.9263548302419236 -20 -4.7117792060484565
    endloop
  endfacet
  facet normal 0.42755509343028225 0 0.9039892931234432
    outer loop
      vertex -7.070951052389964 -20 -3.228818965225326
      vertex -5.740251485476347 -20 -3.8581929876693017
      vertex -5.740251485476347 -2 -3.8581929876693017
    endloop
  endfacet
  facet normal 0.42755509343028225 0 0.9039892931234432
    outer loop
      vertex -7.070951052389964 -20 -3.228818965225326
      vertex -5.740251485476347 -2 -3.8581929876693017
      vertex -7.070951052389964 -2 -3.228818965225326
    endloop
  endfacet
  facet normal -0.3368898533922204 0 -0.9415440651830207
    outer loop
      vertex -6.505618350206526 -20 -5.705952052691874
      vertex -6.505618350206526 -2 -5.705952052691874
      vertex -4.934839513325859 -2 -6.267985707447551
    endloop
  endfacet
  facet normal 0 -1 0
    outer loop
      vertex -6.505618350206526 -20 -5.705952052691874
      vertex -4.934839513325859 -20 -6.267985707447551
      vertex 6.505618350206526 -20 -5.705952052691874
    endloop
  endfacet
  facet normal -0.3368898533922204 0 -0.9415440651830207
    outer loop
      vertex -6.505618350206526 -20 -5.705952052691874
      vertex -4.934839513325859 -2 -6.267985707447551
      vertex -4.934839513325859 -20 -6.267985707447551
    endloop
  endfacet
  facet normal 0 -1 0
    outer loop
      vertex -6.505618350206526 -20 -5.705952052691874
      vertex 0 -20 -5
      vertex -1.470257104943409 -20 -4.927770900082955
    endloop
  endfacet
  facet normal 0 -1 0
    outer loop
      vertex -6.505618350206526 -20 -5.705952052691874
      vertex 6.505618350206526 -20 -5.705952052691874
      vertex 8.01374452604196 -20 -4.992661493922036
    endloop
  endfacet
  facet normal 0 -1 0
    outer loop
      vertex -6.505618350206526 -20 -5.705952052691874
      vertex 8.01374452604196 -20 -4.992661493922036
      vertex 0 -20 -5
    endloop
  endfacet
  facet normal 0.3368898533922189 0 0.9415440651830211
    outer loop
      vertex -5.740251485476347 -20 -3.8581929876693017
      vertex -4.354270158816935 -20 -4.354105035983132
      vertex -4.354270158816935 -2 -4.354105035983132
    endloop
  endfacet
  facet normal 0.3368898533922189 0 0.9415440651830211
    outer loop
      vertex -5.740251485476347 -20 -3.8581929876693017
      vertex -4.354270158816935 -2 -4.354105035983132
      vertex -5.740251485476347 -2 -3.8581929876693017
    endloop
  endfacet
  facet normal -0.24298017990326484 0 -0.9700312531945438
    outer loop
      vertex -4.934839513325859 -20 -6.267985707447551
      vertex -4.934839513325859 -2 -6.267985707447551
      vertex -3.3165354742741804 -2 -6.673349766854919
    endloop
  endfacet
  facet normal 0 -1 0
    outer loop
      vertex -4.934839513325859 -20 -6.267985707447551
      vertex -3.3165354742741804 -20 -6.673349766854919
      vertex 4.934839513325859 -20 -6.267985707447551
    endloop
  endfacet
  facet normal -0.24298017990326484 0 -0.9700312531945438
    outer loop
      vertex -4.934839513325859 -20 -6.267985707447551
      vertex -3.3165354742741804 -2 -6.673349766854919
      vertex -3.3165354742741804 -20 -6.673349766854919
    endloop
  endfacet
  facet normal 0 -1 0
    outer loop
      vertex -4.934839513325859 -20 -6.267985707447551
      vertex 4.934839513325859 -20 -6.267985707447551
      vertex 6.505618350206526 -20 -5.705952052691874
    endloop
  endfacet
  facet normal 0.2429801799032645 0 0.9700312531945439
    outer loop
      vertex -4.354270158816935 -20 -4.354105035983132
      vertex -2.9263548302419236 -20 -4.7117792060484565
      vertex -2.9263548302419236 -2 -4.7117792060484565
    endloop
  endfacet
  facet normal 0.2429801799032645 0 0.9700312531945439
    outer loop
      vertex -4.354270158816935 -20 -4.354105035983132
      vertex -2.9263548302419236 -2 -4.7117792060484565
      vertex -4.354270158816935 -2 -4.354105035983132
    endloop
  endfacet
  facet normal -0.14673047445536097 0 -0.9891765099647811
    outer loop
      vertex -3.3165354742741804 -20 -6.673349766854919
      vertex -3.3165354742741804 -2 -6.673349766854919
      vertex -1.6662913856025303 -2 -6.918140353427347
    endloop
  endfacet
  facet normal 0 -1 0
    outer loop
      vertex -3.3165354742741804 -20 -6.673349766854919
      vertex -1.6662913856025303 -20 -6.918140353427347
      vertex 3.3165354742741804 -20 -6.673349766854919
    endloop
  endfacet
  facet normal -0.14673047445536097 0 -0.9891765099647811
    outer loop
      vertex -3.3165354742741804 -20 -6.673349766854919
      vertex -1.6662913856025303 -2 -6.918140353427347
      vertex -1.6662913856025303 -20 -6.918140353427347
    endloop
  endfacet
  facet normal 0 -1 0
    outer loop
      vertex -3.3165354742741804 -20 -6.673349766854919
      vertex 3.3165354742741804 -20 -6.673349766854919
      vertex 4.934839513325859 -20 -6.267985707447551
    endloop
  endfacet
  facet normal 0 -1 0
    outer loop
      vertex -3.3165354742741804 -2 -6.673349766854919
      vertex 24 -2 -14
      vertex -1.6662913856025303 -2 -6.918140353427347
    endloop
  endfacet
  facet normal 0.14673047445536286 0 0.9891765099647808
    outer loop
      vertex -2.9263548302419236 -20 -4.7117792060484565
      vertex -1.470257104943409 -20 -4.927770900082955
      vertex -1.470257104943409 -2 -4.927770900082955
    endloop
  endfacet
  facet normal 0.14673047445536286 0 0.9891765099647808
    outer loop
      vertex -2.9263548302419236 -20 -4.7117792060484565
      vertex -1.470257104943409 -2 -4.927770900082955
      vertex -2.9263548302419236 -2 -4.7117792060484565
    endloop
  endfacet
  facet normal -0.04906767432741797 0 -0.9987954562051723
    outer loop
      vertex -1.6662913856025303 -20 -6.918140353427347
      vertex -1.6662913856025303 -2 -6.918140353427347
      vertex 0 -2 -7
    endloop
  endfacet
  facet normal 0 -1 0
    outer loop
      vertex -1.6662913856025303 -20 -6.918140353427347
      vertex 0 -20 -7
      vertex 1.6662913856025303 -20 -6.918140353427347
    endloop
  endfacet
  facet normal -0.04906767432741797 0 -0.9987954562051723
    outer loop
      vertex -1.6662913856025303 -20 -6.918140353427347
      vertex 0 -2 -7
      vertex 0 -20 -7
    endloop
  endfacet
  facet normal 0 -1 0
    outer loop
      vertex -1.6662913856025303 -20 -6.918140353427347
      vertex 1.6662913856025303 -20 -6.918140353427347
      vertex 3.3165354742741804 -20 -6.673349766854919
    endloop
  endfacet
  facet normal 0 -1 0
    outer loop
      vertex -1.6662913856025303 -2 -6.918140353427347
      vertex 24 -2 -14
      vertex 0 -2 -7
    endloop
  endfacet
  facet normal 0.049067674327417134 0 0.9987954562051725
    outer loop
      vertex -1.470257104943409 -20 -4.927770900082955
      vertex 0 -20 -5
      vertex 0 -2 -5
    endloop
  endfacet
  facet normal 0.049067674327417134 0 0.9987954562051725
    outer loop
      vertex -1.470257104943409 -20 -4.927770900082955
      vertex 0 -2 -5
      vertex -1.470257104943409 -2 -4.927770900082955
    endloop
  endfacet
  facet normal 0.04906767432741797 0 -0.9987954562051723
    outer loop
      vertex 0 -20 -7
      vertex 0 -2 -7
      vertex 1.6662913856025303 -2 -6.918140353427347
    endloop
  endfacet
  facet normal 0.04906767432741797 0 -0.9987954562051723
    outer loop
      vertex 0 -20 -7
      vertex 1.6662913856025303 -2 -6.918140353427347
      vertex 1.6662913856025303 -20 -6.918140353427347
    endloop
  endfacet
  facet normal -0.049067674327417134 0 0.9987954562051725
    outer loop
      vertex 0 -20 -5
      vertex 1.470257104943409 -20 -4.927770900082955
      vertex 1.470257104943409 -2 -4.927770900082955
    endloop
  endfacet
  facet normal -0.049067674327417134 0 0.9987954562051725
    outer loop
      vertex 0 -20 -5
      vertex 1.470257104943409 -2 -4.927770900082955
      vertex 0 -2 -5
    endloop
  endfacet
  facet normal 0 -1 0
    outer loop
      vertex 0 -20 -5
      vertex 8.01374452604196 -20 -4.992661493922036
      vertex 1.470257104943409 -20 -4.927770900082955
    endloop
  endfacet
  facet normal 0 -1 0
    outer loop
      vertex 0 -2 -7
      vertex 24 -2 -14
      vertex 1.6662913856025303 -2 -6.918140353427347
    endloop
  endfacet
  facet normal -0.14673047445536286 0 0.9891765099647808
    outer loop
      vertex 1.470257104943409 -20 -4.927770900082955
      vertex 2.9263548302419236 -20 -4.7117792060484565
      vertex 2.9263548302419236 -2 -4.7117792060484565
    endloop
  endfacet
  facet normal -0.14673047445536286 0 0.9891765099647808
    outer loop
      vertex 1.470257104943409 -20 -4.927770900082955
      vertex 2.9263548302419236 -2 -4.7117792060484565
      vertex 1.470257104943409 -2 -4.927770900082955
    endloop
  endfacet
  facet normal 0 -1 0
    outer loop
      vertex 1.470257104943409 -20 -4.927770900082955
      vertex 8.01374452604196 -20 -4.992661493922036
      vertex 2.9263548302419236 -20 -4.7117792060484565
    endloop
  endfacet
  facet normal 0.14673047445536097 0 -0.9891765099647811
    outer loop
      vertex 1.6662913856025303 -20 -6.918140353427347
      vertex 1.6662913856025303 -2 -6.918140353427347
      vertex 3.3165354742741804 -2 -6.673349766854919
    endloop
  endfacet
  facet normal 0.14673047445536097 0 -0.9891765099647811
    outer loop
      vertex 1.6662913856025303 -20 -6.918140353427347
      vertex 3.3165354742741804 -2 -6.673349766854919
      vertex 3.3165354742741804 -20 -6.673349766854919
    endloop
  endfacet
  facet normal 0 -1 0
    outer loop
      vertex 1.6662913856025303 -2 -6.918140353427347
      vertex 24 -2 -14
      vertex 3.3165354742741804 -2 -6.673349766854919
    endloop
  endfacet
  facet normal -0.2429801799032645 0 0.9700312531945439
    outer loop
      vertex 2.9263548302419236 -20 -4.7117792060484565
      vertex 4.354270158816935 -20 -4.354105035983132
      vertex 4.354270158816935 -2 -4.354105035983132
    endloop
  endfacet
  facet normal -0.2429801799032645 0 0.9700312531945439
    outer loop
      vertex 2.9263548302419236 -20 -4.7117792060484565
      vertex 4.354270158816935 -2 -4.354105035983132
      vertex 2.9263548302419236 -2 -4.7117792060484565
    endloop
  endfacet
  facet normal 0 -1 0
    outer loop
      vertex 2.9263548302419236 -20 -4.7117792060484565
      vertex 8.01374452604196 -20 -4.992661493922036
      vertex 9.444693961333236 -20 -4.134983409143269
    endloop
  endfacet
  facet normal 0 -1 0
    outer loop
      vertex 2.9263548302419236 -20 -4.7117792060484565
      vertex 9.444693961333236 -20 -4.134983409143269
      vertex 4.354270158816935 -20 -4.354105035983132
    endloop
  endfacet
  facet normal 0.24298017990326484 0 -0.9700312531945438
    outer loop
      vertex 3.3165354742741804 -20 -6.673349766854919
      vertex 3.3165354742741804 -2 -6.673349766854919
      vertex 4.934839513325859 -2 -6.267985707447551
    endloop
  endfacet
  facet normal 0.24298017990326484 0 -0.9700312531945438
    outer loop
      vertex 3.3165354742741804 -20 -6.673349766854919
      vertex 4.934839513325859 -2 -6.267985707447551
      vertex 4.934839513325859 -20 -6.267985707447551
    endloop
  endfacet
  facet normal 0 -1 0
    outer loop
      vertex 3.3165354742741804 -2 -6.673349766854919
      vertex 24 -2 -14
      vertex 4.934839513325859 -2 -6.267985707447551
    endloop
  endfacet
  facet normal -0.3368898533922189 0 0.9415440651830211
    outer loop
      vertex 4.354270158816935 -20 -4.354105035983132
      vertex 5.740251485476347 -20 -3.8581929876693017
      vertex 5.740251485476347 -2 -3.8581929876693017
    endloop
  endfacet
  facet normal -0.3368898533922189 0 0.9415440651830211
    outer loop
      vertex 4.354270158816935 -20 -4.354105035983132
      vertex 5.740251485476347 -2 -3.8581929876693017
      vertex 4.354270158816935 -2 -4.354105035983132
    endloop
  endfacet
  facet normal 0 -1 0
    outer loop
      vertex 4.354270158816935 -20 -4.354105035983132
      vertex 9.444693961333236 -20 -4.134983409143269
      vertex 5.740251485476347 -20 -3.8581929876693017
    endloop
  endfacet
  facet normal 0.3368898533922204 0 -0.9415440651830207
    outer loop
      vertex 4.934839513325859 -20 -6.267985707447551
      vertex 4.934839513325859 -2 -6.267985707447551
      vertex 6.505618350206526 -2 -5.705952052691874
    endloop
  endfacet
  facet normal 0.3368898533922204 0 -0.9415440651830207
    outer loop
      vertex 4.934839513325859 -20 -6.267985707447551
      vertex 6.505618350206526 -2 -5.705952052691874
      vertex 6.505618350206526 -20 -5.705952052691874
    endloop
  endfacet
  facet normal 0 -1 0
    outer loop
      vertex 4.934839513325859 -2 -6.267985707447551
      vertex 24 -2 -14
      vertex 6.505618350206526 -2 -5.705952052691874
    endloop
  endfacet
  facet normal -0.42755509343028225 0 0.9039892931234432
    outer loop
      vertex 5.740251485476347 -20 -3.8581929876693017
      vertex 7.070951052389964 -20 -3.228818965225326
      vertex 7.070951052389964 -2 -3.228818965225326
    endloop
  endfacet
  facet normal -0.42755509343028225 0 0.9039892931234432
    outer loop
      vertex 5.740251485476347 -20 -3.8581929876693017
      vertex 7.070951052389964 -2 -3.228818965225326
      vertex 5.740251485476347 -2 -3.8581929876693017
    endloop
  endfacet
  facet normal 0 -1 0
    outer loop
      vertex 5.740251485476347 -20 -3.8581929876693017
      vertex 9.444693961333236 -20 -4.134983409143269
      vertex 10.784685830781973 -20 -3.1411777071665288
    endloop
  endfacet
  facet normal 0 -1 0
    outer loop
      vertex 5.740251485476347 -20 -3.8581929876693017
      vertex 10.784685830781973 -20 -3.1411777071665288
      vertex 7.070951052389964 -20 -3.228818965225326
    endloop
  endfacet
  facet normal 0.4275550934302817 0 -0.9039892931234436
    outer loop
      vertex 6.505618350206526 -20 -5.705952052691874
      vertex 6.505618350206526 -2 -5.705952052691874
      vertex 8.01374452604196 -2 -4.992661493922036
    endloop
  endfacet
  facet normal 0.4275550934302817 0 -0.9039892931234436
    outer loop
      vertex 6.505618350206526 -20 -5.705952052691874
      vertex 8.01374452604196 -2 -4.992661493922036
      vertex 8.01374452604196 -20 -4.992661493922036
    endloop
  endfacet
  facet normal 0 -1 0
    outer loop
      vertex 6.505618350206526 -2 -5.705952052691874
      vertex 24 -2 -14
      vertex 8.01374452604196 -2 -4.992661493922036
    endloop
  endfacet
  facet normal -0.5141027441932217 0 0.8577286100002721
    outer loop
      vertex 7.070951052389964 -20 -3.228818965225326
      vertex 8.333553495294034 -20 -2.472044184538179
      vertex 8.333553495294034 -2 -2.472044184538179
    endloop
  endfacet
  facet normal -0.5141027441932217 0 0.8577286100002721
    outer loop
      vertex 7.070951052389964 -20 -3.228818965225326
      vertex 8.333553495294034 -2 -2.472044184538179
      vertex 7.070951052389964 -2 -3.228818965225326
    endloop
  endfacet
  facet normal 0 -1 0
    outer loop
      vertex 7.070951052389964 -20 -3.228818965225326
      vertex 10.784685830781973 -20 -3.1411777071665288
      vertex 8.333553495294034 -20 -2.472044184538179
    endloop
  endfacet
  facet normal 0.5141027441932222 0 -0.8577286100002718
    outer loop
      vertex 8.01374452604196 -20 -4.992661493922036
      vertex 8.01374452604196 -2 -4.992661493922036
      vertex 9.444693961333236 -2 -4.134983409143269
    endloop
  endfacet
  facet normal 0.5141027441932222 0 -0.8577286100002718
    outer loop
      vertex 8.01374452604196 -20 -4.992661493922036
      vertex 9.444693961333236 -2 -4.134983409143269
      vertex 9.444693961333236 -20 -4.134983409143269
    endloop
  endfacet
  facet normal 0 -1 0
    outer loop
      vertex 8.01374452604196 -2 -4.992661493922036
      vertex 24 -2 -14
      vertex 9.444693961333236 -2 -4.134983409143269
    endloop
  endfacet
  facet normal -0.595699304492433 0 0.803207531480645
    outer loop
      vertex 8.333553495294034 -20 -2.472044184538179
      vertex 9.515899262454683 -20 -1.595156800441055
      vertex 9.515899262454683 -2 -1.595156800441055
    endloop
  endfacet
  facet normal -0.595699304492433 0 0.803207531480645
    outer loop
      vertex 8.333553495294034 -20 -2.472044184538179
      vertex 9.515899262454683 -2 -1.595156800441055
      vertex 8.333553495294034 -2 -2.472044184538179
    endloop
  endfacet
  facet normal 0 -1 0
    outer loop
      vertex 8.333553495294034 -20 -2.472044184538179
      vertex 10.784685830781973 -20 -3.1411777071665288
      vertex 12.020815280171309 -20 -2.020815280171309
    endloop
  endfacet
  facet normal 0 -1 0
    outer loop
      vertex 8.333553495294034 -20 -2.472044184538179
      vertex 12.020815280171309 -20 -2.020815280171309
      vertex 9.515899262454683 -20 -1.595156800441055
    endloop
  endfacet
  facet normal 0.5956993044924328 0 -0.8032075314806453
    outer loop
      vertex 9.444693961333236 -20 -4.134983409143269
      vertex 9.444693961333236 -2 -4.134983409143269
      vertex 10.784685830781973 -2 -3.1411777071665288
    endloop
  endfacet
  facet normal 0.5956993044924328 0 -0.8032075314806453
    outer loop
      vertex 9.444693961333236 -20 -4.134983409143269
      vertex 10.784685830781973 -2 -3.1411777071665288
      vertex 10.784685830781973 -20 -3.1411777071665288
    endloop
  endfacet
  facet normal 0 -1 0
    outer loop
      vertex 9.444693961333236 -2 -4.134983409143269
      vertex 24 -2 -14
      vertex 10.784685830781973 -2 -3.1411777071665288
    endloop
  endfacet
  facet normal -0.6715589548470186 0 0.740951125354959
    outer loop
      vertex 9.515899262454683 -20 -1.595156800441055
      vertex 10.606601717798213 -20 -0.6066017177982133
      vertex 10.606601717798213 -2 -0.6066017177982133
    endloop
  endfacet
  facet normal -0.6715589548470186 0 0.740951125354959
    outer loop
      vertex 9.515899262454683 -20 -1.595156800441055
      vertex 10.606601717798213 -2 -0.6066017177982133
      vertex 9.515899262454683 -2 -1.595156800441055
    endloop
  endfacet
  facet normal 0 -1 0
    outer loop
      vertex 9.515899262454683 -20 -1.595156800441055
      vertex 12.020815280171309 -20 -2.020815280171309
      vertex 13.141177707166529 -20 -0.7846858307819726
    endloop
  endfacet
  facet normal 0 -1 0
    outer loop
      vertex 9.515899262454683 -20 -1.595156800441055
      vertex 13.141177707166529 -20 -0.7846858307819726
      vertex 10.606601717798213 -20 -0.6066017177982133
    endloop
  endfacet
  facet normal -0.740951125354959 0 0.6715589548470186
    outer loop
      vertex 10.606601717798213 -20 -0.6066017177982133
      vertex 11.595156800441055 -20 0.484100737545317
      vertex 11.595156800441055 -2 0.484100737545317
    endloop
  endfacet
  facet normal -0.740951125354959 0 0.6715589548470186
    outer loop
      vertex 10.606601717798213 -20 -0.6066017177982133
      vertex 11.595156800441055 -2 0.484100737545317
      vertex 10.606601717798213 -2 -0.6066017177982133
    endloop
  endfacet
  facet normal 0 -1 0
    outer loop
      vertex 10.606601717798213 -20 -0.6066017177982133
      vertex 13.141177707166529 -20 -0.7846858307819726
      vertex 14.134983409143269 -20 0.5553060386667639
    endloop
  endfacet
  facet normal 0 -1 0
    outer loop
      vertex 10.606601717798213 -20 -0.6066017177982133
      vertex 14.134983409143269 -20 0.5553060386667639
      vertex 11.595156800441055 -20 0.484100737545317
    endloop
  endfacet
  facet normal 0.6715589548470176 0 -0.7409511253549599
    outer loop
      vertex 10.784685830781973 -20 -3.1411777071665288
      vertex 10.784685830781973 -2 -3.1411777071665288
      vertex 12.020815280171309 -2 -2.020815280171309
    endloop
  endfacet
  facet normal 0.6715589548470176 0 -0.7409511253549599
    outer loop
      vertex 10.784685830781973 -20 -3.1411777071665288
      vertex 12.020815280171309 -2 -2.020815280171309
      vertex 12.020815280171309 -20 -2.020815280171309
    endloop
  endfacet
  facet normal 0 -1 0
    outer loop
      vertex 10.784685830781973 -2 -3.1411777071665288
      vertex 24 -2 -14
      vertex 12.020815280171309 -2 -2.020815280171309
    endloop
  endfacet
  facet normal -0.803207531480645 0 0.595699304492433
    outer loop
      vertex 11.595156800441055 -20 0.484100737545317
      vertex 12.472044184538179 -20 1.6664465047059664
      vertex 12.472044184538179 -2 1.6664465047059664
    endloop
  endfacet
  facet normal -0.803207531480645 0 0.595699304492433
    outer loop
      vertex 11.595156800441055 -20 0.484100737545317
      vertex 12.472044184538179 -2 1.6664465047059664
      vertex 11.595156800441055 -2 0.484100737545317
    endloop
  endfacet
  facet normal 0 -1 0
    outer loop
      vertex 11.595156800441055 -20 0.484100737545317
      vertex 14.134983409143269 -20 0.5553060386667639
      vertex 12.472044184538179 -20 1.6664465047059664
    endloop
  endfacet
  facet normal 0.7409511253549599 0 -0.6715589548470176
    outer loop
      vertex 12.020815280171309 -20 -2.020815280171309
      vertex 12.020815280171309 -2 -2.020815280171309
      vertex 13.141177707166529 -2 -0.7846858307819726
    endloop
  endfacet
  facet normal 0.7409511253549599 0 -0.6715589548470176
    outer loop
      vertex 12.020815280171309 -20 -2.020815280171309
      vertex 13.141177707166529 -2 -0.7846858307819726
      vertex 13.141177707166529 -20 -0.7846858307819726
    endloop
  endfacet
  facet normal 0 -1 0
    outer loop
      vertex 12.020815280171309 -2 -2.020815280171309
      vertex 24 -2 -14
      vertex 13.141177707166529 -2 -0.7846858307819726
    endloop
  endfacet
  facet normal -0.8577286100002721 0 0.5141027441932217
    outer loop
      vertex 12.472044184538179 -20 1.6664465047059664
      vertex 13.228818965225326 -20 2.9290489476100356
      vertex 13.228818965225326 -2 2.9290489476100356
    endloop
  endfacet
  facet normal -0.8577286100002721 0 0.5141027441932217
    outer loop
      vertex 12.472044184538179 -20 1.6664465047059664
      vertex 13.228818965225326 -2 2.9290489476100356
      vertex 12.472044184538179 -2 1.6664465047059664
    endloop
  endfacet
  facet normal 0 -1 0
    outer loop
      vertex 12.472044184538179 -20 1.6664465047059664
      vertex 14.134983409143269 -20 0.5553060386667639
      vertex 14.992661493922036 -20 1.9862554739580407
    endloop
  endfacet
  facet normal 0 -1 0
    outer loop
      vertex 12.472044184538179 -20 1.6664465047059664
      vertex 14.992661493922036 -20 1.9862554739580407
      vertex 13.228818965225326 -20 2.9290489476100356
    endloop
  endfacet
  facet normal 0.8032075314806453 0 -0.5956993044924328
    outer loop
      vertex 13.141177707166529 -20 -0.7846858307819726
      vertex 13.141177707166529 -2 -0.7846858307819726
      vertex 14.134983409143269 -2 0.5553060386667639
    endloop
  endfacet
  facet normal 0.8032075314806453 0 -0.5956993044924328
    outer loop
      vertex 13.141177707166529 -20 -0.7846858307819726
      vertex 14.134983409143269 -2 0.5553060386667639
      vertex 14.134983409143269 -20 0.5553060386667639
    endloop
  endfacet
  facet normal 0 -1 0
    outer loop
      vertex 13.141177707166529 -2 -0.7846858307819726
      vertex 24 -2 -14
      vertex 14.134983409143269 -2 0.5553060386667639
    endloop
  endfacet
  facet normal -0.9039892931234432 0 0.42755509343028225
    outer loop
      vertex 13.228818965225326 -20 2.9290489476100356
      vertex 13.858192987669302 -20 4.259748514523653
      vertex 13.858192987669302 -2 4.259748514523653
    endloop
  endfacet
  facet normal -0.9039892931234432 0 0.42755509343028225
    outer loop
      vertex 13.228818965225326 -20 2.9290489476100356
      vertex 13.858192987669302 -2 4.259748514523653
      vertex 13.228818965225326 -2 2.9290489476100356
    endloop
  endfacet
  facet normal 0 -1 0
    outer loop
      vertex 13.228818965225326 -20 2.9290489476100356
      vertex 14.992661493922036 -20 1.9862554739580407
      vertex 15.705952052691874 -20 3.494381649793474
    endloop
  endfacet
  facet normal 0 -1 0
    outer loop
      vertex 13.228818965225326 -20 2.9290489476100356
      vertex 15.705952052691874 -20 3.494381649793474
      vertex 13.858192987669302 -20 4.259748514523653
    endloop
  endfacet
  facet normal -0.9415440651830211 0 0.3368898533922189
    outer loop
      vertex 13.858192987669302 -20 4.259748514523653
      vertex 14.354105035983132 -20 5.645729841183065
      vertex 14.354105035983132 -2 5.645729841183065
    endloop
  endfacet
  facet normal -0.9415440651830211 0 0.3368898533922189
    outer loop
      vertex 13.858192987669302 -20 4.259748514523653
      vertex 14.354105035983132 -2 5.645729841183065
      vertex 13.858192987669302 -2 4.259748514523653
    endloop
  endfacet
  facet normal 0 -1 0
    outer loop
      vertex 13.858192987669302 -20 4.259748514523653
      vertex 15.705952052691874 -20 3.494381649793474
      vertex 16.26798570744755 -20 5.065160486674141
    endloop
  endfacet
  facet normal 0 -1 0
    outer loop
      vertex 13.858192987669302 -20 4.259748514523653
      vertex 16.26798570744755 -20 5.065160486674141
      vertex 14.354105035983132 -20 5.645729841183065
    endloop
  endfacet
  facet normal 0.8577286100002718 0 -0.5141027441932222
    outer loop
      vertex 14.134983409143269 -20 0.5553060386667639
      vertex 14.134983409143269 -2 0.5553060386667639
      vertex 14.992661493922036 -2 1.9862554739580407
    endloop
  endfacet
  facet normal 0.8577286100002718 0 -0.5141027441932222
    outer loop
      vertex 14.134983409143269 -20 0.5553060386667639
      vertex 14.992661493922036 -2 1.9862554739580407
      vertex 14.992661493922036 -20 1.9862554739580407
    endloop
  endfacet
  facet normal 0 -1 0
    outer loop
      vertex 14.134983409143269 -2 0.5553060386667639
      vertex 24 -2 -14
      vertex 14.992661493922036 -2 1.9862554739580407
    endloop
  endfacet
  facet normal -0.9700312531945439 0 0.24298017990326443
    outer loop
      vertex 14.354105035983132 -20 5.645729841183065
      vertex 14.711779206048456 -20 7.073645169758077
      vertex 14.711779206048456 -2 7.073645169758077
    endloop
  endfacet
  facet normal -0.9700312531945439 0 0.24298017990326443
    outer loop
      vertex 14.354105035983132 -20 5.645729841183065
      vertex 14.711779206048456 -2 7.073645169758077
      vertex 14.354105035983132 -2 5.645729841183065
    endloop
  endfacet
  facet normal 0 -1 0
    outer loop
      vertex 14.354105035983132 -20 5.645729841183065
      vertex 16.26798570744755 -20 5.065160486674141
      vertex 16.67334976685492 -20 6.683464525725819
    endloop
  endfacet
  facet normal 0 -1 0
    outer loop
      vertex 14.354105035983132 -20 5.645729841183065
      vertex 16.67334976685492 -20 6.683464525725819
      vertex 14.711779206048456 -20 7.073645169758077
    endloop
  endfacet
  facet normal -0.9700312531945443 0 -0.24298017990326276
    outer loop
      vertex 14.59313726726646 -20 13.400000000000006
      vertex 14.59313726726646 -2 13.400000000000006
      vertex 14.711779206048456 -20 12.926354830241923
    endloop
  endfacet
  facet normal 0 -1 0
    outer loop
      vertex 14.59313726726646 -20 13.400000000000006
      vertex 14.711779206048456 -20 12.926354830241923
      vertex 16.652442991522047 -20 13.400000000000006
    endloop
  endfacet
  facet normal 0 0 1
    outer loop
      vertex 14.59313726726646 -20 13.400000000000006
      vertex 16.652442991522047 -20 13.400000000000006
      vertex 14.59313726726646 -2 13.400000000000006
    endloop
  endfacet
  facet normal -0.9700312531945443 0 -0.24298017990326276
    outer loop
      vertex 14.59313726726646 -2 13.400000000000006
      vertex 14.711779206048456 -2 12.926354830241923
      vertex 14.711779206048456 -20 12.926354830241923
    endloop
  endfacet
  facet normal 0 0 1
    outer loop
      vertex 14.59313726726646 -2 13.400000000000006
      vertex 16.652442991522047 -20 13.400000000000006
      vertex 16.652442991522047 -2 13.400000000000006
    endloop
  endfacet
  facet normal 0 -1 0
    outer loop
      vertex 14.59313726726646 -2 13.400000000000006
      vertex 16.652442991522047 -2 13.400000000000006
      vertex 24 -2 22
    endloop
  endfacet
  facet normal -0.9891765099647808 0 0.14673047445536286
    outer loop
      vertex 14.711779206048456 -20 7.073645169758077
      vertex 14.927770900082955 -20 8.529742895056591
      vertex 14.927770900082955 -2 8.529742895056591
    endloop
  endfacet
  facet normal -0.9891765099647808 0 0.14673047445536286
    outer loop
      vertex 14.711779206048456 -20 7.073645169758077
      vertex 14.927770900082955 -2 8.529742895056591
      vertex 14.711779206048456 -2 7.073645169758077
    endloop
  endfacet
  facet normal 0 -1 0
    outer loop
      vertex 14.711779206048456 -20 7.073645169758077
      vertex 16.67334976685492 -20 6.683464525725819
      vertex 16.918140353427347 -20 8.33370861439747
    endloop
  endfacet
  facet normal 0 -1 0
    outer loop
      vertex 14.711779206048456 -20 7.073645169758077
      vertex 16.918140353427347 -20 8.33370861439747
      vertex 14.927770900082955 -20 8.529742895056591
    endloop
  endfacet
  facet normal -0.9891765099647808 0 -0.14673047445536286
    outer loop
      vertex 14.711779206048456 -20 12.926354830241923
      vertex 14.711779206048456 -2 12.926354830241923
      vertex 14.927770900082955 -20 11.470257104943409
    endloop
  endfacet
  facet normal 0 -1 0
    outer loop
      vertex 14.711779206048456 -20 12.926354830241923
      vertex 14.927770900082955 -20 11.470257104943409
      vertex 16.67334976685492 -20 13.31653547427418
    endloop
  endfacet
  facet normal 0 -1 0
    outer loop
      vertex 14.711779206048456 -20 12.926354830241923
      vertex 16.67334976685492 -20 13.31653547427418
      vertex 16.652442991522047 -20 13.400000000000006
    endloop
  endfacet
  facet normal -0.9891765099647808 0 -0.14673047445536286
    outer loop
      vertex 14.711779206048456 -2 12.926354830241923
      vertex 14.927770900082955 -2 11.470257104943409
      vertex 14.927770900082955 -20 11.470257104943409
    endloop
  endfacet
  facet normal -0.9987954562051725 0 0.04906767432741714
    outer loop
      vertex 14.927770900082955 -20 8.529742895056591
      vertex 15 -20 10
      vertex 15 -2 10
    endloop
  endfacet
  facet normal -0.9987954562051725 0 0.04906767432741714
    outer loop
      vertex 14.927770900082955 -20 8.529742895056591
      vertex 15 -2 10
      vertex 14.927770900082955 -2 8.529742895056591
    endloop
  endfacet
  facet normal 0 -1 0
    outer loop
      vertex 14.927770900082955 -20 8.529742895056591
      vertex 16.918140353427347 -20 8.33370861439747
      vertex 17 -20 10
    endloop
  endfacet
  facet normal 0 -1 0
    outer loop
      vertex 14.927770900082955 -20 8.529742895056591
      vertex 17 -20 10
      vertex 15 -20 10
    endloop
  endfacet
  facet normal -0.9987954562051725 0 -0.04906767432741714
    outer loop
      vertex 14.927770900082955 -20 11.470257104943409
      vertex 14.927770900082955 -2 11.470257104943409
      vertex 15 -20 10
    endloop
  endfacet
  facet normal 0 -1 0
    outer loop
      vertex 14.927770900082955 -20 11.470257104943409
      vertex 15 -20 10
      vertex 16.918140353427347 -20 11.66629138560253
    endloop
  endfacet
  facet normal 0 -1 0
    outer loop
      vertex 14.927770900082955 -20 11.470257104943409
      vertex 16.918140353427347 -20 11.66629138560253
      vertex 16.67334976685492 -20 13.31653547427418
    endloop
  endfacet
  facet normal -0.9987954562051725 0 -0.04906767432741714
    outer loop
      vertex 14.927770900082955 -2 11.470257104943409
      vertex 15 -2 10
      vertex 15 -20 10
    endloop
  endfacet
  facet normal 0.9039892931234436 0 -0.4275550934302817
    outer loop
      vertex 14.992661493922036 -20 1.9862554739580407
      vertex 14.992661493922036 -2 1.9862554739580407
      vertex 15.705952052691874 -2 3.494381649793474
    endloop
  endfacet
  facet normal 0.9039892931234436 0 -0.4275550934302817
    outer loop
      vertex 14.992661493922036 -20 1.9862554739580407
      vertex 15.705952052691874 -2 3.494381649793474
      vertex 15.705952052691874 -20 3.494381649793474
    endloop
  endfacet
  facet normal 0 -1 0
    outer loop
      vertex 14.992661493922036 -2 1.9862554739580407
      vertex 24 -2 -14
      vertex 15.705952052691874 -2 3.494381649793474
    endloop
  endfacet
  facet normal 0 -1 0
    outer loop
      vertex 15 -20 10
      vertex 17 -20 10
      vertex 16.918140353427347 -20 11.66629138560253
    endloop
  endfacet
  facet normal 0.9415440651830207 0 -0.3368898533922204
    outer loop
      vertex 15.705952052691874 -20 3.494381649793474
      vertex 15.705952052691874 -2 3.494381649793474
      vertex 16.26798570744755 -2 5.065160486674141
    endloop
  endfacet
  facet normal 0.9415440651830207 0 -0.3368898533922204
    outer loop
      vertex 15.705952052691874 -20 3.494381649793474
      vertex 16.26798570744755 -2 5.065160486674141
      vertex 16.26798570744755 -20 5.065160486674141
    endloop
  endfacet
  facet normal 0 -1 0
    outer loop
      vertex 15.705952052691874 -2 3.494381649793474
      vertex 24 -2 -14
      vertex 16.26798570744755 -2 5.065160486674141
    endloop
  endfacet
  facet normal 0.9700312531945438 0 -0.2429801799032649
    outer loop
      vertex 16.26798570744755 -20 5.065160486674141
      vertex 16.26798570744755 -2 5.065160486674141
      vertex 16.67334976685492 -2 6.683464525725819
    endloop
  endfacet
  facet normal 0.9700312531945438 0 -0.2429801799032649
    outer loop
      vertex 16.26798570744755 -20 5.065160486674141
      vertex 16.67334976685492 -2 6.683464525725819
      vertex 16.67334976685492 -20 6.683464525725819
    endloop
  endfacet
  facet normal 0 -1 0
    outer loop
      vertex 16.26798570744755 -2 5.065160486674141
      vertex 24 -2 -14
      vertex 16.67334976685492 -2 6.683464525725819
    endloop
  endfacet
  facet normal 0.9700312531945415 0 0.24298017990327367
    outer loop
      vertex 16.652442991522047 -20 13.400000000000006
      vertex 16.67334976685492 -20 13.31653547427418
      vertex 16.652442991522047 -2 13.400000000000006
    endloop
  endfacet
  facet normal 0.9700312531945415 0 0.24298017990327367
    outer loop
      vertex 16.652442991522047 -2 13.400000000000006
      vertex 16.67334976685492 -20 13.31653547427418
      vertex 16.67334976685492 -2 13.31653547427418
    endloop
  endfacet
  facet normal 0 -1 0
    outer loop
      vertex 16.652442991522047 -2 13.400000000000006
      vertex 16.67334976685492 -2 13.31653547427418
      vertex 24 -2 22
    endloop
  endfacet
  facet normal 0.9891765099647811 0 -0.14673047445536094
    outer loop
      vertex 16.67334976685492 -20 6.683464525725819
      vertex 16.67334976685492 -2 6.683464525725819
      vertex 16.918140353427347 -2 8.33370861439747
    endloop
  endfacet
  facet normal 0.9891765099647811 0 -0.14673047445536094
    outer loop
      vertex 16.67334976685492 -20 6.683464525725819
      vertex 16.918140353427347 -2 8.33370861439747
      vertex 16.918140353427347 -20 8.33370861439747
    endloop
  endfacet
  facet normal 0.9891765099647811 0 0.14673047445536094
    outer loop
      vertex 16.67334976685492 -20 13.31653547427418
      vertex 16.918140353427347 -20 11.66629138560253
      vertex 16.67334976685492 -2 13.31653547427418
    endloop
  endfacet
  facet normal 0 -1 0
    outer loop
      vertex 16.67334976685492 -2 6.683464525725819
      vertex 24 -2 -14
      vertex 16.918140353427347 -2 8.33370861439747
    endloop
  endfacet
  facet normal 0.9891765099647811 0 0.14673047445536094
    outer loop
      vertex 16.67334976685492 -2 13.31653547427418
      vertex 16.918140353427347 -20 11.66629138560253
      vertex 16.918140353427347 -2 11.66629138560253
    endloop
  endfacet
  facet normal 0 -1 0
    outer loop
      vertex 16.67334976685492 -2 13.31653547427418
      vertex 16.918140353427347 -2 11.66629138560253
      vertex 24 -2 22
    endloop
  endfacet
  facet normal 0.9987954562051724 0 -0.04906767432741797
    outer loop
      vertex 16.918140353427347 -20 8.33370861439747
      vertex 16.918140353427347 -2 8.33370861439747
      vertex 17 -2 10
    endloop
  endfacet
  facet normal 0.9987954562051724 0 -0.04906767432741797
    outer loop
      vertex 16.918140353427347 -20 8.33370861439747
      vertex 17 -2 10
      vertex 17 -20 10
    endloop
  endfacet
  facet normal 0.9987954562051724 0 0.04906767432741797
    outer loop
      vertex 16.918140353427347 -20 11.66629138560253
      vertex 17 -20 10
      vertex 16.918140353427347 -2 11.66629138560253
    endloop
  endfacet
  facet normal 0 -1 0
    outer loop
      vertex 16.918140353427347 -2 8.33370861439747
      vertex 24 -2 -14
      vertex 17 -2 10
    endloop
  endfacet
  facet normal 0.9987954562051724 0 0.04906767432741797
    outer loop
      vertex 16.918140353427347 -2 11.66629138560253
      vertex 17 -20 10
      vertex 17 -2 10
    endloop
  endfacet
  facet normal 0 -1 0
    outer loop
      vertex 16.918140353427347 -2 11.66629138560253
      vertex 17 -2 10
      vertex 24 -2 -14
    endloop
  endfacet
  facet normal 0 -1 0
    outer loop
      vertex 16.918140353427347 -2 11.66629138560253
      vertex 24 -2 -14
      vertex 24 -2 22
    endloop
  endfacet
  facet normal 1 0 0
    outer loop
      vertex 24 -2 -14
      vertex 24 0 -14
      vertex 24 -2 22
    endloop
  endfacet
  facet normal 1 0 0
    outer loop
      vertex 24 -2 22
      vertex 24 0 -14
      vertex 24 0 22
    endloop
  endfacet
endsolid OpenSCAD_Model
