solid OpenSCAD_Model
  facet normal -1 0 0
    outer loop
      vertex -21.6 -3.2 -11.600000000000001
      vertex -21.6 -3.2 20.799999999999997
      vertex -21.6 0 20.799999999999997
    endloop
  endfacet
  facet normal 0 0 -1
    outer loop
      vertex -21.6 -3.2 -11.600000000000001
      vertex -21.6 0 -11.600000000000001
      vertex 21.6 0 -11.600000000000001
    endloop
  endfacet
  facet normal -1 0 0
    outer loop
      vertex -21.6 -3.2 -11.600000000000001
      vertex -21.6 0 20.799999999999997
      vertex -21.6 0 -11.600000000000001
    endloop
  endfacet
  facet normal 0 -1 0
    outer loop
      vertex -21.6 -3.2 -11.600000000000001
      vertex -16.7 -3.2 10
      vertex -16.61958493542569 -3.2 11.636886243503662
    endloop
  endfacet
  facet normal 0 -1 0
    outer loop
      vertex -21.6 -3.2 -11.600000000000001
      vertex -16.61958493542569 -3.2 8.363113756496338
      vertex -16.7 -3.2 10
    endloop
  endfacet
  facet normal 0 -1 0
    outer loop
      vertex -21.6 -3.2 -11.600000000000001
      vertex -16.61958493542569 -3.2 11.636886243503662
      vertex -21.6 -3.2 20.799999999999997
    endloop
  endfacet
  facet normal 0 -1 0
    outer loop
      vertex -21.6 -3.2 -11.600000000000001
      vertex -16.379114182733947 -3.2 6.741991622330659
      vertex -16.61958493542569 -3.2 8.363113756496338
    endloop
  endfacet
  facet normal 0 -1 0
    outer loop
      vertex -21.6 -3.2 -11.600000000000001
      vertex -15.980903606727887 -3.2 5.152245889850479
      vertex -16.379114182733947 -3.2 6.741991622330659
    endloop
  endfacet
  facet normal 0 -1 0
    outer loop
      vertex -21.6 -3.2 -11.600000000000001
      vertex -15.428788192938487 -3.2 3.6091866795030008
      vertex -15.980903606727887 -3.2 5.152245889850479
    endloop
  endfacet
  facet normal 0 -1 0
    outer loop
      vertex -21.6 -3.2 -11.600000000000001
      vertex -14.728085114617528 -3.2 2.1276744950058397
      vertex -15.428788192938487 -3.2 3.6091866795030008
    endloop
  endfacet
  facet normal 0 -1 0
    outer loop
      vertex -21.6 -3.2 -11.600000000000001
      vertex -13.885542525452506 -3.2 0.7219771085726432
      vertex -14.728085114617528 -3.2 2.1276744950058397
    endloop
  endfacet
  facet normal 0 -1 0
    outer loop
      vertex -21.6 -3.2 -11.600000000000001
      vertex -12.909274571157708 -3.2 -0.5943678455328794
      vertex -13.885542525452506 -3.2 0.7219771085726432
    endloop
  endfacet
  facet normal 0 -1 0
    outer loop
      vertex -21.6 -3.2 -11.600000000000001
      vertex -11.808683245815343 -3.2 -1.8086832458153435
      vertex -12.909274571157708 -3.2 -0.5943678455328794
    endloop
  endfacet
  facet normal 0 -1 0
    outer loop
      vertex -21.6 -3.2 -11.600000000000001
      vertex -10.59436784553288 -3.2 -2.9092745711577077
      vertex -11.808683245815343 -3.2 -1.8086832458153435
    endloop
  endfacet
  facet normal 0 -1 0
    outer loop
      vertex -21.6 -3.2 -11.600000000000001
      vertex -9.278022891427357 -3.2 -3.8855425254525056
      vertex -10.59436784553288 -3.2 -2.9092745711577077
    endloop
  endfacet
  facet normal 0 -1 0
    outer loop
      vertex -21.6 -3.2 -11.600000000000001
      vertex -7.87232550499416 -3.2 -4.728085114617528
      vertex -9.278022891427357 -3.2 -3.8855425254525056
    endloop
  endfacet
  facet normal 0 -1 0
    outer loop
      vertex -21.6 -3.2 -11.600000000000001
      vertex -6.390813320496999 -3.2 -5.428788192938487
      vertex -7.87232550499416 -3.2 -4.728085114617528
    endloop
  endfacet
  facet normal 0 -1 0
    outer loop
      vertex -21.6 -3.2 -11.600000000000001
      vertex -4.847754110149521 -3.2 -5.980903606727887
      vertex -6.390813320496999 -3.2 -5.428788192938487
    endloop
  endfacet
  facet normal 0 -1 0
    outer loop
      vertex -21.6 -3.2 -11.600000000000001
      vertex -3.258008377669342 -3.2 -6.379114182733947
      vertex -4.847754110149521 -3.2 -5.980903606727887
    endloop
  endfacet
  facet normal 0 -1 0
    outer loop
      vertex -21.6 -3.2 -11.600000000000001
      vertex -1.636886243503662 -3.2 -6.619584935425689
      vertex -3.258008377669342 -3.2 -6.379114182733947
    endloop
  endfacet
  facet normal 0 -1 0
    outer loop
      vertex -21.6 -3.2 -11.600000000000001
      vertex 0 -3.2 -6.699999999999999
      vertex -1.636886243503662 -3.2 -6.619584935425689
    endloop
  endfacet
  facet normal 0 -1 0
    outer loop
      vertex -21.6 -3.2 -11.600000000000001
      vertex 1.636886243503662 -3.2 -6.619584935425689
      vertex 0 -3.2 -6.699999999999999
    endloop
  endfacet
  facet normal 0 -1 0
    outer loop
      vertex -21.6 -3.2 -11.600000000000001
      vertex 3.258008377669342 -3.2 -6.379114182733947
      vertex 1.636886243503662 -3.2 -6.619584935425689
    endloop
  endfacet
  facet normal 0 -1 0
    outer loop
      vertex -21.6 -3.2 -11.600000000000001
      vertex 21.6 -3.2 -11.600000000000001
      vertex 3.258008377669342 -3.2 -6.379114182733947
    endloop
  endfacet
  facet normal 0 0 -1
    outer loop
      vertex -21.6 -3.2 -11.600000000000001
      vertex 21.6 0 -11.600000000000001
      vertex 21.6 -3.2 -11.600000000000001
    endloop
  endfacet
  facet normal 0 -1 0
    outer loop
      vertex -21.6 -3.2 20.799999999999997
      vertex -16.61958493542569 -3.2 11.636886243503662
      vertex -16.379114182733947 -3.2 13.258008377669341
    endloop
  endfacet
  facet normal 0 -1 0
    outer loop
      vertex -21.6 -3.2 20.799999999999997
      vertex -16.379114182733947 -3.2 13.258008377669341
      vertex -16.358576350495184 -3.2 13.340000000000003
    endloop
  endfacet
  facet normal 0 -1 0
    outer loop
      vertex -21.6 -3.2 20.799999999999997
      vertex -16.358576350495184 -3.2 13.340000000000003
      vertex -13.063687191686249 -3.2 13.340000000000003
    endloop
  endfacet
  facet normal 0 -1 0
    outer loop
      vertex -21.6 -3.2 20.799999999999997
      vertex -13.063687191686249 -3.2 13.340000000000003
      vertex 5.1662263369287125 -3.2 -2.472373688902371
    endloop
  endfacet
  facet normal 0 -1 0
    outer loop
      vertex -21.6 -3.2 20.799999999999997
      vertex 5.1662263369287125 -3.2 -2.472373688902371
      vertex 6.363855947150968 -3.2 -1.9059370687027926
    endloop
  endfacet
  facet normal 0 -1 0
    outer loop
      vertex -21.6 -3.2 20.799999999999997
      vertex 6.363855947150968 -3.2 -1.9059370687027926
      vertex 7.50019814576463 -3.2 -1.2248397660843615
    endloop
  endfacet
  facet normal 0 -1 0
    outer loop
      vertex -21.6 -3.2 20.799999999999997
      vertex 7.50019814576463 -3.2 -1.2248397660843615
      vertex 8.564309336209215 -3.2 -0.4356411203969497
    endloop
  endfacet
  facet normal 0 -1 0
    outer loop
      vertex -21.6 -3.2 20.799999999999997
      vertex 8.564309336209215 -3.2 -0.4356411203969497
      vertex 9.545941546018392 -3.2 0.4540584539816077
    endloop
  endfacet
  facet normal 0 -1 0
    outer loop
      vertex -21.6 -3.2 20.799999999999997
      vertex 9.545941546018392 -3.2 0.4540584539816077
      vertex 10.43564112039695 -3.2 1.4356906637907851
    endloop
  endfacet
  facet normal 0 -1 0
    outer loop
      vertex -21.6 -3.2 20.799999999999997
      vertex 10.43564112039695 -3.2 1.4356906637907851
      vertex 11.224839766084362 -3.2 2.49980185423537
    endloop
  endfacet
  facet normal 0 -1 0
    outer loop
      vertex -21.6 -3.2 20.799999999999997
      vertex 11.224839766084362 -3.2 2.49980185423537
      vertex 11.905937068702793 -3.2 3.6361440528490316
    endloop
  endfacet
  facet normal 0 -1 0
    outer loop
      vertex -21.6 -3.2 20.799999999999997
      vertex 11.905937068702793 -3.2 3.6361440528490316
      vertex 12.47237368890237 -3.2 4.8337736630712875
    endloop
  endfacet
  facet normal 0 -1 0
    outer loop
      vertex -21.6 -3.2 20.799999999999997
      vertex 12.47237368890237 -3.2 4.8337736630712875
      vertex 12.91869453238482 -3.2 6.081156857064759
    endloop
  endfacet
  facet normal 0 -1 0
    outer loop
      vertex -21.6 -3.2 20.799999999999997
      vertex 12.91869453238482 -3.2 6.081156857064759
      vertex 13.24060128544361 -3.2 7.366280652782269
    endloop
  endfacet
  facet normal 0 -1 0
    outer loop
      vertex -21.6 -3.2 20.799999999999997
      vertex 13.063687191686249 -3.2 13.340000000000003
      vertex 21.6 -3.2 20.799999999999997
    endloop
  endfacet
  facet normal 0 -1 0
    outer loop
      vertex -21.6 -3.2 20.799999999999997
      vertex 13.24060128544361 -3.2 7.366280652782269
      vertex 13.434993810074658 -3.2 8.676768605550931
    endloop
  endfacet
  facet normal 0 -1 0
    outer loop
      vertex -21.6 -3.2 20.799999999999997
      vertex 13.24060128544361 -3.2 12.633719347217731
      vertex 13.063687191686249 -3.2 13.340000000000003
    endloop
  endfacet
  facet normal 0 -1 0
    outer loop
      vertex -21.6 -3.2 20.799999999999997
      vertex 13.434993810074658 -3.2 8.676768605550931
      vertex 13.5 -3.2 10
    endloop
  endfacet
  facet normal 0 -1 0
    outer loop
      vertex -21.6 -3.2 20.799999999999997
      vertex 13.434993810074658 -3.2 11.323231394449069
      vertex 13.24060128544361 -3.2 12.633719347217731
    endloop
  endfacet
  facet normal 0 -1 0
    outer loop
      vertex -21.6 -3.2 20.799999999999997
      vertex 13.5 -3.2 10
      vertex 13.434993810074658 -3.2 11.323231394449069
    endloop
  endfacet
  facet normal 0 0 1
    outer loop
      vertex -21.6 -3.2 20.799999999999997
      vertex 21.6 -3.2 20.799999999999997
      vertex -21.6 0 20.799999999999997
    endloop
  endfacet
  facet normal 0 1 0
    outer loop
      vertex -21.6 0 -11.600000000000001
      vertex -21.6 0 20.799999999999997
      vertex 21.6 0 -11.600000000000001
    endloop
  endfacet
  facet normal 0 0 1
    outer loop
      vertex -21.6 0 20.799999999999997
      vertex 21.6 -3.2 20.799999999999997
      vertex 21.6 0 20.799999999999997
    endloop
  endfacet
  facet normal 0 1 0
    outer loop
      vertex -21.6 0 20.799999999999997
      vertex 21.6 0 20.799999999999997
      vertex 21.6 0 -11.600000000000001
    endloop
  endfacet
  facet normal -0.9987954562051724 0 -0.0490676743274172
    outer loop
      vertex -16.7 -20 10
      vertex -16.7 -3.2 10
      vertex -16.61958493542569 -3.2 8.363113756496338
    endloop
  endfacet
  facet normal 0 -1 0
    outer loop
      vertex -16.7 -20 10
      vertex -16.61958493542569 -20 8.363113756496338
      vertex -13.5 -20 10
    endloop
  endfacet
  facet normal -0.9987954562051724 0 0.0490676743274172
    outer loop
      vertex -16.7 -20 10
      vertex -16.61958493542569 -20 11.636886243503662
      vertex -16.7 -3.2 10
    endloop
  endfacet
  facet normal -0.9987954562051724 0 -0.0490676743274172
    outer loop
      vertex -16.7 -20 10
      vertex -16.61958493542569 -3.2 8.363113756496338
      vertex -16.61958493542569 -20 8.363113756496338
    endloop
  endfacet
  facet normal 0 -1 0
    outer loop
      vertex -16.7 -20 10
      vertex -13.5 -20 10
      vertex -13.434993810074658 -20 11.323231394449069
    endloop
  endfacet
  facet normal 0 -1 0
    outer loop
      vertex -16.7 -20 10
      vertex -13.434993810074658 -20 11.323231394449069
      vertex -16.61958493542569 -20 11.636886243503662
    endloop
  endfacet
  facet normal -0.9987954562051724 0 0.0490676743274172
    outer loop
      vertex -16.7 -3.2 10
      vertex -16.61958493542569 -20 11.636886243503662
      vertex -16.61958493542569 -3.2 11.636886243503662
    endloop
  endfacet
  facet normal -0.9891765099647808 0 -0.14673047445536336
    outer loop
      vertex -16.61958493542569 -20 8.363113756496338
      vertex -16.61958493542569 -3.2 8.363113756496338
      vertex -16.379114182733947 -3.2 6.741991622330659
    endloop
  endfacet
  facet normal 0 -1 0
    outer loop
      vertex -16.61958493542569 -20 8.363113756496338
      vertex -16.379114182733947 -20 6.741991622330659
      vertex -13.434993810074658 -20 8.676768605550931
    endloop
  endfacet
  facet normal -0.9891765099647808 0 -0.14673047445536336
    outer loop
      vertex -16.61958493542569 -20 8.363113756496338
      vertex -16.379114182733947 -3.2 6.741991622330659
      vertex -16.379114182733947 -20 6.741991622330659
    endloop
  endfacet
  facet normal 0 -1 0
    outer loop
      vertex -16.61958493542569 -20 8.363113756496338
      vertex -13.434993810074658 -20 8.676768605550931
      vertex -13.5 -20 10
    endloop
  endfacet
  facet normal -0.9891765099647808 0 0.14673047445536336
    outer loop
      vertex -16.61958493542569 -20 11.636886243503662
      vertex -16.379114182733947 -20 13.258008377669341
      vertex -16.61958493542569 -3.2 11.636886243503662
    endloop
  endfacet
  facet normal 0 -1 0
    outer loop
      vertex -16.61958493542569 -20 11.636886243503662
      vertex -13.434993810074658 -20 11.323231394449069
      vertex -13.24060128544361 -20 12.633719347217731
    endloop
  endfacet
  facet normal 0 -1 0
    outer loop
      vertex -16.61958493542569 -20 11.636886243503662
      vertex -13.24060128544361 -20 12.633719347217731
      vertex -16.379114182733947 -20 13.258008377669341
    endloop
  endfacet
  facet normal -0.9891765099647808 0 0.14673047445536336
    outer loop
      vertex -16.61958493542569 -3.2 11.636886243503662
      vertex -16.379114182733947 -20 13.258008377669341
      vertex -16.379114182733947 -3.2 13.258008377669341
    endloop
  endfacet
  facet normal -0.9700312531945441 0 -0.24298017990326332
    outer loop
      vertex -16.379114182733947 -20 6.741991622330659
      vertex -16.379114182733947 -3.2 6.741991622330659
      vertex -15.980903606727887 -3.2 5.152245889850479
    endloop
  endfacet
  facet normal 0 -1 0
    outer loop
      vertex -16.379114182733947 -20 6.741991622330659
      vertex -15.980903606727887 -20 5.152245889850479
      vertex -13.24060128544361 -20 7.366280652782269
    endloop
  endfacet
  facet normal -0.9700312531945441 0 -0.24298017990326332
    outer loop
      vertex -16.379114182733947 -20 6.741991622330659
      vertex -15.980903606727887 -3.2 5.152245889850479
      vertex -15.980903606727887 -20 5.152245889850479
    endloop
  endfacet
  facet normal 0 -1 0
    outer loop
      vertex -16.379114182733947 -20 6.741991622330659
      vertex -13.24060128544361 -20 7.366280652782269
      vertex -13.434993810074658 -20 8.676768605550931
    endloop
  endfacet
  facet normal -0.9700312531945405 0 0.2429801799032782
    outer loop
      vertex -16.379114182733947 -20 13.258008377669341
      vertex -16.358576350495184 -20 13.340000000000003
      vertex -16.379114182733947 -3.2 13.258008377669341
    endloop
  endfacet
  facet normal 0 -1 0
    outer loop
      vertex -16.379114182733947 -20 13.258008377669341
      vertex -13.24060128544361 -20 12.633719347217731
      vertex -13.063687191686249 -20 13.340000000000003
    endloop
  endfacet
  facet normal 0 -1 0
    outer loop
      vertex -16.379114182733947 -20 13.258008377669341
      vertex -13.063687191686249 -20 13.340000000000003
      vertex -16.358576350495184 -20 13.340000000000003
    endloop
  endfacet
  facet normal -0.9700312531945405 0 0.2429801799032782
    outer loop
      vertex -16.379114182733947 -3.2 13.258008377669341
      vertex -16.358576350495184 -20 13.340000000000003
      vertex -16.358576350495184 -3.2 13.340000000000003
    endloop
  endfacet
  facet normal 0 0 1
    outer loop
      vertex -16.358576350495184 -20 13.340000000000003
      vertex -13.063687191686249 -20 13.340000000000003
      vertex -13.063687191686249 -3.2 13.340000000000003
    endloop
  endfacet
  facet normal 0 0 1
    outer loop
      vertex -16.358576350495184 -20 13.340000000000003
      vertex -13.063687191686249 -3.2 13.340000000000003
      vertex -16.358576350495184 -3.2 13.340000000000003
    endloop
  endfacet
  facet normal -0.9415440651830208 0 -0.3368898533922202
    outer loop
      vertex -15.980903606727887 -20 5.152245889850479
      vertex -15.980903606727887 -3.2 5.152245889850479
      vertex -15.428788192938487 -3.2 3.6091866795030008
    endloop
  endfacet
  facet normal 0 -1 0
    outer loop
      vertex -15.980903606727887 -20 5.152245889850479
      vertex -15.428788192938487 -20 3.6091866795030008
      vertex -12.91869453238482 -20 6.081156857064759
    endloop
  endfacet
  facet normal -0.9415440651830208 0 -0.3368898533922202
    outer loop
      vertex -15.980903606727887 -20 5.152245889850479
      vertex -15.428788192938487 -3.2 3.6091866795030008
      vertex -15.428788192938487 -20 3.6091866795030008
    endloop
  endfacet
  facet normal 0 -1 0
    outer loop
      vertex -15.980903606727887 -20 5.152245889850479
      vertex -12.91869453238482 -20 6.081156857064759
      vertex -13.24060128544361 -20 7.366280652782269
    endloop
  endfacet
  facet normal -0.9039892931234434 0 -0.427555093430282
    outer loop
      vertex -15.428788192938487 -20 3.6091866795030008
      vertex -15.428788192938487 -3.2 3.6091866795030008
      vertex -14.728085114617528 -3.2 2.1276744950058397
    endloop
  endfacet
  facet normal 0 -1 0
    outer loop
      vertex -15.428788192938487 -20 3.6091866795030008
      vertex -14.728085114617528 -20 2.1276744950058397
      vertex -11.905937068702793 -20 3.6361440528490316
    endloop
  endfacet
  facet normal -0.9039892931234434 0 -0.427555093430282
    outer loop
      vertex -15.428788192938487 -20 3.6091866795030008
      vertex -14.728085114617528 -3.2 2.1276744950058397
      vertex -14.728085114617528 -20 2.1276744950058397
    endloop
  endfacet
  facet normal 0 -1 0
    outer loop
      vertex -15.428788192938487 -20 3.6091866795030008
      vertex -12.47237368890237 -20 4.8337736630712875
      vertex -12.91869453238482 -20 6.081156857064759
    endloop
  endfacet
  facet normal 0 -1 0
    outer loop
      vertex -15.428788192938487 -20 3.6091866795030008
      vertex -11.905937068702793 -20 3.6361440528490316
      vertex -12.47237368890237 -20 4.8337736630712875
    endloop
  endfacet
  facet normal -0.8577286100002723 0 -0.5141027441932212
    outer loop
      vertex -14.728085114617528 -20 2.1276744950058397
      vertex -14.728085114617528 -3.2 2.1276744950058397
      vertex -13.885542525452506 -3.2 0.7219771085726432
    endloop
  endfacet
  facet normal 0 -1 0
    outer loop
      vertex -14.728085114617528 -20 2.1276744950058397
      vertex -13.885542525452506 -20 0.7219771085726432
      vertex -11.224839766084362 -20 2.49980185423537
    endloop
  endfacet
  facet normal -0.8577286100002723 0 -0.5141027441932212
    outer loop
      vertex -14.728085114617528 -20 2.1276744950058397
      vertex -13.885542525452506 -3.2 0.7219771085726432
      vertex -13.885542525452506 -20 0.7219771085726432
    endloop
  endfacet
  facet normal 0 -1 0
    outer loop
      vertex -14.728085114617528 -20 2.1276744950058397
      vertex -11.224839766084362 -20 2.49980185423537
      vertex -11.905937068702793 -20 3.6361440528490316
    endloop
  endfacet
  facet normal -0.8032075314806448 0 -0.5956993044924332
    outer loop
      vertex -13.885542525452506 -20 0.7219771085726432
      vertex -13.885542525452506 -3.2 0.7219771085726432
      vertex -12.909274571157708 -3.2 -0.5943678455328794
    endloop
  endfacet
  facet normal 0 -1 0
    outer loop
      vertex -13.885542525452506 -20 0.7219771085726432
      vertex -12.909274571157708 -20 -0.5943678455328794
      vertex -10.43564112039695 -20 1.4356906637907851
    endloop
  endfacet
  facet normal -0.8032075314806448 0 -0.5956993044924332
    outer loop
      vertex -13.885542525452506 -20 0.7219771085726432
      vertex -12.909274571157708 -3.2 -0.5943678455328794
      vertex -12.909274571157708 -20 -0.5943678455328794
    endloop
  endfacet
  facet normal 0 -1 0
    outer loop
      vertex -13.885542525452506 -20 0.7219771085726432
      vertex -10.43564112039695 -20 1.4356906637907851
      vertex -11.224839766084362 -20 2.49980185423537
    endloop
  endfacet
  facet normal 0.9987954562051724 0 -0.04906767432741763
    outer loop
      vertex -13.5 -20 10
      vertex -13.5 -3.2 10
      vertex -13.434993810074658 -20 11.323231394449069
    endloop
  endfacet
  facet normal 0.9987954562051724 0 0.04906767432741763
    outer loop
      vertex -13.5 -20 10
      vertex -13.434993810074658 -20 8.676768605550931
      vertex -13.434993810074658 -3.2 8.676768605550931
    endloop
  endfacet
  facet normal 0.9987954562051724 0 0.04906767432741763
    outer loop
      vertex -13.5 -20 10
      vertex -13.434993810074658 -3.2 8.676768605550931
      vertex -13.5 -3.2 10
    endloop
  endfacet
  facet normal 0 -1 0
    outer loop
      vertex -13.5 -3.2 10
      vertex -13.434993810074658 -3.2 8.676768605550931
      vertex -13.434993810074658 -3.2 11.323231394449069
    endloop
  endfacet
  facet normal 0.9987954562051724 0 -0.04906767432741763
    outer loop
      vertex -13.5 -3.2 10
      vertex -13.434993810074658 -3.2 11.323231394449069
      vertex -13.434993810074658 -20 11.323231394449069
    endloop
  endfacet
  facet normal 0.9891765099647807 0 0.14673047445536302
    outer loop
      vertex -13.434993810074658 -20 8.676768605550931
      vertex -13.24060128544361 -20 7.366280652782269
      vertex -13.24060128544361 -3.2 7.366280652782269
    endloop
  endfacet
  facet normal 0.9891765099647807 0 0.14673047445536302
    outer loop
      vertex -13.434993810074658 -20 8.676768605550931
      vertex -13.24060128544361 -3.2 7.366280652782269
      vertex -13.434993810074658 -3.2 8.676768605550931
    endloop
  endfacet
  facet normal 0.9891765099647807 0 -0.14673047445536302
    outer loop
      vertex -13.434993810074658 -20 11.323231394449069
      vertex -13.434993810074658 -3.2 11.323231394449069
      vertex -13.24060128544361 -20 12.633719347217731
    endloop
  endfacet
  facet normal 0 -1 0
    outer loop
      vertex -13.434993810074658 -3.2 8.676768605550931
      vertex -13.24060128544361 -3.2 7.366280652782269
      vertex 1.3232313944490681 -3.2 -3.4349938100746584
    endloop
  endfacet
  facet normal 0 -1 0
    outer loop
      vertex -13.434993810074658 -3.2 8.676768605550931
      vertex 1.3232313944490681 -3.2 -3.4349938100746584
      vertex 2.633719347217731 -3.2 -3.24060128544361
    endloop
  endfacet
  facet normal 0 -1 0
    outer loop
      vertex -13.434993810074658 -3.2 8.676768605550931
      vertex 2.633719347217731 -3.2 -3.24060128544361
      vertex -13.434993810074658 -3.2 11.323231394449069
    endloop
  endfacet
  facet normal 0.9891765099647807 0 -0.14673047445536302
    outer loop
      vertex -13.434993810074658 -3.2 11.323231394449069
      vertex -13.24060128544361 -3.2 12.633719347217731
      vertex -13.24060128544361 -20 12.633719347217731
    endloop
  endfacet
  facet normal 0 -1 0
    outer loop
      vertex -13.434993810074658 -3.2 11.323231394449069
      vertex -13.063687191686249 -3.2 13.340000000000003
      vertex -13.24060128544361 -3.2 12.633719347217731
    endloop
  endfacet
  facet normal 0 -1 0
    outer loop
      vertex -13.434993810074658 -3.2 11.323231394449069
      vertex 2.633719347217731 -3.2 -3.24060128544361
      vertex 3.9188431429352413 -3.2 -2.9186945323848192
    endloop
  endfacet
  facet normal 0 -1 0
    outer loop
      vertex -13.434993810074658 -3.2 11.323231394449069
      vertex 3.9188431429352413 -3.2 -2.9186945323848192
      vertex -13.063687191686249 -3.2 13.340000000000003
    endloop
  endfacet
  facet normal 0.9700312531945441 0 0.2429801799032634
    outer loop
      vertex -13.24060128544361 -20 7.366280652782269
      vertex -12.91869453238482 -20 6.081156857064759
      vertex -12.91869453238482 -3.2 6.081156857064759
    endloop
  endfacet
  facet normal 0.9700312531945441 0 0.2429801799032634
    outer loop
      vertex -13.24060128544361 -20 7.366280652782269
      vertex -12.91869453238482 -3.2 6.081156857064759
      vertex -13.24060128544361 -3.2 7.366280652782269
    endloop
  endfacet
  facet normal 0.9700312531945443 0 -0.24298017990326226
    outer loop
      vertex -13.24060128544361 -20 12.633719347217731
      vertex -13.24060128544361 -3.2 12.633719347217731
      vertex -13.063687191686249 -20 13.340000000000003
    endloop
  endfacet
  facet normal 0 -1 0
    outer loop
      vertex -13.24060128544361 -3.2 7.366280652782269
      vertex -12.91869453238482 -3.2 6.081156857064759
      vertex 0 -3.2 -3.5
    endloop
  endfacet
  facet normal 0 -1 0
    outer loop
      vertex -13.24060128544361 -3.2 7.366280652782269
      vertex 0 -3.2 -3.5
      vertex 1.3232313944490681 -3.2 -3.4349938100746584
    endloop
  endfacet
  facet normal 0.9700312531945443 0 -0.24298017990326226
    outer loop
      vertex -13.24060128544361 -3.2 12.633719347217731
      vertex -13.063687191686249 -3.2 13.340000000000003
      vertex -13.063687191686249 -20 13.340000000000003
    endloop
  endfacet
  facet normal 0 -1 0
    outer loop
      vertex -13.063687191686249 -3.2 13.340000000000003
      vertex 3.9188431429352413 -3.2 -2.9186945323848192
      vertex 5.1662263369287125 -3.2 -2.472373688902371
    endloop
  endfacet
  facet normal 0.9415440651830209 0 0.33688985339221966
    outer loop
      vertex -12.91869453238482 -20 6.081156857064759
      vertex -12.47237368890237 -20 4.8337736630712875
      vertex -12.47237368890237 -3.2 4.8337736630712875
    endloop
  endfacet
  facet normal 0.9415440651830209 0 0.33688985339221966
    outer loop
      vertex -12.91869453238482 -20 6.081156857064759
      vertex -12.47237368890237 -3.2 4.8337736630712875
      vertex -12.91869453238482 -3.2 6.081156857064759
    endloop
  endfacet
  facet normal 0 -1 0
    outer loop
      vertex -12.91869453238482 -3.2 6.081156857064759
      vertex -12.47237368890237 -3.2 4.8337736630712875
      vertex -1.3232313944490681 -3.2 -3.4349938100746584
    endloop
  endfacet
  facet normal 0 -1 0
    outer loop
      vertex -12.91869453238482 -3.2 6.081156857064759
      vertex -1.3232313944490681 -3.2 -3.4349938100746584
      vertex 0 -3.2 -3.5
    endloop
  endfacet
  facet normal -0.7409511253549589 0 -0.6715589548470186
    outer loop
      vertex -12.909274571157708 -20 -0.5943678455328794
      vertex -12.909274571157708 -3.2 -0.5943678455328794
      vertex -11.808683245815343 -3.2 -1.8086832458153435
    endloop
  endfacet
  facet normal 0 -1 0
    outer loop
      vertex -12.909274571157708 -20 -0.5943678455328794
      vertex -11.808683245815343 -20 -1.8086832458153435
      vertex -8.564309336209215 -20 -0.4356411203969497
    endloop
  endfacet
  facet normal -0.7409511253549589 0 -0.6715589548470186
    outer loop
      vertex -12.909274571157708 -20 -0.5943678455328794
      vertex -11.808683245815343 -3.2 -1.8086832458153435
      vertex -11.808683245815343 -20 -1.8086832458153435
    endloop
  endfacet
  facet normal 0 -1 0
    outer loop
      vertex -12.909274571157708 -20 -0.5943678455328794
      vertex -9.545941546018392 -20 0.4540584539816077
      vertex -10.43564112039695 -20 1.4356906637907851
    endloop
  endfacet
  facet normal 0 -1 0
    outer loop
      vertex -12.909274571157708 -20 -0.5943678455328794
      vertex -8.564309336209215 -20 -0.4356411203969497
      vertex -9.545941546018392 -20 0.4540584539816077
    endloop
  endfacet
  facet normal 0.9039892931234433 0 0.4275550934302823
    outer loop
      vertex -12.47237368890237 -20 4.8337736630712875
      vertex -11.905937068702793 -20 3.6361440528490316
      vertex -11.905937068702793 -3.2 3.6361440528490316
    endloop
  endfacet
  facet normal 0.9039892931234433 0 0.4275550934302823
    outer loop
      vertex -12.47237368890237 -20 4.8337736630712875
      vertex -11.905937068702793 -3.2 3.6361440528490316
      vertex -12.47237368890237 -3.2 4.8337736630712875
    endloop
  endfacet
  facet normal 0 -1 0
    outer loop
      vertex -12.47237368890237 -3.2 4.8337736630712875
      vertex -11.905937068702793 -3.2 3.6361440528490316
      vertex -2.633719347217731 -3.2 -3.24060128544361
    endloop
  endfacet
  facet normal 0 -1 0
    outer loop
      vertex -12.47237368890237 -3.2 4.8337736630712875
      vertex -2.633719347217731 -3.2 -3.24060128544361
      vertex -1.3232313944490681 -3.2 -3.4349938100746584
    endloop
  endfacet
  facet normal 0.8577286100002725 0 0.5141027441932212
    outer loop
      vertex -11.905937068702793 -20 3.6361440528490316
      vertex -11.224839766084362 -20 2.49980185423537
      vertex -11.224839766084362 -3.2 2.49980185423537
    endloop
  endfacet
  facet normal 0.8577286100002725 0 0.5141027441932212
    outer loop
      vertex -11.905937068702793 -20 3.6361440528490316
      vertex -11.224839766084362 -3.2 2.49980185423537
      vertex -11.905937068702793 -3.2 3.6361440528490316
    endloop
  endfacet
  facet normal 0 -1 0
    outer loop
      vertex -11.905937068702793 -3.2 3.6361440528490316
      vertex -11.224839766084362 -3.2 2.49980185423537
      vertex -2.633719347217731 -3.2 -3.24060128544361
    endloop
  endfacet
  facet normal -0.6715589548470186 0 -0.7409511253549589
    outer loop
      vertex -11.808683245815343 -20 -1.8086832458153435
      vertex -11.808683245815343 -3.2 -1.8086832458153435
      vertex -10.59436784553288 -3.2 -2.9092745711577077
    endloop
  endfacet
  facet normal 0 -1 0
    outer loop
      vertex -11.808683245815343 -20 -1.8086832458153435
      vertex -10.59436784553288 -20 -2.9092745711577077
      vertex -7.50019814576463 -20 -1.2248397660843615
    endloop
  endfacet
  facet normal -0.6715589548470186 0 -0.7409511253549589
    outer loop
      vertex -11.808683245815343 -20 -1.8086832458153435
      vertex -10.59436784553288 -3.2 -2.9092745711577077
      vertex -10.59436784553288 -20 -2.9092745711577077
    endloop
  endfacet
  facet normal 0 -1 0
    outer loop
      vertex -11.808683245815343 -20 -1.8086832458153435
      vertex -7.50019814576463 -20 -1.2248397660843615
      vertex -8.564309336209215 -20 -0.4356411203969497
    endloop
  endfacet
  facet normal 0.8032075314806452 0 0.595699304492433
    outer loop
      vertex -11.224839766084362 -20 2.49980185423537
      vertex -10.43564112039695 -20 1.4356906637907851
      vertex -10.43564112039695 -3.2 1.4356906637907851
    endloop
  endfacet
  facet normal 0.8032075314806452 0 0.595699304492433
    outer loop
      vertex -11.224839766084362 -20 2.49980185423537
      vertex -10.43564112039695 -3.2 1.4356906637907851
      vertex -11.224839766084362 -3.2 2.49980185423537
    endloop
  endfacet
  facet normal 0 -1 0
    outer loop
      vertex -11.224839766084362 -3.2 2.49980185423537
      vertex -10.43564112039695 -3.2 1.4356906637907851
      vertex -5.1662263369287125 -3.2 -2.472373688902371
    endloop
  endfacet
  facet normal 0 -1 0
    outer loop
      vertex -11.224839766084362 -3.2 2.49980185423537
      vertex -5.1662263369287125 -3.2 -2.472373688902371
      vertex -3.9188431429352413 -3.2 -2.9186945323848192
    endloop
  endfacet
  facet normal 0 -1 0
    outer loop
      vertex -11.224839766084362 -3.2 2.49980185423537
      vertex -3.9188431429352413 -3.2 -2.9186945323848192
      vertex -2.633719347217731 -3.2 -3.24060128544361
    endloop
  endfacet
  facet normal -0.5956993044924332 0 -0.8032075314806448
    outer loop
      vertex -10.59436784553288 -20 -2.9092745711577077
      vertex -10.59436784553288 -3.2 -2.9092745711577077
      vertex -9.278022891427357 -3.2 -3.8855425254525056
    endloop
  endfacet
  facet normal 0 -1 0
    outer loop
      vertex -10.59436784553288 -20 -2.9092745711577077
      vertex -9.278022891427357 -20 -3.8855425254525056
      vertex -5.1662263369287125 -20 -2.472373688902371
    endloop
  endfacet
  facet normal -0.5956993044924332 0 -0.8032075314806448
    outer loop
      vertex -10.59436784553288 -20 -2.9092745711577077
      vertex -9.278022891427357 -3.2 -3.8855425254525056
      vertex -9.278022891427357 -20 -3.8855425254525056
    endloop
  endfacet
  facet normal 0 -1 0
    outer loop
      vertex -10.59436784553288 -20 -2.9092745711577077
      vertex -6.363855947150968 -20 -1.9059370687027926
      vertex -7.50019814576463 -20 -1.2248397660843615
    endloop
  endfacet
  facet normal 0 -1 0
    outer loop
      vertex -10.59436784553288 -20 -2.9092745711577077
      vertex -5.1662263369287125 -20 -2.472373688902371
      vertex -6.363855947150968 -20 -1.9059370687027926
    endloop
  endfacet
  facet normal 0.7409511253549591 0 0.6715589548470183
    outer loop
      vertex -10.43564112039695 -20 1.4356906637907851
      vertex -9.545941546018392 -20 0.4540584539816077
      vertex -9.545941546018392 -3.2 0.4540584539816077
    endloop
  endfacet
  facet normal 0.7409511253549591 0 0.6715589548470183
    outer loop
      vertex -10.43564112039695 -20 1.4356906637907851
      vertex -9.545941546018392 -3.2 0.4540584539816077
      vertex -10.43564112039695 -3.2 1.4356906637907851
    endloop
  endfacet
  facet normal 0 -1 0
    outer loop
      vertex -10.43564112039695 -3.2 1.4356906637907851
      vertex -9.545941546018392 -3.2 0.4540584539816077
      vertex -6.363855947150968 -3.2 -1.9059370687027926
    endloop
  endfacet
  facet normal 0 -1 0
    outer loop
      vertex -10.43564112039695 -3.2 1.4356906637907851
      vertex -6.363855947150968 -3.2 -1.9059370687027926
      vertex -5.1662263369287125 -3.2 -2.472373688902371
    endloop
  endfacet
  facet normal 0.6715589548470183 0 0.7409511253549591
    outer loop
      vertex -9.545941546018392 -20 0.4540584539816077
      vertex -8.564309336209215 -20 -0.4356411203969497
      vertex -8.564309336209215 -3.2 -0.4356411203969497
    endloop
  endfacet
  facet normal 0.6715589548470183 0 0.7409511253549591
    outer loop
      vertex -9.545941546018392 -20 0.4540584539816077
      vertex -8.564309336209215 -3.2 -0.4356411203969497
      vertex -9.545941546018392 -3.2 0.4540584539816077
    endloop
  endfacet
  facet normal 0 -1 0
    outer loop
      vertex -9.545941546018392 -3.2 0.4540584539816077
      vertex -8.564309336209215 -3.2 -0.4356411203969497
      vertex -7.50019814576463 -3.2 -1.2248397660843615
    endloop
  endfacet
  facet normal 0 -1 0
    outer loop
      vertex -9.545941546018392 -3.2 0.4540584539816077
      vertex -7.50019814576463 -3.2 -1.2248397660843615
      vertex -6.363855947150968 -3.2 -1.9059370687027926
    endloop
  endfacet
  facet normal -0.5141027441932212 0 -0.8577286100002723
    outer loop
      vertex -9.278022891427357 -20 -3.8855425254525056
      vertex -9.278022891427357 -3.2 -3.8855425254525056
      vertex -7.87232550499416 -3.2 -4.728085114617528
    endloop
  endfacet
  facet normal 0 -1 0
    outer loop
      vertex -9.278022891427357 -20 -3.8855425254525056
      vertex -7.87232550499416 -20 -4.728085114617528
      vertex 9.278022891427357 -20 -3.8855425254525056
    endloop
  endfacet
  facet normal -0.5141027441932212 0 -0.8577286100002723
    outer loop
      vertex -9.278022891427357 -20 -3.8855425254525056
      vertex -7.87232550499416 -3.2 -4.728085114617528
      vertex -7.87232550499416 -20 -4.728085114617528
    endloop
  endfacet
  facet normal 0 -1 0
    outer loop
      vertex -9.278022891427357 -20 -3.8855425254525056
      vertex -3.9188431429352413 -20 -2.9186945323848192
      vertex -5.1662263369287125 -20 -2.472373688902371
    endloop
  endfacet
  facet normal 0 -1 0
    outer loop
      vertex -9.278022891427357 -20 -3.8855425254525056
      vertex -2.633719347217731 -20 -3.24060128544361
      vertex -3.9188431429352413 -20 -2.9186945323848192
    endloop
  endfacet
  facet normal 0 -1 0
    outer loop
      vertex -9.278022891427357 -20 -3.8855425254525056
      vertex -1.3232313944490681 -20 -3.4349938100746584
      vertex -2.633719347217731 -20 -3.24060128544361
    endloop
  endfacet
  facet normal 0 -1 0
    outer loop
      vertex -9.278022891427357 -20 -3.8855425254525056
      vertex 0 -20 -3.5
      vertex -1.3232313944490681 -20 -3.4349938100746584
    endloop
  endfacet
  facet normal 0 -1 0
    outer loop
      vertex -9.278022891427357 -20 -3.8855425254525056
      vertex 9.278022891427357 -20 -3.8855425254525056
      vertex 0 -20 -3.5
    endloop
  endfacet
  facet normal 0.595699304492433 0 0.8032075314806452
    outer loop
      vertex -8.564309336209215 -20 -0.4356411203969497
      vertex -7.50019814576463 -20 -1.2248397660843615
      vertex -7.50019814576463 -3.2 -1.2248397660843615
    endloop
  endfacet
  facet normal 0.595699304492433 0 0.8032075314806452
    outer loop
      vertex -8.564309336209215 -20 -0.4356411203969497
      vertex -7.50019814576463 -3.2 -1.2248397660843615
      vertex -8.564309336209215 -3.2 -0.4356411203969497
    endloop
  endfacet
  facet normal -0.427555093430282 0 -0.9039892931234434
    outer loop
      vertex -7.87232550499416 -20 -4.728085114617528
      vertex -7.87232550499416 -3.2 -4.728085114617528
      vertex -6.390813320496999 -3.2 -5.428788192938487
    endloop
  endfacet
  facet normal 0 -1 0
    outer loop
      vertex -7.87232550499416 -20 -4.728085114617528
      vertex -6.390813320496999 -20 -5.428788192938487
      vertex 7.87232550499416 -20 -4.728085114617528
    endloop
  endfacet
  facet normal -0.427555093430282 0 -0.9039892931234434
    outer loop
      vertex -7.87232550499416 -20 -4.728085114617528
      vertex -6.390813320496999 -3.2 -5.428788192938487
      vertex -6.390813320496999 -20 -5.428788192938487
    endloop
  endfacet
  facet normal 0 -1 0
    outer loop
      vertex -7.87232550499416 -20 -4.728085114617528
      vertex 7.87232550499416 -20 -4.728085114617528
      vertex 9.278022891427357 -20 -3.8855425254525056
    endloop
  endfacet
  facet normal 0.5141027441932212 0 0.8577286100002725
    outer loop
      vertex -7.50019814576463 -20 -1.2248397660843615
      vertex -6.363855947150968 -20 -1.9059370687027926
      vertex -6.363855947150968 -3.2 -1.9059370687027926
    endloop
  endfacet
  facet normal 0.5141027441932212 0 0.8577286100002725
    outer loop
      vertex -7.50019814576463 -20 -1.2248397660843615
      vertex -6.363855947150968 -3.2 -1.9059370687027926
      vertex -7.50019814576463 -3.2 -1.2248397660843615
    endloop
  endfacet
  facet normal -0.3368898533922202 0 -0.9415440651830208
    outer loop
      vertex -6.390813320496999 -20 -5.428788192938487
      vertex -6.390813320496999 -3.2 -5.428788192938487
      vertex -4.847754110149521 -3.2 -5.980903606727887
    endloop
  endfacet
  facet normal 0 -1 0
    outer loop
      vertex -6.390813320496999 -20 -5.428788192938487
      vertex -4.847754110149521 -20 -5.980903606727887
      vertex 6.390813320496999 -20 -5.428788192938487
    endloop
  endfacet
  facet normal -0.3368898533922202 0 -0.9415440651830208
    outer loop
      vertex -6.390813320496999 -20 -5.428788192938487
      vertex -4.847754110149521 -3.2 -5.980903606727887
      vertex -4.847754110149521 -20 -5.980903606727887
    endloop
  endfacet
  facet normal 0 -1 0
    outer loop
      vertex -6.390813320496999 -20 -5.428788192938487
      vertex 6.390813320496999 -20 -5.428788192938487
      vertex 7.87232550499416 -20 -4.728085114617528
    endloop
  endfacet
  facet normal 0.4275550934302823 0 0.9039892931234433
    outer loop
      vertex -6.363855947150968 -20 -1.9059370687027926
      vertex -5.1662263369287125 -20 -2.472373688902371
      vertex -5.1662263369287125 -3.2 -2.472373688902371
    endloop
  endfacet
  facet normal 0.4275550934302823 0 0.9039892931234433
    outer loop
      vertex -6.363855947150968 -20 -1.9059370687027926
      vertex -5.1662263369287125 -3.2 -2.472373688902371
      vertex -6.363855947150968 -3.2 -1.9059370687027926
    endloop
  endfacet
  facet normal 0.33688985339221966 0 0.9415440651830209
    outer loop
      vertex -5.1662263369287125 -20 -2.472373688902371
      vertex -3.9188431429352413 -20 -2.9186945323848192
      vertex -3.9188431429352413 -3.2 -2.9186945323848192
    endloop
  endfacet
  facet normal 0.33688985339221966 0 0.9415440651830209
    outer loop
      vertex -5.1662263369287125 -20 -2.472373688902371
      vertex -3.9188431429352413 -3.2 -2.9186945323848192
      vertex -5.1662263369287125 -3.2 -2.472373688902371
    endloop
  endfacet
  facet normal -0.2429801799032634 0 -0.9700312531945442
    outer loop
      vertex -4.847754110149521 -20 -5.980903606727887
      vertex -4.847754110149521 -3.2 -5.980903606727887
      vertex -3.258008377669342 -3.2 -6.379114182733947
    endloop
  endfacet
  facet normal 0 -1 0
    outer loop
      vertex -4.847754110149521 -20 -5.980903606727887
      vertex -3.258008377669342 -20 -6.379114182733947
      vertex 4.847754110149521 -20 -5.980903606727887
    endloop
  endfacet
  facet normal -0.2429801799032634 0 -0.9700312531945442
    outer loop
      vertex -4.847754110149521 -20 -5.980903606727887
      vertex -3.258008377669342 -3.2 -6.379114182733947
      vertex -3.258008377669342 -20 -6.379114182733947
    endloop
  endfacet
  facet normal 0 -1 0
    outer loop
      vertex -4.847754110149521 -20 -5.980903606727887
      vertex 4.847754110149521 -20 -5.980903606727887
      vertex 6.390813320496999 -20 -5.428788192938487
    endloop
  endfacet
  facet normal 0.2429801799032634 0 0.9700312531945441
    outer loop
      vertex -3.9188431429352413 -20 -2.9186945323848192
      vertex -2.633719347217731 -20 -3.24060128544361
      vertex -2.633719347217731 -3.2 -3.24060128544361
    endloop
  endfacet
  facet normal 0.2429801799032634 0 0.9700312531945441
    outer loop
      vertex -3.9188431429352413 -20 -2.9186945323848192
      vertex -2.633719347217731 -3.2 -3.24060128544361
      vertex -3.9188431429352413 -3.2 -2.9186945323848192
    endloop
  endfacet
  facet normal -0.1467304744553633 0 -0.9891765099647808
    outer loop
      vertex -3.258008377669342 -20 -6.379114182733947
      vertex -3.258008377669342 -3.2 -6.379114182733947
      vertex -1.636886243503662 -3.2 -6.619584935425689
    endloop
  endfacet
  facet normal 0 -1 0
    outer loop
      vertex -3.258008377669342 -20 -6.379114182733947
      vertex -1.636886243503662 -20 -6.619584935425689
      vertex 3.258008377669342 -20 -6.379114182733947
    endloop
  endfacet
  facet normal -0.1467304744553633 0 -0.9891765099647808
    outer loop
      vertex -3.258008377669342 -20 -6.379114182733947
      vertex -1.636886243503662 -3.2 -6.619584935425689
      vertex -1.636886243503662 -20 -6.619584935425689
    endloop
  endfacet
  facet normal 0 -1 0
    outer loop
      vertex -3.258008377669342 -20 -6.379114182733947
      vertex 3.258008377669342 -20 -6.379114182733947
      vertex 4.847754110149521 -20 -5.980903606727887
    endloop
  endfacet
  facet normal 0.14673047445536297 0 0.9891765099647807
    outer loop
      vertex -2.633719347217731 -20 -3.24060128544361
      vertex -1.3232313944490681 -20 -3.4349938100746584
      vertex -1.3232313944490681 -3.2 -3.4349938100746584
    endloop
  endfacet
  facet normal 0.14673047445536297 0 0.9891765099647807
    outer loop
      vertex -2.633719347217731 -20 -3.24060128544361
      vertex -1.3232313944490681 -3.2 -3.4349938100746584
      vertex -2.633719347217731 -3.2 -3.24060128544361
    endloop
  endfacet
  facet normal -0.04906767432741722 0 -0.9987954562051724
    outer loop
      vertex -1.636886243503662 -20 -6.619584935425689
      vertex -1.636886243503662 -3.2 -6.619584935425689
      vertex 0 -3.2 -6.699999999999999
    endloop
  endfacet
  facet normal 0 -1 0
    outer loop
      vertex -1.636886243503662 -20 -6.619584935425689
      vertex 0 -20 -6.699999999999999
      vertex 1.636886243503662 -20 -6.619584935425689
    endloop
  endfacet
  facet normal -0.04906767432741722 0 -0.9987954562051724
    outer loop
      vertex -1.636886243503662 -20 -6.619584935425689
      vertex 0 -3.2 -6.699999999999999
      vertex 0 -20 -6.699999999999999
    endloop
  endfacet
  facet normal 0 -1 0
    outer loop
      vertex -1.636886243503662 -20 -6.619584935425689
      vertex 1.636886243503662 -20 -6.619584935425689
      vertex 3.258008377669342 -20 -6.379114182733947
    endloop
  endfacet
  facet normal 0.049067674327417654 0 0.9987954562051724
    outer loop
      vertex -1.3232313944490681 -20 -3.4349938100746584
      vertex 0 -20 -3.5
      vertex 0 -3.2 -3.5
    endloop
  endfacet
  facet normal 0.049067674327417654 0 0.9987954562051724
    outer loop
      vertex -1.3232313944490681 -20 -3.4349938100746584
      vertex 0 -3.2 -3.5
      vertex -1.3232313944490681 -3.2 -3.4349938100746584
    endloop
  endfacet
  facet normal 0.04906767432741722 0 -0.9987954562051724
    outer loop
      vertex 0 -20 -6.699999999999999
      vertex 0 -3.2 -6.699999999999999
      vertex 1.636886243503662 -3.2 -6.619584935425689
    endloop
  endfacet
  facet normal 0.04906767432741722 0 -0.9987954562051724
    outer loop
      vertex 0 -20 -6.699999999999999
      vertex 1.636886243503662 -3.2 -6.619584935425689
      vertex 1.636886243503662 -20 -6.619584935425689
    endloop
  endfacet
  facet normal -0.049067674327417654 0 0.9987954562051724
    outer loop
      vertex 0 -20 -3.5
      vertex 1.3232313944490681 -20 -3.4349938100746584
      vertex 1.3232313944490681 -3.2 -3.4349938100746584
    endloop
  endfacet
  facet normal -0.049067674327417654 0 0.9987954562051724
    outer loop
      vertex 0 -20 -3.5
      vertex 1.3232313944490681 -3.2 -3.4349938100746584
      vertex 0 -3.2 -3.5
    endloop
  endfacet
  facet normal 0 -1 0
    outer loop
      vertex 0 -20 -3.5
      vertex 9.278022891427357 -20 -3.8855425254525056
      vertex 1.3232313944490681 -20 -3.4349938100746584
    endloop
  endfacet
  facet normal -0.14673047445536297 0 0.9891765099647807
    outer loop
      vertex 1.3232313944490681 -20 -3.4349938100746584
      vertex 2.633719347217731 -20 -3.24060128544361
      vertex 2.633719347217731 -3.2 -3.24060128544361
    endloop
  endfacet
  facet normal -0.14673047445536297 0 0.9891765099647807
    outer loop
      vertex 1.3232313944490681 -20 -3.4349938100746584
      vertex 2.633719347217731 -3.2 -3.24060128544361
      vertex 1.3232313944490681 -3.2 -3.4349938100746584
    endloop
  endfacet
  facet normal 0 -1 0
    outer loop
      vertex 1.3232313944490681 -20 -3.4349938100746584
      vertex 9.278022891427357 -20 -3.8855425254525056
      vertex 10.59436784553288 -20 -2.9092745711577077
    endloop
  endfacet
  facet normal 0 -1 0
    outer loop
      vertex 1.3232313944490681 -20 -3.4349938100746584
      vertex 10.59436784553288 -20 -2.9092745711577077
      vertex 2.633719347217731 -20 -3.24060128544361
    endloop
  endfacet
  facet normal 0.1467304744553633 0 -0.9891765099647808
    outer loop
      vertex 1.636886243503662 -20 -6.619584935425689
      vertex 1.636886243503662 -3.2 -6.619584935425689
      vertex 3.258008377669342 -3.2 -6.379114182733947
    endloop
  endfacet
  facet normal 0.1467304744553633 0 -0.9891765099647808
    outer loop
      vertex 1.636886243503662 -20 -6.619584935425689
      vertex 3.258008377669342 -3.2 -6.379114182733947
      vertex 3.258008377669342 -20 -6.379114182733947
    endloop
  endfacet
  facet normal -0.2429801799032634 0 0.9700312531945441
    outer loop
      vertex 2.633719347217731 -20 -3.24060128544361
      vertex 3.9188431429352413 -20 -2.9186945323848192
      vertex 3.9188431429352413 -3.2 -2.9186945323848192
    endloop
  endfacet
  facet normal -0.2429801799032634 0 0.9700312531945441
    outer loop
      vertex 2.633719347217731 -20 -3.24060128544361
      vertex 3.9188431429352413 -3.2 -2.9186945323848192
      vertex 2.633719347217731 -3.2 -3.24060128544361
    endloop
  endfacet
  facet normal 0 -1 0
    outer loop
      vertex 2.633719347217731 -20 -3.24060128544361
      vertex 10.59436784553288 -20 -2.9092745711577077
      vertex 3.9188431429352413 -20 -2.9186945323848192
    endloop
  endfacet
  facet normal 0.2429801799032634 0 -0.9700312531945442
    outer loop
      vertex 3.258008377669342 -20 -6.379114182733947
      vertex 3.258008377669342 -3.2 -6.379114182733947
      vertex 4.847754110149521 -3.2 -5.980903606727887
    endloop
  endfacet
  facet normal 0.2429801799032634 0 -0.9700312531945442
    outer loop
      vertex 3.258008377669342 -20 -6.379114182733947
      vertex 4.847754110149521 -3.2 -5.980903606727887
      vertex 4.847754110149521 -20 -5.980903606727887
    endloop
  endfacet
  facet normal 0 -1 0
    outer loop
      vertex 3.258008377669342 -3.2 -6.379114182733947
      vertex 21.6 -3.2 -11.600000000000001
      vertex 4.847754110149521 -3.2 -5.980903606727887
    endloop
  endfacet
  facet normal -0.33688985339221966 0 0.9415440651830209
    outer loop
      vertex 3.9188431429352413 -20 -2.9186945323848192
      vertex 5.1662263369287125 -20 -2.472373688902371
      vertex 5.1662263369287125 -3.2 -2.472373688902371
    endloop
  endfacet
  facet normal -0.33688985339221966 0 0.9415440651830209
    outer loop
      vertex 3.9188431429352413 -20 -2.9186945323848192
      vertex 5.1662263369287125 -3.2 -2.472373688902371
      vertex 3.9188431429352413 -3.2 -2.9186945323848192
    endloop
  endfacet
  facet normal 0 -1 0
    outer loop
      vertex 3.9188431429352413 -20 -2.9186945323848192
      vertex 10.59436784553288 -20 -2.9092745711577077
      vertex 5.1662263369287125 -20 -2.472373688902371
    endloop
  endfacet
  facet normal 0.3368898533922202 0 -0.9415440651830208
    outer loop
      vertex 4.847754110149521 -20 -5.980903606727887
      vertex 4.847754110149521 -3.2 -5.980903606727887
      vertex 6.390813320496999 -3.2 -5.428788192938487
    endloop
  endfacet
  facet normal 0.3368898533922202 0 -0.9415440651830208
    outer loop
      vertex 4.847754110149521 -20 -5.980903606727887
      vertex 6.390813320496999 -3.2 -5.428788192938487
      vertex 6.390813320496999 -20 -5.428788192938487
    endloop
  endfacet
  facet normal 0 -1 0
    outer loop
      vertex 4.847754110149521 -3.2 -5.980903606727887
      vertex 21.6 -3.2 -11.600000000000001
      vertex 6.390813320496999 -3.2 -5.428788192938487
    endloop
  endfacet
  facet normal -0.4275550934302823 0 0.9039892931234433
    outer loop
      vertex 5.1662263369287125 -20 -2.472373688902371
      vertex 6.363855947150968 -20 -1.9059370687027926
      vertex 6.363855947150968 -3.2 -1.9059370687027926
    endloop
  endfacet
  facet normal -0.4275550934302823 0 0.9039892931234433
    outer loop
      vertex 5.1662263369287125 -20 -2.472373688902371
      vertex 6.363855947150968 -3.2 -1.9059370687027926
      vertex 5.1662263369287125 -3.2 -2.472373688902371
    endloop
  endfacet
  facet normal 0 -1 0
    outer loop
      vertex 5.1662263369287125 -20 -2.472373688902371
      vertex 10.59436784553288 -20 -2.9092745711577077
      vertex 11.808683245815343 -20 -1.8086832458153435
    endloop
  endfacet
  facet normal 0 -1 0
    outer loop
      vertex 5.1662263369287125 -20 -2.472373688902371
      vertex 11.808683245815343 -20 -1.8086832458153435
      vertex 6.363855947150968 -20 -1.9059370687027926
    endloop
  endfacet
  facet normal -0.5141027441932212 0 0.8577286100002725
    outer loop
      vertex 6.363855947150968 -20 -1.9059370687027926
      vertex 7.50019814576463 -20 -1.2248397660843615
      vertex 7.50019814576463 -3.2 -1.2248397660843615
    endloop
  endfacet
  facet normal -0.5141027441932212 0 0.8577286100002725
    outer loop
      vertex 6.363855947150968 -20 -1.9059370687027926
      vertex 7.50019814576463 -3.2 -1.2248397660843615
      vertex 6.363855947150968 -3.2 -1.9059370687027926
    endloop
  endfacet
  facet normal 0 -1 0
    outer loop
      vertex 6.363855947150968 -20 -1.9059370687027926
      vertex 11.808683245815343 -20 -1.8086832458153435
      vertex 7.50019814576463 -20 -1.2248397660843615
    endloop
  endfacet
  facet normal 0.427555093430282 0 -0.9039892931234434
    outer loop
      vertex 6.390813320496999 -20 -5.428788192938487
      vertex 6.390813320496999 -3.2 -5.428788192938487
      vertex 7.87232550499416 -3.2 -4.728085114617528
    endloop
  endfacet
  facet normal 0.427555093430282 0 -0.9039892931234434
    outer loop
      vertex 6.390813320496999 -20 -5.428788192938487
      vertex 7.87232550499416 -3.2 -4.728085114617528
      vertex 7.87232550499416 -20 -4.728085114617528
    endloop
  endfacet
  facet normal 0 -1 0
    outer loop
      vertex 6.390813320496999 -3.2 -5.428788192938487
      vertex 21.6 -3.2 -11.600000000000001
      vertex 7.87232550499416 -3.2 -4.728085114617528
    endloop
  endfacet
  facet normal -0.595699304492433 0 0.8032075314806452
    outer loop
      vertex 7.50019814576463 -20 -1.2248397660843615
      vertex 8.564309336209215 -20 -0.4356411203969497
      vertex 8.564309336209215 -3.2 -0.4356411203969497
    endloop
  endfacet
  facet normal -0.595699304492433 0 0.8032075314806452
    outer loop
      vertex 7.50019814576463 -20 -1.2248397660843615
      vertex 8.564309336209215 -3.2 -0.4356411203969497
      vertex 7.50019814576463 -3.2 -1.2248397660843615
    endloop
  endfacet
  facet normal 0 -1 0
    outer loop
      vertex 7.50019814576463 -20 -1.2248397660843615
      vertex 11.808683245815343 -20 -1.8086832458153435
      vertex 12.909274571157708 -20 -0.5943678455328794
    endloop
  endfacet
  facet normal 0 -1 0
    outer loop
      vertex 7.50019814576463 -20 -1.2248397660843615
      vertex 12.909274571157708 -20 -0.5943678455328794
      vertex 8.564309336209215 -20 -0.4356411203969497
    endloop
  endfacet
  facet normal 0.5141027441932212 0 -0.8577286100002723
    outer loop
      vertex 7.87232550499416 -20 -4.728085114617528
      vertex 7.87232550499416 -3.2 -4.728085114617528
      vertex 9.278022891427357 -3.2 -3.8855425254525056
    endloop
  endfacet
  facet normal 0.5141027441932212 0 -0.8577286100002723
    outer loop
      vertex 7.87232550499416 -20 -4.728085114617528
      vertex 9.278022891427357 -3.2 -3.8855425254525056
      vertex 9.278022891427357 -20 -3.8855425254525056
    endloop
  endfacet
  facet normal 0 -1 0
    outer loop
      vertex 7.87232550499416 -3.2 -4.728085114617528
      vertex 21.6 -3.2 -11.600000000000001
      vertex 9.278022891427357 -3.2 -3.8855425254525056
    endloop
  endfacet
  facet normal -0.6715589548470183 0 0.7409511253549591
    outer loop
      vertex 8.564309336209215 -20 -0.4356411203969497
      vertex 9.545941546018392 -20 0.4540584539816077
      vertex 9.545941546018392 -3.2 0.4540584539816077
    endloop
  endfacet
  facet normal -0.6715589548470183 0 0.7409511253549591
    outer loop
      vertex 8.564309336209215 -20 -0.4356411203969497
      vertex 9.545941546018392 -3.2 0.4540584539816077
      vertex 8.564309336209215 -3.2 -0.4356411203969497
    endloop
  endfacet
  facet normal 0 -1 0
    outer loop
      vertex 8.564309336209215 -20 -0.4356411203969497
      vertex 12.909274571157708 -20 -0.5943678455328794
      vertex 9.545941546018392 -20 0.4540584539816077
    endloop
  endfacet
  facet normal 0.5956993044924332 0 -0.8032075314806448
    outer loop
      vertex 9.278022891427357 -20 -3.8855425254525056
      vertex 9.278022891427357 -3.2 -3.8855425254525056
      vertex 10.59436784553288 -3.2 -2.9092745711577077
    endloop
  endfacet
  facet normal 0.5956993044924332 0 -0.8032075314806448
    outer loop
      vertex 9.278022891427357 -20 -3.8855425254525056
      vertex 10.59436784553288 -3.2 -2.9092745711577077
      vertex 10.59436784553288 -20 -2.9092745711577077
    endloop
  endfacet
  facet normal 0 -1 0
    outer loop
      vertex 9.278022891427357 -3.2 -3.8855425254525056
      vertex 21.6 -3.2 -11.600000000000001
      vertex 10.59436784553288 -3.2 -2.9092745711577077
    endloop
  endfacet
  facet normal -0.7409511253549591 0 0.6715589548470183
    outer loop
      vertex 9.545941546018392 -20 0.4540584539816077
      vertex 10.43564112039695 -20 1.4356906637907851
      vertex 10.43564112039695 -3.2 1.4356906637907851
    endloop
  endfacet
  facet normal -0.7409511253549591 0 0.6715589548470183
    outer loop
      vertex 9.545941546018392 -20 0.4540584539816077
      vertex 10.43564112039695 -3.2 1.4356906637907851
      vertex 9.545941546018392 -3.2 0.4540584539816077
    endloop
  endfacet
  facet normal 0 -1 0
    outer loop
      vertex 9.545941546018392 -20 0.4540584539816077
      vertex 12.909274571157708 -20 -0.5943678455328794
      vertex 13.885542525452506 -20 0.7219771085726432
    endloop
  endfacet
  facet normal 0 -1 0
    outer loop
      vertex 9.545941546018392 -20 0.4540584539816077
      vertex 13.885542525452506 -20 0.7219771085726432
      vertex 10.43564112039695 -20 1.4356906637907851
    endloop
  endfacet
  facet normal -0.8032075314806452 0 0.595699304492433
    outer loop
      vertex 10.43564112039695 -20 1.4356906637907851
      vertex 11.224839766084362 -20 2.49980185423537
      vertex 11.224839766084362 -3.2 2.49980185423537
    endloop
  endfacet
  facet normal -0.8032075314806452 0 0.595699304492433
    outer loop
      vertex 10.43564112039695 -20 1.4356906637907851
      vertex 11.224839766084362 -3.2 2.49980185423537
      vertex 10.43564112039695 -3.2 1.4356906637907851
    endloop
  endfacet
  facet normal 0 -1 0
    outer loop
      vertex 10.43564112039695 -20 1.4356906637907851
      vertex 13.885542525452506 -20 0.7219771085726432
      vertex 14.728085114617528 -20 2.1276744950058397
    endloop
  endfacet
  facet normal 0 -1 0
    outer loop
      vertex 10.43564112039695 -20 1.4356906637907851
      vertex 14.728085114617528 -20 2.1276744950058397
      vertex 11.224839766084362 -20 2.49980185423537
    endloop
  endfacet
  facet normal 0.6715589548470186 0 -0.7409511253549589
    outer loop
      vertex 10.59436784553288 -20 -2.9092745711577077
      vertex 10.59436784553288 -3.2 -2.9092745711577077
      vertex 11.808683245815343 -3.2 -1.8086832458153435
    endloop
  endfacet
  facet normal 0.6715589548470186 0 -0.7409511253549589
    outer loop
      vertex 10.59436784553288 -20 -2.9092745711577077
      vertex 11.808683245815343 -3.2 -1.8086832458153435
      vertex 11.808683245815343 -20 -1.8086832458153435
    endloop
  endfacet
  facet normal 0 -1 0
    outer loop
      vertex 10.59436784553288 -3.2 -2.9092745711577077
      vertex 21.6 -3.2 -11.600000000000001
      vertex 11.808683245815343 -3.2 -1.8086832458153435
    endloop
  endfacet
  facet normal -0.8577286100002725 0 0.5141027441932212
    outer loop
      vertex 11.224839766084362 -20 2.49980185423537
      vertex 11.905937068702793 -20 3.6361440528490316
      vertex 11.905937068702793 -3.2 3.6361440528490316
    endloop
  endfacet
  facet normal -0.8577286100002725 0 0.5141027441932212
    outer loop
      vertex 11.224839766084362 -20 2.49980185423537
      vertex 11.905937068702793 -3.2 3.6361440528490316
      vertex 11.224839766084362 -3.2 2.49980185423537
    endloop
  endfacet
  facet normal 0 -1 0
    outer loop
      vertex 11.224839766084362 -20 2.49980185423537
      vertex 14.728085114617528 -20 2.1276744950058397
      vertex 15.428788192938487 -20 3.6091866795030008
    endloop
  endfacet
  facet normal 0 -1 0
    outer loop
      vertex 11.224839766084362 -20 2.49980185423537
      vertex 15.428788192938487 -20 3.6091866795030008
      vertex 11.905937068702793 -20 3.6361440528490316
    endloop
  endfacet
  facet normal 0.7409511253549589 0 -0.6715589548470186
    outer loop
      vertex 11.808683245815343 -20 -1.8086832458153435
      vertex 11.808683245815343 -3.2 -1.8086832458153435
      vertex 12.909274571157708 -3.2 -0.5943678455328794
    endloop
  endfacet
  facet normal 0.7409511253549589 0 -0.6715589548470186
    outer loop
      vertex 11.808683245815343 -20 -1.8086832458153435
      vertex 12.909274571157708 -3.2 -0.5943678455328794
      vertex 12.909274571157708 -20 -0.5943678455328794
    endloop
  endfacet
  facet normal 0 -1 0
    outer loop
      vertex 11.808683245815343 -3.2 -1.8086832458153435
      vertex 21.6 -3.2 -11.600000000000001
      vertex 12.909274571157708 -3.2 -0.5943678455328794
    endloop
  endfacet
  facet normal -0.9039892931234433 0 0.4275550934302823
    outer loop
      vertex 11.905937068702793 -20 3.6361440528490316
      vertex 12.47237368890237 -20 4.8337736630712875
      vertex 12.47237368890237 -3.2 4.8337736630712875
    endloop
  endfacet
  facet normal -0.9039892931234433 0 0.4275550934302823
    outer loop
      vertex 11.905937068702793 -20 3.6361440528490316
      vertex 12.47237368890237 -3.2 4.8337736630712875
      vertex 11.905937068702793 -3.2 3.6361440528490316
    endloop
  endfacet
  facet normal 0 -1 0
    outer loop
      vertex 11.905937068702793 -20 3.6361440528490316
      vertex 15.428788192938487 -20 3.6091866795030008
      vertex 12.47237368890237 -20 4.8337736630712875
    endloop
  endfacet
  facet normal -0.9415440651830209 0 0.33688985339221966
    outer loop
      vertex 12.47237368890237 -20 4.8337736630712875
      vertex 12.91869453238482 -20 6.081156857064759
      vertex 12.91869453238482 -3.2 6.081156857064759
    endloop
  endfacet
  facet normal -0.9415440651830209 0 0.33688985339221966
    outer loop
      vertex 12.47237368890237 -20 4.8337736630712875
      vertex 12.91869453238482 -3.2 6.081156857064759
      vertex 12.47237368890237 -3.2 4.8337736630712875
    endloop
  endfacet
  facet normal 0 -1 0
    outer loop
      vertex 12.47237368890237 -20 4.8337736630712875
      vertex 15.428788192938487 -20 3.6091866795030008
      vertex 15.980903606727887 -20 5.152245889850479
    endloop
  endfacet
  facet normal 0 -1 0
    outer loop
      vertex 12.47237368890237 -20 4.8337736630712875
      vertex 15.980903606727887 -20 5.152245889850479
      vertex 12.91869453238482 -20 6.081156857064759
    endloop
  endfacet
  facet normal 0.8032075314806448 0 -0.5956993044924332
    outer loop
      vertex 12.909274571157708 -20 -0.5943678455328794
      vertex 12.909274571157708 -3.2 -0.5943678455328794
      vertex 13.885542525452506 -3.2 0.7219771085726432
    endloop
  endfacet
  facet normal 0.8032075314806448 0 -0.5956993044924332
    outer loop
      vertex 12.909274571157708 -20 -0.5943678455328794
      vertex 13.885542525452506 -3.2 0.7219771085726432
      vertex 13.885542525452506 -20 0.7219771085726432
    endloop
  endfacet
  facet normal 0 -1 0
    outer loop
      vertex 12.909274571157708 -3.2 -0.5943678455328794
      vertex 21.6 -3.2 -11.600000000000001
      vertex 13.885542525452506 -3.2 0.7219771085726432
    endloop
  endfacet
  facet normal -0.9700312531945441 0 0.2429801799032634
    outer loop
      vertex 12.91869453238482 -20 6.081156857064759
      vertex 13.24060128544361 -20 7.366280652782269
      vertex 13.24060128544361 -3.2 7.366280652782269
    endloop
  endfacet
  facet normal -0.9700312531945441 0 0.2429801799032634
    outer loop
      vertex 12.91869453238482 -20 6.081156857064759
      vertex 13.24060128544361 -3.2 7.366280652782269
      vertex 12.91869453238482 -3.2 6.081156857064759
    endloop
  endfacet
  facet normal 0 -1 0
    outer loop
      vertex 12.91869453238482 -20 6.081156857064759
      vertex 15.980903606727887 -20 5.152245889850479
      vertex 16.379114182733947 -20 6.741991622330659
    endloop
  endfacet
  facet normal 0 -1 0
    outer loop
      vertex 12.91869453238482 -20 6.081156857064759
      vertex 16.379114182733947 -20 6.741991622330659
      vertex 13.24060128544361 -20 7.366280652782269
    endloop
  endfacet
  facet normal -0.9700312531945443 0 -0.24298017990326226
    outer loop
      vertex 13.063687191686249 -20 13.340000000000003
      vertex 13.063687191686249 -3.2 13.340000000000003
      vertex 13.24060128544361 -20 12.633719347217731
    endloop
  endfacet
  facet normal 0 -1 0
    outer loop
      vertex 13.063687191686249 -20 13.340000000000003
      vertex 13.24060128544361 -20 12.633719347217731
      vertex 16.379114182733947 -20 13.258008377669341
    endloop
  endfacet
  facet normal 0 0 1
    outer loop
      vertex 13.063687191686249 -20 13.340000000000003
      vertex 16.358576350495184 -20 13.340000000000003
      vertex 13.063687191686249 -3.2 13.340000000000003
    endloop
  endfacet
  facet normal 0 -1 0
    outer loop
      vertex 13.063687191686249 -20 13.340000000000003
      vertex 16.379114182733947 -20 13.258008377669341
      vertex 16.358576350495184 -20 13.340000000000003
    endloop
  endfacet
  facet normal -0.9700312531945443 0 -0.24298017990326226
    outer loop
      vertex 13.063687191686249 -3.2 13.340000000000003
      vertex 13.24060128544361 -3.2 12.633719347217731
      vertex 13.24060128544361 -20 12.633719347217731
    endloop
  endfacet
  facet normal 0 0 1
    outer loop
      vertex 13.063687191686249 -3.2 13.340000000000003
      vertex 16.358576350495184 -20 13.340000000000003
      vertex 16.358576350495184 -3.2 13.340000000000003
    endloop
  endfacet
  facet normal 0 -1 0
    outer loop
      vertex 13.063687191686249 -3.2 13.340000000000003
      vertex 16.358576350495184 -3.2 13.340000000000003
      vertex 21.6 -3.2 20.799999999999997
    endloop
  endfacet
  facet normal -0.9891765099647807 0 0.14673047445536302
    outer loop
      vertex 13.24060128544361 -20 7.366280652782269
      vertex 13.434993810074658 -20 8.676768605550931
      vertex 13.434993810074658 -3.2 8.676768605550931
    endloop
  endfacet
  facet normal -0.9891765099647807 0 0.14673047445536302
    outer loop
      vertex 13.24060128544361 -20 7.366280652782269
      vertex 13.434993810074658 -3.2 8.676768605550931
      vertex 13.24060128544361 -3.2 7.366280652782269
    endloop
  endfacet
  facet normal 0 -1 0
    outer loop
      vertex 13.24060128544361 -20 7.366280652782269
      vertex 16.379114182733947 -20 6.741991622330659
      vertex 16.61958493542569 -20 8.363113756496338
    endloop
  endfacet
  facet normal 0 -1 0
    outer loop
      vertex 13.24060128544361 -20 7.366280652782269
      vertex 16.61958493542569 -20 8.363113756496338
      vertex 13.434993810074658 -20 8.676768605550931
    endloop
  endfacet
  facet normal -0.9891765099647807 0 -0.14673047445536302
    outer loop
      vertex 13.24060128544361 -20 12.633719347217731
      vertex 13.24060128544361 -3.2 12.633719347217731
      vertex 13.434993810074658 -20 11.323231394449069
    endloop
  endfacet
  facet normal 0 -1 0
    outer loop
      vertex 13.24060128544361 -20 12.633719347217731
      vertex 13.434993810074658 -20 11.323231394449069
      vertex 16.379114182733947 -20 13.258008377669341
    endloop
  endfacet
  facet normal -0.9891765099647807 0 -0.14673047445536302
    outer loop
      vertex 13.24060128544361 -3.2 12.633719347217731
      vertex 13.434993810074658 -3.2 11.323231394449069
      vertex 13.434993810074658 -20 11.323231394449069
    endloop
  endfacet
  facet normal -0.9987954562051724 0 0.04906767432741763
    outer loop
      vertex 13.434993810074658 -20 8.676768605550931
      vertex 13.5 -20 10
      vertex 13.5 -3.2 10
    endloop
  endfacet
  facet normal -0.9987954562051724 0 0.04906767432741763
    outer loop
      vertex 13.434993810074658 -20 8.676768605550931
      vertex 13.5 -3.2 10
      vertex 13.434993810074658 -3.2 8.676768605550931
    endloop
  endfacet
  facet normal 0 -1 0
    outer loop
      vertex 13.434993810074658 -20 8.676768605550931
      vertex 16.61958493542569 -20 8.363113756496338
      vertex 16.7 -20 10
    endloop
  endfacet
  facet normal 0 -1 0
    outer loop
      vertex 13.434993810074658 -20 8.676768605550931
      vertex 16.7 -20 10
      vertex 13.5 -20 10
    endloop
  endfacet
  facet normal -0.9987954562051724 0 -0.04906767432741763
    outer loop
      vertex 13.434993810074658 -20 11.323231394449069
      vertex 13.434993810074658 -3.2 11.323231394449069
      vertex 13.5 -20 10
    endloop
  endfacet
  facet normal 0 -1 0
    outer loop
      vertex 13.434993810074658 -20 11.323231394449069
      vertex 13.5 -20 10
      vertex 16.61958493542569 -20 11.636886243503662
    endloop
  endfacet
  facet normal 0 -1 0
    outer loop
      vertex 13.434993810074658 -20 11.323231394449069
      vertex 16.61958493542569 -20 11.636886243503662
      vertex 16.379114182733947 -20 13.258008377669341
    endloop
  endfacet
  facet normal -0.9987954562051724 0 -0.04906767432741763
    outer loop
      vertex 13.434993810074658 -3.2 11.323231394449069
      vertex 13.5 -3.2 10
      vertex 13.5 -20 10
    endloop
  endfacet
  facet normal 0 -1 0
    outer loop
      vertex 13.5 -20 10
      vertex 16.7 -20 10
      vertex 16.61958493542569 -20 11.636886243503662
    endloop
  endfacet
  facet normal 0.8577286100002723 0 -0.5141027441932212
    outer loop
      vertex 13.885542525452506 -20 0.7219771085726432
      vertex 13.885542525452506 -3.2 0.7219771085726432
      vertex 14.728085114617528 -3.2 2.1276744950058397
    endloop
  endfacet
  facet normal 0.8577286100002723 0 -0.5141027441932212
    outer loop
      vertex 13.885542525452506 -20 0.7219771085726432
      vertex 14.728085114617528 -3.2 2.1276744950058397
      vertex 14.728085114617528 -20 2.1276744950058397
    endloop
  endfacet
  facet normal 0 -1 0
    outer loop
      vertex 13.885542525452506 -3.2 0.7219771085726432
      vertex 21.6 -3.2 -11.600000000000001
      vertex 14.728085114617528 -3.2 2.1276744950058397
    endloop
  endfacet
  facet normal 0.9039892931234434 0 -0.427555093430282
    outer loop
      vertex 14.728085114617528 -20 2.1276744950058397
      vertex 14.728085114617528 -3.2 2.1276744950058397
      vertex 15.428788192938487 -3.2 3.6091866795030008
    endloop
  endfacet
  facet normal 0.9039892931234434 0 -0.427555093430282
    outer loop
      vertex 14.728085114617528 -20 2.1276744950058397
      vertex 15.428788192938487 -3.2 3.6091866795030008
      vertex 15.428788192938487 -20 3.6091866795030008
    endloop
  endfacet
  facet normal 0 -1 0
    outer loop
      vertex 14.728085114617528 -3.2 2.1276744950058397
      vertex 21.6 -3.2 -11.600000000000001
      vertex 15.428788192938487 -3.2 3.6091866795030008
    endloop
  endfacet
  facet normal 0.9415440651830208 0 -0.3368898533922202
    outer loop
      vertex 15.428788192938487 -20 3.6091866795030008
      vertex 15.428788192938487 -3.2 3.6091866795030008
      vertex 15.980903606727887 -3.2 5.152245889850479
    endloop
  endfacet
  facet normal 0.9415440651830208 0 -0.3368898533922202
    outer loop
      vertex 15.428788192938487 -20 3.6091866795030008
      vertex 15.980903606727887 -3.2 5.152245889850479
      vertex 15.980903606727887 -20 5.152245889850479
    endloop
  endfacet
  facet normal 0 -1 0
    outer loop
      vertex 15.428788192938487 -3.2 3.6091866795030008
      vertex 21.6 -3.2 -11.600000000000001
      vertex 15.980903606727887 -3.2 5.152245889850479
    endloop
  endfacet
  facet normal 0.9700312531945441 0 -0.24298017990326332
    outer loop
      vertex 15.980903606727887 -20 5.152245889850479
      vertex 15.980903606727887 -3.2 5.152245889850479
      vertex 16.379114182733947 -3.2 6.741991622330659
    endloop
  endfacet
  facet normal 0.9700312531945441 0 -0.24298017990326332
    outer loop
      vertex 15.980903606727887 -20 5.152245889850479
      vertex 16.379114182733947 -3.2 6.741991622330659
      vertex 16.379114182733947 -20 6.741991622330659
    endloop
  endfacet
  facet normal 0 -1 0
    outer loop
      vertex 15.980903606727887 -3.2 5.152245889850479
      vertex 21.6 -3.2 -11.600000000000001
      vertex 16.379114182733947 -3.2 6.741991622330659
    endloop
  endfacet
  facet normal 0.9700312531945405 0 0.2429801799032782
    outer loop
      vertex 16.358576350495184 -20 13.340000000000003
      vertex 16.379114182733947 -20 13.258008377669341
      vertex 16.358576350495184 -3.2 13.340000000000003
    endloop
  endfacet
  facet normal 0.9700312531945405 0 0.2429801799032782
    outer loop
      vertex 16.358576350495184 -3.2 13.340000000000003
      vertex 16.379114182733947 -20 13.258008377669341
      vertex 16.379114182733947 -3.2 13.258008377669341
    endloop
  endfacet
  facet normal 0 -1 0
    outer loop
      vertex 16.358576350495184 -3.2 13.340000000000003
      vertex 16.379114182733947 -3.2 13.258008377669341
      vertex 21.6 -3.2 20.799999999999997
    endloop
  endfacet
  facet normal 0.9891765099647808 0 -0.14673047445536336
    outer loop
      vertex 16.379114182733947 -20 6.741991622330659
      vertex 16.379114182733947 -3.2 6.741991622330659
      vertex 16.61958493542569 -3.2 8.363113756496338
    endloop
  endfacet
  facet normal 0.9891765099647808 0 -0.14673047445536336
    outer loop
      vertex 16.379114182733947 -20 6.741991622330659
      vertex 16.61958493542569 -3.2 8.363113756496338
      vertex 16.61958493542569 -20 8.363113756496338
    endloop
  endfacet
  facet normal 0.9891765099647808 0 0.14673047445536336
    outer loop
      vertex 16.379114182733947 -20 13.258008377669341
      vertex 16.61958493542569 -20 11.636886243503662
      vertex 16.379114182733947 -3.2 13.258008377669341
    endloop
  endfacet
  facet normal 0 -1 0
    outer loop
      vertex 16.379114182733947 -3.2 6.741991622330659
      vertex 21.6 -3.2 -11.600000000000001
      vertex 16.61958493542569 -3.2 8.363113756496338
    endloop
  endfacet
  facet normal 0.9891765099647808 0 0.14673047445536336
    outer loop
      vertex 16.379114182733947 -3.2 13.258008377669341
      vertex 16.61958493542569 -20 11.636886243503662
      vertex 16.61958493542569 -3.2 11.636886243503662
    endloop
  endfacet
  facet normal 0 -1 0
    outer loop
      vertex 16.379114182733947 -3.2 13.258008377669341
      vertex 16.61958493542569 -3.2 11.636886243503662
      vertex 21.6 -3.2 20.799999999999997
    endloop
  endfacet
  facet normal 0.9987954562051724 0 -0.0490676743274172
    outer loop
      vertex 16.61958493542569 -20 8.363113756496338
      vertex 16.61958493542569 -3.2 8.363113756496338
      vertex 16.7 -3.2 10
    endloop
  endfacet
  facet normal 0.9987954562051724 0 -0.0490676743274172
    outer loop
      vertex 16.61958493542569 -20 8.363113756496338
      vertex 16.7 -3.2 10
      vertex 16.7 -20 10
    endloop
  endfacet
  facet normal 0.9987954562051724 0 0.0490676743274172
    outer loop
      vertex 16.61958493542569 -20 11.636886243503662
      vertex 16.7 -20 10
      vertex 16.61958493542569 -3.2 11.636886243503662
    endloop
  endfacet
  facet normal 0 -1 0
    outer loop
      vertex 16.61958493542569 -3.2 8.363113756496338
      vertex 21.6 -3.2 -11.600000000000001
      vertex 16.7 -3.2 10
    endloop
  endfacet
  facet normal 0.9987954562051724 0 0.0490676743274172
    outer loop
      vertex 16.61958493542569 -3.2 11.636886243503662
      vertex 16.7 -20 10
      vertex 16.7 -3.2 10
    endloop
  endfacet
  facet normal 0 -1 0
    outer loop
      vertex 16.61958493542569 -3.2 11.636886243503662
      vertex 16.7 -3.2 10
      vertex 21.6 -3.2 -11.600000000000001
    endloop
  endfacet
  facet normal 0 -1 0
    outer loop
      vertex 16.61958493542569 -3.2 11.636886243503662
      vertex 21.6 -3.2 -11.600000000000001
      vertex 21.6 -3.2 20.799999999999997
    endloop
  endfacet
  facet normal 1 0 0
    outer loop
      vertex 21.6 -3.2 -11.600000000000001
      vertex 21.6 0 -11.600000000000001
      vertex 21.6 -3.2 20.799999999999997
    endloop
  endfacet
  facet normal 1 0 0
    outer loop
      vertex 21.6 -3.2 20.799999999999997
      vertex 21.6 0 -11.600000000000001
      vertex 21.6 0 20.799999999999997
    endloop
  endfacet
endsolid OpenSCAD_Model
