solid OpenSCAD_Model
  facet normal -1 0 0
    outer loop
      vertex -3.4 -16.6524 0
      vertex -3.4 -16.6524 20
      vertex -3.4 -14.5931 2
    endloop
  endfacet
  facet normal -1 0 0
    outer loop
      vertex -3.4 -16.6524 0
      vertex -3.4 -14.5931 2
      vertex -3.4 16.6524 0
    endloop
  endfacet
  facet normal 0 0 -1
    outer loop
      vertex -3.4 -16.6524 0
      vertex -3.4 16.6524 0
      vertex -1.66629 16.9181 0
    endloop
  endfacet
  facet normal -0.242891 -0.970054 0
    outer loop
      vertex -3.4 -16.6524 0
      vertex -3.31653 -16.6733 0
      vertex -3.31653 -16.6733 20
    endloop
  endfacet
  facet normal -0.242891 -0.970054 0
    outer loop
      vertex -3.4 -16.6524 0
      vertex -3.31653 -16.6733 20
      vertex -3.4 -16.6524 20
    endloop
  endfacet
  facet normal 0 0 -1
    outer loop
      vertex -3.4 -16.6524 0
      vertex -1.66629 -16.9181 0
      vertex -3.31653 -16.6733 0
    endloop
  endfacet
  facet normal 0 0 -1
    outer loop
      vertex -3.4 -16.6524 0
      vertex -1.66629 16.9181 0
      vertex -1.66629 -16.9181 0
    endloop
  endfacet
  facet normal -1 0 0
    outer loop
      vertex -3.4 -16.6524 20
      vertex -3.4 -14.5931 20
      vertex -3.4 -14.5931 2
    endloop
  endfacet
  facet normal -0 0 1
    outer loop
      vertex -3.4 -16.6524 20
      vertex -3.31653 -16.6733 20
      vertex -2.92635 -14.7118 20
    endloop
  endfacet
  facet normal 0 0 1
    outer loop
      vertex -3.4 -16.6524 20
      vertex -2.92635 -14.7118 20
      vertex -3.4 -14.5931 20
    endloop
  endfacet
  facet normal 0.24309 0.970004 -0
    outer loop
      vertex -3.4 -14.5931 2
      vertex -3.4 -14.5931 20
      vertex -2.92635 -14.7118 2
    endloop
  endfacet
  facet normal -1 0 0
    outer loop
      vertex -3.4 -14.5931 2
      vertex -3.4 14.5931 2
      vertex -3.4 16.6524 0
    endloop
  endfacet
  facet normal 0 0 1
    outer loop
      vertex -3.4 -14.5931 2
      vertex -2.92635 -14.7118 2
      vertex -1.47026 -14.9278 2
    endloop
  endfacet
  facet normal -0 0 1
    outer loop
      vertex -3.4 -14.5931 2
      vertex -1.47026 -14.9278 2
      vertex -3.4 14.5931 2
    endloop
  endfacet
  facet normal 0.24309 0.970004 0
    outer loop
      vertex -3.4 -14.5931 20
      vertex -2.92635 -14.7118 20
      vertex -2.92635 -14.7118 2
    endloop
  endfacet
  facet normal -1 0 0
    outer loop
      vertex -3.4 14.5931 2
      vertex -3.4 14.5931 20
      vertex -3.4 16.6524 20
    endloop
  endfacet
  facet normal -1 0 0
    outer loop
      vertex -3.4 14.5931 2
      vertex -3.4 16.6524 20
      vertex -3.4 16.6524 0
    endloop
  endfacet
  facet normal 0.24309 -0.970004 0
    outer loop
      vertex -3.4 14.5931 2
      vertex -2.92635 14.7118 2
      vertex -2.92635 14.7118 20
    endloop
  endfacet
  facet normal 0.24309 -0.970004 0
    outer loop
      vertex -3.4 14.5931 2
      vertex -2.92635 14.7118 20
      vertex -3.4 14.5931 20
    endloop
  endfacet
  facet normal -0 0 1
    outer loop
      vertex -3.4 14.5931 2
      vertex -1.47026 -14.9278 2
      vertex -1.47026 14.9278 2
    endloop
  endfacet
  facet normal 0 0 1
    outer loop
      vertex -3.4 14.5931 2
      vertex -1.47026 14.9278 2
      vertex -2.92635 14.7118 2
    endloop
  endfacet
  facet normal 0 0 1
    outer loop
      vertex -3.4 14.5931 20
      vertex -2.92635 14.7118 20
      vertex -3.4 16.6524 20
    endloop
  endfacet
  facet normal -0.242891 0.970054 0
    outer loop
      vertex -3.4 16.6524 0
      vertex -3.4 16.6524 20
      vertex -3.31653 16.6733 0
    endloop
  endfacet
  facet normal 0 0 -1
    outer loop
      vertex -3.4 16.6524 0
      vertex -3.31653 16.6733 0
      vertex -1.66629 16.9181 0
    endloop
  endfacet
  facet normal -0.242891 0.970054 0
    outer loop
      vertex -3.4 16.6524 20
      vertex -3.31653 16.6733 20
      vertex -3.31653 16.6733 0
    endloop
  endfacet
  facet normal -0 0 1
    outer loop
      vertex -3.4 16.6524 20
      vertex -2.92635 14.7118 20
      vertex -3.31653 16.6733 20
    endloop
  endfacet
  facet normal -0.146736 -0.989176 0
    outer loop
      vertex -3.31653 -16.6733 0
      vertex -1.66629 -16.9181 0
      vertex -1.66629 -16.9181 20
    endloop
  endfacet
  facet normal -0.146736 -0.989176 0
    outer loop
      vertex -3.31653 -16.6733 0
      vertex -1.66629 -16.9181 20
      vertex -3.31653 -16.6733 20
    endloop
  endfacet
  facet normal -0 0 1
    outer loop
      vertex -3.31653 -16.6733 20
      vertex -1.66629 -16.9181 20
      vertex -2.92635 -14.7118 20
    endloop
  endfacet
  facet normal -0.146736 0.989176 0
    outer loop
      vertex -3.31653 16.6733 0
      vertex -3.31653 16.6733 20
      vertex -1.66629 16.9181 0
    endloop
  endfacet
  facet normal -0 0 1
    outer loop
      vertex -3.31653 16.6733 20
      vertex -2.92635 14.7118 20
      vertex -1.66629 16.9181 20
    endloop
  endfacet
  facet normal -0.146736 0.989176 0
    outer loop
      vertex -3.31653 16.6733 20
      vertex -1.66629 16.9181 20
      vertex -1.66629 16.9181 0
    endloop
  endfacet
  facet normal 0.146737 0.989176 -0
    outer loop
      vertex -2.92635 -14.7118 2
      vertex -2.92635 -14.7118 20
      vertex -1.47026 -14.9278 2
    endloop
  endfacet
  facet normal 0 0 1
    outer loop
      vertex -2.92635 -14.7118 20
      vertex -1.66629 -16.9181 20
      vertex -1.47026 -14.9278 20
    endloop
  endfacet
  facet normal 0.146737 0.989176 0
    outer loop
      vertex -2.92635 -14.7118 20
      vertex -1.47026 -14.9278 20
      vertex -1.47026 -14.9278 2
    endloop
  endfacet
  facet normal 0.146737 -0.989176 0
    outer loop
      vertex -2.92635 14.7118 2
      vertex -1.47026 14.9278 2
      vertex -1.47026 14.9278 20
    endloop
  endfacet
  facet normal 0.146737 -0.989176 0
    outer loop
      vertex -2.92635 14.7118 2
      vertex -1.47026 14.9278 20
      vertex -2.92635 14.7118 20
    endloop
  endfacet
  facet normal 0 0 1
    outer loop
      vertex -2.92635 14.7118 20
      vertex -1.47026 14.9278 20
      vertex -1.66629 16.9181 20
    endloop
  endfacet
  facet normal 0 0 -1
    outer loop
      vertex -1.66629 -16.9181 0
      vertex -1.66629 16.9181 0
      vertex 0 17 0
    endloop
  endfacet
  facet normal -0.0490918 -0.998794 0
    outer loop
      vertex -1.66629 -16.9181 0
      vertex 0 -17 0
      vertex 0 -17 20
    endloop
  endfacet
  facet normal -0.0490918 -0.998794 0
    outer loop
      vertex -1.66629 -16.9181 0
      vertex 0 -17 20
      vertex -1.66629 -16.9181 20
    endloop
  endfacet
  facet normal 0 0 -1
    outer loop
      vertex -1.66629 -16.9181 0
      vertex 0 17 0
      vertex 0 -17 0
    endloop
  endfacet
  facet normal -0 0 1
    outer loop
      vertex -1.66629 -16.9181 20
      vertex 0 -17 20
      vertex -1.47026 -14.9278 20
    endloop
  endfacet
  facet normal -0.0490918 0.998794 0
    outer loop
      vertex -1.66629 16.9181 0
      vertex -1.66629 16.9181 20
      vertex 0 17 0
    endloop
  endfacet
  facet normal -0 0 1
    outer loop
      vertex -1.66629 16.9181 20
      vertex -1.47026 14.9278 20
      vertex 0 17 20
    endloop
  endfacet
  facet normal -0.0490918 0.998794 0
    outer loop
      vertex -1.66629 16.9181 20
      vertex 0 17 20
      vertex 0 17 0
    endloop
  endfacet
  facet normal 0.0490479 0.998796 -0
    outer loop
      vertex -1.47026 -14.9278 2
      vertex -1.47026 -14.9278 20
      vertex 0 -15 2
    endloop
  endfacet
  facet normal -0 0 1
    outer loop
      vertex -1.47026 -14.9278 2
      vertex 0 -15 2
      vertex -1.47026 14.9278 2
    endloop
  endfacet
  facet normal 0 0 1
    outer loop
      vertex -1.47026 -14.9278 20
      vertex 0 -17 20
      vertex 0 -15 20
    endloop
  endfacet
  facet normal 0.0490479 0.998796 0
    outer loop
      vertex -1.47026 -14.9278 20
      vertex 0 -15 20
      vertex 0 -15 2
    endloop
  endfacet
  facet normal -0 0 1
    outer loop
      vertex -1.47026 14.9278 2
      vertex 0 -15 2
      vertex 0 15 2
    endloop
  endfacet
  facet normal 0.0490479 -0.998796 0
    outer loop
      vertex -1.47026 14.9278 2
      vertex 0 15 2
      vertex 0 15 20
    endloop
  endfacet
  facet normal 0.0490479 -0.998796 0
    outer loop
      vertex -1.47026 14.9278 2
      vertex 0 15 20
      vertex -1.47026 14.9278 20
    endloop
  endfacet
  facet normal 0 0 1
    outer loop
      vertex -1.47026 14.9278 20
      vertex 0 15 20
      vertex 0 17 20
    endloop
  endfacet
  facet normal 0 0 -1
    outer loop
      vertex 0 -17 0
      vertex 0 17 0
      vertex 1.66629 16.9181 0
    endloop
  endfacet
  facet normal 0.0490918 -0.998794 0
    outer loop
      vertex 0 -17 0
      vertex 1.66629 -16.9181 0
      vertex 1.66629 -16.9181 20
    endloop
  endfacet
  facet normal 0.0490918 -0.998794 0
    outer loop
      vertex 0 -17 0
      vertex 1.66629 -16.9181 20
      vertex 0 -17 20
    endloop
  endfacet
  facet normal 0 0 -1
    outer loop
      vertex 0 -17 0
      vertex 1.66629 16.9181 0
      vertex 1.66629 -16.9181 0
    endloop
  endfacet
  facet normal 0 0 1
    outer loop
      vertex 0 -17 20
      vertex 1.66629 -16.9181 20
      vertex 0 -15 20
    endloop
  endfacet
  facet normal -0.0490479 0.998796 0
    outer loop
      vertex 0 -15 2
      vertex 0 -15 20
      vertex 1.47026 -14.9278 2
    endloop
  endfacet
  facet normal 0 0 1
    outer loop
      vertex 0 -15 2
      vertex 1.47026 -14.9278 2
      vertex 0 15 2
    endloop
  endfacet
  facet normal -0.0490479 0.998796 0
    outer loop
      vertex 0 -15 20
      vertex 1.47026 -14.9278 20
      vertex 1.47026 -14.9278 2
    endloop
  endfacet
  facet normal -0 0 1
    outer loop
      vertex 0 -15 20
      vertex 1.66629 -16.9181 20
      vertex 1.47026 -14.9278 20
    endloop
  endfacet
  facet normal 0 0 1
    outer loop
      vertex 0 15 2
      vertex 1.47026 -14.9278 2
      vertex 1.47026 14.9278 2
    endloop
  endfacet
  facet normal -0.0490479 -0.998796 0
    outer loop
      vertex 0 15 2
      vertex 1.47026 14.9278 2
      vertex 1.47026 14.9278 20
    endloop
  endfacet
  facet normal -0.0490479 -0.998796 0
    outer loop
      vertex 0 15 2
      vertex 1.47026 14.9278 20
      vertex 0 15 20
    endloop
  endfacet
  facet normal -0 0 1
    outer loop
      vertex 0 15 20
      vertex 1.47026 14.9278 20
      vertex 0 17 20
    endloop
  endfacet
  facet normal 0.0490918 0.998794 -0
    outer loop
      vertex 0 17 0
      vertex 0 17 20
      vertex 1.66629 16.9181 0
    endloop
  endfacet
  facet normal 0 0 1
    outer loop
      vertex 0 17 20
      vertex 1.47026 14.9278 20
      vertex 1.66629 16.9181 20
    endloop
  endfacet
  facet normal 0.0490918 0.998794 0
    outer loop
      vertex 0 17 20
      vertex 1.66629 16.9181 20
      vertex 1.66629 16.9181 0
    endloop
  endfacet
  facet normal -0.146737 0.989176 0
    outer loop
      vertex 1.47026 -14.9278 2
      vertex 1.47026 -14.9278 20
      vertex 2.92635 -14.7118 2
    endloop
  endfacet
  facet normal 0 0 1
    outer loop
      vertex 1.47026 -14.9278 2
      vertex 2.92635 -14.7118 2
      vertex 1.47026 14.9278 2
    endloop
  endfacet
  facet normal -0 0 1
    outer loop
      vertex 1.47026 -14.9278 20
      vertex 1.66629 -16.9181 20
      vertex 2.92635 -14.7118 20
    endloop
  endfacet
  facet normal -0.146737 0.989176 0
    outer loop
      vertex 1.47026 -14.9278 20
      vertex 2.92635 -14.7118 20
      vertex 2.92635 -14.7118 2
    endloop
  endfacet
  facet normal 0 0 1
    outer loop
      vertex 1.47026 14.9278 2
      vertex 2.92635 -14.7118 2
      vertex 2.92635 14.7118 2
    endloop
  endfacet
  facet normal -0.146737 -0.989176 0
    outer loop
      vertex 1.47026 14.9278 2
      vertex 2.92635 14.7118 2
      vertex 2.92635 14.7118 20
    endloop
  endfacet
  facet normal -0.146737 -0.989176 0
    outer loop
      vertex 1.47026 14.9278 2
      vertex 2.92635 14.7118 20
      vertex 1.47026 14.9278 20
    endloop
  endfacet
  facet normal -0 0 1
    outer loop
      vertex 1.47026 14.9278 20
      vertex 2.92635 14.7118 20
      vertex 1.66629 16.9181 20
    endloop
  endfacet
  facet normal 0 0 -1
    outer loop
      vertex 1.66629 -16.9181 0
      vertex 1.66629 16.9181 0
      vertex 3.31653 16.6733 0
    endloop
  endfacet
  facet normal 0.146736 -0.989176 0
    outer loop
      vertex 1.66629 -16.9181 0
      vertex 3.31653 -16.6733 0
      vertex 3.31653 -16.6733 20
    endloop
  endfacet
  facet normal 0.146736 -0.989176 0
    outer loop
      vertex 1.66629 -16.9181 0
      vertex 3.31653 -16.6733 20
      vertex 1.66629 -16.9181 20
    endloop
  endfacet
  facet normal 0 0 -1
    outer loop
      vertex 1.66629 -16.9181 0
      vertex 3.31653 16.6733 0
      vertex 3.31653 -16.6733 0
    endloop
  endfacet
  facet normal 0 0 1
    outer loop
      vertex 1.66629 -16.9181 20
      vertex 3.31653 -16.6733 20
      vertex 2.92635 -14.7118 20
    endloop
  endfacet
  facet normal 0.146736 0.989176 -0
    outer loop
      vertex 1.66629 16.9181 0
      vertex 1.66629 16.9181 20
      vertex 3.31653 16.6733 0
    endloop
  endfacet
  facet normal 0 0 1
    outer loop
      vertex 1.66629 16.9181 20
      vertex 2.92635 14.7118 20
      vertex 3.31653 16.6733 20
    endloop
  endfacet
  facet normal 0.146736 0.989176 0
    outer loop
      vertex 1.66629 16.9181 20
      vertex 3.31653 16.6733 20
      vertex 3.31653 16.6733 0
    endloop
  endfacet
  facet normal -0.242996 0.970027 0
    outer loop
      vertex 2.92635 -14.7118 2
      vertex 2.92635 -14.7118 20
      vertex 4.35427 -14.3541 2
    endloop
  endfacet
  facet normal 0 0 1
    outer loop
      vertex 2.92635 -14.7118 2
      vertex 4.35427 -14.3541 2
      vertex 2.92635 14.7118 2
    endloop
  endfacet
  facet normal -0 0 1
    outer loop
      vertex 2.92635 -14.7118 20
      vertex 3.31653 -16.6733 20
      vertex 4.35427 -14.3541 20
    endloop
  endfacet
  facet normal -0.242996 0.970027 0
    outer loop
      vertex 2.92635 -14.7118 20
      vertex 4.35427 -14.3541 20
      vertex 4.35427 -14.3541 2
    endloop
  endfacet
  facet normal 0 0 1
    outer loop
      vertex 2.92635 14.7118 2
      vertex 4.35427 -14.3541 2
      vertex 4.35427 14.3541 2
    endloop
  endfacet
  facet normal -0.242996 -0.970027 0
    outer loop
      vertex 2.92635 14.7118 2
      vertex 4.35427 14.3541 2
      vertex 4.35427 14.3541 20
    endloop
  endfacet
  facet normal -0.242996 -0.970027 0
    outer loop
      vertex 2.92635 14.7118 2
      vertex 4.35427 14.3541 20
      vertex 2.92635 14.7118 20
    endloop
  endfacet
  facet normal -0 0 1
    outer loop
      vertex 2.92635 14.7118 20
      vertex 4.35427 14.3541 20
      vertex 3.31653 16.6733 20
    endloop
  endfacet
  facet normal 0 0 -1
    outer loop
      vertex 3.31653 -16.6733 0
      vertex 3.31653 16.6733 0
      vertex 4.93484 16.268 0
    endloop
  endfacet
  facet normal 0.242943 -0.970041 0
    outer loop
      vertex 3.31653 -16.6733 0
      vertex 4.93484 -16.268 0
      vertex 4.93484 -16.268 20
    endloop
  endfacet
  facet normal 0.242943 -0.970041 0
    outer loop
      vertex 3.31653 -16.6733 0
      vertex 4.93484 -16.268 20
      vertex 3.31653 -16.6733 20
    endloop
  endfacet
  facet normal 0 0 -1
    outer loop
      vertex 3.31653 -16.6733 0
      vertex 4.93484 16.268 0
      vertex 4.93484 -16.268 0
    endloop
  endfacet
  facet normal 0 0 1
    outer loop
      vertex 3.31653 -16.6733 20
      vertex 4.93484 -16.268 20
      vertex 4.35427 -14.3541 20
    endloop
  endfacet
  facet normal 0.242943 0.970041 -0
    outer loop
      vertex 3.31653 16.6733 0
      vertex 3.31653 16.6733 20
      vertex 4.93484 16.268 0
    endloop
  endfacet
  facet normal 0 0 1
    outer loop
      vertex 3.31653 16.6733 20
      vertex 4.35427 14.3541 20
      vertex 4.93484 16.268 20
    endloop
  endfacet
  facet normal 0.242943 0.970041 0
    outer loop
      vertex 3.31653 16.6733 20
      vertex 4.93484 16.268 20
      vertex 4.93484 16.268 0
    endloop
  endfacet
  facet normal -0.336883 0.941547 0
    outer loop
      vertex 4.35427 -14.3541 2
      vertex 4.35427 -14.3541 20
      vertex 5.74025 -13.8582 2
    endloop
  endfacet
  facet normal 0 0 1
    outer loop
      vertex 4.35427 -14.3541 2
      vertex 5.74025 -13.8582 2
      vertex 4.35427 14.3541 2
    endloop
  endfacet
  facet normal -0 0 1
    outer loop
      vertex 4.35427 -14.3541 20
      vertex 4.93484 -16.268 20
      vertex 5.74025 -13.8582 20
    endloop
  endfacet
  facet normal -0.336883 0.941547 0
    outer loop
      vertex 4.35427 -14.3541 20
      vertex 5.74025 -13.8582 20
      vertex 5.74025 -13.8582 2
    endloop
  endfacet
  facet normal 0 0 1
    outer loop
      vertex 4.35427 14.3541 2
      vertex 5.74025 -13.8582 2
      vertex 5.74025 13.8582 2
    endloop
  endfacet
  facet normal -0.336883 -0.941547 0
    outer loop
      vertex 4.35427 14.3541 2
      vertex 5.74025 13.8582 2
      vertex 5.74025 13.8582 20
    endloop
  endfacet
  facet normal -0.336883 -0.941547 0
    outer loop
      vertex 4.35427 14.3541 2
      vertex 5.74025 13.8582 20
      vertex 4.35427 14.3541 20
    endloop
  endfacet
  facet normal -0 0 1
    outer loop
      vertex 4.35427 14.3541 20
      vertex 5.74025 13.8582 20
      vertex 4.93484 16.268 20
    endloop
  endfacet
  facet normal 0 0 -1
    outer loop
      vertex 4.93484 -16.268 0
      vertex 4.93484 16.268 0
      vertex 6.50562 15.706 0
    endloop
  endfacet
  facet normal 0.336872 -0.941551 0
    outer loop
      vertex 4.93484 -16.268 0
      vertex 6.50562 -15.706 0
      vertex 6.50562 -15.706 20
    endloop
  endfacet
  facet normal 0.336872 -0.941551 0
    outer loop
      vertex 4.93484 -16.268 0
      vertex 6.50562 -15.706 20
      vertex 4.93484 -16.268 20
    endloop
  endfacet
  facet normal 0 0 -1
    outer loop
      vertex 4.93484 -16.268 0
      vertex 6.50562 15.706 0
      vertex 6.50562 -15.706 0
    endloop
  endfacet
  facet normal 0 0 1
    outer loop
      vertex 4.93484 -16.268 20
      vertex 6.50562 -15.706 20
      vertex 5.74025 -13.8582 20
    endloop
  endfacet
  facet normal 0.336872 0.941551 -0
    outer loop
      vertex 4.93484 16.268 0
      vertex 4.93484 16.268 20
      vertex 6.50562 15.706 0
    endloop
  endfacet
  facet normal 0 0 1
    outer loop
      vertex 4.93484 16.268 20
      vertex 5.74025 13.8582 20
      vertex 6.50562 15.706 20
    endloop
  endfacet
  facet normal 0.336872 0.941551 0
    outer loop
      vertex 4.93484 16.268 20
      vertex 6.50562 15.706 20
      vertex 6.50562 15.706 0
    endloop
  endfacet
  facet normal -0.427569 0.903983 0
    outer loop
      vertex 5.74025 -13.8582 2
      vertex 5.74025 -13.8582 20
      vertex 7.07095 -13.2288 2
    endloop
  endfacet
  facet normal 0 0 1
    outer loop
      vertex 5.74025 -13.8582 2
      vertex 7.07095 -13.2288 2
      vertex 5.74025 13.8582 2
    endloop
  endfacet
  facet normal -0 0 1
    outer loop
      vertex 5.74025 -13.8582 20
      vertex 6.50562 -15.706 20
      vertex 7.07095 -13.2288 20
    endloop
  endfacet
  facet normal -0.427569 0.903983 0
    outer loop
      vertex 5.74025 -13.8582 20
      vertex 7.07095 -13.2288 20
      vertex 7.07095 -13.2288 2
    endloop
  endfacet
  facet normal 0 0 1
    outer loop
      vertex 5.74025 13.8582 2
      vertex 7.07095 -13.2288 2
      vertex 7.07095 13.2288 2
    endloop
  endfacet
  facet normal -0.427569 -0.903983 0
    outer loop
      vertex 5.74025 13.8582 2
      vertex 7.07095 13.2288 2
      vertex 7.07095 13.2288 20
    endloop
  endfacet
  facet normal -0.427569 -0.903983 0
    outer loop
      vertex 5.74025 13.8582 2
      vertex 7.07095 13.2288 20
      vertex 5.74025 13.8582 20
    endloop
  endfacet
  facet normal -0 0 1
    outer loop
      vertex 5.74025 13.8582 20
      vertex 7.07095 13.2288 20
      vertex 6.50562 15.706 20
    endloop
  endfacet
  facet normal 0 0 -1
    outer loop
      vertex 6.50562 -15.706 0
      vertex 6.50562 15.706 0
      vertex 8.01374 14.9927 0
    endloop
  endfacet
  facet normal 0.427561 -0.903986 0
    outer loop
      vertex 6.50562 -15.706 0
      vertex 8.01374 -14.9927 0
      vertex 8.01374 -14.9927 20
    endloop
  endfacet
  facet normal 0.427561 -0.903986 0
    outer loop
      vertex 6.50562 -15.706 0
      vertex 8.01374 -14.9927 20
      vertex 6.50562 -15.706 20
    endloop
  endfacet
  facet normal 0 0 -1
    outer loop
      vertex 6.50562 -15.706 0
      vertex 8.01374 14.9927 0
      vertex 8.01374 -14.9927 0
    endloop
  endfacet
  facet normal 0 0 1
    outer loop
      vertex 6.50562 -15.706 20
      vertex 8.01374 -14.9927 20
      vertex 7.07095 -13.2288 20
    endloop
  endfacet
  facet normal 0.427561 0.903986 -0
    outer loop
      vertex 6.50562 15.706 0
      vertex 6.50562 15.706 20
      vertex 8.01374 14.9927 0
    endloop
  endfacet
  facet normal 0 0 1
    outer loop
      vertex 6.50562 15.706 20
      vertex 7.07095 13.2288 20
      vertex 8.01374 14.9927 20
    endloop
  endfacet
  facet normal 0.427561 0.903986 0
    outer loop
      vertex 6.50562 15.706 20
      vertex 8.01374 14.9927 20
      vertex 8.01374 14.9927 0
    endloop
  endfacet
  facet normal -0.514116 0.857721 0
    outer loop
      vertex 7.07095 -13.2288 2
      vertex 7.07095 -13.2288 20
      vertex 8.33355 -12.472 2
    endloop
  endfacet
  facet normal 0 0 1
    outer loop
      vertex 7.07095 -13.2288 2
      vertex 8.33355 -12.472 2
      vertex 7.07095 13.2288 2
    endloop
  endfacet
  facet normal -0 0 1
    outer loop
      vertex 7.07095 -13.2288 20
      vertex 8.01374 -14.9927 20
      vertex 8.33355 -12.472 20
    endloop
  endfacet
  facet normal -0.514116 0.857721 0
    outer loop
      vertex 7.07095 -13.2288 20
      vertex 8.33355 -12.472 20
      vertex 8.33355 -12.472 2
    endloop
  endfacet
  facet normal 0 0 1
    outer loop
      vertex 7.07095 13.2288 2
      vertex 8.33355 -12.472 2
      vertex 8.33355 12.472 2
    endloop
  endfacet
  facet normal -0.514116 -0.857721 0
    outer loop
      vertex 7.07095 13.2288 2
      vertex 8.33355 12.472 2
      vertex 8.33355 12.472 20
    endloop
  endfacet
  facet normal -0.514116 -0.857721 0
    outer loop
      vertex 7.07095 13.2288 2
      vertex 8.33355 12.472 20
      vertex 7.07095 13.2288 20
    endloop
  endfacet
  facet normal -0 0 1
    outer loop
      vertex 7.07095 13.2288 20
      vertex 8.33355 12.472 20
      vertex 8.01374 14.9927 20
    endloop
  endfacet
  facet normal 0 0 -1
    outer loop
      vertex 8.01374 -14.9927 0
      vertex 8.01374 14.9927 0
      vertex 9.44469 14.135 0
    endloop
  endfacet
  facet normal 0.514112 -0.857723 0
    outer loop
      vertex 8.01374 -14.9927 0
      vertex 9.44469 -14.135 0
      vertex 9.44469 -14.135 20
    endloop
  endfacet
  facet normal 0.514112 -0.857723 0
    outer loop
      vertex 8.01374 -14.9927 0
      vertex 9.44469 -14.135 20
      vertex 8.01374 -14.9927 20
    endloop
  endfacet
  facet normal 0 0 -1
    outer loop
      vertex 8.01374 -14.9927 0
      vertex 9.44469 14.135 0
      vertex 9.44469 -14.135 0
    endloop
  endfacet
  facet normal 0 0 1
    outer loop
      vertex 8.01374 -14.9927 20
      vertex 9.44469 -14.135 20
      vertex 8.33355 -12.472 20
    endloop
  endfacet
  facet normal 0.514112 0.857723 -0
    outer loop
      vertex 8.01374 14.9927 0
      vertex 8.01374 14.9927 20
      vertex 9.44469 14.135 0
    endloop
  endfacet
  facet normal 0 0 1
    outer loop
      vertex 8.01374 14.9927 20
      vertex 8.33355 12.472 20
      vertex 9.44469 14.135 20
    endloop
  endfacet
  facet normal 0.514112 0.857723 0
    outer loop
      vertex 8.01374 14.9927 20
      vertex 9.44469 14.135 20
      vertex 9.44469 14.135 0
    endloop
  endfacet
  facet normal -0.59566 0.803237 0
    outer loop
      vertex 8.33355 -12.472 2
      vertex 8.33355 -12.472 20
      vertex 9.5159 -11.5952 2
    endloop
  endfacet
  facet normal 0 0 1
    outer loop
      vertex 8.33355 -12.472 2
      vertex 9.5159 -11.5952 2
      vertex 8.33355 12.472 2
    endloop
  endfacet
  facet normal -0 0 1
    outer loop
      vertex 8.33355 -12.472 20
      vertex 9.44469 -14.135 20
      vertex 9.5159 -11.5952 20
    endloop
  endfacet
  facet normal -0.59566 0.803237 0
    outer loop
      vertex 8.33355 -12.472 20
      vertex 9.5159 -11.5952 20
      vertex 9.5159 -11.5952 2
    endloop
  endfacet
  facet normal 0 0 1
    outer loop
      vertex 8.33355 12.472 2
      vertex 9.5159 -11.5952 2
      vertex 9.5159 11.5952 2
    endloop
  endfacet
  facet normal -0.59566 -0.803237 0
    outer loop
      vertex 8.33355 12.472 2
      vertex 9.5159 11.5952 2
      vertex 9.5159 11.5952 20
    endloop
  endfacet
  facet normal -0.59566 -0.803237 0
    outer loop
      vertex 8.33355 12.472 2
      vertex 9.5159 11.5952 20
      vertex 8.33355 12.472 20
    endloop
  endfacet
  facet normal -0 0 1
    outer loop
      vertex 8.33355 12.472 20
      vertex 9.5159 11.5952 20
      vertex 9.44469 14.135 20
    endloop
  endfacet
  facet normal 0 0 -1
    outer loop
      vertex 9.44469 -14.135 0
      vertex 9.44469 14.135 0
      vertex 10.7847 13.1412 0
    endloop
  endfacet
  facet normal 0.595692 -0.803213 0
    outer loop
      vertex 9.44469 -14.135 0
      vertex 10.7847 -13.1412 0
      vertex 10.7847 -13.1412 20
    endloop
  endfacet
  facet normal 0.595692 -0.803213 0
    outer loop
      vertex 9.44469 -14.135 0
      vertex 10.7847 -13.1412 20
      vertex 9.44469 -14.135 20
    endloop
  endfacet
  facet normal 0 0 -1
    outer loop
      vertex 9.44469 -14.135 0
      vertex 10.7847 13.1412 0
      vertex 10.7847 -13.1412 0
    endloop
  endfacet
  facet normal 0 0 1
    outer loop
      vertex 9.44469 -14.135 20
      vertex 10.7847 -13.1412 20
      vertex 9.5159 -11.5952 20
    endloop
  endfacet
  facet normal 0.595692 0.803213 -0
    outer loop
      vertex 9.44469 14.135 0
      vertex 9.44469 14.135 20
      vertex 10.7847 13.1412 0
    endloop
  endfacet
  facet normal 0 0 1
    outer loop
      vertex 9.44469 14.135 20
      vertex 9.5159 11.5952 20
      vertex 10.7847 13.1412 20
    endloop
  endfacet
  facet normal 0.595692 0.803213 0
    outer loop
      vertex 9.44469 14.135 20
      vertex 10.7847 13.1412 20
      vertex 10.7847 13.1412 0
    endloop
  endfacet
  facet normal -0.671577 0.740935 0
    outer loop
      vertex 9.5159 -11.5952 2
      vertex 9.5159 -11.5952 20
      vertex 10.6066 -10.6066 2
    endloop
  endfacet
  facet normal 0 0 1
    outer loop
      vertex 9.5159 -11.5952 2
      vertex 10.6066 -10.6066 2
      vertex 9.5159 11.5952 2
    endloop
  endfacet
  facet normal -0.671577 0.740935 0
    outer loop
      vertex 9.5159 -11.5952 20
      vertex 10.6066 -10.6066 20
      vertex 10.6066 -10.6066 2
    endloop
  endfacet
  facet normal -0 0 1
    outer loop
      vertex 9.5159 -11.5952 20
      vertex 10.7847 -13.1412 20
      vertex 10.6066 -10.6066 20
    endloop
  endfacet
  facet normal 0 0 1
    outer loop
      vertex 9.5159 11.5952 2
      vertex 10.6066 -10.6066 2
      vertex 10.6066 10.6066 2
    endloop
  endfacet
  facet normal -0.671577 -0.740935 0
    outer loop
      vertex 9.5159 11.5952 2
      vertex 10.6066 10.6066 2
      vertex 10.6066 10.6066 20
    endloop
  endfacet
  facet normal -0.671577 -0.740935 0
    outer loop
      vertex 9.5159 11.5952 2
      vertex 10.6066 10.6066 20
      vertex 9.5159 11.5952 20
    endloop
  endfacet
  facet normal -0 0 1
    outer loop
      vertex 9.5159 11.5952 20
      vertex 10.6066 10.6066 20
      vertex 10.7847 13.1412 20
    endloop
  endfacet
  facet normal -0.740935 0.671577 0
    outer loop
      vertex 10.6066 -10.6066 2
      vertex 10.6066 -10.6066 20
      vertex 11.5952 -9.5159 20
    endloop
  endfacet
  facet normal 0 0 1
    outer loop
      vertex 10.6066 -10.6066 2
      vertex 11.5952 -9.5159 2
      vertex 10.6066 10.6066 2
    endloop
  endfacet
  facet normal -0.740935 0.671577 0
    outer loop
      vertex 10.6066 -10.6066 2
      vertex 11.5952 -9.5159 20
      vertex 11.5952 -9.5159 2
    endloop
  endfacet
  facet normal 0 0 1
    outer loop
      vertex 10.6066 -10.6066 20
      vertex 10.7847 -13.1412 20
      vertex 12.0208 -12.0208 20
    endloop
  endfacet
  facet normal -0 0 1
    outer loop
      vertex 10.6066 -10.6066 20
      vertex 12.0208 -12.0208 20
      vertex 11.5952 -9.5159 20
    endloop
  endfacet
  facet normal 0 0 1
    outer loop
      vertex 10.6066 10.6066 2
      vertex 11.5952 -9.5159 2
      vertex 11.5952 9.5159 2
    endloop
  endfacet
  facet normal -0.740935 -0.671577 0
    outer loop
      vertex 10.6066 10.6066 2
      vertex 11.5952 9.5159 2
      vertex 10.6066 10.6066 20
    endloop
  endfacet
  facet normal -0.740935 -0.671577 0
    outer loop
      vertex 10.6066 10.6066 20
      vertex 11.5952 9.5159 2
      vertex 11.5952 9.5159 20
    endloop
  endfacet
  facet normal -0 0 1
    outer loop
      vertex 10.6066 10.6066 20
      vertex 11.5952 9.5159 20
      vertex 12.0208 12.0208 20
    endloop
  endfacet
  facet normal 0 0 1
    outer loop
      vertex 10.6066 10.6066 20
      vertex 12.0208 12.0208 20
      vertex 10.7847 13.1412 20
    endloop
  endfacet
  facet normal 0 0 -1
    outer loop
      vertex 10.7847 -13.1412 0
      vertex 10.7847 13.1412 0
      vertex 12.0208 12.0208 0
    endloop
  endfacet
  facet normal 0.67158 -0.740932 0
    outer loop
      vertex 10.7847 -13.1412 0
      vertex 12.0208 -12.0208 0
      vertex 12.0208 -12.0208 20
    endloop
  endfacet
  facet normal 0.67158 -0.740932 0
    outer loop
      vertex 10.7847 -13.1412 0
      vertex 12.0208 -12.0208 20
      vertex 10.7847 -13.1412 20
    endloop
  endfacet
  facet normal 0 0 -1
    outer loop
      vertex 10.7847 -13.1412 0
      vertex 12.0208 12.0208 0
      vertex 12.0208 -12.0208 0
    endloop
  endfacet
  facet normal 0.67158 0.740932 -0
    outer loop
      vertex 10.7847 13.1412 0
      vertex 10.7847 13.1412 20
      vertex 12.0208 12.0208 0
    endloop
  endfacet
  facet normal 0.67158 0.740932 0
    outer loop
      vertex 10.7847 13.1412 20
      vertex 12.0208 12.0208 20
      vertex 12.0208 12.0208 0
    endloop
  endfacet
  facet normal -0.803237 0.59566 0
    outer loop
      vertex 11.5952 -9.5159 2
      vertex 11.5952 -9.5159 20
      vertex 12.472 -8.33355 20
    endloop
  endfacet
  facet normal 0 0 1
    outer loop
      vertex 11.5952 -9.5159 2
      vertex 12.472 -8.33355 2
      vertex 11.5952 9.5159 2
    endloop
  endfacet
  facet normal -0.803237 0.59566 0
    outer loop
      vertex 11.5952 -9.5159 2
      vertex 12.472 -8.33355 20
      vertex 12.472 -8.33355 2
    endloop
  endfacet
  facet normal 0 0 1
    outer loop
      vertex 11.5952 -9.5159 20
      vertex 12.0208 -12.0208 20
      vertex 13.1412 -10.7847 20
    endloop
  endfacet
  facet normal -0 0 1
    outer loop
      vertex 11.5952 -9.5159 20
      vertex 13.1412 -10.7847 20
      vertex 12.472 -8.33355 20
    endloop
  endfacet
  facet normal 0 0 1
    outer loop
      vertex 11.5952 9.5159 2
      vertex 12.472 -8.33355 2
      vertex 12.472 8.33355 2
    endloop
  endfacet
  facet normal -0.803237 -0.59566 0
    outer loop
      vertex 11.5952 9.5159 2
      vertex 12.472 8.33355 2
      vertex 11.5952 9.5159 20
    endloop
  endfacet
  facet normal -0.803237 -0.59566 0
    outer loop
      vertex 11.5952 9.5159 20
      vertex 12.472 8.33355 2
      vertex 12.472 8.33355 20
    endloop
  endfacet
  facet normal -0 0 1
    outer loop
      vertex 11.5952 9.5159 20
      vertex 12.472 8.33355 20
      vertex 13.1412 10.7847 20
    endloop
  endfacet
  facet normal 0 0 1
    outer loop
      vertex 11.5952 9.5159 20
      vertex 13.1412 10.7847 20
      vertex 12.0208 12.0208 20
    endloop
  endfacet
  facet normal 0 0 -1
    outer loop
      vertex 12.0208 -12.0208 0
      vertex 12.0208 12.0208 0
      vertex 13.1412 10.7847 0
    endloop
  endfacet
  facet normal 0.740932 -0.67158 0
    outer loop
      vertex 12.0208 -12.0208 0
      vertex 13.1412 -10.7847 0
      vertex 12.0208 -12.0208 20
    endloop
  endfacet
  facet normal 0 0 -1
    outer loop
      vertex 12.0208 -12.0208 0
      vertex 13.1412 10.7847 0
      vertex 13.1412 -10.7847 0
    endloop
  endfacet
  facet normal 0.740932 -0.67158 0
    outer loop
      vertex 12.0208 -12.0208 20
      vertex 13.1412 -10.7847 0
      vertex 13.1412 -10.7847 20
    endloop
  endfacet
  facet normal 0.740932 0.67158 -0
    outer loop
      vertex 12.0208 12.0208 0
      vertex 12.0208 12.0208 20
      vertex 13.1412 10.7847 20
    endloop
  endfacet
  facet normal 0.740932 0.67158 0
    outer loop
      vertex 12.0208 12.0208 0
      vertex 13.1412 10.7847 20
      vertex 13.1412 10.7847 0
    endloop
  endfacet
  facet normal -0.857721 0.514116 0
    outer loop
      vertex 12.472 -8.33355 2
      vertex 12.472 -8.33355 20
      vertex 13.2288 -7.07095 20
    endloop
  endfacet
  facet normal 0 0 1
    outer loop
      vertex 12.472 -8.33355 2
      vertex 13.2288 -7.07095 2
      vertex 12.472 8.33355 2
    endloop
  endfacet
  facet normal -0.857721 0.514116 0
    outer loop
      vertex 12.472 -8.33355 2
      vertex 13.2288 -7.07095 20
      vertex 13.2288 -7.07095 2
    endloop
  endfacet
  facet normal 0 0 1
    outer loop
      vertex 12.472 -8.33355 20
      vertex 13.1412 -10.7847 20
      vertex 14.135 -9.44469 20
    endloop
  endfacet
  facet normal -0 0 1
    outer loop
      vertex 12.472 -8.33355 20
      vertex 14.135 -9.44469 20
      vertex 13.2288 -7.07095 20
    endloop
  endfacet
  facet normal 0 0 1
    outer loop
      vertex 12.472 8.33355 2
      vertex 13.2288 -7.07095 2
      vertex 13.2288 7.07095 2
    endloop
  endfacet
  facet normal -0.857721 -0.514116 0
    outer loop
      vertex 12.472 8.33355 2
      vertex 13.2288 7.07095 2
      vertex 12.472 8.33355 20
    endloop
  endfacet
  facet normal -0.857721 -0.514116 0
    outer loop
      vertex 12.472 8.33355 20
      vertex 13.2288 7.07095 2
      vertex 13.2288 7.07095 20
    endloop
  endfacet
  facet normal -0 0 1
    outer loop
      vertex 12.472 8.33355 20
      vertex 13.2288 7.07095 20
      vertex 14.135 9.44469 20
    endloop
  endfacet
  facet normal 0 0 1
    outer loop
      vertex 12.472 8.33355 20
      vertex 14.135 9.44469 20
      vertex 13.1412 10.7847 20
    endloop
  endfacet
  facet normal 0 0 -1
    outer loop
      vertex 13.1412 -10.7847 0
      vertex 13.1412 10.7847 0
      vertex 14.135 9.44469 0
    endloop
  endfacet
  facet normal 0.803213 -0.595692 0
    outer loop
      vertex 13.1412 -10.7847 0
      vertex 14.135 -9.44469 0
      vertex 13.1412 -10.7847 20
    endloop
  endfacet
  facet normal 0 0 -1
    outer loop
      vertex 13.1412 -10.7847 0
      vertex 14.135 9.44469 0
      vertex 14.135 -9.44469 0
    endloop
  endfacet
  facet normal 0.803213 -0.595692 0
    outer loop
      vertex 13.1412 -10.7847 20
      vertex 14.135 -9.44469 0
      vertex 14.135 -9.44469 20
    endloop
  endfacet
  facet normal 0.803213 0.595692 -0
    outer loop
      vertex 13.1412 10.7847 0
      vertex 13.1412 10.7847 20
      vertex 14.135 9.44469 20
    endloop
  endfacet
  facet normal 0.803213 0.595692 0
    outer loop
      vertex 13.1412 10.7847 0
      vertex 14.135 9.44469 20
      vertex 14.135 9.44469 0
    endloop
  endfacet
  facet normal -0.903983 0.427569 0
    outer loop
      vertex 13.2288 -7.07095 2
      vertex 13.2288 -7.07095 20
      vertex 13.8582 -5.74025 20
    endloop
  endfacet
  facet normal 0 0 1
    outer loop
      vertex 13.2288 -7.07095 2
      vertex 13.8582 -5.74025 2
      vertex 13.2288 7.07095 2
    endloop
  endfacet
  facet normal -0.903983 0.427569 0
    outer loop
      vertex 13.2288 -7.07095 2
      vertex 13.8582 -5.74025 20
      vertex 13.8582 -5.74025 2
    endloop
  endfacet
  facet normal 0 0 1
    outer loop
      vertex 13.2288 -7.07095 20
      vertex 14.135 -9.44469 20
      vertex 14.9927 -8.01374 20
    endloop
  endfacet
  facet normal -0 0 1
    outer loop
      vertex 13.2288 -7.07095 20
      vertex 14.9927 -8.01374 20
      vertex 13.8582 -5.74025 20
    endloop
  endfacet
  facet normal 0 0 1
    outer loop
      vertex 13.2288 7.07095 2
      vertex 13.8582 -5.74025 2
      vertex 13.8582 5.74025 2
    endloop
  endfacet
  facet normal -0.903983 -0.427569 0
    outer loop
      vertex 13.2288 7.07095 2
      vertex 13.8582 5.74025 2
      vertex 13.2288 7.07095 20
    endloop
  endfacet
  facet normal -0.903983 -0.427569 0
    outer loop
      vertex 13.2288 7.07095 20
      vertex 13.8582 5.74025 2
      vertex 13.8582 5.74025 20
    endloop
  endfacet
  facet normal -0 0 1
    outer loop
      vertex 13.2288 7.07095 20
      vertex 13.8582 5.74025 20
      vertex 14.9927 8.01374 20
    endloop
  endfacet
  facet normal 0 0 1
    outer loop
      vertex 13.2288 7.07095 20
      vertex 14.9927 8.01374 20
      vertex 14.135 9.44469 20
    endloop
  endfacet
  facet normal -0.941547 0.336883 0
    outer loop
      vertex 13.8582 -5.74025 2
      vertex 13.8582 -5.74025 20
      vertex 14.3541 -4.35427 20
    endloop
  endfacet
  facet normal 0 0 1
    outer loop
      vertex 13.8582 -5.74025 2
      vertex 14.3541 -4.35427 2
      vertex 13.8582 5.74025 2
    endloop
  endfacet
  facet normal -0.941547 0.336883 0
    outer loop
      vertex 13.8582 -5.74025 2
      vertex 14.3541 -4.35427 20
      vertex 14.3541 -4.35427 2
    endloop
  endfacet
  facet normal 0 0 1
    outer loop
      vertex 13.8582 -5.74025 20
      vertex 14.9927 -8.01374 20
      vertex 15.706 -6.50562 20
    endloop
  endfacet
  facet normal -0 0 1
    outer loop
      vertex 13.8582 -5.74025 20
      vertex 15.706 -6.50562 20
      vertex 14.3541 -4.35427 20
    endloop
  endfacet
  facet normal 0 0 1
    outer loop
      vertex 13.8582 5.74025 2
      vertex 14.3541 -4.35427 2
      vertex 14.3541 4.35427 2
    endloop
  endfacet
  facet normal -0.941547 -0.336883 0
    outer loop
      vertex 13.8582 5.74025 2
      vertex 14.3541 4.35427 2
      vertex 13.8582 5.74025 20
    endloop
  endfacet
  facet normal -0.941547 -0.336883 0
    outer loop
      vertex 13.8582 5.74025 20
      vertex 14.3541 4.35427 2
      vertex 14.3541 4.35427 20
    endloop
  endfacet
  facet normal -0 0 1
    outer loop
      vertex 13.8582 5.74025 20
      vertex 14.3541 4.35427 20
      vertex 15.706 6.50562 20
    endloop
  endfacet
  facet normal 0 0 1
    outer loop
      vertex 13.8582 5.74025 20
      vertex 15.706 6.50562 20
      vertex 14.9927 8.01374 20
    endloop
  endfacet
  facet normal 0 0 -1
    outer loop
      vertex 14.135 -9.44469 0
      vertex 14.135 9.44469 0
      vertex 14.9927 8.01374 0
    endloop
  endfacet
  facet normal 0.857723 -0.514112 0
    outer loop
      vertex 14.135 -9.44469 0
      vertex 14.9927 -8.01374 0
      vertex 14.135 -9.44469 20
    endloop
  endfacet
  facet normal 0 0 -1
    outer loop
      vertex 14.135 -9.44469 0
      vertex 14.9927 8.01374 0
      vertex 14.9927 -8.01374 0
    endloop
  endfacet
  facet normal 0.857723 -0.514112 0
    outer loop
      vertex 14.135 -9.44469 20
      vertex 14.9927 -8.01374 0
      vertex 14.9927 -8.01374 20
    endloop
  endfacet
  facet normal 0.857723 0.514112 -0
    outer loop
      vertex 14.135 9.44469 0
      vertex 14.135 9.44469 20
      vertex 14.9927 8.01374 20
    endloop
  endfacet
  facet normal 0.857723 0.514112 0
    outer loop
      vertex 14.135 9.44469 0
      vertex 14.9927 8.01374 20
      vertex 14.9927 8.01374 0
    endloop
  endfacet
  facet normal -0.970027 0.242996 0
    outer loop
      vertex 14.3541 -4.35427 2
      vertex 14.3541 -4.35427 20
      vertex 14.7118 -2.92635 20
    endloop
  endfacet
  facet normal 0 0 1
    outer loop
      vertex 14.3541 -4.35427 2
      vertex 14.7118 -2.92635 2
      vertex 14.3541 4.35427 2
    endloop
  endfacet
  facet normal -0.970027 0.242996 0
    outer loop
      vertex 14.3541 -4.35427 2
      vertex 14.7118 -2.92635 20
      vertex 14.7118 -2.92635 2
    endloop
  endfacet
  facet normal 0 0 1
    outer loop
      vertex 14.3541 -4.35427 20
      vertex 15.706 -6.50562 20
      vertex 16.268 -4.93484 20
    endloop
  endfacet
  facet normal -0 0 1
    outer loop
      vertex 14.3541 -4.35427 20
      vertex 16.268 -4.93484 20
      vertex 14.7118 -2.92635 20
    endloop
  endfacet
  facet normal 0 0 1
    outer loop
      vertex 14.3541 4.35427 2
      vertex 14.7118 -2.92635 2
      vertex 14.7118 2.92635 2
    endloop
  endfacet
  facet normal -0.970027 -0.242996 0
    outer loop
      vertex 14.3541 4.35427 2
      vertex 14.7118 2.92635 2
      vertex 14.3541 4.35427 20
    endloop
  endfacet
  facet normal -0.970027 -0.242996 0
    outer loop
      vertex 14.3541 4.35427 20
      vertex 14.7118 2.92635 2
      vertex 14.7118 2.92635 20
    endloop
  endfacet
  facet normal -0 0 1
    outer loop
      vertex 14.3541 4.35427 20
      vertex 14.7118 2.92635 20
      vertex 16.268 4.93484 20
    endloop
  endfacet
  facet normal 0 0 1
    outer loop
      vertex 14.3541 4.35427 20
      vertex 16.268 4.93484 20
      vertex 15.706 6.50562 20
    endloop
  endfacet
  facet normal -0.989176 0.146737 0
    outer loop
      vertex 14.7118 -2.92635 2
      vertex 14.7118 -2.92635 20
      vertex 14.9278 -1.47026 20
    endloop
  endfacet
  facet normal 0 0 1
    outer loop
      vertex 14.7118 -2.92635 2
      vertex 14.9278 -1.47026 2
      vertex 14.7118 2.92635 2
    endloop
  endfacet
  facet normal -0.989176 0.146737 0
    outer loop
      vertex 14.7118 -2.92635 2
      vertex 14.9278 -1.47026 20
      vertex 14.9278 -1.47026 2
    endloop
  endfacet
  facet normal 0 0 1
    outer loop
      vertex 14.7118 -2.92635 20
      vertex 16.268 -4.93484 20
      vertex 16.6733 -3.31653 20
    endloop
  endfacet
  facet normal -0 0 1
    outer loop
      vertex 14.7118 -2.92635 20
      vertex 16.6733 -3.31653 20
      vertex 14.9278 -1.47026 20
    endloop
  endfacet
  facet normal 0 0 1
    outer loop
      vertex 14.7118 2.92635 2
      vertex 14.9278 -1.47026 2
      vertex 14.9278 1.47026 2
    endloop
  endfacet
  facet normal -0.989176 -0.146737 0
    outer loop
      vertex 14.7118 2.92635 2
      vertex 14.9278 1.47026 2
      vertex 14.7118 2.92635 20
    endloop
  endfacet
  facet normal -0.989176 -0.146737 0
    outer loop
      vertex 14.7118 2.92635 20
      vertex 14.9278 1.47026 2
      vertex 14.9278 1.47026 20
    endloop
  endfacet
  facet normal -0 0 1
    outer loop
      vertex 14.7118 2.92635 20
      vertex 14.9278 1.47026 20
      vertex 16.6733 3.31653 20
    endloop
  endfacet
  facet normal 0 0 1
    outer loop
      vertex 14.7118 2.92635 20
      vertex 16.6733 3.31653 20
      vertex 16.268 4.93484 20
    endloop
  endfacet
  facet normal -0.998796 0.0490479 0
    outer loop
      vertex 14.9278 -1.47026 2
      vertex 14.9278 -1.47026 20
      vertex 15 0 20
    endloop
  endfacet
  facet normal 0 0 1
    outer loop
      vertex 14.9278 -1.47026 2
      vertex 15 0 2
      vertex 14.9278 1.47026 2
    endloop
  endfacet
  facet normal -0.998796 0.0490479 0
    outer loop
      vertex 14.9278 -1.47026 2
      vertex 15 0 20
      vertex 15 0 2
    endloop
  endfacet
  facet normal 0 0 1
    outer loop
      vertex 14.9278 -1.47026 20
      vertex 16.6733 -3.31653 20
      vertex 16.9181 -1.66629 20
    endloop
  endfacet
  facet normal -0 0 1
    outer loop
      vertex 14.9278 -1.47026 20
      vertex 16.9181 -1.66629 20
      vertex 15 0 20
    endloop
  endfacet
  facet normal -0.998796 -0.0490479 0
    outer loop
      vertex 14.9278 1.47026 2
      vertex 15 0 2
      vertex 14.9278 1.47026 20
    endloop
  endfacet
  facet normal -0.998796 -0.0490479 0
    outer loop
      vertex 14.9278 1.47026 20
      vertex 15 0 2
      vertex 15 0 20
    endloop
  endfacet
  facet normal -0 0 1
    outer loop
      vertex 14.9278 1.47026 20
      vertex 15 0 20
      vertex 16.9181 1.66629 20
    endloop
  endfacet
  facet normal 0 0 1
    outer loop
      vertex 14.9278 1.47026 20
      vertex 16.9181 1.66629 20
      vertex 16.6733 3.31653 20
    endloop
  endfacet
  facet normal 0 0 -1
    outer loop
      vertex 14.9927 -8.01374 0
      vertex 14.9927 8.01374 0
      vertex 15.706 6.50562 0
    endloop
  endfacet
  facet normal 0.903986 -0.427561 0
    outer loop
      vertex 14.9927 -8.01374 0
      vertex 15.706 -6.50562 0
      vertex 14.9927 -8.01374 20
    endloop
  endfacet
  facet normal 0 0 -1
    outer loop
      vertex 14.9927 -8.01374 0
      vertex 15.706 6.50562 0
      vertex 15.706 -6.50562 0
    endloop
  endfacet
  facet normal 0.903986 -0.427561 0
    outer loop
      vertex 14.9927 -8.01374 20
      vertex 15.706 -6.50562 0
      vertex 15.706 -6.50562 20
    endloop
  endfacet
  facet normal 0.903986 0.427561 -0
    outer loop
      vertex 14.9927 8.01374 0
      vertex 14.9927 8.01374 20
      vertex 15.706 6.50562 20
    endloop
  endfacet
  facet normal 0.903986 0.427561 0
    outer loop
      vertex 14.9927 8.01374 0
      vertex 15.706 6.50562 20
      vertex 15.706 6.50562 0
    endloop
  endfacet
  facet normal -0 0 1
    outer loop
      vertex 15 0 20
      vertex 16.9181 -1.66629 20
      vertex 17 0 20
    endloop
  endfacet
  facet normal 0 0 1
    outer loop
      vertex 15 0 20
      vertex 17 0 20
      vertex 16.9181 1.66629 20
    endloop
  endfacet
  facet normal 0 0 -1
    outer loop
      vertex 15.706 -6.50562 0
      vertex 15.706 6.50562 0
      vertex 16.268 4.93484 0
    endloop
  endfacet
  facet normal 0.941551 -0.336872 0
    outer loop
      vertex 15.706 -6.50562 0
      vertex 16.268 -4.93484 0
      vertex 15.706 -6.50562 20
    endloop
  endfacet
  facet normal 0 0 -1
    outer loop
      vertex 15.706 -6.50562 0
      vertex 16.268 4.93484 0
      vertex 16.268 -4.93484 0
    endloop
  endfacet
  facet normal 0.941551 -0.336872 0
    outer loop
      vertex 15.706 -6.50562 20
      vertex 16.268 -4.93484 0
      vertex 16.268 -4.93484 20
    endloop
  endfacet
  facet normal 0.941551 0.336872 -0
    outer loop
      vertex 15.706 6.50562 0
      vertex 15.706 6.50562 20
      vertex 16.268 4.93484 20
    endloop
  endfacet
  facet normal 0.941551 0.336872 0
    outer loop
      vertex 15.706 6.50562 0
      vertex 16.268 4.93484 20
      vertex 16.268 4.93484 0
    endloop
  endfacet
  facet normal 0 0 -1
    outer loop
      vertex 16.268 -4.93484 0
      vertex 16.268 4.93484 0
      vertex 16.6733 3.31653 0
    endloop
  endfacet
  facet normal 0.970041 -0.242943 0
    outer loop
      vertex 16.268 -4.93484 0
      vertex 16.6733 -3.31653 0
      vertex 16.268 -4.93484 20
    endloop
  endfacet
  facet normal 0 0 -1
    outer loop
      vertex 16.268 -4.93484 0
      vertex 16.6733 3.31653 0
      vertex 16.6733 -3.31653 0
    endloop
  endfacet
  facet normal 0.970041 -0.242943 0
    outer loop
      vertex 16.268 -4.93484 20
      vertex 16.6733 -3.31653 0
      vertex 16.6733 -3.31653 20
    endloop
  endfacet
  facet normal 0.970041 0.242943 -0
    outer loop
      vertex 16.268 4.93484 0
      vertex 16.268 4.93484 20
      vertex 16.6733 3.31653 20
    endloop
  endfacet
  facet normal 0.970041 0.242943 0
    outer loop
      vertex 16.268 4.93484 0
      vertex 16.6733 3.31653 20
      vertex 16.6733 3.31653 0
    endloop
  endfacet
  facet normal 0 0 -1
    outer loop
      vertex 16.6733 -3.31653 0
      vertex 16.6733 3.31653 0
      vertex 16.9181 1.66629 0
    endloop
  endfacet
  facet normal 0.989176 -0.146736 0
    outer loop
      vertex 16.6733 -3.31653 0
      vertex 16.9181 -1.66629 0
      vertex 16.6733 -3.31653 20
    endloop
  endfacet
  facet normal 0 0 -1
    outer loop
      vertex 16.6733 -3.31653 0
      vertex 16.9181 1.66629 0
      vertex 16.9181 -1.66629 0
    endloop
  endfacet
  facet normal 0.989176 -0.146736 0
    outer loop
      vertex 16.6733 -3.31653 20
      vertex 16.9181 -1.66629 0
      vertex 16.9181 -1.66629 20
    endloop
  endfacet
  facet normal 0.989176 0.146736 -0
    outer loop
      vertex 16.6733 3.31653 0
      vertex 16.6733 3.31653 20
      vertex 16.9181 1.66629 20
    endloop
  endfacet
  facet normal 0.989176 0.146736 0
    outer loop
      vertex 16.6733 3.31653 0
      vertex 16.9181 1.66629 20
      vertex 16.9181 1.66629 0
    endloop
  endfacet
  facet normal 0 0 -1
    outer loop
      vertex 16.9181 -1.66629 0
      vertex 16.9181 1.66629 0
      vertex 17 0 0
    endloop
  endfacet
  facet normal 0.998794 -0.0490918 0
    outer loop
      vertex 16.9181 -1.66629 0
      vertex 17 0 0
      vertex 16.9181 -1.66629 20
    endloop
  endfacet
  facet normal 0.998794 -0.0490918 0
    outer loop
      vertex 16.9181 -1.66629 20
      vertex 17 0 0
      vertex 17 0 20
    endloop
  endfacet
  facet normal 0.998794 0.0490918 -0
    outer loop
      vertex 16.9181 1.66629 0
      vertex 16.9181 1.66629 20
      vertex 17 0 20
    endloop
  endfacet
  facet normal 0.998794 0.0490918 0
    outer loop
      vertex 16.9181 1.66629 0
      vertex 17 0 20
      vertex 17 0 0
    endloop
  endfacet
endsolid OpenSCAD_Model
