solid OpenSCAD_Model
  facet normal -1 0 0
    outer loop
      vertex -2.94 -14.4013 0
      vertex -2.94 -14.4013 20
      vertex -2.94 -13.1718 1.2
    endloop
  endfacet
  facet normal -1 0 0
    outer loop
      vertex -2.94 -14.4013 0
      vertex -2.94 -13.1718 1.2
      vertex -2.94 14.4013 0
    endloop
  endfacet
  facet normal 0 0 -1
    outer loop
      vertex -2.94 -14.4013 0
      vertex -2.94 14.4013 0
      vertex -2.15694 14.5409 0
    endloop
  endfacet
  facet normal -0.21902 -0.97572 0
    outer loop
      vertex -2.94 -14.4013 0
      vertex -2.86783 -14.4175 0
      vertex -2.86783 -14.4175 20
    endloop
  endfacet
  facet normal -0.21902 -0.97572 0
    outer loop
      vertex -2.94 -14.4013 0
      vertex -2.86783 -14.4175 20
      vertex -2.94 -14.4013 20
    endloop
  endfacet
  facet normal 0 0 -1
    outer loop
      vertex -2.94 -14.4013 0
      vertex -2.15694 -14.5409 0
      vertex -2.86783 -14.4175 0
    endloop
  endfacet
  facet normal 0 0 -1
    outer loop
      vertex -2.94 -14.4013 0
      vertex -2.15694 14.5409 0
      vertex -2.15694 -14.5409 0
    endloop
  endfacet
  facet normal -1 0 0
    outer loop
      vertex -2.94 -14.4013 20
      vertex -2.94 -13.1718 20
      vertex -2.94 -13.1718 1.2
    endloop
  endfacet
  facet normal -0 0 1
    outer loop
      vertex -2.94 -14.4013 20
      vertex -2.86783 -14.4175 20
      vertex -2.63372 -13.2406 20
    endloop
  endfacet
  facet normal 0 0 1
    outer loop
      vertex -2.94 -14.4013 20
      vertex -2.63372 -13.2406 20
      vertex -2.94 -13.1718 20
    endloop
  endfacet
  facet normal 0.21917 0.975687 -0
    outer loop
      vertex -2.94 -13.1718 1.2
      vertex -2.94 -13.1718 20
      vertex -2.63372 -13.2406 1.2
    endloop
  endfacet
  facet normal -1 0 0
    outer loop
      vertex -2.94 -13.1718 1.2
      vertex -2.94 13.1718 1.2
      vertex -2.94 14.4013 0
    endloop
  endfacet
  facet normal 0 0 1
    outer loop
      vertex -2.94 -13.1718 1.2
      vertex -2.63372 -13.2406 1.2
      vertex -1.98086 -13.3539 1.2
    endloop
  endfacet
  facet normal -0 0 1
    outer loop
      vertex -2.94 -13.1718 1.2
      vertex -1.98086 -13.3539 1.2
      vertex -2.94 13.1718 1.2
    endloop
  endfacet
  facet normal 0.21917 0.975687 0
    outer loop
      vertex -2.94 -13.1718 20
      vertex -2.63372 -13.2406 20
      vertex -2.63372 -13.2406 1.2
    endloop
  endfacet
  facet normal -1 0 0
    outer loop
      vertex -2.94 13.1718 1.2
      vertex -2.94 13.1718 20
      vertex -2.94 14.4013 20
    endloop
  endfacet
  facet normal -1 0 0
    outer loop
      vertex -2.94 13.1718 1.2
      vertex -2.94 14.4013 20
      vertex -2.94 14.4013 0
    endloop
  endfacet
  facet normal 0.21917 -0.975687 0
    outer loop
      vertex -2.94 13.1718 1.2
      vertex -2.63372 13.2406 1.2
      vertex -2.63372 13.2406 20
    endloop
  endfacet
  facet normal 0.21917 -0.975687 0
    outer loop
      vertex -2.94 13.1718 1.2
      vertex -2.63372 13.2406 20
      vertex -2.94 13.1718 20
    endloop
  endfacet
  facet normal -0 0 1
    outer loop
      vertex -2.94 13.1718 1.2
      vertex -1.98086 -13.3539 1.2
      vertex -1.98086 13.3539 1.2
    endloop
  endfacet
  facet normal 0 0 1
    outer loop
      vertex -2.94 13.1718 1.2
      vertex -1.98086 13.3539 1.2
      vertex -2.63372 13.2406 1.2
    endloop
  endfacet
  facet normal 0 0 1
    outer loop
      vertex -2.94 13.1718 20
      vertex -2.63372 13.2406 20
      vertex -2.94 14.4013 20
    endloop
  endfacet
  facet normal -0.21902 0.97572 0
    outer loop
      vertex -2.94 14.4013 0
      vertex -2.94 14.4013 20
      vertex -2.86783 14.4175 0
    endloop
  endfacet
  facet normal 0 0 -1
    outer loop
      vertex -2.94 14.4013 0
      vertex -2.86783 14.4175 0
      vertex -2.15694 14.5409 0
    endloop
  endfacet
  facet normal -0.21902 0.97572 0
    outer loop
      vertex -2.94 14.4013 20
      vertex -2.86783 14.4175 20
      vertex -2.86783 14.4175 0
    endloop
  endfacet
  facet normal -0 0 1
    outer loop
      vertex -2.94 14.4013 20
      vertex -2.63372 13.2406 20
      vertex -2.86783 14.4175 20
    endloop
  endfacet
  facet normal -0.171028 -0.985266 0
    outer loop
      vertex -2.86783 -14.4175 0
      vertex -2.15694 -14.5409 0
      vertex -2.15694 -14.5409 20
    endloop
  endfacet
  facet normal -0.171028 -0.985266 0
    outer loop
      vertex -2.86783 -14.4175 0
      vertex -2.15694 -14.5409 20
      vertex -2.86783 -14.4175 20
    endloop
  endfacet
  facet normal -0 0 1
    outer loop
      vertex -2.86783 -14.4175 20
      vertex -2.15694 -14.5409 20
      vertex -2.63372 -13.2406 20
    endloop
  endfacet
  facet normal -0.171028 0.985266 0
    outer loop
      vertex -2.86783 14.4175 0
      vertex -2.86783 14.4175 20
      vertex -2.15694 14.5409 0
    endloop
  endfacet
  facet normal -0 0 1
    outer loop
      vertex -2.86783 14.4175 20
      vertex -2.63372 13.2406 20
      vertex -2.15694 14.5409 20
    endloop
  endfacet
  facet normal -0.171028 0.985266 0
    outer loop
      vertex -2.86783 14.4175 20
      vertex -2.15694 14.5409 20
      vertex -2.15694 14.5409 0
    endloop
  endfacet
  facet normal 0.170988 0.985273 -0
    outer loop
      vertex -2.63372 -13.2406 1.2
      vertex -2.63372 -13.2406 20
      vertex -1.98086 -13.3539 1.2
    endloop
  endfacet
  facet normal 0 0 1
    outer loop
      vertex -2.63372 -13.2406 20
      vertex -2.15694 -14.5409 20
      vertex -1.98086 -13.3539 20
    endloop
  endfacet
  facet normal 0.170988 0.985273 0
    outer loop
      vertex -2.63372 -13.2406 20
      vertex -1.98086 -13.3539 20
      vertex -1.98086 -13.3539 1.2
    endloop
  endfacet
  facet normal 0.170988 -0.985273 0
    outer loop
      vertex -2.63372 13.2406 1.2
      vertex -1.98086 13.3539 1.2
      vertex -1.98086 13.3539 20
    endloop
  endfacet
  facet normal 0.170988 -0.985273 0
    outer loop
      vertex -2.63372 13.2406 1.2
      vertex -1.98086 13.3539 20
      vertex -2.63372 13.2406 20
    endloop
  endfacet
  facet normal 0 0 1
    outer loop
      vertex -2.63372 13.2406 20
      vertex -1.98086 13.3539 20
      vertex -2.15694 14.5409 20
    endloop
  endfacet
  facet normal 0 0 -1
    outer loop
      vertex -2.15694 -14.5409 0
      vertex -2.15694 14.5409 0
      vertex -1.44085 14.6292 0
    endloop
  endfacet
  facet normal -0.122382 -0.992483 0
    outer loop
      vertex -2.15694 -14.5409 0
      vertex -1.44085 -14.6292 0
      vertex -1.44085 -14.6292 20
    endloop
  endfacet
  facet normal -0.122382 -0.992483 0
    outer loop
      vertex -2.15694 -14.5409 0
      vertex -1.44085 -14.6292 20
      vertex -2.15694 -14.5409 20
    endloop
  endfacet
  facet normal 0 0 -1
    outer loop
      vertex -2.15694 -14.5409 0
      vertex -1.44085 14.6292 0
      vertex -1.44085 -14.6292 0
    endloop
  endfacet
  facet normal -0 0 1
    outer loop
      vertex -2.15694 -14.5409 20
      vertex -1.44085 -14.6292 20
      vertex -1.98086 -13.3539 20
    endloop
  endfacet
  facet normal -0.122382 0.992483 0
    outer loop
      vertex -2.15694 14.5409 0
      vertex -2.15694 14.5409 20
      vertex -1.44085 14.6292 0
    endloop
  endfacet
  facet normal -0 0 1
    outer loop
      vertex -2.15694 14.5409 20
      vertex -1.98086 13.3539 20
      vertex -1.44085 14.6292 20
    endloop
  endfacet
  facet normal -0.122382 0.992483 0
    outer loop
      vertex -2.15694 14.5409 20
      vertex -1.44085 14.6292 20
      vertex -1.44085 14.6292 0
    endloop
  endfacet
  facet normal 0.122394 0.992482 -0
    outer loop
      vertex -1.98086 -13.3539 1.2
      vertex -1.98086 -13.3539 20
      vertex -1.32323 -13.435 1.2
    endloop
  endfacet
  facet normal -0 0 1
    outer loop
      vertex -1.98086 -13.3539 1.2
      vertex -1.32323 -13.435 1.2
      vertex -1.98086 13.3539 1.2
    endloop
  endfacet
  facet normal 0 0 1
    outer loop
      vertex -1.98086 -13.3539 20
      vertex -1.44085 -14.6292 20
      vertex -1.32323 -13.435 20
    endloop
  endfacet
  facet normal 0.122394 0.992482 0
    outer loop
      vertex -1.98086 -13.3539 20
      vertex -1.32323 -13.435 20
      vertex -1.32323 -13.435 1.2
    endloop
  endfacet
  facet normal -0 0 1
    outer loop
      vertex -1.98086 13.3539 1.2
      vertex -1.32323 -13.435 1.2
      vertex -1.32323 13.435 1.2
    endloop
  endfacet
  facet normal 0.122394 -0.992482 0
    outer loop
      vertex -1.98086 13.3539 1.2
      vertex -1.32323 13.435 1.2
      vertex -1.32323 13.435 20
    endloop
  endfacet
  facet normal 0.122394 -0.992482 0
    outer loop
      vertex -1.98086 13.3539 1.2
      vertex -1.32323 13.435 20
      vertex -1.98086 13.3539 20
    endloop
  endfacet
  facet normal 0 0 1
    outer loop
      vertex -1.98086 13.3539 20
      vertex -1.32323 13.435 20
      vertex -1.44085 14.6292 20
    endloop
  endfacet
  facet normal 0 0 -1
    outer loop
      vertex -1.44085 -14.6292 0
      vertex -1.44085 14.6292 0
      vertex -0.721294 14.6823 0
    endloop
  endfacet
  facet normal -0.0735954 -0.997288 0
    outer loop
      vertex -1.44085 -14.6292 0
      vertex -0.721294 -14.6823 0
      vertex -0.721294 -14.6823 20
    endloop
  endfacet
  facet normal -0.0735954 -0.997288 0
    outer loop
      vertex -1.44085 -14.6292 0
      vertex -0.721294 -14.6823 20
      vertex -1.44085 -14.6292 20
    endloop
  endfacet
  facet normal 0 0 -1
    outer loop
      vertex -1.44085 -14.6292 0
      vertex -0.721294 14.6823 0
      vertex -0.721294 -14.6823 0
    endloop
  endfacet
  facet normal -0 0 1
    outer loop
      vertex -1.44085 -14.6292 20
      vertex -0.721294 -14.6823 20
      vertex -1.32323 -13.435 20
    endloop
  endfacet
  facet normal -0.0735954 0.997288 0
    outer loop
      vertex -1.44085 14.6292 0
      vertex -1.44085 14.6292 20
      vertex -0.721294 14.6823 0
    endloop
  endfacet
  facet normal -0 0 1
    outer loop
      vertex -1.44085 14.6292 20
      vertex -1.32323 13.435 20
      vertex -0.721294 14.6823 20
    endloop
  endfacet
  facet normal -0.0735954 0.997288 0
    outer loop
      vertex -1.44085 14.6292 20
      vertex -0.721294 14.6823 20
      vertex -0.721294 14.6823 0
    endloop
  endfacet
  facet normal 0.0734974 0.997295 -0
    outer loop
      vertex -1.32323 -13.435 1.2
      vertex -1.32323 -13.435 20
      vertex -0.662414 -13.4837 1.2
    endloop
  endfacet
  facet normal -0 0 1
    outer loop
      vertex -1.32323 -13.435 1.2
      vertex -0.662414 -13.4837 1.2
      vertex -1.32323 13.435 1.2
    endloop
  endfacet
  facet normal 0 0 1
    outer loop
      vertex -1.32323 -13.435 20
      vertex -0.721294 -14.6823 20
      vertex -0.662414 -13.4837 20
    endloop
  endfacet
  facet normal 0.0734974 0.997295 0
    outer loop
      vertex -1.32323 -13.435 20
      vertex -0.662414 -13.4837 20
      vertex -0.662414 -13.4837 1.2
    endloop
  endfacet
  facet normal -0 0 1
    outer loop
      vertex -1.32323 13.435 1.2
      vertex -0.662414 -13.4837 1.2
      vertex -0.662414 13.4837 1.2
    endloop
  endfacet
  facet normal 0.0734974 -0.997295 0
    outer loop
      vertex -1.32323 13.435 1.2
      vertex -0.662414 13.4837 1.2
      vertex -0.662414 13.4837 20
    endloop
  endfacet
  facet normal 0.0734974 -0.997295 0
    outer loop
      vertex -1.32323 13.435 1.2
      vertex -0.662414 13.4837 20
      vertex -1.32323 13.435 20
    endloop
  endfacet
  facet normal 0 0 1
    outer loop
      vertex -1.32323 13.435 20
      vertex -0.662414 13.4837 20
      vertex -0.721294 14.6823 20
    endloop
  endfacet
  facet normal 0 0 -1
    outer loop
      vertex -0.721294 -14.6823 0
      vertex -0.721294 14.6823 0
      vertex 0 14.7 0
    endloop
  endfacet
  facet normal -0.0245318 -0.999699 0
    outer loop
      vertex -0.721294 -14.6823 0
      vertex 0 -14.7 0
      vertex 0 -14.7 20
    endloop
  endfacet
  facet normal -0.0245318 -0.999699 0
    outer loop
      vertex -0.721294 -14.6823 0
      vertex 0 -14.7 20
      vertex -0.721294 -14.6823 20
    endloop
  endfacet
  facet normal 0 0 -1
    outer loop
      vertex -0.721294 -14.6823 0
      vertex 0 14.7 0
      vertex 0 -14.7 0
    endloop
  endfacet
  facet normal -0 0 1
    outer loop
      vertex -0.721294 -14.6823 20
      vertex 0 -14.7 20
      vertex -0.662414 -13.4837 20
    endloop
  endfacet
  facet normal -0.0245318 0.999699 0
    outer loop
      vertex -0.721294 14.6823 0
      vertex -0.721294 14.6823 20
      vertex 0 14.7 0
    endloop
  endfacet
  facet normal -0 0 1
    outer loop
      vertex -0.721294 14.6823 20
      vertex -0.662414 13.4837 20
      vertex 0 14.7 20
    endloop
  endfacet
  facet normal -0.0245318 0.999699 0
    outer loop
      vertex -0.721294 14.6823 20
      vertex 0 14.7 20
      vertex 0 14.7 0
    endloop
  endfacet
  facet normal 0.0245995 0.999697 -0
    outer loop
      vertex -0.662414 -13.4837 1.2
      vertex -0.662414 -13.4837 20
      vertex 0 -13.5 1.2
    endloop
  endfacet
  facet normal -0 0 1
    outer loop
      vertex -0.662414 -13.4837 1.2
      vertex 0 -13.5 1.2
      vertex -0.662414 13.4837 1.2
    endloop
  endfacet
  facet normal 0 0 1
    outer loop
      vertex -0.662414 -13.4837 20
      vertex 0 -14.7 20
      vertex 0 -13.5 20
    endloop
  endfacet
  facet normal 0.0245995 0.999697 0
    outer loop
      vertex -0.662414 -13.4837 20
      vertex 0 -13.5 20
      vertex 0 -13.5 1.2
    endloop
  endfacet
  facet normal -0 0 1
    outer loop
      vertex -0.662414 13.4837 1.2
      vertex 0 -13.5 1.2
      vertex 0 13.5 1.2
    endloop
  endfacet
  facet normal 0.0245995 -0.999697 0
    outer loop
      vertex -0.662414 13.4837 1.2
      vertex 0 13.5 1.2
      vertex 0 13.5 20
    endloop
  endfacet
  facet normal 0.0245995 -0.999697 0
    outer loop
      vertex -0.662414 13.4837 1.2
      vertex 0 13.5 20
      vertex -0.662414 13.4837 20
    endloop
  endfacet
  facet normal 0 0 1
    outer loop
      vertex -0.662414 13.4837 20
      vertex 0 13.5 20
      vertex 0 14.7 20
    endloop
  endfacet
  facet normal 0 0 -1
    outer loop
      vertex 0 -14.7 0
      vertex 0 14.7 0
      vertex 0.721294 14.6823 0
    endloop
  endfacet
  facet normal 0.0245318 -0.999699 0
    outer loop
      vertex 0 -14.7 0
      vertex 0.721294 -14.6823 0
      vertex 0.721294 -14.6823 20
    endloop
  endfacet
  facet normal 0.0245318 -0.999699 0
    outer loop
      vertex 0 -14.7 0
      vertex 0.721294 -14.6823 20
      vertex 0 -14.7 20
    endloop
  endfacet
  facet normal 0 0 -1
    outer loop
      vertex 0 -14.7 0
      vertex 0.721294 14.6823 0
      vertex 0.721294 -14.6823 0
    endloop
  endfacet
  facet normal 0 0 1
    outer loop
      vertex 0 -14.7 20
      vertex 0.721294 -14.6823 20
      vertex 0 -13.5 20
    endloop
  endfacet
  facet normal -0.0245995 0.999697 0
    outer loop
      vertex 0 -13.5 1.2
      vertex 0 -13.5 20
      vertex 0.662414 -13.4837 1.2
    endloop
  endfacet
  facet normal 0 0 1
    outer loop
      vertex 0 -13.5 1.2
      vertex 0.662414 -13.4837 1.2
      vertex 0 13.5 1.2
    endloop
  endfacet
  facet normal -0.0245995 0.999697 0
    outer loop
      vertex 0 -13.5 20
      vertex 0.662414 -13.4837 20
      vertex 0.662414 -13.4837 1.2
    endloop
  endfacet
  facet normal -0 0 1
    outer loop
      vertex 0 -13.5 20
      vertex 0.721294 -14.6823 20
      vertex 0.662414 -13.4837 20
    endloop
  endfacet
  facet normal 0 0 1
    outer loop
      vertex 0 13.5 1.2
      vertex 0.662414 -13.4837 1.2
      vertex 0.662414 13.4837 1.2
    endloop
  endfacet
  facet normal -0.0245995 -0.999697 0
    outer loop
      vertex 0 13.5 1.2
      vertex 0.662414 13.4837 1.2
      vertex 0.662414 13.4837 20
    endloop
  endfacet
  facet normal -0.0245995 -0.999697 0
    outer loop
      vertex 0 13.5 1.2
      vertex 0.662414 13.4837 20
      vertex 0 13.5 20
    endloop
  endfacet
  facet normal -0 0 1
    outer loop
      vertex 0 13.5 20
      vertex 0.662414 13.4837 20
      vertex 0 14.7 20
    endloop
  endfacet
  facet normal 0.0245318 0.999699 -0
    outer loop
      vertex 0 14.7 0
      vertex 0 14.7 20
      vertex 0.721294 14.6823 0
    endloop
  endfacet
  facet normal 0 0 1
    outer loop
      vertex 0 14.7 20
      vertex 0.662414 13.4837 20
      vertex 0.721294 14.6823 20
    endloop
  endfacet
  facet normal 0.0245318 0.999699 0
    outer loop
      vertex 0 14.7 20
      vertex 0.721294 14.6823 20
      vertex 0.721294 14.6823 0
    endloop
  endfacet
  facet normal -0.0734974 0.997295 0
    outer loop
      vertex 0.662414 -13.4837 1.2
      vertex 0.662414 -13.4837 20
      vertex 1.32323 -13.435 1.2
    endloop
  endfacet
  facet normal 0 0 1
    outer loop
      vertex 0.662414 -13.4837 1.2
      vertex 1.32323 -13.435 1.2
      vertex 0.662414 13.4837 1.2
    endloop
  endfacet
  facet normal -0 0 1
    outer loop
      vertex 0.662414 -13.4837 20
      vertex 0.721294 -14.6823 20
      vertex 1.32323 -13.435 20
    endloop
  endfacet
  facet normal -0.0734974 0.997295 0
    outer loop
      vertex 0.662414 -13.4837 20
      vertex 1.32323 -13.435 20
      vertex 1.32323 -13.435 1.2
    endloop
  endfacet
  facet normal 0 0 1
    outer loop
      vertex 0.662414 13.4837 1.2
      vertex 1.32323 -13.435 1.2
      vertex 1.32323 13.435 1.2
    endloop
  endfacet
  facet normal -0.0734974 -0.997295 0
    outer loop
      vertex 0.662414 13.4837 1.2
      vertex 1.32323 13.435 1.2
      vertex 1.32323 13.435 20
    endloop
  endfacet
  facet normal -0.0734974 -0.997295 0
    outer loop
      vertex 0.662414 13.4837 1.2
      vertex 1.32323 13.435 20
      vertex 0.662414 13.4837 20
    endloop
  endfacet
  facet normal -0 0 1
    outer loop
      vertex 0.662414 13.4837 20
      vertex 1.32323 13.435 20
      vertex 0.721294 14.6823 20
    endloop
  endfacet
  facet normal 0 0 -1
    outer loop
      vertex 0.721294 -14.6823 0
      vertex 0.721294 14.6823 0
      vertex 1.44085 14.6292 0
    endloop
  endfacet
  facet normal 0.0735954 -0.997288 0
    outer loop
      vertex 0.721294 -14.6823 0
      vertex 1.44085 -14.6292 0
      vertex 1.44085 -14.6292 20
    endloop
  endfacet
  facet normal 0.0735954 -0.997288 0
    outer loop
      vertex 0.721294 -14.6823 0
      vertex 1.44085 -14.6292 20
      vertex 0.721294 -14.6823 20
    endloop
  endfacet
  facet normal 0 0 -1
    outer loop
      vertex 0.721294 -14.6823 0
      vertex 1.44085 14.6292 0
      vertex 1.44085 -14.6292 0
    endloop
  endfacet
  facet normal 0 0 1
    outer loop
      vertex 0.721294 -14.6823 20
      vertex 1.44085 -14.6292 20
      vertex 1.32323 -13.435 20
    endloop
  endfacet
  facet normal 0.0735954 0.997288 -0
    outer loop
      vertex 0.721294 14.6823 0
      vertex 0.721294 14.6823 20
      vertex 1.44085 14.6292 0
    endloop
  endfacet
  facet normal 0 0 1
    outer loop
      vertex 0.721294 14.6823 20
      vertex 1.32323 13.435 20
      vertex 1.44085 14.6292 20
    endloop
  endfacet
  facet normal 0.0735954 0.997288 0
    outer loop
      vertex 0.721294 14.6823 20
      vertex 1.44085 14.6292 20
      vertex 1.44085 14.6292 0
    endloop
  endfacet
  facet normal -0.122394 0.992482 0
    outer loop
      vertex 1.32323 -13.435 1.2
      vertex 1.32323 -13.435 20
      vertex 1.98086 -13.3539 1.2
    endloop
  endfacet
  facet normal 0 0 1
    outer loop
      vertex 1.32323 -13.435 1.2
      vertex 1.98086 -13.3539 1.2
      vertex 1.32323 13.435 1.2
    endloop
  endfacet
  facet normal -0 0 1
    outer loop
      vertex 1.32323 -13.435 20
      vertex 1.44085 -14.6292 20
      vertex 1.98086 -13.3539 20
    endloop
  endfacet
  facet normal -0.122394 0.992482 0
    outer loop
      vertex 1.32323 -13.435 20
      vertex 1.98086 -13.3539 20
      vertex 1.98086 -13.3539 1.2
    endloop
  endfacet
  facet normal 0 0 1
    outer loop
      vertex 1.32323 13.435 1.2
      vertex 1.98086 -13.3539 1.2
      vertex 1.98086 13.3539 1.2
    endloop
  endfacet
  facet normal -0.122394 -0.992482 0
    outer loop
      vertex 1.32323 13.435 1.2
      vertex 1.98086 13.3539 1.2
      vertex 1.98086 13.3539 20
    endloop
  endfacet
  facet normal -0.122394 -0.992482 0
    outer loop
      vertex 1.32323 13.435 1.2
      vertex 1.98086 13.3539 20
      vertex 1.32323 13.435 20
    endloop
  endfacet
  facet normal -0 0 1
    outer loop
      vertex 1.32323 13.435 20
      vertex 1.98086 13.3539 20
      vertex 1.44085 14.6292 20
    endloop
  endfacet
  facet normal 0 0 -1
    outer loop
      vertex 1.44085 -14.6292 0
      vertex 1.44085 14.6292 0
      vertex 2.15694 14.5409 0
    endloop
  endfacet
  facet normal 0.122382 -0.992483 0
    outer loop
      vertex 1.44085 -14.6292 0
      vertex 2.15694 -14.5409 0
      vertex 2.15694 -14.5409 20
    endloop
  endfacet
  facet normal 0.122382 -0.992483 0
    outer loop
      vertex 1.44085 -14.6292 0
      vertex 2.15694 -14.5409 20
      vertex 1.44085 -14.6292 20
    endloop
  endfacet
  facet normal 0 0 -1
    outer loop
      vertex 1.44085 -14.6292 0
      vertex 2.15694 14.5409 0
      vertex 2.15694 -14.5409 0
    endloop
  endfacet
  facet normal 0 0 1
    outer loop
      vertex 1.44085 -14.6292 20
      vertex 2.15694 -14.5409 20
      vertex 1.98086 -13.3539 20
    endloop
  endfacet
  facet normal 0.122382 0.992483 -0
    outer loop
      vertex 1.44085 14.6292 0
      vertex 1.44085 14.6292 20
      vertex 2.15694 14.5409 0
    endloop
  endfacet
  facet normal 0 0 1
    outer loop
      vertex 1.44085 14.6292 20
      vertex 1.98086 13.3539 20
      vertex 2.15694 14.5409 20
    endloop
  endfacet
  facet normal 0.122382 0.992483 0
    outer loop
      vertex 1.44085 14.6292 20
      vertex 2.15694 14.5409 20
      vertex 2.15694 14.5409 0
    endloop
  endfacet
  facet normal -0.170988 0.985273 0
    outer loop
      vertex 1.98086 -13.3539 1.2
      vertex 1.98086 -13.3539 20
      vertex 2.63372 -13.2406 1.2
    endloop
  endfacet
  facet normal 0 0 1
    outer loop
      vertex 1.98086 -13.3539 1.2
      vertex 2.63372 -13.2406 1.2
      vertex 1.98086 13.3539 1.2
    endloop
  endfacet
  facet normal -0 0 1
    outer loop
      vertex 1.98086 -13.3539 20
      vertex 2.15694 -14.5409 20
      vertex 2.63372 -13.2406 20
    endloop
  endfacet
  facet normal -0.170988 0.985273 0
    outer loop
      vertex 1.98086 -13.3539 20
      vertex 2.63372 -13.2406 20
      vertex 2.63372 -13.2406 1.2
    endloop
  endfacet
  facet normal 0 0 1
    outer loop
      vertex 1.98086 13.3539 1.2
      vertex 2.63372 -13.2406 1.2
      vertex 2.63372 13.2406 1.2
    endloop
  endfacet
  facet normal -0.170988 -0.985273 0
    outer loop
      vertex 1.98086 13.3539 1.2
      vertex 2.63372 13.2406 1.2
      vertex 2.63372 13.2406 20
    endloop
  endfacet
  facet normal -0.170988 -0.985273 0
    outer loop
      vertex 1.98086 13.3539 1.2
      vertex 2.63372 13.2406 20
      vertex 1.98086 13.3539 20
    endloop
  endfacet
  facet normal -0 0 1
    outer loop
      vertex 1.98086 13.3539 20
      vertex 2.63372 13.2406 20
      vertex 2.15694 14.5409 20
    endloop
  endfacet
  facet normal 0 0 -1
    outer loop
      vertex 2.15694 -14.5409 0
      vertex 2.15694 14.5409 0
      vertex 2.86783 14.4175 0
    endloop
  endfacet
  facet normal 0.171028 -0.985266 0
    outer loop
      vertex 2.15694 -14.5409 0
      vertex 2.86783 -14.4175 0
      vertex 2.86783 -14.4175 20
    endloop
  endfacet
  facet normal 0.171028 -0.985266 0
    outer loop
      vertex 2.15694 -14.5409 0
      vertex 2.86783 -14.4175 20
      vertex 2.15694 -14.5409 20
    endloop
  endfacet
  facet normal 0 0 -1
    outer loop
      vertex 2.15694 -14.5409 0
      vertex 2.86783 14.4175 0
      vertex 2.86783 -14.4175 0
    endloop
  endfacet
  facet normal 0 0 1
    outer loop
      vertex 2.15694 -14.5409 20
      vertex 2.86783 -14.4175 20
      vertex 2.63372 -13.2406 20
    endloop
  endfacet
  facet normal 0.171028 0.985266 -0
    outer loop
      vertex 2.15694 14.5409 0
      vertex 2.15694 14.5409 20
      vertex 2.86783 14.4175 0
    endloop
  endfacet
  facet normal 0 0 1
    outer loop
      vertex 2.15694 14.5409 20
      vertex 2.63372 13.2406 20
      vertex 2.86783 14.4175 20
    endloop
  endfacet
  facet normal 0.171028 0.985266 0
    outer loop
      vertex 2.15694 14.5409 20
      vertex 2.86783 14.4175 20
      vertex 2.86783 14.4175 0
    endloop
  endfacet
  facet normal -0.219132 0.975695 0
    outer loop
      vertex 2.63372 -13.2406 1.2
      vertex 2.63372 -13.2406 20
      vertex 3.28023 -13.0954 1.2
    endloop
  endfacet
  facet normal 0 0 1
    outer loop
      vertex 2.63372 -13.2406 1.2
      vertex 3.28023 -13.0954 1.2
      vertex 2.63372 13.2406 1.2
    endloop
  endfacet
  facet normal -0 0 1
    outer loop
      vertex 2.63372 -13.2406 20
      vertex 2.86783 -14.4175 20
      vertex 3.28023 -13.0954 20
    endloop
  endfacet
  facet normal -0.219132 0.975695 0
    outer loop
      vertex 2.63372 -13.2406 20
      vertex 3.28023 -13.0954 20
      vertex 3.28023 -13.0954 1.2
    endloop
  endfacet
  facet normal 0 0 1
    outer loop
      vertex 2.63372 13.2406 1.2
      vertex 3.28023 -13.0954 1.2
      vertex 3.28023 13.0954 1.2
    endloop
  endfacet
  facet normal -0.219132 -0.975695 0
    outer loop
      vertex 2.63372 13.2406 1.2
      vertex 3.28023 13.0954 1.2
      vertex 3.28023 13.0954 20
    endloop
  endfacet
  facet normal -0.219132 -0.975695 0
    outer loop
      vertex 2.63372 13.2406 1.2
      vertex 3.28023 13.0954 20
      vertex 2.63372 13.2406 20
    endloop
  endfacet
  facet normal -0 0 1
    outer loop
      vertex 2.63372 13.2406 20
      vertex 3.28023 13.0954 20
      vertex 2.86783 14.4175 20
    endloop
  endfacet
  facet normal 0 0 -1
    outer loop
      vertex 2.86783 -14.4175 0
      vertex 2.86783 14.4175 0
      vertex 3.57181 14.2595 0
    endloop
  endfacet
  facet normal 0.21899 -0.975727 0
    outer loop
      vertex 2.86783 -14.4175 0
      vertex 3.57181 -14.2595 0
      vertex 3.57181 -14.2595 20
    endloop
  endfacet
  facet normal 0.21899 -0.975727 0
    outer loop
      vertex 2.86783 -14.4175 0
      vertex 3.57181 -14.2595 20
      vertex 2.86783 -14.4175 20
    endloop
  endfacet
  facet normal 0 0 -1
    outer loop
      vertex 2.86783 -14.4175 0
      vertex 3.57181 14.2595 0
      vertex 3.57181 -14.2595 0
    endloop
  endfacet
  facet normal 0 0 1
    outer loop
      vertex 2.86783 -14.4175 20
      vertex 3.57181 -14.2595 20
      vertex 3.28023 -13.0954 20
    endloop
  endfacet
  facet normal 0.21899 0.975727 -0
    outer loop
      vertex 2.86783 14.4175 0
      vertex 2.86783 14.4175 20
      vertex 3.57181 14.2595 0
    endloop
  endfacet
  facet normal 0 0 1
    outer loop
      vertex 2.86783 14.4175 20
      vertex 3.28023 13.0954 20
      vertex 3.57181 14.2595 20
    endloop
  endfacet
  facet normal 0.21899 0.975727 0
    outer loop
      vertex 2.86783 14.4175 20
      vertex 3.57181 14.2595 20
      vertex 3.57181 14.2595 0
    endloop
  endfacet
  facet normal -0.266675 0.963787 0
    outer loop
      vertex 3.28023 -13.0954 1.2
      vertex 3.28023 -13.0954 20
      vertex 3.91884 -12.9187 1.2
    endloop
  endfacet
  facet normal 0 0 1
    outer loop
      vertex 3.28023 -13.0954 1.2
      vertex 3.91884 -12.9187 1.2
      vertex 3.28023 13.0954 1.2
    endloop
  endfacet
  facet normal -0 0 1
    outer loop
      vertex 3.28023 -13.0954 20
      vertex 3.57181 -14.2595 20
      vertex 3.91884 -12.9187 20
    endloop
  endfacet
  facet normal -0.266675 0.963787 0
    outer loop
      vertex 3.28023 -13.0954 20
      vertex 3.91884 -12.9187 20
      vertex 3.91884 -12.9187 1.2
    endloop
  endfacet
  facet normal 0 0 1
    outer loop
      vertex 3.28023 13.0954 1.2
      vertex 3.91884 -12.9187 1.2
      vertex 3.91884 12.9187 1.2
    endloop
  endfacet
  facet normal -0.266675 -0.963787 0
    outer loop
      vertex 3.28023 13.0954 1.2
      vertex 3.91884 12.9187 1.2
      vertex 3.91884 12.9187 20
    endloop
  endfacet
  facet normal -0.266675 -0.963787 0
    outer loop
      vertex 3.28023 13.0954 1.2
      vertex 3.91884 12.9187 20
      vertex 3.28023 13.0954 20
    endloop
  endfacet
  facet normal -0 0 1
    outer loop
      vertex 3.28023 13.0954 20
      vertex 3.91884 12.9187 20
      vertex 3.57181 14.2595 20
    endloop
  endfacet
  facet normal 0 0 -1
    outer loop
      vertex 3.57181 -14.2595 0
      vertex 3.57181 14.2595 0
      vertex 4.26718 14.067 0
    endloop
  endfacet
  facet normal 0.266797 -0.963753 0
    outer loop
      vertex 3.57181 -14.2595 0
      vertex 4.26718 -14.067 0
      vertex 4.26718 -14.067 20
    endloop
  endfacet
  facet normal 0.266797 -0.963753 0
    outer loop
      vertex 3.57181 -14.2595 0
      vertex 4.26718 -14.067 20
      vertex 3.57181 -14.2595 20
    endloop
  endfacet
  facet normal 0 0 -1
    outer loop
      vertex 3.57181 -14.2595 0
      vertex 4.26718 14.067 0
      vertex 4.26718 -14.067 0
    endloop
  endfacet
  facet normal 0 0 1
    outer loop
      vertex 3.57181 -14.2595 20
      vertex 4.26718 -14.067 20
      vertex 3.91884 -12.9187 20
    endloop
  endfacet
  facet normal 0.266797 0.963753 -0
    outer loop
      vertex 3.57181 14.2595 0
      vertex 3.57181 14.2595 20
      vertex 4.26718 14.067 0
    endloop
  endfacet
  facet normal 0 0 1
    outer loop
      vertex 3.57181 14.2595 20
      vertex 3.91884 12.9187 20
      vertex 4.26718 14.067 20
    endloop
  endfacet
  facet normal 0.266797 0.963753 0
    outer loop
      vertex 3.57181 14.2595 20
      vertex 4.26718 14.067 20
      vertex 4.26718 14.067 0
    endloop
  endfacet
  facet normal -0.31375 0.949506 0
    outer loop
      vertex 3.91884 -12.9187 1.2
      vertex 3.91884 -12.9187 20
      vertex 4.54801 -12.7108 1.2
    endloop
  endfacet
  facet normal 0 0 1
    outer loop
      vertex 3.91884 -12.9187 1.2
      vertex 4.54801 -12.7108 1.2
      vertex 3.91884 12.9187 1.2
    endloop
  endfacet
  facet normal -0 0 1
    outer loop
      vertex 3.91884 -12.9187 20
      vertex 4.26718 -14.067 20
      vertex 4.54801 -12.7108 20
    endloop
  endfacet
  facet normal -0.31375 0.949506 0
    outer loop
      vertex 3.91884 -12.9187 20
      vertex 4.54801 -12.7108 20
      vertex 4.54801 -12.7108 1.2
    endloop
  endfacet
  facet normal 0 0 1
    outer loop
      vertex 3.91884 12.9187 1.2
      vertex 4.54801 -12.7108 1.2
      vertex 4.54801 12.7108 1.2
    endloop
  endfacet
  facet normal -0.31375 -0.949506 0
    outer loop
      vertex 3.91884 12.9187 1.2
      vertex 4.54801 12.7108 1.2
      vertex 4.54801 12.7108 20
    endloop
  endfacet
  facet normal -0.31375 -0.949506 0
    outer loop
      vertex 3.91884 12.9187 1.2
      vertex 4.54801 12.7108 20
      vertex 3.91884 12.9187 20
    endloop
  endfacet
  facet normal -0 0 1
    outer loop
      vertex 3.91884 12.9187 20
      vertex 4.54801 12.7108 20
      vertex 4.26718 14.067 20
    endloop
  endfacet
  facet normal 0 0 -1
    outer loop
      vertex 4.26718 -14.067 0
      vertex 4.26718 14.067 0
      vertex 4.95228 13.8407 0
    endloop
  endfacet
  facet normal 0.313649 -0.949539 0
    outer loop
      vertex 4.26718 -14.067 0
      vertex 4.95228 -13.8407 0
      vertex 4.95228 -13.8407 20
    endloop
  endfacet
  facet normal 0.313649 -0.949539 0
    outer loop
      vertex 4.26718 -14.067 0
      vertex 4.95228 -13.8407 20
      vertex 4.26718 -14.067 20
    endloop
  endfacet
  facet normal 0 0 -1
    outer loop
      vertex 4.26718 -14.067 0
      vertex 4.95228 13.8407 0
      vertex 4.95228 -13.8407 0
    endloop
  endfacet
  facet normal 0 0 1
    outer loop
      vertex 4.26718 -14.067 20
      vertex 4.95228 -13.8407 20
      vertex 4.54801 -12.7108 20
    endloop
  endfacet
  facet normal 0.313649 0.949539 -0
    outer loop
      vertex 4.26718 14.067 0
      vertex 4.26718 14.067 20
      vertex 4.95228 13.8407 0
    endloop
  endfacet
  facet normal 0 0 1
    outer loop
      vertex 4.26718 14.067 20
      vertex 4.54801 12.7108 20
      vertex 4.95228 13.8407 20
    endloop
  endfacet
  facet normal 0.313649 0.949539 0
    outer loop
      vertex 4.26718 14.067 20
      vertex 4.95228 13.8407 20
      vertex 4.95228 13.8407 0
    endloop
  endfacet
  facet normal -0.359798 0.93303 0
    outer loop
      vertex 4.54801 -12.7108 1.2
      vertex 4.54801 -12.7108 20
      vertex 5.16623 -12.4724 1.2
    endloop
  endfacet
  facet normal 0 0 1
    outer loop
      vertex 4.54801 -12.7108 1.2
      vertex 5.16623 -12.4724 1.2
      vertex 4.54801 12.7108 1.2
    endloop
  endfacet
  facet normal -0 0 1
    outer loop
      vertex 4.54801 -12.7108 20
      vertex 4.95228 -13.8407 20
      vertex 5.16623 -12.4724 20
    endloop
  endfacet
  facet normal -0.359798 0.93303 0
    outer loop
      vertex 4.54801 -12.7108 20
      vertex 5.16623 -12.4724 20
      vertex 5.16623 -12.4724 1.2
    endloop
  endfacet
  facet normal 0 0 1
    outer loop
      vertex 4.54801 12.7108 1.2
      vertex 5.16623 -12.4724 1.2
      vertex 5.16623 12.4724 1.2
    endloop
  endfacet
  facet normal -0.359798 -0.93303 0
    outer loop
      vertex 4.54801 12.7108 1.2
      vertex 5.16623 12.4724 1.2
      vertex 5.16623 12.4724 20
    endloop
  endfacet
  facet normal -0.359798 -0.93303 0
    outer loop
      vertex 4.54801 12.7108 1.2
      vertex 5.16623 12.4724 20
      vertex 4.54801 12.7108 20
    endloop
  endfacet
  facet normal -0 0 1
    outer loop
      vertex 4.54801 12.7108 20
      vertex 5.16623 12.4724 20
      vertex 4.95228 13.8407 20
    endloop
  endfacet
  facet normal 0 0 -1
    outer loop
      vertex 4.95228 -13.8407 0
      vertex 4.95228 13.8407 0
      vertex 5.62545 13.581 0
    endloop
  endfacet
  facet normal 0.359931 -0.932979 0
    outer loop
      vertex 4.95228 -13.8407 0
      vertex 5.62545 -13.581 0
      vertex 5.62545 -13.581 20
    endloop
  endfacet
  facet normal 0.359931 -0.932979 0
    outer loop
      vertex 4.95228 -13.8407 0
      vertex 5.62545 -13.581 20
      vertex 4.95228 -13.8407 20
    endloop
  endfacet
  facet normal 0 0 -1
    outer loop
      vertex 4.95228 -13.8407 0
      vertex 5.62545 13.581 0
      vertex 5.62545 -13.581 0
    endloop
  endfacet
  facet normal 0 0 1
    outer loop
      vertex 4.95228 -13.8407 20
      vertex 5.62545 -13.581 20
      vertex 5.16623 -12.4724 20
    endloop
  endfacet
  facet normal 0.359931 0.932979 -0
    outer loop
      vertex 4.95228 13.8407 0
      vertex 4.95228 13.8407 20
      vertex 5.62545 13.581 0
    endloop
  endfacet
  facet normal 0 0 1
    outer loop
      vertex 4.95228 13.8407 20
      vertex 5.16623 12.4724 20
      vertex 5.62545 13.581 20
    endloop
  endfacet
  facet normal 0.359931 0.932979 0
    outer loop
      vertex 4.95228 13.8407 20
      vertex 5.62545 13.581 20
      vertex 5.62545 13.581 0
    endloop
  endfacet
  facet normal -0.405222 0.914218 0
    outer loop
      vertex 5.16623 -12.4724 1.2
      vertex 5.16623 -12.4724 20
      vertex 5.77199 -12.2039 1.2
    endloop
  endfacet
  facet normal 0 0 1
    outer loop
      vertex 5.16623 -12.4724 1.2
      vertex 5.77199 -12.2039 1.2
      vertex 5.16623 12.4724 1.2
    endloop
  endfacet
  facet normal -0 0 1
    outer loop
      vertex 5.16623 -12.4724 20
      vertex 5.62545 -13.581 20
      vertex 5.77199 -12.2039 20
    endloop
  endfacet
  facet normal -0.405222 0.914218 0
    outer loop
      vertex 5.16623 -12.4724 20
      vertex 5.77199 -12.2039 20
      vertex 5.77199 -12.2039 1.2
    endloop
  endfacet
  facet normal 0 0 1
    outer loop
      vertex 5.16623 12.4724 1.2
      vertex 5.77199 -12.2039 1.2
      vertex 5.77199 12.2039 1.2
    endloop
  endfacet
  facet normal -0.405222 -0.914218 0
    outer loop
      vertex 5.16623 12.4724 1.2
      vertex 5.77199 12.2039 1.2
      vertex 5.77199 12.2039 20
    endloop
  endfacet
  facet normal -0.405222 -0.914218 0
    outer loop
      vertex 5.16623 12.4724 1.2
      vertex 5.77199 12.2039 20
      vertex 5.16623 12.4724 20
    endloop
  endfacet
  facet normal -0 0 1
    outer loop
      vertex 5.16623 12.4724 20
      vertex 5.77199 12.2039 20
      vertex 5.62545 13.581 20
    endloop
  endfacet
  facet normal 0 0 -1
    outer loop
      vertex 5.62545 -13.581 0
      vertex 5.62545 13.581 0
      vertex 6.28506 13.2886 0
    endloop
  endfacet
  facet normal 0.405259 -0.914202 0
    outer loop
      vertex 5.62545 -13.581 0
      vertex 6.28506 -13.2886 0
      vertex 6.28506 -13.2886 20
    endloop
  endfacet
  facet normal 0.405259 -0.914202 0
    outer loop
      vertex 5.62545 -13.581 0
      vertex 6.28506 -13.2886 20
      vertex 5.62545 -13.581 20
    endloop
  endfacet
  facet normal 0 0 -1
    outer loop
      vertex 5.62545 -13.581 0
      vertex 6.28506 13.2886 0
      vertex 6.28506 -13.2886 0
    endloop
  endfacet
  facet normal 0 0 1
    outer loop
      vertex 5.62545 -13.581 20
      vertex 6.28506 -13.2886 20
      vertex 5.77199 -12.2039 20
    endloop
  endfacet
  facet normal 0.405259 0.914202 -0
    outer loop
      vertex 5.62545 13.581 0
      vertex 5.62545 13.581 20
      vertex 6.28506 13.2886 0
    endloop
  endfacet
  facet normal 0 0 1
    outer loop
      vertex 5.62545 13.581 20
      vertex 5.77199 12.2039 20
      vertex 6.28506 13.2886 20
    endloop
  endfacet
  facet normal 0.405259 0.914202 0
    outer loop
      vertex 5.62545 13.581 20
      vertex 6.28506 13.2886 20
      vertex 6.28506 13.2886 0
    endloop
  endfacet
  facet normal -0.449705 0.893177 0
    outer loop
      vertex 5.77199 -12.2039 1.2
      vertex 5.77199 -12.2039 20
      vertex 6.36386 -11.9059 1.2
    endloop
  endfacet
  facet normal 0 0 1
    outer loop
      vertex 5.77199 -12.2039 1.2
      vertex 6.36386 -11.9059 1.2
      vertex 5.77199 12.2039 1.2
    endloop
  endfacet
  facet normal -0 0 1
    outer loop
      vertex 5.77199 -12.2039 20
      vertex 6.28506 -13.2886 20
      vertex 6.36386 -11.9059 20
    endloop
  endfacet
  facet normal -0.449705 0.893177 0
    outer loop
      vertex 5.77199 -12.2039 20
      vertex 6.36386 -11.9059 20
      vertex 6.36386 -11.9059 1.2
    endloop
  endfacet
  facet normal 0 0 1
    outer loop
      vertex 5.77199 12.2039 1.2
      vertex 6.36386 -11.9059 1.2
      vertex 6.36386 11.9059 1.2
    endloop
  endfacet
  facet normal -0.449705 -0.893177 0
    outer loop
      vertex 5.77199 12.2039 1.2
      vertex 6.36386 11.9059 1.2
      vertex 6.36386 11.9059 20
    endloop
  endfacet
  facet normal -0.449705 -0.893177 0
    outer loop
      vertex 5.77199 12.2039 1.2
      vertex 6.36386 11.9059 20
      vertex 5.77199 12.2039 20
    endloop
  endfacet
  facet normal -0 0 1
    outer loop
      vertex 5.77199 12.2039 20
      vertex 6.36386 11.9059 20
      vertex 6.28506 13.2886 20
    endloop
  endfacet
  facet normal 0 0 -1
    outer loop
      vertex 6.28506 -13.2886 0
      vertex 6.28506 13.2886 0
      vertex 6.92953 12.9642 0
    endloop
  endfacet
  facet normal 0.449613 -0.893224 0
    outer loop
      vertex 6.28506 -13.2886 0
      vertex 6.92953 -12.9642 0
      vertex 6.92953 -12.9642 20
    endloop
  endfacet
  facet normal 0.449613 -0.893224 0
    outer loop
      vertex 6.28506 -13.2886 0
      vertex 6.92953 -12.9642 20
      vertex 6.28506 -13.2886 20
    endloop
  endfacet
  facet normal 0 0 -1
    outer loop
      vertex 6.28506 -13.2886 0
      vertex 6.92953 12.9642 0
      vertex 6.92953 -12.9642 0
    endloop
  endfacet
  facet normal 0 0 1
    outer loop
      vertex 6.28506 -13.2886 20
      vertex 6.92953 -12.9642 20
      vertex 6.36386 -11.9059 20
    endloop
  endfacet
  facet normal 0.449613 0.893224 -0
    outer loop
      vertex 6.28506 13.2886 0
      vertex 6.28506 13.2886 20
      vertex 6.92953 12.9642 0
    endloop
  endfacet
  facet normal 0 0 1
    outer loop
      vertex 6.28506 13.2886 20
      vertex 6.36386 11.9059 20
      vertex 6.92953 12.9642 20
    endloop
  endfacet
  facet normal 0.449613 0.893224 0
    outer loop
      vertex 6.28506 13.2886 20
      vertex 6.92953 12.9642 20
      vertex 6.92953 12.9642 0
    endloop
  endfacet
  facet normal -0.492898 0.870087 0
    outer loop
      vertex 6.36386 -11.9059 1.2
      vertex 6.36386 -11.9059 20
      vertex 6.94039 -11.5793 1.2
    endloop
  endfacet
  facet normal 0 0 1
    outer loop
      vertex 6.36386 -11.9059 1.2
      vertex 6.94039 -11.5793 1.2
      vertex 6.36386 11.9059 1.2
    endloop
  endfacet
  facet normal -0 0 1
    outer loop
      vertex 6.36386 -11.9059 20
      vertex 6.92953 -12.9642 20
      vertex 6.94039 -11.5793 20
    endloop
  endfacet
  facet normal -0.492898 0.870087 0
    outer loop
      vertex 6.36386 -11.9059 20
      vertex 6.94039 -11.5793 20
      vertex 6.94039 -11.5793 1.2
    endloop
  endfacet
  facet normal 0 0 1
    outer loop
      vertex 6.36386 11.9059 1.2
      vertex 6.94039 -11.5793 1.2
      vertex 6.94039 11.5793 1.2
    endloop
  endfacet
  facet normal -0.492898 -0.870087 0
    outer loop
      vertex 6.36386 11.9059 1.2
      vertex 6.94039 11.5793 1.2
      vertex 6.94039 11.5793 20
    endloop
  endfacet
  facet normal -0.492898 -0.870087 0
    outer loop
      vertex 6.36386 11.9059 1.2
      vertex 6.94039 11.5793 20
      vertex 6.36386 11.9059 20
    endloop
  endfacet
  facet normal -0 0 1
    outer loop
      vertex 6.36386 11.9059 20
      vertex 6.94039 11.5793 20
      vertex 6.92953 12.9642 20
    endloop
  endfacet
  facet normal 0 0 -1
    outer loop
      vertex 6.92953 -12.9642 0
      vertex 6.92953 12.9642 0
      vertex 7.55731 12.6086 0
    endloop
  endfacet
  facet normal 0.492864 -0.870107 0
    outer loop
      vertex 6.92953 -12.9642 0
      vertex 7.55731 -12.6086 0
      vertex 7.55731 -12.6086 20
    endloop
  endfacet
  facet normal 0.492864 -0.870107 0
    outer loop
      vertex 6.92953 -12.9642 0
      vertex 7.55731 -12.6086 20
      vertex 6.92953 -12.9642 20
    endloop
  endfacet
  facet normal 0 0 -1
    outer loop
      vertex 6.92953 -12.9642 0
      vertex 7.55731 12.6086 0
      vertex 7.55731 -12.6086 0
    endloop
  endfacet
  facet normal 0 0 1
    outer loop
      vertex 6.92953 -12.9642 20
      vertex 7.55731 -12.6086 20
      vertex 6.94039 -11.5793 20
    endloop
  endfacet
  facet normal 0.492864 0.870107 -0
    outer loop
      vertex 6.92953 12.9642 0
      vertex 6.92953 12.9642 20
      vertex 7.55731 12.6086 0
    endloop
  endfacet
  facet normal 0 0 1
    outer loop
      vertex 6.92953 12.9642 20
      vertex 6.94039 11.5793 20
      vertex 7.55731 12.6086 20
    endloop
  endfacet
  facet normal 0.492864 0.870107 0
    outer loop
      vertex 6.92953 12.9642 20
      vertex 7.55731 12.6086 20
      vertex 7.55731 12.6086 0
    endloop
  endfacet
  facet normal -0.535002 0.844851 0
    outer loop
      vertex 6.94039 -11.5793 1.2
      vertex 6.94039 -11.5793 20
      vertex 7.5002 -11.2248 1.2
    endloop
  endfacet
  facet normal 0 0 1
    outer loop
      vertex 6.94039 -11.5793 1.2
      vertex 7.5002 -11.2248 1.2
      vertex 6.94039 11.5793 1.2
    endloop
  endfacet
  facet normal -0.535002 0.844851 0
    outer loop
      vertex 6.94039 -11.5793 20
      vertex 7.5002 -11.2248 20
      vertex 7.5002 -11.2248 1.2
    endloop
  endfacet
  facet normal -0 0 1
    outer loop
      vertex 6.94039 -11.5793 20
      vertex 7.55731 -12.6086 20
      vertex 7.5002 -11.2248 20
    endloop
  endfacet
  facet normal 0 0 1
    outer loop
      vertex 6.94039 11.5793 1.2
      vertex 7.5002 -11.2248 1.2
      vertex 7.5002 11.2248 1.2
    endloop
  endfacet
  facet normal -0.535002 -0.844851 0
    outer loop
      vertex 6.94039 11.5793 1.2
      vertex 7.5002 11.2248 1.2
      vertex 7.5002 11.2248 20
    endloop
  endfacet
  facet normal -0.535002 -0.844851 0
    outer loop
      vertex 6.94039 11.5793 1.2
      vertex 7.5002 11.2248 20
      vertex 6.94039 11.5793 20
    endloop
  endfacet
  facet normal -0 0 1
    outer loop
      vertex 6.94039 11.5793 20
      vertex 7.5002 11.2248 20
      vertex 7.55731 12.6086 20
    endloop
  endfacet
  facet normal -0.575772 0.817611 0
    outer loop
      vertex 7.5002 -11.2248 1.2
      vertex 7.5002 -11.2248 20
      vertex 8.04194 -10.8433 1.2
    endloop
  endfacet
  facet normal 0 0 1
    outer loop
      vertex 7.5002 -11.2248 1.2
      vertex 8.04194 -10.8433 1.2
      vertex 7.5002 11.2248 1.2
    endloop
  endfacet
  facet normal 0 0 1
    outer loop
      vertex 7.5002 -11.2248 20
      vertex 7.55731 -12.6086 20
      vertex 8.16688 -12.2226 20
    endloop
  endfacet
  facet normal -0.575772 0.817611 0
    outer loop
      vertex 7.5002 -11.2248 20
      vertex 8.04194 -10.8433 20
      vertex 8.04194 -10.8433 1.2
    endloop
  endfacet
  facet normal -0 0 1
    outer loop
      vertex 7.5002 -11.2248 20
      vertex 8.16688 -12.2226 20
      vertex 8.04194 -10.8433 20
    endloop
  endfacet
  facet normal 0 0 1
    outer loop
      vertex 7.5002 11.2248 1.2
      vertex 8.04194 -10.8433 1.2
      vertex 8.04194 10.8433 1.2
    endloop
  endfacet
  facet normal -0.575772 -0.817611 0
    outer loop
      vertex 7.5002 11.2248 1.2
      vertex 8.04194 10.8433 1.2
      vertex 8.04194 10.8433 20
    endloop
  endfacet
  facet normal -0.575772 -0.817611 0
    outer loop
      vertex 7.5002 11.2248 1.2
      vertex 8.04194 10.8433 20
      vertex 7.5002 11.2248 20
    endloop
  endfacet
  facet normal -0 0 1
    outer loop
      vertex 7.5002 11.2248 20
      vertex 8.04194 10.8433 20
      vertex 8.16688 12.2226 20
    endloop
  endfacet
  facet normal 0 0 1
    outer loop
      vertex 7.5002 11.2248 20
      vertex 8.16688 12.2226 20
      vertex 7.55731 12.6086 20
    endloop
  endfacet
  facet normal 0 0 -1
    outer loop
      vertex 7.55731 -12.6086 0
      vertex 7.55731 12.6086 0
      vertex 8.16688 12.2226 0
    endloop
  endfacet
  facet normal 0.534992 -0.844857 0
    outer loop
      vertex 7.55731 -12.6086 0
      vertex 8.16688 -12.2226 0
      vertex 8.16688 -12.2226 20
    endloop
  endfacet
  facet normal 0.534992 -0.844857 0
    outer loop
      vertex 7.55731 -12.6086 0
      vertex 8.16688 -12.2226 20
      vertex 7.55731 -12.6086 20
    endloop
  endfacet
  facet normal 0 0 -1
    outer loop
      vertex 7.55731 -12.6086 0
      vertex 8.16688 12.2226 0
      vertex 8.16688 -12.2226 0
    endloop
  endfacet
  facet normal 0.534992 0.844857 -0
    outer loop
      vertex 7.55731 12.6086 0
      vertex 7.55731 12.6086 20
      vertex 8.16688 12.2226 0
    endloop
  endfacet
  facet normal 0.534992 0.844857 0
    outer loop
      vertex 7.55731 12.6086 20
      vertex 8.16688 12.2226 20
      vertex 8.16688 12.2226 0
    endloop
  endfacet
  facet normal -0.615268 0.788318 0
    outer loop
      vertex 8.04194 -10.8433 1.2
      vertex 8.04194 -10.8433 20
      vertex 8.56431 -10.4356 1.2
    endloop
  endfacet
  facet normal 0 0 1
    outer loop
      vertex 8.04194 -10.8433 1.2
      vertex 8.56431 -10.4356 1.2
      vertex 8.04194 10.8433 1.2
    endloop
  endfacet
  facet normal 0 0 1
    outer loop
      vertex 8.04194 -10.8433 20
      vertex 8.16688 -12.2226 20
      vertex 8.75678 -11.8071 20
    endloop
  endfacet
  facet normal -0.615268 0.788318 0
    outer loop
      vertex 8.04194 -10.8433 20
      vertex 8.56431 -10.4356 20
      vertex 8.56431 -10.4356 1.2
    endloop
  endfacet
  facet normal -0 0 1
    outer loop
      vertex 8.04194 -10.8433 20
      vertex 8.75678 -11.8071 20
      vertex 8.56431 -10.4356 20
    endloop
  endfacet
  facet normal 0 0 1
    outer loop
      vertex 8.04194 10.8433 1.2
      vertex 8.56431 -10.4356 1.2
      vertex 8.56431 10.4356 1.2
    endloop
  endfacet
  facet normal -0.615268 -0.788318 0
    outer loop
      vertex 8.04194 10.8433 1.2
      vertex 8.56431 10.4356 1.2
      vertex 8.56431 10.4356 20
    endloop
  endfacet
  facet normal -0.615268 -0.788318 0
    outer loop
      vertex 8.04194 10.8433 1.2
      vertex 8.56431 10.4356 20
      vertex 8.04194 10.8433 20
    endloop
  endfacet
  facet normal -0 0 1
    outer loop
      vertex 8.04194 10.8433 20
      vertex 8.56431 10.4356 20
      vertex 8.75678 11.8071 20
    endloop
  endfacet
  facet normal 0 0 1
    outer loop
      vertex 8.04194 10.8433 20
      vertex 8.75678 11.8071 20
      vertex 8.16688 12.2226 20
    endloop
  endfacet
  facet normal 0 0 -1
    outer loop
      vertex 8.16688 -12.2226 0
      vertex 8.16688 12.2226 0
      vertex 8.75678 11.8071 0
    endloop
  endfacet
  facet normal 0.57585 -0.817555 0
    outer loop
      vertex 8.16688 -12.2226 0
      vertex 8.75678 -11.8071 0
      vertex 8.75678 -11.8071 20
    endloop
  endfacet
  facet normal 0.57585 -0.817555 0
    outer loop
      vertex 8.16688 -12.2226 0
      vertex 8.75678 -11.8071 20
      vertex 8.16688 -12.2226 20
    endloop
  endfacet
  facet normal 0 0 -1
    outer loop
      vertex 8.16688 -12.2226 0
      vertex 8.75678 11.8071 0
      vertex 8.75678 -11.8071 0
    endloop
  endfacet
  facet normal 0.57585 0.817555 -0
    outer loop
      vertex 8.16688 12.2226 0
      vertex 8.16688 12.2226 20
      vertex 8.75678 11.8071 0
    endloop
  endfacet
  facet normal 0.57585 0.817555 0
    outer loop
      vertex 8.16688 12.2226 20
      vertex 8.75678 11.8071 20
      vertex 8.75678 11.8071 0
    endloop
  endfacet
  facet normal -0.653169 0.757212 0
    outer loop
      vertex 8.56431 -10.4356 1.2
      vertex 8.56431 -10.4356 20
      vertex 9.06605 -10.0028 1.2
    endloop
  endfacet
  facet normal 0 0 1
    outer loop
      vertex 8.56431 -10.4356 1.2
      vertex 9.06605 -10.0028 1.2
      vertex 8.56431 10.4356 1.2
    endloop
  endfacet
  facet normal 0 0 1
    outer loop
      vertex 8.56431 -10.4356 20
      vertex 8.75678 -11.8071 20
      vertex 9.32558 -11.3633 20
    endloop
  endfacet
  facet normal -0.653169 0.757212 0
    outer loop
      vertex 8.56431 -10.4356 20
      vertex 9.06605 -10.0028 20
      vertex 9.06605 -10.0028 1.2
    endloop
  endfacet
  facet normal -0 0 1
    outer loop
      vertex 8.56431 -10.4356 20
      vertex 9.32558 -11.3633 20
      vertex 9.06605 -10.0028 20
    endloop
  endfacet
  facet normal 0 0 1
    outer loop
      vertex 8.56431 10.4356 1.2
      vertex 9.06605 -10.0028 1.2
      vertex 9.06605 10.0028 1.2
    endloop
  endfacet
  facet normal -0.653169 -0.757212 0
    outer loop
      vertex 8.56431 10.4356 1.2
      vertex 9.06605 10.0028 1.2
      vertex 9.06605 10.0028 20
    endloop
  endfacet
  facet normal -0.653169 -0.757212 0
    outer loop
      vertex 8.56431 10.4356 1.2
      vertex 9.06605 10.0028 20
      vertex 8.56431 10.4356 20
    endloop
  endfacet
  facet normal -0 0 1
    outer loop
      vertex 8.56431 10.4356 20
      vertex 9.06605 10.0028 20
      vertex 9.32558 11.3633 20
    endloop
  endfacet
  facet normal 0 0 1
    outer loop
      vertex 8.56431 10.4356 20
      vertex 9.32558 11.3633 20
      vertex 8.75678 11.8071 20
    endloop
  endfacet
  facet normal 0 0 -1
    outer loop
      vertex 8.75678 -11.8071 0
      vertex 8.75678 11.8071 0
      vertex 9.32558 11.3633 0
    endloop
  endfacet
  facet normal 0.615149 -0.788411 0
    outer loop
      vertex 8.75678 -11.8071 0
      vertex 9.32558 -11.3633 0
      vertex 9.32558 -11.3633 20
    endloop
  endfacet
  facet normal 0.615149 -0.788411 0
    outer loop
      vertex 8.75678 -11.8071 0
      vertex 9.32558 -11.3633 20
      vertex 8.75678 -11.8071 20
    endloop
  endfacet
  facet normal 0 0 -1
    outer loop
      vertex 8.75678 -11.8071 0
      vertex 9.32558 11.3633 0
      vertex 9.32558 -11.3633 0
    endloop
  endfacet
  facet normal 0.615149 0.788411 -0
    outer loop
      vertex 8.75678 11.8071 0
      vertex 8.75678 11.8071 20
      vertex 9.32558 11.3633 0
    endloop
  endfacet
  facet normal 0.615149 0.788411 0
    outer loop
      vertex 8.75678 11.8071 20
      vertex 9.32558 11.3633 20
      vertex 9.32558 11.3633 0
    endloop
  endfacet
  facet normal -0.689514 0.724272 0
    outer loop
      vertex 9.06605 -10.0028 1.2
      vertex 9.06605 -10.0028 20
      vertex 9.54594 -9.54594 1.2
    endloop
  endfacet
  facet normal 0 0 1
    outer loop
      vertex 9.06605 -10.0028 1.2
      vertex 9.54594 -9.54594 1.2
      vertex 9.06605 10.0028 1.2
    endloop
  endfacet
  facet normal 0 0 1
    outer loop
      vertex 9.06605 -10.0028 20
      vertex 9.32558 -11.3633 20
      vertex 9.87192 -10.892 20
    endloop
  endfacet
  facet normal -0.689514 0.724272 0
    outer loop
      vertex 9.06605 -10.0028 20
      vertex 9.54594 -9.54594 20
      vertex 9.54594 -9.54594 1.2
    endloop
  endfacet
  facet normal -0 0 1
    outer loop
      vertex 9.06605 -10.0028 20
      vertex 9.87192 -10.892 20
      vertex 9.54594 -9.54594 20
    endloop
  endfacet
  facet normal 0 0 1
    outer loop
      vertex 9.06605 10.0028 1.2
      vertex 9.54594 -9.54594 1.2
      vertex 9.54594 9.54594 1.2
    endloop
  endfacet
  facet normal -0.689514 -0.724272 0
    outer loop
      vertex 9.06605 10.0028 1.2
      vertex 9.54594 9.54594 1.2
      vertex 9.54594 9.54594 20
    endloop
  endfacet
  facet normal -0.689514 -0.724272 0
    outer loop
      vertex 9.06605 10.0028 1.2
      vertex 9.54594 9.54594 20
      vertex 9.06605 10.0028 20
    endloop
  endfacet
  facet normal -0 0 1
    outer loop
      vertex 9.06605 10.0028 20
      vertex 9.54594 9.54594 20
      vertex 9.87192 10.892 20
    endloop
  endfacet
  facet normal 0 0 1
    outer loop
      vertex 9.06605 10.0028 20
      vertex 9.87192 10.892 20
      vertex 9.32558 11.3633 20
    endloop
  endfacet
  facet normal 0 0 -1
    outer loop
      vertex 9.32558 -11.3633 0
      vertex 9.32558 11.3633 0
      vertex 9.87192 10.892 0
    endloop
  endfacet
  facet normal 0.653192 -0.757192 0
    outer loop
      vertex 9.32558 -11.3633 0
      vertex 9.87192 -10.892 0
      vertex 9.87192 -10.892 20
    endloop
  endfacet
  facet normal 0.653192 -0.757192 0
    outer loop
      vertex 9.32558 -11.3633 0
      vertex 9.87192 -10.892 20
      vertex 9.32558 -11.3633 20
    endloop
  endfacet
  facet normal 0 0 -1
    outer loop
      vertex 9.32558 -11.3633 0
      vertex 9.87192 10.892 0
      vertex 9.87192 -10.892 0
    endloop
  endfacet
  facet normal 0.653192 0.757192 -0
    outer loop
      vertex 9.32558 11.3633 0
      vertex 9.32558 11.3633 20
      vertex 9.87192 10.892 0
    endloop
  endfacet
  facet normal 0.653192 0.757192 0
    outer loop
      vertex 9.32558 11.3633 20
      vertex 9.87192 10.892 20
      vertex 9.87192 10.892 0
    endloop
  endfacet
  facet normal -0.724272 0.689514 0
    outer loop
      vertex 9.54594 -9.54594 1.2
      vertex 9.54594 -9.54594 20
      vertex 10.0028 -9.06605 20
    endloop
  endfacet
  facet normal 0 0 1
    outer loop
      vertex 9.54594 -9.54594 1.2
      vertex 10.0028 -9.06605 1.2
      vertex 9.54594 9.54594 1.2
    endloop
  endfacet
  facet normal -0.724272 0.689514 0
    outer loop
      vertex 9.54594 -9.54594 1.2
      vertex 10.0028 -9.06605 20
      vertex 10.0028 -9.06605 1.2
    endloop
  endfacet
  facet normal 0 0 1
    outer loop
      vertex 9.54594 -9.54594 20
      vertex 9.87192 -10.892 20
      vertex 10.3945 -10.3945 20
    endloop
  endfacet
  facet normal -0 0 1
    outer loop
      vertex 9.54594 -9.54594 20
      vertex 10.3945 -10.3945 20
      vertex 10.0028 -9.06605 20
    endloop
  endfacet
  facet normal 0 0 1
    outer loop
      vertex 9.54594 9.54594 1.2
      vertex 10.0028 -9.06605 1.2
      vertex 10.0028 9.06605 1.2
    endloop
  endfacet
  facet normal -0.724272 -0.689514 0
    outer loop
      vertex 9.54594 9.54594 1.2
      vertex 10.0028 9.06605 1.2
      vertex 9.54594 9.54594 20
    endloop
  endfacet
  facet normal -0.724272 -0.689514 0
    outer loop
      vertex 9.54594 9.54594 20
      vertex 10.0028 9.06605 1.2
      vertex 10.0028 9.06605 20
    endloop
  endfacet
  facet normal -0 0 1
    outer loop
      vertex 9.54594 9.54594 20
      vertex 10.0028 9.06605 20
      vertex 10.3945 10.3945 20
    endloop
  endfacet
  facet normal 0 0 1
    outer loop
      vertex 9.54594 9.54594 20
      vertex 10.3945 10.3945 20
      vertex 9.87192 10.892 20
    endloop
  endfacet
  facet normal 0 0 -1
    outer loop
      vertex 9.87192 -10.892 0
      vertex 9.87192 10.892 0
      vertex 10.3945 10.3945 0
    endloop
  endfacet
  facet normal 0.689513 -0.724273 0
    outer loop
      vertex 9.87192 -10.892 0
      vertex 10.3945 -10.3945 0
      vertex 10.3945 -10.3945 20
    endloop
  endfacet
  facet normal 0.689513 -0.724273 0
    outer loop
      vertex 9.87192 -10.892 0
      vertex 10.3945 -10.3945 20
      vertex 9.87192 -10.892 20
    endloop
  endfacet
  facet normal 0 0 -1
    outer loop
      vertex 9.87192 -10.892 0
      vertex 10.3945 10.3945 0
      vertex 10.3945 -10.3945 0
    endloop
  endfacet
  facet normal 0.689513 0.724273 -0
    outer loop
      vertex 9.87192 10.892 0
      vertex 9.87192 10.892 20
      vertex 10.3945 10.3945 0
    endloop
  endfacet
  facet normal 0.689513 0.724273 0
    outer loop
      vertex 9.87192 10.892 20
      vertex 10.3945 10.3945 20
      vertex 10.3945 10.3945 0
    endloop
  endfacet
  facet normal -0.757212 0.653169 0
    outer loop
      vertex 10.0028 -9.06605 1.2
      vertex 10.0028 -9.06605 20
      vertex 10.4356 -8.56431 20
    endloop
  endfacet
  facet normal 0 0 1
    outer loop
      vertex 10.0028 -9.06605 1.2
      vertex 10.4356 -8.56431 1.2
      vertex 10.0028 9.06605 1.2
    endloop
  endfacet
  facet normal -0.757212 0.653169 0
    outer loop
      vertex 10.0028 -9.06605 1.2
      vertex 10.4356 -8.56431 20
      vertex 10.4356 -8.56431 1.2
    endloop
  endfacet
  facet normal 0 0 1
    outer loop
      vertex 10.0028 -9.06605 20
      vertex 10.3945 -10.3945 20
      vertex 10.892 -9.87192 20
    endloop
  endfacet
  facet normal -0 0 1
    outer loop
      vertex 10.0028 -9.06605 20
      vertex 10.892 -9.87192 20
      vertex 10.4356 -8.56431 20
    endloop
  endfacet
  facet normal 0 0 1
    outer loop
      vertex 10.0028 9.06605 1.2
      vertex 10.4356 -8.56431 1.2
      vertex 10.4356 8.56431 1.2
    endloop
  endfacet
  facet normal -0.757212 -0.653169 0
    outer loop
      vertex 10.0028 9.06605 1.2
      vertex 10.4356 8.56431 1.2
      vertex 10.0028 9.06605 20
    endloop
  endfacet
  facet normal -0.757212 -0.653169 0
    outer loop
      vertex 10.0028 9.06605 20
      vertex 10.4356 8.56431 1.2
      vertex 10.4356 8.56431 20
    endloop
  endfacet
  facet normal -0 0 1
    outer loop
      vertex 10.0028 9.06605 20
      vertex 10.4356 8.56431 20
      vertex 10.892 9.87192 20
    endloop
  endfacet
  facet normal 0 0 1
    outer loop
      vertex 10.0028 9.06605 20
      vertex 10.892 9.87192 20
      vertex 10.3945 10.3945 20
    endloop
  endfacet
  facet normal 0 0 -1
    outer loop
      vertex 10.3945 -10.3945 0
      vertex 10.3945 10.3945 0
      vertex 10.892 9.87192 0
    endloop
  endfacet
  facet normal 0.724273 -0.689513 0
    outer loop
      vertex 10.3945 -10.3945 0
      vertex 10.892 -9.87192 0
      vertex 10.3945 -10.3945 20
    endloop
  endfacet
  facet normal 0 0 -1
    outer loop
      vertex 10.3945 -10.3945 0
      vertex 10.892 9.87192 0
      vertex 10.892 -9.87192 0
    endloop
  endfacet
  facet normal 0.724273 -0.689513 0
    outer loop
      vertex 10.3945 -10.3945 20
      vertex 10.892 -9.87192 0
      vertex 10.892 -9.87192 20
    endloop
  endfacet
  facet normal 0.724273 0.689513 -0
    outer loop
      vertex 10.3945 10.3945 0
      vertex 10.3945 10.3945 20
      vertex 10.892 9.87192 20
    endloop
  endfacet
  facet normal 0.724273 0.689513 0
    outer loop
      vertex 10.3945 10.3945 0
      vertex 10.892 9.87192 20
      vertex 10.892 9.87192 0
    endloop
  endfacet
  facet normal -0.788318 0.615268 0
    outer loop
      vertex 10.4356 -8.56431 1.2
      vertex 10.4356 -8.56431 20
      vertex 10.8433 -8.04194 20
    endloop
  endfacet
  facet normal 0 0 1
    outer loop
      vertex 10.4356 -8.56431 1.2
      vertex 10.8433 -8.04194 1.2
      vertex 10.4356 8.56431 1.2
    endloop
  endfacet
  facet normal -0.788318 0.615268 0
    outer loop
      vertex 10.4356 -8.56431 1.2
      vertex 10.8433 -8.04194 20
      vertex 10.8433 -8.04194 1.2
    endloop
  endfacet
  facet normal 0 0 1
    outer loop
      vertex 10.4356 -8.56431 20
      vertex 10.892 -9.87192 20
      vertex 11.3633 -9.32558 20
    endloop
  endfacet
  facet normal -0 0 1
    outer loop
      vertex 10.4356 -8.56431 20
      vertex 11.3633 -9.32558 20
      vertex 10.8433 -8.04194 20
    endloop
  endfacet
  facet normal 0 0 1
    outer loop
      vertex 10.4356 8.56431 1.2
      vertex 10.8433 -8.04194 1.2
      vertex 10.8433 8.04194 1.2
    endloop
  endfacet
  facet normal -0.788318 -0.615268 0
    outer loop
      vertex 10.4356 8.56431 1.2
      vertex 10.8433 8.04194 1.2
      vertex 10.4356 8.56431 20
    endloop
  endfacet
  facet normal -0.788318 -0.615268 0
    outer loop
      vertex 10.4356 8.56431 20
      vertex 10.8433 8.04194 1.2
      vertex 10.8433 8.04194 20
    endloop
  endfacet
  facet normal -0 0 1
    outer loop
      vertex 10.4356 8.56431 20
      vertex 10.8433 8.04194 20
      vertex 11.3633 9.32558 20
    endloop
  endfacet
  facet normal 0 0 1
    outer loop
      vertex 10.4356 8.56431 20
      vertex 11.3633 9.32558 20
      vertex 10.892 9.87192 20
    endloop
  endfacet
  facet normal -0.817611 0.575772 0
    outer loop
      vertex 10.8433 -8.04194 1.2
      vertex 10.8433 -8.04194 20
      vertex 11.2248 -7.5002 20
    endloop
  endfacet
  facet normal 0 0 1
    outer loop
      vertex 10.8433 -8.04194 1.2
      vertex 11.2248 -7.5002 1.2
      vertex 10.8433 8.04194 1.2
    endloop
  endfacet
  facet normal -0.817611 0.575772 0
    outer loop
      vertex 10.8433 -8.04194 1.2
      vertex 11.2248 -7.5002 20
      vertex 11.2248 -7.5002 1.2
    endloop
  endfacet
  facet normal 0 0 1
    outer loop
      vertex 10.8433 -8.04194 20
      vertex 11.3633 -9.32558 20
      vertex 11.8071 -8.75678 20
    endloop
  endfacet
  facet normal -0 0 1
    outer loop
      vertex 10.8433 -8.04194 20
      vertex 11.8071 -8.75678 20
      vertex 11.2248 -7.5002 20
    endloop
  endfacet
  facet normal 0 0 1
    outer loop
      vertex 10.8433 8.04194 1.2
      vertex 11.2248 -7.5002 1.2
      vertex 11.2248 7.5002 1.2
    endloop
  endfacet
  facet normal -0.817611 -0.575772 0
    outer loop
      vertex 10.8433 8.04194 1.2
      vertex 11.2248 7.5002 1.2
      vertex 10.8433 8.04194 20
    endloop
  endfacet
  facet normal -0.817611 -0.575772 0
    outer loop
      vertex 10.8433 8.04194 20
      vertex 11.2248 7.5002 1.2
      vertex 11.2248 7.5002 20
    endloop
  endfacet
  facet normal -0 0 1
    outer loop
      vertex 10.8433 8.04194 20
      vertex 11.2248 7.5002 20
      vertex 11.8071 8.75678 20
    endloop
  endfacet
  facet normal 0 0 1
    outer loop
      vertex 10.8433 8.04194 20
      vertex 11.8071 8.75678 20
      vertex 11.3633 9.32558 20
    endloop
  endfacet
  facet normal 0 0 -1
    outer loop
      vertex 10.892 -9.87192 0
      vertex 10.892 9.87192 0
      vertex 11.3633 9.32558 0
    endloop
  endfacet
  facet normal 0.757192 -0.653192 0
    outer loop
      vertex 10.892 -9.87192 0
      vertex 11.3633 -9.32558 0
      vertex 10.892 -9.87192 20
    endloop
  endfacet
  facet normal 0 0 -1
    outer loop
      vertex 10.892 -9.87192 0
      vertex 11.3633 9.32558 0
      vertex 11.3633 -9.32558 0
    endloop
  endfacet
  facet normal 0.757192 -0.653192 0
    outer loop
      vertex 10.892 -9.87192 20
      vertex 11.3633 -9.32558 0
      vertex 11.3633 -9.32558 20
    endloop
  endfacet
  facet normal 0.757192 0.653192 -0
    outer loop
      vertex 10.892 9.87192 0
      vertex 10.892 9.87192 20
      vertex 11.3633 9.32558 20
    endloop
  endfacet
  facet normal 0.757192 0.653192 0
    outer loop
      vertex 10.892 9.87192 0
      vertex 11.3633 9.32558 20
      vertex 11.3633 9.32558 0
    endloop
  endfacet
  facet normal -0.844851 0.535002 0
    outer loop
      vertex 11.2248 -7.5002 1.2
      vertex 11.2248 -7.5002 20
      vertex 11.5793 -6.94039 20
    endloop
  endfacet
  facet normal 0 0 1
    outer loop
      vertex 11.2248 -7.5002 1.2
      vertex 11.5793 -6.94039 1.2
      vertex 11.2248 7.5002 1.2
    endloop
  endfacet
  facet normal -0.844851 0.535002 0
    outer loop
      vertex 11.2248 -7.5002 1.2
      vertex 11.5793 -6.94039 20
      vertex 11.5793 -6.94039 1.2
    endloop
  endfacet
  facet normal 0 0 1
    outer loop
      vertex 11.2248 -7.5002 20
      vertex 11.8071 -8.75678 20
      vertex 12.2226 -8.16688 20
    endloop
  endfacet
  facet normal -0 0 1
    outer loop
      vertex 11.2248 -7.5002 20
      vertex 12.2226 -8.16688 20
      vertex 11.5793 -6.94039 20
    endloop
  endfacet
  facet normal 0 0 1
    outer loop
      vertex 11.2248 7.5002 1.2
      vertex 11.5793 -6.94039 1.2
      vertex 11.5793 6.94039 1.2
    endloop
  endfacet
  facet normal -0.844851 -0.535002 0
    outer loop
      vertex 11.2248 7.5002 1.2
      vertex 11.5793 6.94039 1.2
      vertex 11.2248 7.5002 20
    endloop
  endfacet
  facet normal -0.844851 -0.535002 0
    outer loop
      vertex 11.2248 7.5002 20
      vertex 11.5793 6.94039 1.2
      vertex 11.5793 6.94039 20
    endloop
  endfacet
  facet normal -0 0 1
    outer loop
      vertex 11.2248 7.5002 20
      vertex 11.5793 6.94039 20
      vertex 12.2226 8.16688 20
    endloop
  endfacet
  facet normal 0 0 1
    outer loop
      vertex 11.2248 7.5002 20
      vertex 12.2226 8.16688 20
      vertex 11.8071 8.75678 20
    endloop
  endfacet
  facet normal 0 0 -1
    outer loop
      vertex 11.3633 -9.32558 0
      vertex 11.3633 9.32558 0
      vertex 11.8071 8.75678 0
    endloop
  endfacet
  facet normal 0.788411 -0.615149 0
    outer loop
      vertex 11.3633 -9.32558 0
      vertex 11.8071 -8.75678 0
      vertex 11.3633 -9.32558 20
    endloop
  endfacet
  facet normal 0 0 -1
    outer loop
      vertex 11.3633 -9.32558 0
      vertex 11.8071 8.75678 0
      vertex 11.8071 -8.75678 0
    endloop
  endfacet
  facet normal 0.788411 -0.615149 0
    outer loop
      vertex 11.3633 -9.32558 20
      vertex 11.8071 -8.75678 0
      vertex 11.8071 -8.75678 20
    endloop
  endfacet
  facet normal 0.788411 0.615149 -0
    outer loop
      vertex 11.3633 9.32558 0
      vertex 11.3633 9.32558 20
      vertex 11.8071 8.75678 20
    endloop
  endfacet
  facet normal 0.788411 0.615149 0
    outer loop
      vertex 11.3633 9.32558 0
      vertex 11.8071 8.75678 20
      vertex 11.8071 8.75678 0
    endloop
  endfacet
  facet normal -0.870087 0.492898 0
    outer loop
      vertex 11.5793 -6.94039 1.2
      vertex 11.5793 -6.94039 20
      vertex 11.9059 -6.36386 20
    endloop
  endfacet
  facet normal 0 0 1
    outer loop
      vertex 11.5793 -6.94039 1.2
      vertex 11.9059 -6.36386 1.2
      vertex 11.5793 6.94039 1.2
    endloop
  endfacet
  facet normal -0.870087 0.492898 0
    outer loop
      vertex 11.5793 -6.94039 1.2
      vertex 11.9059 -6.36386 20
      vertex 11.9059 -6.36386 1.2
    endloop
  endfacet
  facet normal 0 0 1
    outer loop
      vertex 11.5793 -6.94039 20
      vertex 12.2226 -8.16688 20
      vertex 12.6086 -7.55731 20
    endloop
  endfacet
  facet normal -0 0 1
    outer loop
      vertex 11.5793 -6.94039 20
      vertex 12.6086 -7.55731 20
      vertex 11.9059 -6.36386 20
    endloop
  endfacet
  facet normal 0 0 1
    outer loop
      vertex 11.5793 6.94039 1.2
      vertex 11.9059 -6.36386 1.2
      vertex 11.9059 6.36386 1.2
    endloop
  endfacet
  facet normal -0.870087 -0.492898 0
    outer loop
      vertex 11.5793 6.94039 1.2
      vertex 11.9059 6.36386 1.2
      vertex 11.5793 6.94039 20
    endloop
  endfacet
  facet normal -0.870087 -0.492898 0
    outer loop
      vertex 11.5793 6.94039 20
      vertex 11.9059 6.36386 1.2
      vertex 11.9059 6.36386 20
    endloop
  endfacet
  facet normal -0 0 1
    outer loop
      vertex 11.5793 6.94039 20
      vertex 11.9059 6.36386 20
      vertex 12.6086 7.55731 20
    endloop
  endfacet
  facet normal 0 0 1
    outer loop
      vertex 11.5793 6.94039 20
      vertex 12.6086 7.55731 20
      vertex 12.2226 8.16688 20
    endloop
  endfacet
  facet normal 0 0 -1
    outer loop
      vertex 11.8071 -8.75678 0
      vertex 11.8071 8.75678 0
      vertex 12.2226 8.16688 0
    endloop
  endfacet
  facet normal 0.817555 -0.57585 0
    outer loop
      vertex 11.8071 -8.75678 0
      vertex 12.2226 -8.16688 0
      vertex 11.8071 -8.75678 20
    endloop
  endfacet
  facet normal 0 0 -1
    outer loop
      vertex 11.8071 -8.75678 0
      vertex 12.2226 8.16688 0
      vertex 12.2226 -8.16688 0
    endloop
  endfacet
  facet normal 0.817555 -0.57585 0
    outer loop
      vertex 11.8071 -8.75678 20
      vertex 12.2226 -8.16688 0
      vertex 12.2226 -8.16688 20
    endloop
  endfacet
  facet normal 0.817555 0.57585 -0
    outer loop
      vertex 11.8071 8.75678 0
      vertex 11.8071 8.75678 20
      vertex 12.2226 8.16688 20
    endloop
  endfacet
  facet normal 0.817555 0.57585 0
    outer loop
      vertex 11.8071 8.75678 0
      vertex 12.2226 8.16688 20
      vertex 12.2226 8.16688 0
    endloop
  endfacet
  facet normal -0.893177 0.449705 0
    outer loop
      vertex 11.9059 -6.36386 1.2
      vertex 11.9059 -6.36386 20
      vertex 12.2039 -5.77199 20
    endloop
  endfacet
  facet normal 0 0 1
    outer loop
      vertex 11.9059 -6.36386 1.2
      vertex 12.2039 -5.77199 1.2
      vertex 11.9059 6.36386 1.2
    endloop
  endfacet
  facet normal -0.893177 0.449705 0
    outer loop
      vertex 11.9059 -6.36386 1.2
      vertex 12.2039 -5.77199 20
      vertex 12.2039 -5.77199 1.2
    endloop
  endfacet
  facet normal 0 0 1
    outer loop
      vertex 11.9059 -6.36386 20
      vertex 12.6086 -7.55731 20
      vertex 12.9642 -6.92953 20
    endloop
  endfacet
  facet normal -0 0 1
    outer loop
      vertex 11.9059 -6.36386 20
      vertex 12.9642 -6.92953 20
      vertex 12.2039 -5.77199 20
    endloop
  endfacet
  facet normal 0 0 1
    outer loop
      vertex 11.9059 6.36386 1.2
      vertex 12.2039 -5.77199 1.2
      vertex 12.2039 5.77199 1.2
    endloop
  endfacet
  facet normal -0.893177 -0.449705 0
    outer loop
      vertex 11.9059 6.36386 1.2
      vertex 12.2039 5.77199 1.2
      vertex 11.9059 6.36386 20
    endloop
  endfacet
  facet normal -0.893177 -0.449705 0
    outer loop
      vertex 11.9059 6.36386 20
      vertex 12.2039 5.77199 1.2
      vertex 12.2039 5.77199 20
    endloop
  endfacet
  facet normal -0 0 1
    outer loop
      vertex 11.9059 6.36386 20
      vertex 12.2039 5.77199 20
      vertex 12.9642 6.92953 20
    endloop
  endfacet
  facet normal 0 0 1
    outer loop
      vertex 11.9059 6.36386 20
      vertex 12.9642 6.92953 20
      vertex 12.6086 7.55731 20
    endloop
  endfacet
  facet normal -0.914218 0.405222 0
    outer loop
      vertex 12.2039 -5.77199 1.2
      vertex 12.2039 -5.77199 20
      vertex 12.4724 -5.16623 20
    endloop
  endfacet
  facet normal 0 0 1
    outer loop
      vertex 12.2039 -5.77199 1.2
      vertex 12.4724 -5.16623 1.2
      vertex 12.2039 5.77199 1.2
    endloop
  endfacet
  facet normal -0.914218 0.405222 0
    outer loop
      vertex 12.2039 -5.77199 1.2
      vertex 12.4724 -5.16623 20
      vertex 12.4724 -5.16623 1.2
    endloop
  endfacet
  facet normal 0 0 1
    outer loop
      vertex 12.2039 -5.77199 20
      vertex 12.9642 -6.92953 20
      vertex 13.2886 -6.28506 20
    endloop
  endfacet
  facet normal -0 0 1
    outer loop
      vertex 12.2039 -5.77199 20
      vertex 13.2886 -6.28506 20
      vertex 12.4724 -5.16623 20
    endloop
  endfacet
  facet normal 0 0 1
    outer loop
      vertex 12.2039 5.77199 1.2
      vertex 12.4724 -5.16623 1.2
      vertex 12.4724 5.16623 1.2
    endloop
  endfacet
  facet normal -0.914218 -0.405222 0
    outer loop
      vertex 12.2039 5.77199 1.2
      vertex 12.4724 5.16623 1.2
      vertex 12.2039 5.77199 20
    endloop
  endfacet
  facet normal -0.914218 -0.405222 0
    outer loop
      vertex 12.2039 5.77199 20
      vertex 12.4724 5.16623 1.2
      vertex 12.4724 5.16623 20
    endloop
  endfacet
  facet normal -0 0 1
    outer loop
      vertex 12.2039 5.77199 20
      vertex 12.4724 5.16623 20
      vertex 13.2886 6.28506 20
    endloop
  endfacet
  facet normal 0 0 1
    outer loop
      vertex 12.2039 5.77199 20
      vertex 13.2886 6.28506 20
      vertex 12.9642 6.92953 20
    endloop
  endfacet
  facet normal 0 0 -1
    outer loop
      vertex 12.2226 -8.16688 0
      vertex 12.2226 8.16688 0
      vertex 12.6086 7.55731 0
    endloop
  endfacet
  facet normal 0.844857 -0.534992 0
    outer loop
      vertex 12.2226 -8.16688 0
      vertex 12.6086 -7.55731 0
      vertex 12.2226 -8.16688 20
    endloop
  endfacet
  facet normal 0 0 -1
    outer loop
      vertex 12.2226 -8.16688 0
      vertex 12.6086 7.55731 0
      vertex 12.6086 -7.55731 0
    endloop
  endfacet
  facet normal 0.844857 -0.534992 0
    outer loop
      vertex 12.2226 -8.16688 20
      vertex 12.6086 -7.55731 0
      vertex 12.6086 -7.55731 20
    endloop
  endfacet
  facet normal 0.844857 0.534992 -0
    outer loop
      vertex 12.2226 8.16688 0
      vertex 12.2226 8.16688 20
      vertex 12.6086 7.55731 20
    endloop
  endfacet
  facet normal 0.844857 0.534992 0
    outer loop
      vertex 12.2226 8.16688 0
      vertex 12.6086 7.55731 20
      vertex 12.6086 7.55731 0
    endloop
  endfacet
  facet normal -0.93303 0.359798 0
    outer loop
      vertex 12.4724 -5.16623 1.2
      vertex 12.4724 -5.16623 20
      vertex 12.7108 -4.54801 20
    endloop
  endfacet
  facet normal 0 0 1
    outer loop
      vertex 12.4724 -5.16623 1.2
      vertex 12.7108 -4.54801 1.2
      vertex 12.4724 5.16623 1.2
    endloop
  endfacet
  facet normal -0.93303 0.359798 0
    outer loop
      vertex 12.4724 -5.16623 1.2
      vertex 12.7108 -4.54801 20
      vertex 12.7108 -4.54801 1.2
    endloop
  endfacet
  facet normal 0 0 1
    outer loop
      vertex 12.4724 -5.16623 20
      vertex 13.2886 -6.28506 20
      vertex 13.581 -5.62545 20
    endloop
  endfacet
  facet normal -0 0 1
    outer loop
      vertex 12.4724 -5.16623 20
      vertex 13.581 -5.62545 20
      vertex 12.7108 -4.54801 20
    endloop
  endfacet
  facet normal 0 0 1
    outer loop
      vertex 12.4724 5.16623 1.2
      vertex 12.7108 -4.54801 1.2
      vertex 12.7108 4.54801 1.2
    endloop
  endfacet
  facet normal -0.93303 -0.359798 0
    outer loop
      vertex 12.4724 5.16623 1.2
      vertex 12.7108 4.54801 1.2
      vertex 12.4724 5.16623 20
    endloop
  endfacet
  facet normal -0.93303 -0.359798 0
    outer loop
      vertex 12.4724 5.16623 20
      vertex 12.7108 4.54801 1.2
      vertex 12.7108 4.54801 20
    endloop
  endfacet
  facet normal -0 0 1
    outer loop
      vertex 12.4724 5.16623 20
      vertex 12.7108 4.54801 20
      vertex 13.581 5.62545 20
    endloop
  endfacet
  facet normal 0 0 1
    outer loop
      vertex 12.4724 5.16623 20
      vertex 13.581 5.62545 20
      vertex 13.2886 6.28506 20
    endloop
  endfacet
  facet normal 0 0 -1
    outer loop
      vertex 12.6086 -7.55731 0
      vertex 12.6086 7.55731 0
      vertex 12.9642 6.92953 0
    endloop
  endfacet
  facet normal 0.870107 -0.492864 0
    outer loop
      vertex 12.6086 -7.55731 0
      vertex 12.9642 -6.92953 0
      vertex 12.6086 -7.55731 20
    endloop
  endfacet
  facet normal 0 0 -1
    outer loop
      vertex 12.6086 -7.55731 0
      vertex 12.9642 6.92953 0
      vertex 12.9642 -6.92953 0
    endloop
  endfacet
  facet normal 0.870107 -0.492864 0
    outer loop
      vertex 12.6086 -7.55731 20
      vertex 12.9642 -6.92953 0
      vertex 12.9642 -6.92953 20
    endloop
  endfacet
  facet normal 0.870107 0.492864 -0
    outer loop
      vertex 12.6086 7.55731 0
      vertex 12.6086 7.55731 20
      vertex 12.9642 6.92953 20
    endloop
  endfacet
  facet normal 0.870107 0.492864 0
    outer loop
      vertex 12.6086 7.55731 0
      vertex 12.9642 6.92953 20
      vertex 12.9642 6.92953 0
    endloop
  endfacet
  facet normal -0.949506 0.31375 0
    outer loop
      vertex 12.7108 -4.54801 1.2
      vertex 12.7108 -4.54801 20
      vertex 12.9187 -3.91884 20
    endloop
  endfacet
  facet normal 0 0 1
    outer loop
      vertex 12.7108 -4.54801 1.2
      vertex 12.9187 -3.91884 1.2
      vertex 12.7108 4.54801 1.2
    endloop
  endfacet
  facet normal -0.949506 0.31375 0
    outer loop
      vertex 12.7108 -4.54801 1.2
      vertex 12.9187 -3.91884 20
      vertex 12.9187 -3.91884 1.2
    endloop
  endfacet
  facet normal 0 0 1
    outer loop
      vertex 12.7108 -4.54801 20
      vertex 13.581 -5.62545 20
      vertex 13.8407 -4.95228 20
    endloop
  endfacet
  facet normal -0 0 1
    outer loop
      vertex 12.7108 -4.54801 20
      vertex 13.8407 -4.95228 20
      vertex 12.9187 -3.91884 20
    endloop
  endfacet
  facet normal 0 0 1
    outer loop
      vertex 12.7108 4.54801 1.2
      vertex 12.9187 -3.91884 1.2
      vertex 12.9187 3.91884 1.2
    endloop
  endfacet
  facet normal -0.949506 -0.31375 0
    outer loop
      vertex 12.7108 4.54801 1.2
      vertex 12.9187 3.91884 1.2
      vertex 12.7108 4.54801 20
    endloop
  endfacet
  facet normal -0.949506 -0.31375 0
    outer loop
      vertex 12.7108 4.54801 20
      vertex 12.9187 3.91884 1.2
      vertex 12.9187 3.91884 20
    endloop
  endfacet
  facet normal -0 0 1
    outer loop
      vertex 12.7108 4.54801 20
      vertex 12.9187 3.91884 20
      vertex 13.8407 4.95228 20
    endloop
  endfacet
  facet normal 0 0 1
    outer loop
      vertex 12.7108 4.54801 20
      vertex 13.8407 4.95228 20
      vertex 13.581 5.62545 20
    endloop
  endfacet
  facet normal -0.963787 0.266675 0
    outer loop
      vertex 12.9187 -3.91884 1.2
      vertex 12.9187 -3.91884 20
      vertex 13.0954 -3.28023 20
    endloop
  endfacet
  facet normal 0 0 1
    outer loop
      vertex 12.9187 -3.91884 1.2
      vertex 13.0954 -3.28023 1.2
      vertex 12.9187 3.91884 1.2
    endloop
  endfacet
  facet normal -0.963787 0.266675 0
    outer loop
      vertex 12.9187 -3.91884 1.2
      vertex 13.0954 -3.28023 20
      vertex 13.0954 -3.28023 1.2
    endloop
  endfacet
  facet normal 0 0 1
    outer loop
      vertex 12.9187 -3.91884 20
      vertex 13.8407 -4.95228 20
      vertex 14.067 -4.26718 20
    endloop
  endfacet
  facet normal -0 0 1
    outer loop
      vertex 12.9187 -3.91884 20
      vertex 14.067 -4.26718 20
      vertex 13.0954 -3.28023 20
    endloop
  endfacet
  facet normal 0 0 1
    outer loop
      vertex 12.9187 3.91884 1.2
      vertex 13.0954 -3.28023 1.2
      vertex 13.0954 3.28023 1.2
    endloop
  endfacet
  facet normal -0.963787 -0.266675 0
    outer loop
      vertex 12.9187 3.91884 1.2
      vertex 13.0954 3.28023 1.2
      vertex 12.9187 3.91884 20
    endloop
  endfacet
  facet normal -0.963787 -0.266675 0
    outer loop
      vertex 12.9187 3.91884 20
      vertex 13.0954 3.28023 1.2
      vertex 13.0954 3.28023 20
    endloop
  endfacet
  facet normal -0 0 1
    outer loop
      vertex 12.9187 3.91884 20
      vertex 13.0954 3.28023 20
      vertex 14.067 4.26718 20
    endloop
  endfacet
  facet normal 0 0 1
    outer loop
      vertex 12.9187 3.91884 20
      vertex 14.067 4.26718 20
      vertex 13.8407 4.95228 20
    endloop
  endfacet
  facet normal 0 0 -1
    outer loop
      vertex 12.9642 -6.92953 0
      vertex 12.9642 6.92953 0
      vertex 13.2886 6.28506 0
    endloop
  endfacet
  facet normal 0.893224 -0.449613 0
    outer loop
      vertex 12.9642 -6.92953 0
      vertex 13.2886 -6.28506 0
      vertex 12.9642 -6.92953 20
    endloop
  endfacet
  facet normal 0 0 -1
    outer loop
      vertex 12.9642 -6.92953 0
      vertex 13.2886 6.28506 0
      vertex 13.2886 -6.28506 0
    endloop
  endfacet
  facet normal 0.893224 -0.449613 0
    outer loop
      vertex 12.9642 -6.92953 20
      vertex 13.2886 -6.28506 0
      vertex 13.2886 -6.28506 20
    endloop
  endfacet
  facet normal 0.893224 0.449613 -0
    outer loop
      vertex 12.9642 6.92953 0
      vertex 12.9642 6.92953 20
      vertex 13.2886 6.28506 20
    endloop
  endfacet
  facet normal 0.893224 0.449613 0
    outer loop
      vertex 12.9642 6.92953 0
      vertex 13.2886 6.28506 20
      vertex 13.2886 6.28506 0
    endloop
  endfacet
  facet normal -0.975695 0.219132 0
    outer loop
      vertex 13.0954 -3.28023 1.2
      vertex 13.0954 -3.28023 20
      vertex 13.2406 -2.63372 20
    endloop
  endfacet
  facet normal 0 0 1
    outer loop
      vertex 13.0954 -3.28023 1.2
      vertex 13.2406 -2.63372 1.2
      vertex 13.0954 3.28023 1.2
    endloop
  endfacet
  facet normal -0.975695 0.219132 0
    outer loop
      vertex 13.0954 -3.28023 1.2
      vertex 13.2406 -2.63372 20
      vertex 13.2406 -2.63372 1.2
    endloop
  endfacet
  facet normal 0 0 1
    outer loop
      vertex 13.0954 -3.28023 20
      vertex 14.067 -4.26718 20
      vertex 14.2595 -3.57181 20
    endloop
  endfacet
  facet normal -0 0 1
    outer loop
      vertex 13.0954 -3.28023 20
      vertex 14.2595 -3.57181 20
      vertex 13.2406 -2.63372 20
    endloop
  endfacet
  facet normal 0 0 1
    outer loop
      vertex 13.0954 3.28023 1.2
      vertex 13.2406 -2.63372 1.2
      vertex 13.2406 2.63372 1.2
    endloop
  endfacet
  facet normal -0.975695 -0.219132 0
    outer loop
      vertex 13.0954 3.28023 1.2
      vertex 13.2406 2.63372 1.2
      vertex 13.0954 3.28023 20
    endloop
  endfacet
  facet normal -0.975695 -0.219132 0
    outer loop
      vertex 13.0954 3.28023 20
      vertex 13.2406 2.63372 1.2
      vertex 13.2406 2.63372 20
    endloop
  endfacet
  facet normal -0 0 1
    outer loop
      vertex 13.0954 3.28023 20
      vertex 13.2406 2.63372 20
      vertex 14.2595 3.57181 20
    endloop
  endfacet
  facet normal 0 0 1
    outer loop
      vertex 13.0954 3.28023 20
      vertex 14.2595 3.57181 20
      vertex 14.067 4.26718 20
    endloop
  endfacet
  facet normal -0.985273 0.170988 0
    outer loop
      vertex 13.2406 -2.63372 1.2
      vertex 13.2406 -2.63372 20
      vertex 13.3539 -1.98086 20
    endloop
  endfacet
  facet normal 0 0 1
    outer loop
      vertex 13.2406 -2.63372 1.2
      vertex 13.3539 -1.98086 1.2
      vertex 13.2406 2.63372 1.2
    endloop
  endfacet
  facet normal -0.985273 0.170988 0
    outer loop
      vertex 13.2406 -2.63372 1.2
      vertex 13.3539 -1.98086 20
      vertex 13.3539 -1.98086 1.2
    endloop
  endfacet
  facet normal 0 0 1
    outer loop
      vertex 13.2406 -2.63372 20
      vertex 14.2595 -3.57181 20
      vertex 14.4175 -2.86783 20
    endloop
  endfacet
  facet normal -0 0 1
    outer loop
      vertex 13.2406 -2.63372 20
      vertex 14.4175 -2.86783 20
      vertex 13.3539 -1.98086 20
    endloop
  endfacet
  facet normal 0 0 1
    outer loop
      vertex 13.2406 2.63372 1.2
      vertex 13.3539 -1.98086 1.2
      vertex 13.3539 1.98086 1.2
    endloop
  endfacet
  facet normal -0.985273 -0.170988 0
    outer loop
      vertex 13.2406 2.63372 1.2
      vertex 13.3539 1.98086 1.2
      vertex 13.2406 2.63372 20
    endloop
  endfacet
  facet normal -0.985273 -0.170988 0
    outer loop
      vertex 13.2406 2.63372 20
      vertex 13.3539 1.98086 1.2
      vertex 13.3539 1.98086 20
    endloop
  endfacet
  facet normal -0 0 1
    outer loop
      vertex 13.2406 2.63372 20
      vertex 13.3539 1.98086 20
      vertex 14.4175 2.86783 20
    endloop
  endfacet
  facet normal 0 0 1
    outer loop
      vertex 13.2406 2.63372 20
      vertex 14.4175 2.86783 20
      vertex 14.2595 3.57181 20
    endloop
  endfacet
  facet normal 0 0 -1
    outer loop
      vertex 13.2886 -6.28506 0
      vertex 13.2886 6.28506 0
      vertex 13.581 5.62545 0
    endloop
  endfacet
  facet normal 0.914202 -0.405259 0
    outer loop
      vertex 13.2886 -6.28506 0
      vertex 13.581 -5.62545 0
      vertex 13.2886 -6.28506 20
    endloop
  endfacet
  facet normal 0 0 -1
    outer loop
      vertex 13.2886 -6.28506 0
      vertex 13.581 5.62545 0
      vertex 13.581 -5.62545 0
    endloop
  endfacet
  facet normal 0.914202 -0.405259 0
    outer loop
      vertex 13.2886 -6.28506 20
      vertex 13.581 -5.62545 0
      vertex 13.581 -5.62545 20
    endloop
  endfacet
  facet normal 0.914202 0.405259 -0
    outer loop
      vertex 13.2886 6.28506 0
      vertex 13.2886 6.28506 20
      vertex 13.581 5.62545 20
    endloop
  endfacet
  facet normal 0.914202 0.405259 0
    outer loop
      vertex 13.2886 6.28506 0
      vertex 13.581 5.62545 20
      vertex 13.581 5.62545 0
    endloop
  endfacet
  facet normal -0.992482 0.122394 0
    outer loop
      vertex 13.3539 -1.98086 1.2
      vertex 13.3539 -1.98086 20
      vertex 13.435 -1.32323 20
    endloop
  endfacet
  facet normal 0 0 1
    outer loop
      vertex 13.3539 -1.98086 1.2
      vertex 13.435 -1.32323 1.2
      vertex 13.3539 1.98086 1.2
    endloop
  endfacet
  facet normal -0.992482 0.122394 0
    outer loop
      vertex 13.3539 -1.98086 1.2
      vertex 13.435 -1.32323 20
      vertex 13.435 -1.32323 1.2
    endloop
  endfacet
  facet normal 0 0 1
    outer loop
      vertex 13.3539 -1.98086 20
      vertex 14.4175 -2.86783 20
      vertex 14.5409 -2.15694 20
    endloop
  endfacet
  facet normal -0 0 1
    outer loop
      vertex 13.3539 -1.98086 20
      vertex 14.5409 -2.15694 20
      vertex 13.435 -1.32323 20
    endloop
  endfacet
  facet normal 0 0 1
    outer loop
      vertex 13.3539 1.98086 1.2
      vertex 13.435 -1.32323 1.2
      vertex 13.435 1.32323 1.2
    endloop
  endfacet
  facet normal -0.992482 -0.122394 0
    outer loop
      vertex 13.3539 1.98086 1.2
      vertex 13.435 1.32323 1.2
      vertex 13.3539 1.98086 20
    endloop
  endfacet
  facet normal -0.992482 -0.122394 0
    outer loop
      vertex 13.3539 1.98086 20
      vertex 13.435 1.32323 1.2
      vertex 13.435 1.32323 20
    endloop
  endfacet
  facet normal -0 0 1
    outer loop
      vertex 13.3539 1.98086 20
      vertex 13.435 1.32323 20
      vertex 14.5409 2.15694 20
    endloop
  endfacet
  facet normal 0 0 1
    outer loop
      vertex 13.3539 1.98086 20
      vertex 14.5409 2.15694 20
      vertex 14.4175 2.86783 20
    endloop
  endfacet
  facet normal -0.997295 0.0734974 0
    outer loop
      vertex 13.435 -1.32323 1.2
      vertex 13.435 -1.32323 20
      vertex 13.4837 -0.662414 20
    endloop
  endfacet
  facet normal 0 0 1
    outer loop
      vertex 13.435 -1.32323 1.2
      vertex 13.4837 -0.662414 1.2
      vertex 13.435 1.32323 1.2
    endloop
  endfacet
  facet normal -0.997295 0.0734974 0
    outer loop
      vertex 13.435 -1.32323 1.2
      vertex 13.4837 -0.662414 20
      vertex 13.4837 -0.662414 1.2
    endloop
  endfacet
  facet normal 0 0 1
    outer loop
      vertex 13.435 -1.32323 20
      vertex 14.5409 -2.15694 20
      vertex 14.6292 -1.44085 20
    endloop
  endfacet
  facet normal -0 0 1
    outer loop
      vertex 13.435 -1.32323 20
      vertex 14.6292 -1.44085 20
      vertex 13.4837 -0.662414 20
    endloop
  endfacet
  facet normal 0 0 1
    outer loop
      vertex 13.435 1.32323 1.2
      vertex 13.4837 -0.662414 1.2
      vertex 13.4837 0.662414 1.2
    endloop
  endfacet
  facet normal -0.997295 -0.0734974 0
    outer loop
      vertex 13.435 1.32323 1.2
      vertex 13.4837 0.662414 1.2
      vertex 13.435 1.32323 20
    endloop
  endfacet
  facet normal -0.997295 -0.0734974 0
    outer loop
      vertex 13.435 1.32323 20
      vertex 13.4837 0.662414 1.2
      vertex 13.4837 0.662414 20
    endloop
  endfacet
  facet normal -0 0 1
    outer loop
      vertex 13.435 1.32323 20
      vertex 13.4837 0.662414 20
      vertex 14.6292 1.44085 20
    endloop
  endfacet
  facet normal 0 0 1
    outer loop
      vertex 13.435 1.32323 20
      vertex 14.6292 1.44085 20
      vertex 14.5409 2.15694 20
    endloop
  endfacet
  facet normal -0.999697 0.0245995 0
    outer loop
      vertex 13.4837 -0.662414 1.2
      vertex 13.4837 -0.662414 20
      vertex 13.5 0 20
    endloop
  endfacet
  facet normal 0 0 1
    outer loop
      vertex 13.4837 -0.662414 1.2
      vertex 13.5 0 1.2
      vertex 13.4837 0.662414 1.2
    endloop
  endfacet
  facet normal -0.999697 0.0245995 0
    outer loop
      vertex 13.4837 -0.662414 1.2
      vertex 13.5 0 20
      vertex 13.5 0 1.2
    endloop
  endfacet
  facet normal 0 0 1
    outer loop
      vertex 13.4837 -0.662414 20
      vertex 14.6292 -1.44085 20
      vertex 14.6823 -0.721294 20
    endloop
  endfacet
  facet normal -0 0 1
    outer loop
      vertex 13.4837 -0.662414 20
      vertex 14.6823 -0.721294 20
      vertex 13.5 0 20
    endloop
  endfacet
  facet normal -0.999697 -0.0245995 0
    outer loop
      vertex 13.4837 0.662414 1.2
      vertex 13.5 0 1.2
      vertex 13.4837 0.662414 20
    endloop
  endfacet
  facet normal -0.999697 -0.0245995 0
    outer loop
      vertex 13.4837 0.662414 20
      vertex 13.5 0 1.2
      vertex 13.5 0 20
    endloop
  endfacet
  facet normal -0 0 1
    outer loop
      vertex 13.4837 0.662414 20
      vertex 13.5 0 20
      vertex 14.6823 0.721294 20
    endloop
  endfacet
  facet normal 0 0 1
    outer loop
      vertex 13.4837 0.662414 20
      vertex 14.6823 0.721294 20
      vertex 14.6292 1.44085 20
    endloop
  endfacet
  facet normal -0 0 1
    outer loop
      vertex 13.5 0 20
      vertex 14.6823 -0.721294 20
      vertex 14.7 0 20
    endloop
  endfacet
  facet normal 0 0 1
    outer loop
      vertex 13.5 0 20
      vertex 14.7 0 20
      vertex 14.6823 0.721294 20
    endloop
  endfacet
  facet normal 0 0 -1
    outer loop
      vertex 13.581 -5.62545 0
      vertex 13.581 5.62545 0
      vertex 13.8407 4.95228 0
    endloop
  endfacet
  facet normal 0.932979 -0.359931 0
    outer loop
      vertex 13.581 -5.62545 0
      vertex 13.8407 -4.95228 0
      vertex 13.581 -5.62545 20
    endloop
  endfacet
  facet normal 0 0 -1
    outer loop
      vertex 13.581 -5.62545 0
      vertex 13.8407 4.95228 0
      vertex 13.8407 -4.95228 0
    endloop
  endfacet
  facet normal 0.932979 -0.359931 0
    outer loop
      vertex 13.581 -5.62545 20
      vertex 13.8407 -4.95228 0
      vertex 13.8407 -4.95228 20
    endloop
  endfacet
  facet normal 0.932979 0.359931 -0
    outer loop
      vertex 13.581 5.62545 0
      vertex 13.581 5.62545 20
      vertex 13.8407 4.95228 20
    endloop
  endfacet
  facet normal 0.932979 0.359931 0
    outer loop
      vertex 13.581 5.62545 0
      vertex 13.8407 4.95228 20
      vertex 13.8407 4.95228 0
    endloop
  endfacet
  facet normal 0 0 -1
    outer loop
      vertex 13.8407 -4.95228 0
      vertex 13.8407 4.95228 0
      vertex 14.067 4.26718 0
    endloop
  endfacet
  facet normal 0.949539 -0.313649 0
    outer loop
      vertex 13.8407 -4.95228 0
      vertex 14.067 -4.26718 0
      vertex 13.8407 -4.95228 20
    endloop
  endfacet
  facet normal 0 0 -1
    outer loop
      vertex 13.8407 -4.95228 0
      vertex 14.067 4.26718 0
      vertex 14.067 -4.26718 0
    endloop
  endfacet
  facet normal 0.949539 -0.313649 0
    outer loop
      vertex 13.8407 -4.95228 20
      vertex 14.067 -4.26718 0
      vertex 14.067 -4.26718 20
    endloop
  endfacet
  facet normal 0.949539 0.313649 -0
    outer loop
      vertex 13.8407 4.95228 0
      vertex 13.8407 4.95228 20
      vertex 14.067 4.26718 20
    endloop
  endfacet
  facet normal 0.949539 0.313649 0
    outer loop
      vertex 13.8407 4.95228 0
      vertex 14.067 4.26718 20
      vertex 14.067 4.26718 0
    endloop
  endfacet
  facet normal 0 0 -1
    outer loop
      vertex 14.067 -4.26718 0
      vertex 14.067 4.26718 0
      vertex 14.2595 3.57181 0
    endloop
  endfacet
  facet normal 0.963753 -0.266797 0
    outer loop
      vertex 14.067 -4.26718 0
      vertex 14.2595 -3.57181 0
      vertex 14.067 -4.26718 20
    endloop
  endfacet
  facet normal 0 0 -1
    outer loop
      vertex 14.067 -4.26718 0
      vertex 14.2595 3.57181 0
      vertex 14.2595 -3.57181 0
    endloop
  endfacet
  facet normal 0.963753 -0.266797 0
    outer loop
      vertex 14.067 -4.26718 20
      vertex 14.2595 -3.57181 0
      vertex 14.2595 -3.57181 20
    endloop
  endfacet
  facet normal 0.963753 0.266797 -0
    outer loop
      vertex 14.067 4.26718 0
      vertex 14.067 4.26718 20
      vertex 14.2595 3.57181 20
    endloop
  endfacet
  facet normal 0.963753 0.266797 0
    outer loop
      vertex 14.067 4.26718 0
      vertex 14.2595 3.57181 20
      vertex 14.2595 3.57181 0
    endloop
  endfacet
  facet normal 0 0 -1
    outer loop
      vertex 14.2595 -3.57181 0
      vertex 14.2595 3.57181 0
      vertex 14.4175 2.86783 0
    endloop
  endfacet
  facet normal 0.975727 -0.21899 0
    outer loop
      vertex 14.2595 -3.57181 0
      vertex 14.4175 -2.86783 0
      vertex 14.2595 -3.57181 20
    endloop
  endfacet
  facet normal 0 0 -1
    outer loop
      vertex 14.2595 -3.57181 0
      vertex 14.4175 2.86783 0
      vertex 14.4175 -2.86783 0
    endloop
  endfacet
  facet normal 0.975727 -0.21899 0
    outer loop
      vertex 14.2595 -3.57181 20
      vertex 14.4175 -2.86783 0
      vertex 14.4175 -2.86783 20
    endloop
  endfacet
  facet normal 0.975727 0.21899 -0
    outer loop
      vertex 14.2595 3.57181 0
      vertex 14.2595 3.57181 20
      vertex 14.4175 2.86783 20
    endloop
  endfacet
  facet normal 0.975727 0.21899 0
    outer loop
      vertex 14.2595 3.57181 0
      vertex 14.4175 2.86783 20
      vertex 14.4175 2.86783 0
    endloop
  endfacet
  facet normal 0 0 -1
    outer loop
      vertex 14.4175 -2.86783 0
      vertex 14.4175 2.86783 0
      vertex 14.5409 2.15694 0
    endloop
  endfacet
  facet normal 0.985266 -0.171028 0
    outer loop
      vertex 14.4175 -2.86783 0
      vertex 14.5409 -2.15694 0
      vertex 14.4175 -2.86783 20
    endloop
  endfacet
  facet normal 0 0 -1
    outer loop
      vertex 14.4175 -2.86783 0
      vertex 14.5409 2.15694 0
      vertex 14.5409 -2.15694 0
    endloop
  endfacet
  facet normal 0.985266 -0.171028 0
    outer loop
      vertex 14.4175 -2.86783 20
      vertex 14.5409 -2.15694 0
      vertex 14.5409 -2.15694 20
    endloop
  endfacet
  facet normal 0.985266 0.171028 -0
    outer loop
      vertex 14.4175 2.86783 0
      vertex 14.4175 2.86783 20
      vertex 14.5409 2.15694 20
    endloop
  endfacet
  facet normal 0.985266 0.171028 0
    outer loop
      vertex 14.4175 2.86783 0
      vertex 14.5409 2.15694 20
      vertex 14.5409 2.15694 0
    endloop
  endfacet
  facet normal 0 0 -1
    outer loop
      vertex 14.5409 -2.15694 0
      vertex 14.5409 2.15694 0
      vertex 14.6292 1.44085 0
    endloop
  endfacet
  facet normal 0.992483 -0.122382 0
    outer loop
      vertex 14.5409 -2.15694 0
      vertex 14.6292 -1.44085 0
      vertex 14.5409 -2.15694 20
    endloop
  endfacet
  facet normal 0 0 -1
    outer loop
      vertex 14.5409 -2.15694 0
      vertex 14.6292 1.44085 0
      vertex 14.6292 -1.44085 0
    endloop
  endfacet
  facet normal 0.992483 -0.122382 0
    outer loop
      vertex 14.5409 -2.15694 20
      vertex 14.6292 -1.44085 0
      vertex 14.6292 -1.44085 20
    endloop
  endfacet
  facet normal 0.992483 0.122382 -0
    outer loop
      vertex 14.5409 2.15694 0
      vertex 14.5409 2.15694 20
      vertex 14.6292 1.44085 20
    endloop
  endfacet
  facet normal 0.992483 0.122382 0
    outer loop
      vertex 14.5409 2.15694 0
      vertex 14.6292 1.44085 20
      vertex 14.6292 1.44085 0
    endloop
  endfacet
  facet normal 0 0 -1
    outer loop
      vertex 14.6292 -1.44085 0
      vertex 14.6292 1.44085 0
      vertex 14.6823 0.721294 0
    endloop
  endfacet
  facet normal 0.997288 -0.0735954 0
    outer loop
      vertex 14.6292 -1.44085 0
      vertex 14.6823 -0.721294 0
      vertex 14.6292 -1.44085 20
    endloop
  endfacet
  facet normal 0 0 -1
    outer loop
      vertex 14.6292 -1.44085 0
      vertex 14.6823 0.721294 0
      vertex 14.6823 -0.721294 0
    endloop
  endfacet
  facet normal 0.997288 -0.0735954 0
    outer loop
      vertex 14.6292 -1.44085 20
      vertex 14.6823 -0.721294 0
      vertex 14.6823 -0.721294 20
    endloop
  endfacet
  facet normal 0.997288 0.0735954 -0
    outer loop
      vertex 14.6292 1.44085 0
      vertex 14.6292 1.44085 20
      vertex 14.6823 0.721294 20
    endloop
  endfacet
  facet normal 0.997288 0.0735954 0
    outer loop
      vertex 14.6292 1.44085 0
      vertex 14.6823 0.721294 20
      vertex 14.6823 0.721294 0
    endloop
  endfacet
  facet normal 0 0 -1
    outer loop
      vertex 14.6823 -0.721294 0
      vertex 14.6823 0.721294 0
      vertex 14.7 0 0
    endloop
  endfacet
  facet normal 0.999699 -0.0245318 0
    outer loop
      vertex 14.6823 -0.721294 0
      vertex 14.7 0 0
      vertex 14.6823 -0.721294 20
    endloop
  endfacet
  facet normal 0.999699 -0.0245318 0
    outer loop
      vertex 14.6823 -0.721294 20
      vertex 14.7 0 0
      vertex 14.7 0 20
    endloop
  endfacet
  facet normal 0.999699 0.0245318 -0
    outer loop
      vertex 14.6823 0.721294 0
      vertex 14.6823 0.721294 20
      vertex 14.7 0 20
    endloop
  endfacet
  facet normal 0.999699 0.0245318 0
    outer loop
      vertex 14.6823 0.721294 0
      vertex 14.7 0 20
      vertex 14.7 0 0
    endloop
  endfacet
endsolid OpenSCAD_Model
