solid OpenSCAD_Model
  facet normal 0 0 -1
    outer loop
      vertex -23.5 0 0
      vertex -22.856 0 0
      vertex -22.8276 -0.068535 0
    endloop
  endfacet
  facet normal 0 0 -1
    outer loop
      vertex -23.5 0 0
      vertex -22.8276 -0.068535 0
      vertex -21.7426 -4.24264 0
    endloop
  endfacet
  facet normal 0 0 -1
    outer loop
      vertex -23.5 0 0
      vertex -22.8276 0.068535 0
      vertex -22.856 0 0
    endloop
  endfacet
  facet normal -0.923007 -0.382331 0.0433802
    outer loop
      vertex -23.5 0 0
      vertex -21.7426 -4.24264 0
      vertex -19.5684 -3.81838 50
    endloop
  endfacet
  facet normal 0 0 -1
    outer loop
      vertex -23.5 0 0
      vertex -21.7426 4.24264 0
      vertex -22.8276 0.068535 0
    endloop
  endfacet
  facet normal -0.923012 0.382318 0.0433816
    outer loop
      vertex -23.5 0 0
      vertex -21.15 0 50
      vertex -19.5684 3.81838 50
    endloop
  endfacet
  facet normal -0.923012 -0.382318 0.0433816
    outer loop
      vertex -23.5 0 0
      vertex -19.5684 -3.81838 50
      vertex -21.15 0 50
    endloop
  endfacet
  facet normal -0.923007 0.382331 0.0433802
    outer loop
      vertex -23.5 0 0
      vertex -19.5684 3.81838 50
      vertex -21.7426 4.24264 0
    endloop
  endfacet
  facet normal 0.923059 -0.382504 -0.0406515
    outer loop
      vertex -22.856 0 0
      vertex -22.8276 0.068535 0
      vertex -20.654 0 50
    endloop
  endfacet
  facet normal 0.923059 0.382504 -0.0406515
    outer loop
      vertex -22.856 0 0
      vertex -20.654 0 50
      vertex -22.8276 -0.068535 0
    endloop
  endfacet
  facet normal 0 0 -1
    outer loop
      vertex -22.8276 -0.068535 0
      vertex -21.2189 -3.95218 0
      vertex -21.7426 -4.24264 0
    endloop
  endfacet
  facet normal 0.923115 0.382369 -0.0406538
    outer loop
      vertex -22.8276 -0.068535 0
      vertex -20.654 0 50
      vertex -19.2062 -3.49528 50
    endloop
  endfacet
  facet normal 0.923112 0.382376 -0.0406531
    outer loop
      vertex -22.8276 -0.068535 0
      vertex -19.2062 -3.49528 50
      vertex -21.2189 -3.95218 0
    endloop
  endfacet
  facet normal 0 0 -1
    outer loop
      vertex -22.8276 0.068535 0
      vertex -21.7426 4.24264 0
      vertex -21.2189 3.95218 0
    endloop
  endfacet
  facet normal 0.923112 -0.382376 -0.0406531
    outer loop
      vertex -22.8276 0.068535 0
      vertex -21.2189 3.95218 0
      vertex -19.2062 3.49528 50
    endloop
  endfacet
  facet normal 0.923115 -0.382369 -0.0406538
    outer loop
      vertex -22.8276 0.068535 0
      vertex -19.2062 3.49528 50
      vertex -20.654 0 50
    endloop
  endfacet
  facet normal 0 0 -1
    outer loop
      vertex -22.3 0 0
      vertex -21.6583 0 0
      vertex -21.6339 -0.0587442 0
    endloop
  endfacet
  facet normal 0 0 -1
    outer loop
      vertex -22.3 0 0
      vertex -21.6339 -0.0587442 0
      vertex -20.777 -3.67696 0
    endloop
  endfacet
  facet normal 0 0 -1
    outer loop
      vertex -22.3 0 0
      vertex -21.6339 0.0587442 0
      vertex -21.6583 0 0
    endloop
  endfacet
  facet normal -0.9231 -0.382349 0.0411703
    outer loop
      vertex -22.3 0 0
      vertex -20.777 -3.67696 0
      vertex -20.07 0 50
    endloop
  endfacet
  facet normal 0 0 -1
    outer loop
      vertex -22.3 0 0
      vertex -20.777 3.67696 0
      vertex -21.6339 0.0587442 0
    endloop
  endfacet
  facet normal -0.9231 0.382349 0.0411703
    outer loop
      vertex -22.3 0 0
      vertex -20.07 0 50
      vertex -20.777 3.67696 0
    endloop
  endfacet
  facet normal 0 0 -1
    outer loop
      vertex -21.7426 -4.24264 0
      vertex -21.2189 -3.95218 0
      vertex -21.1504 -3.98057 0
    endloop
  endfacet
  facet normal 0 0 -1
    outer loop
      vertex -21.7426 -4.24264 0
      vertex -21.1504 -3.98057 0
      vertex -17.5 -6 0
    endloop
  endfacet
  facet normal -0.382572 -0.923601 0.0244727
    outer loop
      vertex -21.7426 -4.24264 0
      vertex -17.5 -6 0
      vertex -19.5684 -3.81838 50
    endloop
  endfacet
  facet normal 0 0 -1
    outer loop
      vertex -21.7426 4.24264 0
      vertex -21.1504 3.98057 0
      vertex -21.2189 3.95218 0
    endloop
  endfacet
  facet normal -0.382572 0.923601 0.0244727
    outer loop
      vertex -21.7426 4.24264 0
      vertex -19.5684 3.81838 50
      vertex -17.5 6 0
    endloop
  endfacet
  facet normal 0 0 -1
    outer loop
      vertex -21.7426 4.24264 0
      vertex -17.5 6 0
      vertex -21.1504 3.98057 0
    endloop
  endfacet
  facet normal 0.92282 -0.383303 -0.0385111
    outer loop
      vertex -21.6583 0 0
      vertex -21.6339 0.0587442 0
      vertex -19.5717 0 50
    endloop
  endfacet
  facet normal 0.92282 0.383303 -0.0385111
    outer loop
      vertex -21.6583 0 0
      vertex -19.5717 0 50
      vertex -21.6339 -0.0587442 0
    endloop
  endfacet
  facet normal 0 0 -1
    outer loop
      vertex -21.6339 -0.0587442 0
      vertex -20.2551 -3.38758 0
      vertex -20.777 -3.67696 0
    endloop
  endfacet
  facet normal 0.923201 0.382382 -0.0385258
    outer loop
      vertex -21.6339 -0.0587442 0
      vertex -19.5717 0 50
      vertex -18.3308 -2.99596 50
    endloop
  endfacet
  facet normal 0.923198 0.382388 -0.0385252
    outer loop
      vertex -21.6339 -0.0587442 0
      vertex -18.3308 -2.99596 50
      vertex -20.2551 -3.38758 0
    endloop
  endfacet
  facet normal 0 0 -1
    outer loop
      vertex -21.6339 0.0587442 0
      vertex -20.777 3.67696 0
      vertex -20.2551 3.38758 0
    endloop
  endfacet
  facet normal 0.923198 -0.382388 -0.0385252
    outer loop
      vertex -21.6339 0.0587442 0
      vertex -20.2551 3.38758 0
      vertex -18.3308 2.99596 50
    endloop
  endfacet
  facet normal 0.923201 -0.382382 -0.0385258
    outer loop
      vertex -21.6339 0.0587442 0
      vertex -18.3308 2.99596 50
      vertex -19.5717 0 50
    endloop
  endfacet
  facet normal 0.923297 0.381929 -0.0406565
    outer loop
      vertex -21.2189 -3.95218 0
      vertex -19.2062 -3.49528 50
      vertex -19.1747 -3.57143 50
    endloop
  endfacet
  facet normal 0.382773 0.923564 -0.0226822
    outer loop
      vertex -21.2189 -3.95218 0
      vertex -19.1747 -3.57143 50
      vertex -21.1504 -3.98057 0
    endloop
  endfacet
  facet normal 0.382773 -0.923564 -0.0226822
    outer loop
      vertex -21.2189 3.95218 0
      vertex -21.1504 3.98057 0
      vertex -19.1747 3.57143 50
    endloop
  endfacet
  facet normal 0.923297 -0.381929 -0.0406565
    outer loop
      vertex -21.2189 3.95218 0
      vertex -19.1747 3.57143 50
      vertex -19.2062 3.49528 50
    endloop
  endfacet
  facet normal 0.382585 0.923642 -0.0226754
    outer loop
      vertex -21.1504 -3.98057 0
      vertex -19.1747 -3.57143 50
      vertex -15.6794 -5.01923 50
    endloop
  endfacet
  facet normal 0 0 -1
    outer loop
      vertex -21.1504 -3.98057 0
      vertex -17.2667 -5.58923 0
      vertex -17.5 -6 0
    endloop
  endfacet
  facet normal 0.382581 0.923644 -0.0226749
    outer loop
      vertex -21.1504 -3.98057 0
      vertex -15.6794 -5.01923 50
      vertex -17.2667 -5.58923 0
    endloop
  endfacet
  facet normal 0 0 -1
    outer loop
      vertex -21.1504 3.98057 0
      vertex -17.5 6 0
      vertex -17.2667 5.58923 0
    endloop
  endfacet
  facet normal 0.382581 -0.923644 -0.0226749
    outer loop
      vertex -21.1504 3.98057 0
      vertex -17.2667 5.58923 0
      vertex -15.6794 5.01923 50
    endloop
  endfacet
  facet normal 0.382585 -0.923642 -0.0226754
    outer loop
      vertex -21.1504 3.98057 0
      vertex -15.6794 5.01923 50
      vertex -19.1747 3.57143 50
    endloop
  endfacet
  facet normal 0 0 1
    outer loop
      vertex -21.15 0 50
      vertex -20.654 0 50
      vertex -19.5684 3.81838 50
    endloop
  endfacet
  facet normal -0 0 1
    outer loop
      vertex -21.15 0 50
      vertex -19.5684 -3.81838 50
      vertex -20.654 0 50
    endloop
  endfacet
  facet normal 0 0 -1
    outer loop
      vertex -21.1 0 0
      vertex -20.4606 0 0
      vertex -20.4403 -0.0489535 0
    endloop
  endfacet
  facet normal 0 0 -1
    outer loop
      vertex -21.1 0 0
      vertex -20.4403 -0.0489535 0
      vertex -19.8113 -3.11127 0
    endloop
  endfacet
  facet normal 0 0 -1
    outer loop
      vertex -21.1 0 0
      vertex -20.4403 0.0489535 0
      vertex -20.4606 0 0
    endloop
  endfacet
  facet normal -0.923181 -0.382385 0.0389583
    outer loop
      vertex -21.1 0 0
      vertex -19.8113 -3.11127 0
      vertex -18.99 0 50
    endloop
  endfacet
  facet normal 0 0 -1
    outer loop
      vertex -21.1 0 0
      vertex -19.8113 3.11127 0
      vertex -20.4403 0.0489535 0
    endloop
  endfacet
  facet normal -0.923181 0.382385 0.0389583
    outer loop
      vertex -21.1 0 0
      vertex -18.99 0 50
      vertex -19.8113 3.11127 0
    endloop
  endfacet
  facet normal 0 0 -1
    outer loop
      vertex -20.777 -3.67696 0
      vertex -20.2551 -3.38758 0
      vertex -17.1 -5.2 0
    endloop
  endfacet
  facet normal -0.9231 -0.382349 0.0411703
    outer loop
      vertex -20.777 -3.67696 0
      vertex -18.6993 -3.30926 50
      vertex -20.07 0 50
    endloop
  endfacet
  facet normal -0.38258 -0.923644 0.0226902
    outer loop
      vertex -20.777 -3.67696 0
      vertex -17.1 -5.2 0
      vertex -18.6993 -3.30926 50
    endloop
  endfacet
  facet normal -0.9231 0.382349 0.0411703
    outer loop
      vertex -20.777 3.67696 0
      vertex -20.07 0 50
      vertex -18.6993 3.30926 50
    endloop
  endfacet
  facet normal -0.38258 0.923644 0.0226902
    outer loop
      vertex -20.777 3.67696 0
      vertex -18.6993 3.30926 50
      vertex -17.1 5.2 0
    endloop
  endfacet
  facet normal 0 0 -1
    outer loop
      vertex -20.777 3.67696 0
      vertex -17.1 5.2 0
      vertex -20.2551 3.38758 0
    endloop
  endfacet
  facet normal 0 0 1
    outer loop
      vertex -20.654 0 50
      vertex -19.5684 -3.81838 50
      vertex -19.2062 -3.49528 50
    endloop
  endfacet
  facet normal 0 0 1
    outer loop
      vertex -20.654 0 50
      vertex -19.2062 3.49528 50
      vertex -19.5684 3.81838 50
    endloop
  endfacet
  facet normal 0.923115 -0.382797 -0.0363929
    outer loop
      vertex -20.4606 0 0
      vertex -20.4403 0.0489535 0
      vertex -18.4894 0 50
    endloop
  endfacet
  facet normal 0.923115 0.382797 -0.0363929
    outer loop
      vertex -20.4606 0 0
      vertex -18.4894 0 50
      vertex -20.4403 -0.0489535 0
    endloop
  endfacet
  facet normal 0 0 -1
    outer loop
      vertex -20.4403 -0.0489535 0
      vertex -19.2913 -2.82299 0
      vertex -19.8113 -3.11127 0
    endloop
  endfacet
  facet normal 0.923272 0.382418 -0.0363987
    outer loop
      vertex -20.4403 -0.0489535 0
      vertex -18.4894 0 50
      vertex -17.4553 -2.49663 50
    endloop
  endfacet
  facet normal 0.923272 0.382417 -0.0363987
    outer loop
      vertex -20.4403 -0.0489535 0
      vertex -17.4553 -2.49663 50
      vertex -19.2913 -2.82299 0
    endloop
  endfacet
  facet normal 0 0 -1
    outer loop
      vertex -20.4403 0.0489535 0
      vertex -19.8113 3.11127 0
      vertex -19.2913 2.82299 0
    endloop
  endfacet
  facet normal 0.923272 -0.382417 -0.0363987
    outer loop
      vertex -20.4403 0.0489535 0
      vertex -19.2913 2.82299 0
      vertex -17.4553 2.49663 50
    endloop
  endfacet
  facet normal 0.923272 -0.382418 -0.0363987
    outer loop
      vertex -20.4403 0.0489535 0
      vertex -17.4553 2.49663 50
      vertex -18.4894 0 50
    endloop
  endfacet
  facet normal 0.922872 0.383175 -0.0385188
    outer loop
      vertex -20.2551 -3.38758 0
      vertex -18.3308 -2.99596 50
      vertex -18.3037 -3.06123 50
    endloop
  endfacet
  facet normal 0.382596 0.923678 -0.0209608
    outer loop
      vertex -20.2551 -3.38758 0
      vertex -18.3037 -3.06123 50
      vertex -16.9262 -4.76644 0
    endloop
  endfacet
  facet normal 0 0 -1
    outer loop
      vertex -20.2551 -3.38758 0
      vertex -16.9262 -4.76644 0
      vertex -17.1 -5.2 0
    endloop
  endfacet
  facet normal 0.922872 -0.383175 -0.0385188
    outer loop
      vertex -20.2551 3.38758 0
      vertex -18.3037 3.06123 50
      vertex -18.3308 2.99596 50
    endloop
  endfacet
  facet normal 0 0 -1
    outer loop
      vertex -20.2551 3.38758 0
      vertex -17.1 5.2 0
      vertex -16.9262 4.76644 0
    endloop
  endfacet
  facet normal 0.382596 -0.923678 -0.0209608
    outer loop
      vertex -20.2551 3.38758 0
      vertex -16.9262 4.76644 0
      vertex -18.3037 3.06123 50
    endloop
  endfacet
  facet normal 0 0 1
    outer loop
      vertex -20.07 0 50
      vertex -19.5717 0 50
      vertex -18.6993 3.30926 50
    endloop
  endfacet
  facet normal -0 0 1
    outer loop
      vertex -20.07 0 50
      vertex -18.6993 -3.30926 50
      vertex -19.5717 0 50
    endloop
  endfacet
  facet normal 0 0 -1
    outer loop
      vertex -19.8113 -3.11127 0
      vertex -19.2913 -2.82299 0
      vertex -16.7 -4.4 0
    endloop
  endfacet
  facet normal -0.923173 -0.382405 0.0389594
    outer loop
      vertex -19.8113 -3.11127 0
      vertex -17.8301 -2.80014 50
      vertex -18.99 0 50
    endloop
  endfacet
  facet normal -0.382597 -0.923679 0.0209077
    outer loop
      vertex -19.8113 -3.11127 0
      vertex -16.7 -4.4 0
      vertex -17.8301 -2.80014 50
    endloop
  endfacet
  facet normal -0.923173 0.382405 0.0389594
    outer loop
      vertex -19.8113 3.11127 0
      vertex -18.99 0 50
      vertex -17.8301 2.80014 50
    endloop
  endfacet
  facet normal -0.382597 0.923679 0.0209077
    outer loop
      vertex -19.8113 3.11127 0
      vertex -17.8301 2.80014 50
      vertex -16.7 4.4 0
    endloop
  endfacet
  facet normal 0 0 -1
    outer loop
      vertex -19.8113 3.11127 0
      vertex -16.7 4.4 0
      vertex -19.2913 2.82299 0
    endloop
  endfacet
  facet normal 0 0 1
    outer loop
      vertex -19.5717 0 50
      vertex -18.6993 -3.30926 50
      vertex -18.3308 -2.99596 50
    endloop
  endfacet
  facet normal 0 0 1
    outer loop
      vertex -19.5717 0 50
      vertex -18.3308 2.99596 50
      vertex -18.6993 3.30926 50
    endloop
  endfacet
  facet normal 0 0 1
    outer loop
      vertex -19.5684 -3.81838 50
      vertex -19.1747 -3.57143 50
      vertex -19.2062 -3.49528 50
    endloop
  endfacet
  facet normal -0.382566 -0.923604 0.0244731
    outer loop
      vertex -19.5684 -3.81838 50
      vertex -17.5 -6 0
      vertex -15.75 -5.4 50
    endloop
  endfacet
  facet normal -0 0 1
    outer loop
      vertex -19.5684 -3.81838 50
      vertex -15.75 -5.4 50
      vertex -19.1747 -3.57143 50
    endloop
  endfacet
  facet normal 0 0 1
    outer loop
      vertex -19.5684 3.81838 50
      vertex -19.2062 3.49528 50
      vertex -19.1747 3.57143 50
    endloop
  endfacet
  facet normal -0 0 1
    outer loop
      vertex -19.5684 3.81838 50
      vertex -19.1747 3.57143 50
      vertex -15.75 5.4 50
    endloop
  endfacet
  facet normal -0.382566 0.923604 0.0244731
    outer loop
      vertex -19.5684 3.81838 50
      vertex -15.75 5.4 50
      vertex -17.5 6 0
    endloop
  endfacet
  facet normal 0.923442 0.382008 -0.0364022
    outer loop
      vertex -19.2913 -2.82299 0
      vertex -17.4553 -2.49663 50
      vertex -17.4328 -2.55102 50
    endloop
  endfacet
  facet normal 0.382604 0.923712 -0.0192458
    outer loop
      vertex -19.2913 -2.82299 0
      vertex -17.4328 -2.55102 50
      vertex -16.5172 -3.97203 0
    endloop
  endfacet
  facet normal 0 0 -1
    outer loop
      vertex -19.2913 -2.82299 0
      vertex -16.5172 -3.97203 0
      vertex -16.7 -4.4 0
    endloop
  endfacet
  facet normal 0.923442 -0.382008 -0.0364022
    outer loop
      vertex -19.2913 2.82299 0
      vertex -17.4328 2.55102 50
      vertex -17.4553 2.49663 50
    endloop
  endfacet
  facet normal 0 0 -1
    outer loop
      vertex -19.2913 2.82299 0
      vertex -16.7 4.4 0
      vertex -16.5172 3.97203 0
    endloop
  endfacet
  facet normal 0.382604 -0.923712 -0.0192458
    outer loop
      vertex -19.2913 2.82299 0
      vertex -16.5172 3.97203 0
      vertex -17.4328 2.55102 50
    endloop
  endfacet
  facet normal 0 0 1
    outer loop
      vertex -19.1747 -3.57143 50
      vertex -15.75 -5.4 50
      vertex -15.6794 -5.01923 50
    endloop
  endfacet
  facet normal 0 0 1
    outer loop
      vertex -19.1747 3.57143 50
      vertex -15.6794 5.01923 50
      vertex -15.75 5.4 50
    endloop
  endfacet
  facet normal 0 0 1
    outer loop
      vertex -18.99 0 50
      vertex -18.4894 0 50
      vertex -17.8301 2.80014 50
    endloop
  endfacet
  facet normal -0 0 1
    outer loop
      vertex -18.99 0 50
      vertex -17.8301 -2.80014 50
      vertex -18.4894 0 50
    endloop
  endfacet
  facet normal 0 0 1
    outer loop
      vertex -18.6993 -3.30926 50
      vertex -18.3037 -3.06123 50
      vertex -18.3308 -2.99596 50
    endloop
  endfacet
  facet normal 0 0 1
    outer loop
      vertex -18.6993 -3.30926 50
      vertex -18.2385 -3.08826 50
      vertex -18.3037 -3.06123 50
    endloop
  endfacet
  facet normal -0.382581 -0.923643 0.0226902
    outer loop
      vertex -18.6993 -3.30926 50
      vertex -17.1 -5.2 0
      vertex -15.39 -4.68 50
    endloop
  endfacet
  facet normal -0 0 1
    outer loop
      vertex -18.6993 -3.30926 50
      vertex -15.39 -4.68 50
      vertex -18.2385 -3.08826 50
    endloop
  endfacet
  facet normal 0 0 1
    outer loop
      vertex -18.6993 3.30926 50
      vertex -18.3308 2.99596 50
      vertex -18.3037 3.06123 50
    endloop
  endfacet
  facet normal 0 0 1
    outer loop
      vertex -18.6993 3.30926 50
      vertex -18.3037 3.06123 50
      vertex -18.2385 3.08826 50
    endloop
  endfacet
  facet normal -0 0 1
    outer loop
      vertex -18.6993 3.30926 50
      vertex -18.2385 3.08826 50
      vertex -15.39 4.68 50
    endloop
  endfacet
  facet normal -0.382581 0.923643 0.0226902
    outer loop
      vertex -18.6993 3.30926 50
      vertex -15.39 4.68 50
      vertex -17.1 5.2 0
    endloop
  endfacet
  facet normal 0 0 1
    outer loop
      vertex -18.4894 0 50
      vertex -17.8301 -2.80014 50
      vertex -17.4553 -2.49663 50
    endloop
  endfacet
  facet normal 0 0 1
    outer loop
      vertex -18.4894 0 50
      vertex -17.4553 2.49663 50
      vertex -17.8301 2.80014 50
    endloop
  endfacet
  facet normal 0.382881 0.92356 -0.0209489
    outer loop
      vertex -18.3037 -3.06123 50
      vertex -18.2385 -3.08826 50
      vertex -16.9262 -4.76644 0
    endloop
  endfacet
  facet normal 0.382881 -0.92356 -0.0209489
    outer loop
      vertex -18.3037 3.06123 50
      vertex -16.9262 4.76644 0
      vertex -18.2385 3.08826 50
    endloop
  endfacet
  facet normal 0.38281 0.92359 -0.0209518
    outer loop
      vertex -18.2385 -3.08826 50
      vertex -16.8675 -4.79077 0
      vertex -16.9262 -4.76644 0
    endloop
  endfacet
  facet normal 0 0 1
    outer loop
      vertex -18.2385 -3.08826 50
      vertex -15.39 -4.68 50
      vertex -15.2425 -4.32923 50
    endloop
  endfacet
  facet normal 0.382596 0.923678 -0.0209606
    outer loop
      vertex -18.2385 -3.08826 50
      vertex -15.2425 -4.32923 50
      vertex -16.8675 -4.79077 0
    endloop
  endfacet
  facet normal 0.382596 -0.923678 -0.0209604
    outer loop
      vertex -18.2385 3.08826 50
      vertex -16.9262 4.76644 0
      vertex -15.2425 4.32923 50
    endloop
  endfacet
  facet normal 0 0 1
    outer loop
      vertex -18.2385 3.08826 50
      vertex -15.2425 4.32923 50
      vertex -15.39 4.68 50
    endloop
  endfacet
  facet normal 0 0 1
    outer loop
      vertex -17.8301 -2.80014 50
      vertex -17.4328 -2.55102 50
      vertex -17.4553 -2.49663 50
    endloop
  endfacet
  facet normal 0 0 1
    outer loop
      vertex -17.8301 -2.80014 50
      vertex -17.3784 -2.57355 50
      vertex -17.4328 -2.55102 50
    endloop
  endfacet
  facet normal -0.382606 -0.923675 0.0209074
    outer loop
      vertex -17.8301 -2.80014 50
      vertex -16.7 -4.4 0
      vertex -15.03 -3.96 50
    endloop
  endfacet
  facet normal -0 0 1
    outer loop
      vertex -17.8301 -2.80014 50
      vertex -15.03 -3.96 50
      vertex -17.3784 -2.57355 50
    endloop
  endfacet
  facet normal 0 0 1
    outer loop
      vertex -17.8301 2.80014 50
      vertex -17.4553 2.49663 50
      vertex -17.4328 2.55102 50
    endloop
  endfacet
  facet normal 0 0 1
    outer loop
      vertex -17.8301 2.80014 50
      vertex -17.4328 2.55102 50
      vertex -17.3784 2.57355 50
    endloop
  endfacet
  facet normal -0 0 1
    outer loop
      vertex -17.8301 2.80014 50
      vertex -17.3784 2.57355 50
      vertex -15.03 3.96 50
    endloop
  endfacet
  facet normal -0.382606 0.923675 0.0209074
    outer loop
      vertex -17.8301 2.80014 50
      vertex -15.03 3.96 50
      vertex -16.7 4.4 0
    endloop
  endfacet
  facet normal 0 0 -1
    outer loop
      vertex -17.5 -6 0
      vertex -17.2667 -5.58923 0
      vertex 17.5 -6 0
    endloop
  endfacet
  facet normal 0 -0.999928 0.0119991
    outer loop
      vertex -17.5 -6 0
      vertex 15.75 -5.4 50
      vertex -15.75 -5.4 50
    endloop
  endfacet
  facet normal 0 -0.999928 0.0119991
    outer loop
      vertex -17.5 -6 0
      vertex 17.5 -6 0
      vertex 15.75 -5.4 50
    endloop
  endfacet
  facet normal -0 0.999928 0.0119991
    outer loop
      vertex -17.5 6 0
      vertex -15.75 5.4 50
      vertex 17.5 6 0
    endloop
  endfacet
  facet normal 0 0 -1
    outer loop
      vertex -17.5 6 0
      vertex 17.5 6 0
      vertex -17.2667 5.58923 0
    endloop
  endfacet
  facet normal 0.382566 0.923728 -0.019247
    outer loop
      vertex -17.4328 -2.55102 50
      vertex -17.3784 -2.57355 50
      vertex -16.5172 -3.97203 0
    endloop
  endfacet
  facet normal 0.382566 -0.923728 -0.019247
    outer loop
      vertex -17.4328 2.55102 50
      vertex -16.5172 3.97203 0
      vertex -17.3784 2.57355 50
    endloop
  endfacet
  facet normal 0.383015 0.923542 -0.019234
    outer loop
      vertex -17.3784 -2.57355 50
      vertex -16.4683 -3.99231 0
      vertex -16.5172 -3.97203 0
    endloop
  endfacet
  facet normal 0 0 1
    outer loop
      vertex -17.3784 -2.57355 50
      vertex -15.03 -3.96 50
      vertex -14.8817 -3.60769 50
    endloop
  endfacet
  facet normal 0.382604 0.923712 -0.0192464
    outer loop
      vertex -17.3784 -2.57355 50
      vertex -14.8817 -3.60769 50
      vertex -16.4683 -3.99231 0
    endloop
  endfacet
  facet normal 0.383015 -0.923542 -0.019234
    outer loop
      vertex -17.3784 2.57355 50
      vertex -16.5172 3.97203 0
      vertex -16.4683 3.99231 0
    endloop
  endfacet
  facet normal 0.382604 -0.923712 -0.0192464
    outer loop
      vertex -17.3784 2.57355 50
      vertex -16.4683 3.99231 0
      vertex -14.8817 3.60769 50
    endloop
  endfacet
  facet normal 0 0 1
    outer loop
      vertex -17.3784 2.57355 50
      vertex -14.8817 3.60769 50
      vertex -15.03 3.96 50
    endloop
  endfacet
  facet normal 0.382775 0.923563 -0.0226802
    outer loop
      vertex -17.2667 -5.58923 0
      vertex -15.6794 -5.01923 50
      vertex -15.6033 -5.05077 50
    endloop
  endfacet
  facet normal 0 0.999942 -0.0107686
    outer loop
      vertex -17.2667 -5.58923 0
      vertex -15.6033 -5.05077 50
      vertex 17.2667 -5.58923 0
    endloop
  endfacet
  facet normal 0 0 -1
    outer loop
      vertex -17.2667 -5.58923 0
      vertex 17.2667 -5.58923 0
      vertex 17.5 -6 0
    endloop
  endfacet
  facet normal 0.382775 -0.923563 -0.0226802
    outer loop
      vertex -17.2667 5.58923 0
      vertex -15.6033 5.05077 50
      vertex -15.6794 5.01923 50
    endloop
  endfacet
  facet normal 0 -0.999942 -0.0107686
    outer loop
      vertex -17.2667 5.58923 0
      vertex 15.6033 5.05077 50
      vertex -15.6033 5.05077 50
    endloop
  endfacet
  facet normal 0 -0.999942 -0.0107686
    outer loop
      vertex -17.2667 5.58923 0
      vertex 17.2667 5.58923 0
      vertex 15.6033 5.05077 50
    endloop
  endfacet
  facet normal 0 0 -1
    outer loop
      vertex -17.2667 5.58923 0
      vertex 17.5 6 0
      vertex 17.2667 5.58923 0
    endloop
  endfacet
  facet normal 0 0 -1
    outer loop
      vertex -17.1 -5.2 0
      vertex -16.9262 -4.76644 0
      vertex -16.8675 -4.79077 0
    endloop
  endfacet
  facet normal 0 0 -1
    outer loop
      vertex -17.1 -5.2 0
      vertex -16.8675 -4.79077 0
      vertex 17.1 -5.2 0
    endloop
  endfacet
  facet normal 0 -0.999946 0.0103994
    outer loop
      vertex -17.1 -5.2 0
      vertex 15.39 -4.68 50
      vertex -15.39 -4.68 50
    endloop
  endfacet
  facet normal 0 -0.999946 0.0103994
    outer loop
      vertex -17.1 -5.2 0
      vertex 17.1 -5.2 0
      vertex 15.39 -4.68 50
    endloop
  endfacet
  facet normal 0 0 -1
    outer loop
      vertex -17.1 5.2 0
      vertex -16.8675 4.79077 0
      vertex -16.9262 4.76644 0
    endloop
  endfacet
  facet normal -0 0.999946 0.0103994
    outer loop
      vertex -17.1 5.2 0
      vertex -15.39 4.68 50
      vertex 17.1 5.2 0
    endloop
  endfacet
  facet normal 0 0 -1
    outer loop
      vertex -17.1 5.2 0
      vertex 17.1 5.2 0
      vertex -16.8675 4.79077 0
    endloop
  endfacet
  facet normal 0.38281 -0.923589 -0.0209668
    outer loop
      vertex -16.9262 4.76644 0
      vertex -16.8675 4.79077 0
      vertex -15.2425 4.32923 50
    endloop
  endfacet
  facet normal 0 0.999957 -0.00923041
    outer loop
      vertex -16.8675 -4.79077 0
      vertex -15.2425 -4.32923 50
      vertex 16.8675 -4.79077 0
    endloop
  endfacet
  facet normal 0 0 -1
    outer loop
      vertex -16.8675 -4.79077 0
      vertex 16.8675 -4.79077 0
      vertex 17.1 -5.2 0
    endloop
  endfacet
  facet normal 0 -0.999957 -0.00923041
    outer loop
      vertex -16.8675 4.79077 0
      vertex 15.2425 4.32923 50
      vertex -15.2425 4.32923 50
    endloop
  endfacet
  facet normal 0 -0.999957 -0.00923041
    outer loop
      vertex -16.8675 4.79077 0
      vertex 16.8675 4.79077 0
      vertex 15.2425 4.32923 50
    endloop
  endfacet
  facet normal 0 0 -1
    outer loop
      vertex -16.8675 4.79077 0
      vertex 17.1 5.2 0
      vertex 16.8675 4.79077 0
    endloop
  endfacet
  facet normal 0 0 -1
    outer loop
      vertex -16.7 -4.4 0
      vertex -16.5172 -3.97203 0
      vertex -16.4683 -3.99231 0
    endloop
  endfacet
  facet normal 0 0 -1
    outer loop
      vertex -16.7 -4.4 0
      vertex -16.4683 -3.99231 0
      vertex 16.7 -4.4 0
    endloop
  endfacet
  facet normal 0 -0.999961 0.00879966
    outer loop
      vertex -16.7 -4.4 0
      vertex 15.03 -3.96 50
      vertex -15.03 -3.96 50
    endloop
  endfacet
  facet normal 0 -0.999961 0.00879966
    outer loop
      vertex -16.7 -4.4 0
      vertex 16.7 -4.4 0
      vertex 15.03 -3.96 50
    endloop
  endfacet
  facet normal 0 0 -1
    outer loop
      vertex -16.7 4.4 0
      vertex -16.4683 3.99231 0
      vertex -16.5172 3.97203 0
    endloop
  endfacet
  facet normal -0 0.999961 0.00879966
    outer loop
      vertex -16.7 4.4 0
      vertex -15.03 3.96 50
      vertex 16.7 4.4 0
    endloop
  endfacet
  facet normal 0 0 -1
    outer loop
      vertex -16.7 4.4 0
      vertex 16.7 4.4 0
      vertex -16.4683 3.99231 0
    endloop
  endfacet
  facet normal 0 0.99997 -0.00769217
    outer loop
      vertex -16.4683 -3.99231 0
      vertex -14.8817 -3.60769 50
      vertex 16.4683 -3.99231 0
    endloop
  endfacet
  facet normal 0 0 -1
    outer loop
      vertex -16.4683 -3.99231 0
      vertex 16.4683 -3.99231 0
      vertex 16.7 -4.4 0
    endloop
  endfacet
  facet normal 0 -0.99997 -0.00769217
    outer loop
      vertex -16.4683 3.99231 0
      vertex 14.8817 3.60769 50
      vertex -14.8817 3.60769 50
    endloop
  endfacet
  facet normal 0 -0.99997 -0.00769217
    outer loop
      vertex -16.4683 3.99231 0
      vertex 16.4683 3.99231 0
      vertex 14.8817 3.60769 50
    endloop
  endfacet
  facet normal 0 0 -1
    outer loop
      vertex -16.4683 3.99231 0
      vertex 16.7 4.4 0
      vertex 16.4683 3.99231 0
    endloop
  endfacet
  facet normal 0 0 1
    outer loop
      vertex -15.75 -5.4 50
      vertex -15.6033 -5.05077 50
      vertex -15.6794 -5.01923 50
    endloop
  endfacet
  facet normal 0 0 1
    outer loop
      vertex -15.75 -5.4 50
      vertex 15.75 -5.4 50
      vertex -15.6033 -5.05077 50
    endloop
  endfacet
  facet normal 0 0 1
    outer loop
      vertex -15.75 5.4 50
      vertex -15.6794 5.01923 50
      vertex -15.6033 5.05077 50
    endloop
  endfacet
  facet normal -0 0 1
    outer loop
      vertex -15.75 5.4 50
      vertex -15.6033 5.05077 50
      vertex 15.75 5.4 50
    endloop
  endfacet
  facet normal -0 0.999928 0.0119991
    outer loop
      vertex -15.75 5.4 50
      vertex 15.75 5.4 50
      vertex 17.5 6 0
    endloop
  endfacet
  facet normal 0 0.999942 -0.0107686
    outer loop
      vertex -15.6033 -5.05077 50
      vertex 15.6033 -5.05077 50
      vertex 17.2667 -5.58923 0
    endloop
  endfacet
  facet normal -0 0 1
    outer loop
      vertex -15.6033 -5.05077 50
      vertex 15.75 -5.4 50
      vertex 15.6033 -5.05077 50
    endloop
  endfacet
  facet normal 0 0 1
    outer loop
      vertex -15.6033 5.05077 50
      vertex 15.6033 5.05077 50
      vertex 15.75 5.4 50
    endloop
  endfacet
  facet normal 0 0 1
    outer loop
      vertex -15.39 -4.68 50
      vertex 15.39 -4.68 50
      vertex -15.2425 -4.32923 50
    endloop
  endfacet
  facet normal -0 0 1
    outer loop
      vertex -15.39 4.68 50
      vertex -15.2425 4.32923 50
      vertex 15.39 4.68 50
    endloop
  endfacet
  facet normal -0 0.999946 0.0103994
    outer loop
      vertex -15.39 4.68 50
      vertex 15.39 4.68 50
      vertex 17.1 5.2 0
    endloop
  endfacet
  facet normal 0 0.999957 -0.00923041
    outer loop
      vertex -15.2425 -4.32923 50
      vertex 15.2425 -4.32923 50
      vertex 16.8675 -4.79077 0
    endloop
  endfacet
  facet normal -0 0 1
    outer loop
      vertex -15.2425 -4.32923 50
      vertex 15.39 -4.68 50
      vertex 15.2425 -4.32923 50
    endloop
  endfacet
  facet normal 0 0 1
    outer loop
      vertex -15.2425 4.32923 50
      vertex 15.2425 4.32923 50
      vertex 15.39 4.68 50
    endloop
  endfacet
  facet normal 0 0 1
    outer loop
      vertex -15.03 -3.96 50
      vertex 15.03 -3.96 50
      vertex -14.8817 -3.60769 50
    endloop
  endfacet
  facet normal -0 0 1
    outer loop
      vertex -15.03 3.96 50
      vertex -14.8817 3.60769 50
      vertex 15.03 3.96 50
    endloop
  endfacet
  facet normal -0 0.999961 0.00879966
    outer loop
      vertex -15.03 3.96 50
      vertex 15.03 3.96 50
      vertex 16.7 4.4 0
    endloop
  endfacet
  facet normal 0 0.99997 -0.00769217
    outer loop
      vertex -14.8817 -3.60769 50
      vertex 14.8817 -3.60769 50
      vertex 16.4683 -3.99231 0
    endloop
  endfacet
  facet normal -0 0 1
    outer loop
      vertex -14.8817 -3.60769 50
      vertex 15.03 -3.96 50
      vertex 14.8817 -3.60769 50
    endloop
  endfacet
  facet normal 0 0 1
    outer loop
      vertex -14.8817 3.60769 50
      vertex 14.8817 3.60769 50
      vertex 15.03 3.96 50
    endloop
  endfacet
  facet normal -0 0 1
    outer loop
      vertex 14.8817 -3.60769 50
      vertex 15.03 -3.96 50
      vertex 17.3784 -2.57355 50
    endloop
  endfacet
  facet normal -0.382604 0.923712 -0.0192464
    outer loop
      vertex 14.8817 -3.60769 50
      vertex 17.3784 -2.57355 50
      vertex 16.4683 -3.99231 0
    endloop
  endfacet
  facet normal -0.382604 -0.923712 -0.0192464
    outer loop
      vertex 14.8817 3.60769 50
      vertex 16.4683 3.99231 0
      vertex 17.3784 2.57355 50
    endloop
  endfacet
  facet normal -0 0 1
    outer loop
      vertex 14.8817 3.60769 50
      vertex 17.3784 2.57355 50
      vertex 15.03 3.96 50
    endloop
  endfacet
  facet normal 0.382606 -0.923675 0.0209074
    outer loop
      vertex 15.03 -3.96 50
      vertex 16.7 -4.4 0
      vertex 17.8301 -2.80014 50
    endloop
  endfacet
  facet normal 0 0 1
    outer loop
      vertex 15.03 -3.96 50
      vertex 17.8301 -2.80014 50
      vertex 17.3784 -2.57355 50
    endloop
  endfacet
  facet normal 0 0 1
    outer loop
      vertex 15.03 3.96 50
      vertex 17.3784 2.57355 50
      vertex 17.8301 2.80014 50
    endloop
  endfacet
  facet normal 0.382606 0.923675 0.0209074
    outer loop
      vertex 15.03 3.96 50
      vertex 17.8301 2.80014 50
      vertex 16.7 4.4 0
    endloop
  endfacet
  facet normal -0 0 1
    outer loop
      vertex 15.2425 -4.32923 50
      vertex 15.39 -4.68 50
      vertex 18.2385 -3.08826 50
    endloop
  endfacet
  facet normal -0.38281 0.923589 -0.0209668
    outer loop
      vertex 15.2425 -4.32923 50
      vertex 16.9262 -4.76644 0
      vertex 16.8675 -4.79077 0
    endloop
  endfacet
  facet normal -0.382596 0.923678 -0.0209604
    outer loop
      vertex 15.2425 -4.32923 50
      vertex 18.2385 -3.08826 50
      vertex 16.9262 -4.76644 0
    endloop
  endfacet
  facet normal -0.382596 -0.923678 -0.0209606
    outer loop
      vertex 15.2425 4.32923 50
      vertex 16.8675 4.79077 0
      vertex 18.2385 3.08826 50
    endloop
  endfacet
  facet normal -0 0 1
    outer loop
      vertex 15.2425 4.32923 50
      vertex 18.2385 3.08826 50
      vertex 15.39 4.68 50
    endloop
  endfacet
  facet normal 0.382581 -0.923643 0.0226902
    outer loop
      vertex 15.39 -4.68 50
      vertex 17.1 -5.2 0
      vertex 18.6993 -3.30926 50
    endloop
  endfacet
  facet normal 0 0 1
    outer loop
      vertex 15.39 -4.68 50
      vertex 18.6993 -3.30926 50
      vertex 18.2385 -3.08826 50
    endloop
  endfacet
  facet normal 0 0 1
    outer loop
      vertex 15.39 4.68 50
      vertex 18.2385 3.08826 50
      vertex 18.6993 3.30926 50
    endloop
  endfacet
  facet normal 0.382581 0.923643 0.0226902
    outer loop
      vertex 15.39 4.68 50
      vertex 18.6993 3.30926 50
      vertex 17.1 5.2 0
    endloop
  endfacet
  facet normal -0.382775 0.923563 -0.0226802
    outer loop
      vertex 15.6033 -5.05077 50
      vertex 15.6794 -5.01923 50
      vertex 17.2667 -5.58923 0
    endloop
  endfacet
  facet normal -0 0 1
    outer loop
      vertex 15.6033 -5.05077 50
      vertex 15.75 -5.4 50
      vertex 15.6794 -5.01923 50
    endloop
  endfacet
  facet normal -0 0 1
    outer loop
      vertex 15.6033 5.05077 50
      vertex 15.6794 5.01923 50
      vertex 15.75 5.4 50
    endloop
  endfacet
  facet normal -0.382775 -0.923563 -0.0226802
    outer loop
      vertex 15.6033 5.05077 50
      vertex 17.2667 5.58923 0
      vertex 15.6794 5.01923 50
    endloop
  endfacet
  facet normal -0 0 1
    outer loop
      vertex 15.6794 -5.01923 50
      vertex 15.75 -5.4 50
      vertex 19.1747 -3.57143 50
    endloop
  endfacet
  facet normal -0.382585 0.923642 -0.0226754
    outer loop
      vertex 15.6794 -5.01923 50
      vertex 19.1747 -3.57143 50
      vertex 21.1504 -3.98057 0
    endloop
  endfacet
  facet normal -0.382581 0.923644 -0.0226749
    outer loop
      vertex 15.6794 -5.01923 50
      vertex 21.1504 -3.98057 0
      vertex 17.2667 -5.58923 0
    endloop
  endfacet
  facet normal -0.382581 -0.923644 -0.0226749
    outer loop
      vertex 15.6794 5.01923 50
      vertex 17.2667 5.58923 0
      vertex 21.1504 3.98057 0
    endloop
  endfacet
  facet normal -0 0 1
    outer loop
      vertex 15.6794 5.01923 50
      vertex 19.1747 3.57143 50
      vertex 15.75 5.4 50
    endloop
  endfacet
  facet normal -0.382585 -0.923642 -0.0226754
    outer loop
      vertex 15.6794 5.01923 50
      vertex 21.1504 3.98057 0
      vertex 19.1747 3.57143 50
    endloop
  endfacet
  facet normal 0.382566 -0.923604 0.0244731
    outer loop
      vertex 15.75 -5.4 50
      vertex 17.5 -6 0
      vertex 19.5684 -3.81838 50
    endloop
  endfacet
  facet normal 0 0 1
    outer loop
      vertex 15.75 -5.4 50
      vertex 19.5684 -3.81838 50
      vertex 19.1747 -3.57143 50
    endloop
  endfacet
  facet normal 0 0 1
    outer loop
      vertex 15.75 5.4 50
      vertex 19.1747 3.57143 50
      vertex 19.5684 3.81838 50
    endloop
  endfacet
  facet normal 0.382566 0.923604 0.0244731
    outer loop
      vertex 15.75 5.4 50
      vertex 19.5684 3.81838 50
      vertex 17.5 6 0
    endloop
  endfacet
  facet normal 0 0 -1
    outer loop
      vertex 16.4683 -3.99231 0
      vertex 16.5172 -3.97203 0
      vertex 16.7 -4.4 0
    endloop
  endfacet
  facet normal -0.383015 0.923542 -0.019234
    outer loop
      vertex 16.4683 -3.99231 0
      vertex 17.3784 -2.57355 50
      vertex 16.5172 -3.97203 0
    endloop
  endfacet
  facet normal -0.383015 -0.923542 -0.019234
    outer loop
      vertex 16.4683 3.99231 0
      vertex 16.5172 3.97203 0
      vertex 17.3784 2.57355 50
    endloop
  endfacet
  facet normal 0 0 -1
    outer loop
      vertex 16.4683 3.99231 0
      vertex 16.7 4.4 0
      vertex 16.5172 3.97203 0
    endloop
  endfacet
  facet normal -0.382566 0.923728 -0.019247
    outer loop
      vertex 16.5172 -3.97203 0
      vertex 17.3784 -2.57355 50
      vertex 17.4328 -2.55102 50
    endloop
  endfacet
  facet normal -0.382604 0.923712 -0.0192458
    outer loop
      vertex 16.5172 -3.97203 0
      vertex 17.4328 -2.55102 50
      vertex 19.2913 -2.82299 0
    endloop
  endfacet
  facet normal 0 0 -1
    outer loop
      vertex 16.5172 -3.97203 0
      vertex 19.2913 -2.82299 0
      vertex 16.7 -4.4 0
    endloop
  endfacet
  facet normal 0 0 -1
    outer loop
      vertex 16.5172 3.97203 0
      vertex 16.7 4.4 0
      vertex 19.2913 2.82299 0
    endloop
  endfacet
  facet normal -0.382566 -0.923728 -0.019247
    outer loop
      vertex 16.5172 3.97203 0
      vertex 17.4328 2.55102 50
      vertex 17.3784 2.57355 50
    endloop
  endfacet
  facet normal -0.382604 -0.923712 -0.0192458
    outer loop
      vertex 16.5172 3.97203 0
      vertex 19.2913 2.82299 0
      vertex 17.4328 2.55102 50
    endloop
  endfacet
  facet normal 0 0 -1
    outer loop
      vertex 16.7 -4.4 0
      vertex 19.2913 -2.82299 0
      vertex 19.8113 -3.11127 0
    endloop
  endfacet
  facet normal 0.382597 -0.923679 0.0209077
    outer loop
      vertex 16.7 -4.4 0
      vertex 19.8113 -3.11127 0
      vertex 17.8301 -2.80014 50
    endloop
  endfacet
  facet normal 0.382597 0.923679 0.0209077
    outer loop
      vertex 16.7 4.4 0
      vertex 17.8301 2.80014 50
      vertex 19.8113 3.11127 0
    endloop
  endfacet
  facet normal 0 0 -1
    outer loop
      vertex 16.7 4.4 0
      vertex 19.8113 3.11127 0
      vertex 19.2913 2.82299 0
    endloop
  endfacet
  facet normal 0 0 -1
    outer loop
      vertex 16.8675 -4.79077 0
      vertex 16.9262 -4.76644 0
      vertex 17.1 -5.2 0
    endloop
  endfacet
  facet normal -0.38281 -0.92359 -0.0209518
    outer loop
      vertex 16.8675 4.79077 0
      vertex 16.9262 4.76644 0
      vertex 18.2385 3.08826 50
    endloop
  endfacet
  facet normal 0 0 -1
    outer loop
      vertex 16.8675 4.79077 0
      vertex 17.1 5.2 0
      vertex 16.9262 4.76644 0
    endloop
  endfacet
  facet normal -0.382881 0.92356 -0.0209489
    outer loop
      vertex 16.9262 -4.76644 0
      vertex 18.2385 -3.08826 50
      vertex 18.3037 -3.06123 50
    endloop
  endfacet
  facet normal -0.382596 0.923678 -0.0209608
    outer loop
      vertex 16.9262 -4.76644 0
      vertex 18.3037 -3.06123 50
      vertex 20.2551 -3.38758 0
    endloop
  endfacet
  facet normal 0 0 -1
    outer loop
      vertex 16.9262 -4.76644 0
      vertex 20.2551 -3.38758 0
      vertex 17.1 -5.2 0
    endloop
  endfacet
  facet normal 0 0 -1
    outer loop
      vertex 16.9262 4.76644 0
      vertex 17.1 5.2 0
      vertex 20.2551 3.38758 0
    endloop
  endfacet
  facet normal -0.382881 -0.92356 -0.0209489
    outer loop
      vertex 16.9262 4.76644 0
      vertex 18.3037 3.06123 50
      vertex 18.2385 3.08826 50
    endloop
  endfacet
  facet normal -0.382596 -0.923678 -0.0209608
    outer loop
      vertex 16.9262 4.76644 0
      vertex 20.2551 3.38758 0
      vertex 18.3037 3.06123 50
    endloop
  endfacet
  facet normal 0 0 -1
    outer loop
      vertex 17.1 -5.2 0
      vertex 20.2551 -3.38758 0
      vertex 20.777 -3.67696 0
    endloop
  endfacet
  facet normal 0.38258 -0.923644 0.0226902
    outer loop
      vertex 17.1 -5.2 0
      vertex 20.777 -3.67696 0
      vertex 18.6993 -3.30926 50
    endloop
  endfacet
  facet normal 0.38258 0.923644 0.0226902
    outer loop
      vertex 17.1 5.2 0
      vertex 18.6993 3.30926 50
      vertex 20.777 3.67696 0
    endloop
  endfacet
  facet normal 0 0 -1
    outer loop
      vertex 17.1 5.2 0
      vertex 20.777 3.67696 0
      vertex 20.2551 3.38758 0
    endloop
  endfacet
  facet normal 0 0 -1
    outer loop
      vertex 17.2667 -5.58923 0
      vertex 21.1504 -3.98057 0
      vertex 17.5 -6 0
    endloop
  endfacet
  facet normal 0 0 -1
    outer loop
      vertex 17.2667 5.58923 0
      vertex 17.5 6 0
      vertex 21.1504 3.98057 0
    endloop
  endfacet
  facet normal -0 0 1
    outer loop
      vertex 17.3784 -2.57355 50
      vertex 17.8301 -2.80014 50
      vertex 17.4328 -2.55102 50
    endloop
  endfacet
  facet normal -0 0 1
    outer loop
      vertex 17.3784 2.57355 50
      vertex 17.4328 2.55102 50
      vertex 17.8301 2.80014 50
    endloop
  endfacet
  facet normal -0.923442 0.382008 -0.0364022
    outer loop
      vertex 17.4328 -2.55102 50
      vertex 17.4553 -2.49663 50
      vertex 19.2913 -2.82299 0
    endloop
  endfacet
  facet normal -0 0 1
    outer loop
      vertex 17.4328 -2.55102 50
      vertex 17.8301 -2.80014 50
      vertex 17.4553 -2.49663 50
    endloop
  endfacet
  facet normal -0 0 1
    outer loop
      vertex 17.4328 2.55102 50
      vertex 17.4553 2.49663 50
      vertex 17.8301 2.80014 50
    endloop
  endfacet
  facet normal -0.923442 -0.382008 -0.0364022
    outer loop
      vertex 17.4328 2.55102 50
      vertex 19.2913 2.82299 0
      vertex 17.4553 2.49663 50
    endloop
  endfacet
  facet normal -0 0 1
    outer loop
      vertex 17.4553 -2.49663 50
      vertex 17.8301 -2.80014 50
      vertex 18.4894 0 50
    endloop
  endfacet
  facet normal -0.923272 0.382418 -0.0363987
    outer loop
      vertex 17.4553 -2.49663 50
      vertex 18.4894 0 50
      vertex 20.4403 -0.0489535 0
    endloop
  endfacet
  facet normal -0.923272 0.382417 -0.0363987
    outer loop
      vertex 17.4553 -2.49663 50
      vertex 20.4403 -0.0489535 0
      vertex 19.2913 -2.82299 0
    endloop
  endfacet
  facet normal -0 0 1
    outer loop
      vertex 17.4553 2.49663 50
      vertex 18.4894 0 50
      vertex 17.8301 2.80014 50
    endloop
  endfacet
  facet normal -0.923272 -0.382417 -0.0363987
    outer loop
      vertex 17.4553 2.49663 50
      vertex 19.2913 2.82299 0
      vertex 20.4403 0.0489535 0
    endloop
  endfacet
  facet normal -0.923272 -0.382418 -0.0363987
    outer loop
      vertex 17.4553 2.49663 50
      vertex 20.4403 0.0489535 0
      vertex 18.4894 0 50
    endloop
  endfacet
  facet normal 0 0 -1
    outer loop
      vertex 17.5 -6 0
      vertex 21.1504 -3.98057 0
      vertex 21.7426 -4.24264 0
    endloop
  endfacet
  facet normal 0.382572 -0.923601 0.0244727
    outer loop
      vertex 17.5 -6 0
      vertex 21.7426 -4.24264 0
      vertex 19.5684 -3.81838 50
    endloop
  endfacet
  facet normal 0.382572 0.923601 0.0244727
    outer loop
      vertex 17.5 6 0
      vertex 19.5684 3.81838 50
      vertex 21.7426 4.24264 0
    endloop
  endfacet
  facet normal 0 0 -1
    outer loop
      vertex 17.5 6 0
      vertex 21.7426 4.24264 0
      vertex 21.1504 3.98057 0
    endloop
  endfacet
  facet normal 0 0 1
    outer loop
      vertex 17.8301 -2.80014 50
      vertex 18.99 0 50
      vertex 18.4894 0 50
    endloop
  endfacet
  facet normal 0.923173 -0.382405 0.0389594
    outer loop
      vertex 17.8301 -2.80014 50
      vertex 19.8113 -3.11127 0
      vertex 18.99 0 50
    endloop
  endfacet
  facet normal 0 0 1
    outer loop
      vertex 17.8301 2.80014 50
      vertex 18.4894 0 50
      vertex 18.99 0 50
    endloop
  endfacet
  facet normal 0.923173 0.382405 0.0389594
    outer loop
      vertex 17.8301 2.80014 50
      vertex 18.99 0 50
      vertex 19.8113 3.11127 0
    endloop
  endfacet
  facet normal -0 0 1
    outer loop
      vertex 18.2385 -3.08826 50
      vertex 18.6993 -3.30926 50
      vertex 18.3037 -3.06123 50
    endloop
  endfacet
  facet normal -0 0 1
    outer loop
      vertex 18.2385 3.08826 50
      vertex 18.3037 3.06123 50
      vertex 18.6993 3.30926 50
    endloop
  endfacet
  facet normal -0.922872 0.383175 -0.0385188
    outer loop
      vertex 18.3037 -3.06123 50
      vertex 18.3308 -2.99596 50
      vertex 20.2551 -3.38758 0
    endloop
  endfacet
  facet normal -0 0 1
    outer loop
      vertex 18.3037 -3.06123 50
      vertex 18.6993 -3.30926 50
      vertex 18.3308 -2.99596 50
    endloop
  endfacet
  facet normal -0 0 1
    outer loop
      vertex 18.3037 3.06123 50
      vertex 18.3308 2.99596 50
      vertex 18.6993 3.30926 50
    endloop
  endfacet
  facet normal -0.922872 -0.383175 -0.0385188
    outer loop
      vertex 18.3037 3.06123 50
      vertex 20.2551 3.38758 0
      vertex 18.3308 2.99596 50
    endloop
  endfacet
  facet normal -0 0 1
    outer loop
      vertex 18.3308 -2.99596 50
      vertex 18.6993 -3.30926 50
      vertex 19.5717 0 50
    endloop
  endfacet
  facet normal -0.923201 0.382382 -0.0385258
    outer loop
      vertex 18.3308 -2.99596 50
      vertex 19.5717 0 50
      vertex 21.6339 -0.0587442 0
    endloop
  endfacet
  facet normal -0.923198 0.382388 -0.0385252
    outer loop
      vertex 18.3308 -2.99596 50
      vertex 21.6339 -0.0587442 0
      vertex 20.2551 -3.38758 0
    endloop
  endfacet
  facet normal -0 0 1
    outer loop
      vertex 18.3308 2.99596 50
      vertex 19.5717 0 50
      vertex 18.6993 3.30926 50
    endloop
  endfacet
  facet normal -0.923198 -0.382388 -0.0385252
    outer loop
      vertex 18.3308 2.99596 50
      vertex 20.2551 3.38758 0
      vertex 21.6339 0.0587442 0
    endloop
  endfacet
  facet normal -0.923201 -0.382382 -0.0385258
    outer loop
      vertex 18.3308 2.99596 50
      vertex 21.6339 0.0587442 0
      vertex 19.5717 0 50
    endloop
  endfacet
  facet normal -0.923115 -0.382797 -0.0363929
    outer loop
      vertex 18.4894 0 50
      vertex 20.4403 0.0489535 0
      vertex 20.4606 0 0
    endloop
  endfacet
  facet normal -0.923115 0.382797 -0.0363929
    outer loop
      vertex 18.4894 0 50
      vertex 20.4606 0 0
      vertex 20.4403 -0.0489535 0
    endloop
  endfacet
  facet normal 0 0 1
    outer loop
      vertex 18.6993 -3.30926 50
      vertex 20.07 0 50
      vertex 19.5717 0 50
    endloop
  endfacet
  facet normal 0.9231 -0.382349 0.0411703
    outer loop
      vertex 18.6993 -3.30926 50
      vertex 20.777 -3.67696 0
      vertex 20.07 0 50
    endloop
  endfacet
  facet normal 0 0 1
    outer loop
      vertex 18.6993 3.30926 50
      vertex 19.5717 0 50
      vertex 20.07 0 50
    endloop
  endfacet
  facet normal 0.9231 0.382349 0.0411703
    outer loop
      vertex 18.6993 3.30926 50
      vertex 20.07 0 50
      vertex 20.777 3.67696 0
    endloop
  endfacet
  facet normal 0.923181 -0.382385 0.0389583
    outer loop
      vertex 18.99 0 50
      vertex 19.8113 -3.11127 0
      vertex 21.1 0 0
    endloop
  endfacet
  facet normal 0.923181 0.382385 0.0389583
    outer loop
      vertex 18.99 0 50
      vertex 21.1 0 0
      vertex 19.8113 3.11127 0
    endloop
  endfacet
  facet normal -0.923297 0.381929 -0.0406565
    outer loop
      vertex 19.1747 -3.57143 50
      vertex 19.2062 -3.49528 50
      vertex 21.2189 -3.95218 0
    endloop
  endfacet
  facet normal -0 0 1
    outer loop
      vertex 19.1747 -3.57143 50
      vertex 19.5684 -3.81838 50
      vertex 19.2062 -3.49528 50
    endloop
  endfacet
  facet normal -0.382773 0.923564 -0.0226822
    outer loop
      vertex 19.1747 -3.57143 50
      vertex 21.2189 -3.95218 0
      vertex 21.1504 -3.98057 0
    endloop
  endfacet
  facet normal -0 0 1
    outer loop
      vertex 19.1747 3.57143 50
      vertex 19.2062 3.49528 50
      vertex 19.5684 3.81838 50
    endloop
  endfacet
  facet normal -0.382773 -0.923564 -0.0226822
    outer loop
      vertex 19.1747 3.57143 50
      vertex 21.1504 3.98057 0
      vertex 21.2189 3.95218 0
    endloop
  endfacet
  facet normal -0.923297 -0.381929 -0.0406565
    outer loop
      vertex 19.1747 3.57143 50
      vertex 21.2189 3.95218 0
      vertex 19.2062 3.49528 50
    endloop
  endfacet
  facet normal -0 0 1
    outer loop
      vertex 19.2062 -3.49528 50
      vertex 19.5684 -3.81838 50
      vertex 20.654 0 50
    endloop
  endfacet
  facet normal -0.923115 0.382369 -0.0406538
    outer loop
      vertex 19.2062 -3.49528 50
      vertex 20.654 0 50
      vertex 22.8276 -0.068535 0
    endloop
  endfacet
  facet normal -0.923112 0.382376 -0.0406531
    outer loop
      vertex 19.2062 -3.49528 50
      vertex 22.8276 -0.068535 0
      vertex 21.2189 -3.95218 0
    endloop
  endfacet
  facet normal -0 0 1
    outer loop
      vertex 19.2062 3.49528 50
      vertex 20.654 0 50
      vertex 19.5684 3.81838 50
    endloop
  endfacet
  facet normal -0.923112 -0.382376 -0.0406531
    outer loop
      vertex 19.2062 3.49528 50
      vertex 21.2189 3.95218 0
      vertex 22.8276 0.068535 0
    endloop
  endfacet
  facet normal -0.923115 -0.382369 -0.0406538
    outer loop
      vertex 19.2062 3.49528 50
      vertex 22.8276 0.068535 0
      vertex 20.654 0 50
    endloop
  endfacet
  facet normal 0 0 -1
    outer loop
      vertex 19.2913 -2.82299 0
      vertex 20.4403 -0.0489535 0
      vertex 19.8113 -3.11127 0
    endloop
  endfacet
  facet normal 0 0 -1
    outer loop
      vertex 19.2913 2.82299 0
      vertex 19.8113 3.11127 0
      vertex 20.4403 0.0489535 0
    endloop
  endfacet
  facet normal 0 0 1
    outer loop
      vertex 19.5684 -3.81838 50
      vertex 21.15 0 50
      vertex 20.654 0 50
    endloop
  endfacet
  facet normal 0.923007 -0.382331 0.0433802
    outer loop
      vertex 19.5684 -3.81838 50
      vertex 21.7426 -4.24264 0
      vertex 23.5 0 0
    endloop
  endfacet
  facet normal 0.923012 -0.382318 0.0433816
    outer loop
      vertex 19.5684 -3.81838 50
      vertex 23.5 0 0
      vertex 21.15 0 50
    endloop
  endfacet
  facet normal 0 0 1
    outer loop
      vertex 19.5684 3.81838 50
      vertex 20.654 0 50
      vertex 21.15 0 50
    endloop
  endfacet
  facet normal 0.923012 0.382318 0.0433816
    outer loop
      vertex 19.5684 3.81838 50
      vertex 21.15 0 50
      vertex 23.5 0 0
    endloop
  endfacet
  facet normal 0.923007 0.382331 0.0433802
    outer loop
      vertex 19.5684 3.81838 50
      vertex 23.5 0 0
      vertex 21.7426 4.24264 0
    endloop
  endfacet
  facet normal -0.92282 -0.383303 -0.0385111
    outer loop
      vertex 19.5717 0 50
      vertex 21.6339 0.0587442 0
      vertex 21.6583 0 0
    endloop
  endfacet
  facet normal -0.92282 0.383303 -0.0385111
    outer loop
      vertex 19.5717 0 50
      vertex 21.6583 0 0
      vertex 21.6339 -0.0587442 0
    endloop
  endfacet
  facet normal 0 0 -1
    outer loop
      vertex 19.8113 -3.11127 0
      vertex 20.4403 -0.0489535 0
      vertex 21.1 0 0
    endloop
  endfacet
  facet normal 0 0 -1
    outer loop
      vertex 19.8113 3.11127 0
      vertex 21.1 0 0
      vertex 20.4403 0.0489535 0
    endloop
  endfacet
  facet normal 0.9231 -0.382349 0.0411703
    outer loop
      vertex 20.07 0 50
      vertex 20.777 -3.67696 0
      vertex 22.3 0 0
    endloop
  endfacet
  facet normal 0.9231 0.382349 0.0411703
    outer loop
      vertex 20.07 0 50
      vertex 22.3 0 0
      vertex 20.777 3.67696 0
    endloop
  endfacet
  facet normal 0 0 -1
    outer loop
      vertex 20.2551 -3.38758 0
      vertex 21.6339 -0.0587442 0
      vertex 20.777 -3.67696 0
    endloop
  endfacet
  facet normal 0 0 -1
    outer loop
      vertex 20.2551 3.38758 0
      vertex 20.777 3.67696 0
      vertex 21.6339 0.0587442 0
    endloop
  endfacet
  facet normal 0 0 -1
    outer loop
      vertex 20.4403 -0.0489535 0
      vertex 20.4606 0 0
      vertex 21.1 0 0
    endloop
  endfacet
  facet normal 0 0 -1
    outer loop
      vertex 20.4403 0.0489535 0
      vertex 21.1 0 0
      vertex 20.4606 0 0
    endloop
  endfacet
  facet normal -0.923059 -0.382504 -0.0406515
    outer loop
      vertex 20.654 0 50
      vertex 22.8276 0.068535 0
      vertex 22.856 0 0
    endloop
  endfacet
  facet normal -0.923059 0.382504 -0.0406515
    outer loop
      vertex 20.654 0 50
      vertex 22.856 0 0
      vertex 22.8276 -0.068535 0
    endloop
  endfacet
  facet normal 0 0 -1
    outer loop
      vertex 20.777 -3.67696 0
      vertex 21.6339 -0.0587442 0
      vertex 22.3 0 0
    endloop
  endfacet
  facet normal 0 0 -1
    outer loop
      vertex 20.777 3.67696 0
      vertex 22.3 0 0
      vertex 21.6339 0.0587442 0
    endloop
  endfacet
  facet normal 0 0 -1
    outer loop
      vertex 21.1504 -3.98057 0
      vertex 21.2189 -3.95218 0
      vertex 21.7426 -4.24264 0
    endloop
  endfacet
  facet normal 0 0 -1
    outer loop
      vertex 21.1504 3.98057 0
      vertex 21.7426 4.24264 0
      vertex 21.2189 3.95218 0
    endloop
  endfacet
  facet normal 0 0 -1
    outer loop
      vertex 21.2189 -3.95218 0
      vertex 22.8276 -0.068535 0
      vertex 21.7426 -4.24264 0
    endloop
  endfacet
  facet normal 0 0 -1
    outer loop
      vertex 21.2189 3.95218 0
      vertex 21.7426 4.24264 0
      vertex 22.8276 0.068535 0
    endloop
  endfacet
  facet normal 0 0 -1
    outer loop
      vertex 21.6339 -0.0587442 0
      vertex 21.6583 0 0
      vertex 22.3 0 0
    endloop
  endfacet
  facet normal 0 0 -1
    outer loop
      vertex 21.6339 0.0587442 0
      vertex 22.3 0 0
      vertex 21.6583 0 0
    endloop
  endfacet
  facet normal 0 0 -1
    outer loop
      vertex 21.7426 -4.24264 0
      vertex 22.8276 -0.068535 0
      vertex 23.5 0 0
    endloop
  endfacet
  facet normal 0 0 -1
    outer loop
      vertex 21.7426 4.24264 0
      vertex 23.5 0 0
      vertex 22.8276 0.068535 0
    endloop
  endfacet
  facet normal 0 0 -1
    outer loop
      vertex 22.8276 -0.068535 0
      vertex 22.856 0 0
      vertex 23.5 0 0
    endloop
  endfacet
  facet normal 0 0 -1
    outer loop
      vertex 22.8276 0.068535 0
      vertex 23.5 0 0
      vertex 22.856 0 0
    endloop
  endfacet
endsolid OpenSCAD_Model
